<?xml version="1.0" encoding="utf-8"?>
<!-- Generator: Adobe Illustrator 17.0.0, SVG Export Plug-In . SVG Version: 6.00 Build 0)  -->
<!DOCTYPE svg PUBLIC "-//W3C//DTD SVG 1.1//EN" "http://www.w3.org/Graphics/SVG/1.1/DTD/svg11.dtd">
<svg version="1.1" id="Fames" xmlns="http://www.w3.org/2000/svg" xmlns:xlink="http://www.w3.org/1999/xlink" x="0px" y="0px"
	 width="128px" height="128px" viewBox="0 0 128 128" enable-background="new 0 0 128 128" xml:space="preserve">
<g>
	<g>
		<path fill="#FFFFFF" d="M50.78,74.492c-5.875,0-10.911-5.036-10.911-10.911s5.036-10.911,10.911-10.911
			s10.911,5.036,10.911,10.911S56.656,74.492,50.78,74.492z M50.78,58.964c-2.518,0-4.616,2.098-4.616,4.616
			c0,2.518,2.098,4.616,4.616,4.616c2.518,0,4.616-2.098,4.616-4.616C55.397,61.062,53.298,58.964,50.78,58.964z"/>
	</g>
	<g>
		<path fill="#FFFFFF" d="M23.921,102.61c-5.875,0-10.911-5.036-10.911-10.911c0-5.875,5.036-10.911,10.911-10.911
			s10.911,5.036,10.911,10.911C35.252,97.574,30.216,102.61,23.921,102.61z M23.921,86.662c-2.518,0-4.616,2.098-4.616,4.616
			c0,2.518,2.098,4.616,4.616,4.616s4.616-2.098,4.616-4.616C28.957,88.761,26.859,86.662,23.921,86.662z"/>
	</g>
	<g>
		<path fill="#FFFFFF" d="M77.22,102.61c-5.875,0-10.911-5.036-10.911-10.911c0-5.875,5.036-10.911,10.911-10.911
			c5.875,0,10.911,5.036,10.911,10.911C88.131,97.574,83.095,102.61,77.22,102.61z M77.22,86.662c-2.518,0-4.616,2.098-4.616,4.616
			c0,2.518,2.098,4.616,4.616,4.616c2.518,0,4.616-2.098,4.616-4.616C81.836,88.761,79.738,86.662,77.22,86.662z"/>
	</g>
	<g>
		<path fill="#FFFFFF" d="M103.659,74.492c-5.875,0-10.911-5.036-10.911-10.911s5.036-10.911,10.911-10.911
			c5.875,0,10.911,5.036,10.911,10.911S109.534,74.492,103.659,74.492z M103.659,58.964c-2.518,0-4.616,2.098-4.616,4.616
			c0,2.518,2.098,4.616,4.616,4.616s4.616-2.098,4.616-4.616C108.275,61.062,106.177,58.964,103.659,58.964z"/>
	</g>
	<g>
		
			<rect x="34.321" y="66.16" transform="matrix(-0.6923 -0.7216 0.7216 -0.6923 7.339 158.5304)" fill="#FFFFFF" width="6.295" height="23.082"/>
	</g>
	<g>
		
			<rect x="86.446" y="65.96" transform="matrix(-0.6923 -0.7216 0.7216 -0.6923 95.6935 195.8067)" fill="#FFFFFF" width="6.295" height="23.082"/>
	</g>
	<g>
		
			<rect x="105.761" y="74.196" transform="matrix(-0.6923 -0.7216 0.7216 -0.6923 141.9895 215.2325)" fill="#FFFFFF" width="22.242" height="6.295"/>
	</g>
	<g>
		
			<rect x="52.346" y="74.588" transform="matrix(-0.6922 -0.7217 0.7217 -0.6922 52.0079 177.6519)" fill="#FFFFFF" width="23.082" height="6.295"/>
	</g>
	<g>
		
			<rect x="0.01" y="75.101" transform="matrix(-0.6922 -0.7217 0.7217 -0.6922 -38.3453 140.1434)" fill="#FFFFFF" width="21.403" height="6.295"/>
	</g>
	<g>
		<path fill="#FFFFFF" d="M128,113.941H0V14.059h128V113.941z M6.295,107.646h115.41V20.354H6.295V107.646z"/>
	</g>
	<g>
		<rect x="13.849" y="29.587" fill="#FFFFFF" width="27.698" height="6.295"/>
	</g>
	<g>
		<rect x="13.849" y="40.079" fill="#FFFFFF" width="20.144" height="6.295"/>
	</g>
</g>
</svg>
