<?xml version="1.0" encoding="utf-8"?>
<!-- Generator: Adobe Illustrator 17.0.0, SVG Export Plug-In . SVG Version: 6.00 Build 0)  -->
<!DOCTYPE svg PUBLIC "-//W3C//DTD SVG 1.1//EN" "http://www.w3.org/Graphics/SVG/1.1/DTD/svg11.dtd">
<svg version="1.1" id="Fames" xmlns="http://www.w3.org/2000/svg" xmlns:xlink="http://www.w3.org/1999/xlink" x="0px" y="0px"
	 width="128px" height="128px" viewBox="0 0 128 128" enable-background="new 0 0 128 128" xml:space="preserve">
<path fill="#FFFFFF" d="M126.02,89.043c-0.942,2.186-2.602,2.931-4.962,2.92c-14.27-0.068-28.541-0.033-42.812-0.033
	c-0.714,0-1.427,0-2.258,0c0.2,2.862,0.463,5.603,0.565,8.35c0.137,3.685,1.856,6.27,5.085,7.962
	c1.24,0.649,2.418,1.417,3.608,2.158c0.367,0.229,0.755,0.492,1,0.834c0.688,0.959,0.239,1.837-0.951,1.858
	c-1.843,0.034-3.688,0.013-5.532,0.013c-11.866-0.001-23.731-0.001-35.597-0.007c-0.697,0-1.576,0.218-1.811-0.733
	c-0.227-0.919,0.409-1.478,1.136-1.913c1.58-0.947,3.165-1.887,4.737-2.846c2.427-1.482,3.758-3.643,3.971-6.484
	c0.225-2.995,0.449-5.991,0.688-9.19c-0.559,0-1.058,0-1.556,0c-14.511,0-29.023-0.033-43.533,0.033
	c-2.358,0.011-4.026-0.723-4.961-2.92c0-23.738,0-47.476,0-71.214c0.853-1.867,2.166-2.908,4.357-2.906
	c37.955,0.027,75.911,0.032,113.866-0.014c2.359-0.003,4.02,0.73,4.958,2.92C126.02,41.567,126.02,65.305,126.02,89.043z
	 M8.697,20.771c0,21.193,0,42.294,0,63.368c37.223,0,74.361,0,111.488,0c0-21.166,0-42.239,0-63.368
	C83.013,20.771,45.904,20.771,8.697,20.771z"/>
<path fill="#2C4FF9" d="M90.17,33.868c0,2.232,0,4.388,0,6.543c-0.001,4.086-0.021,8.173,0.019,12.259
	c0.005,0.559,0.191,1.189,0.49,1.66c3.009,4.728,6.059,9.43,9.097,14.14c0.345,0.535,0.683,1.075,1.023,1.611
	c-4.829,3.244-13.456,3.879-20.248-0.679c-6.972-4.679-10.207-13.407-7.91-21.519C74.864,40.032,82.165,34.132,90.17,33.868z"/>
<path fill="#2C4FF9" d="M109.551,42.715c5.486,8.406,3.278,21.369-5.628,27.436c-3.339-5.175-6.678-10.348-10.1-15.653
	C99.088,50.554,104.316,46.637,109.551,42.715z"/>
<path fill="#2C4FF9" d="M56.731,37.098c-3.045,3.454-5.849,6.635-8.653,9.815c-1.007,1.142-2.004,2.293-3.025,3.422
	c-0.873,0.965-1.447,1.025-2.461,0.22c-3.075-2.44-6.136-4.899-9.203-7.349c-0.433-0.346-0.87-0.686-1.354-1.067
	c-4.15,3.907-8.261,7.778-12.374,11.648c-0.379,0.357-0.742,0.737-1.155,1.05c-0.63,0.476-1.291,0.454-1.828-0.141
	c-0.539-0.597-0.509-1.265,0.058-1.826c1.025-1.015,2.085-1.994,3.135-2.983c3.529-3.325,7.06-6.648,10.589-9.972
	c1.291-1.216,1.591-1.235,2.95-0.15c3.378,2.699,6.752,5.401,10.192,8.152c3.767-4.279,7.486-8.503,11.427-12.98
	c-1.724,0-3.142-0.022-4.558,0.008c-0.951,0.02-1.703-0.213-1.809-1.291c-0.086-0.874,0.619-1.39,1.829-1.392
	c2.364-0.005,4.728-0.006,7.092,0.005c1.441,0.007,1.818,0.397,1.824,1.88c0.009,2.364-0.017,4.729,0.013,7.092
	c0.012,0.967-0.252,1.693-1.314,1.792c-0.86,0.08-1.363-0.638-1.372-1.854C56.724,39.943,56.731,38.71,56.731,37.098z"/>
<path fill="#2C4FF9" d="M51.35,60.528c0-3.365-0.004-6.731,0.002-10.096c0.003-1.653,0.386-2.021,2.074-2.025
	c1.402-0.003,2.805-0.011,4.207,0.004c1.294,0.013,1.765,0.454,1.767,1.71c0.011,6.931,0.012,13.862,0.005,20.793
	c-0.001,1.305-0.437,1.752-1.704,1.767c-1.562,0.019-3.125,0.019-4.687-0.001c-1.196-0.015-1.645-0.461-1.651-1.696
	c-0.018-3.485-0.006-6.971-0.006-10.457C51.354,60.528,51.352,60.528,51.35,60.528z"/>
<path fill="#2C4FF9" d="M92.867,51.923c0-6.694,0-13.134,0-19.669c6.265,0.547,11.284,3.224,15.322,8.187
	C103.097,44.257,98.059,48.033,92.867,51.923z"/>
<path fill="#2C4FF9" d="M36.057,62.579c0,2.763,0.009,5.526-0.003,8.289c-0.006,1.387-0.41,1.797-1.773,1.81
	c-1.562,0.016-3.124-0.005-4.685,0.006c-1.035,0.007-1.588-0.494-1.59-1.52C27.992,65.438,27.99,59.712,28,53.985
	c0.002-1.028,0.574-1.521,1.601-1.516c1.602,0.008,3.204-0.012,4.805,0.006c1.199,0.014,1.64,0.463,1.646,1.695
	C36.067,56.973,36.057,59.776,36.057,62.579z"/>
<path fill="#2C4FF9" d="M39.656,64.61c0-2.082-0.007-4.163,0.003-6.245c0.007-1.443,0.399-1.823,1.869-1.831
	c1.521-0.008,3.043,0.021,4.563-0.009c1.104-0.021,1.666,0.51,1.67,1.575c0.016,4.323,0.011,8.646-0.002,12.97
	c-0.003,1.063-0.546,1.622-1.643,1.615c-1.601-0.011-3.203,0.014-4.803-0.008c-1.187-0.017-1.644-0.492-1.653-1.702
	C39.645,68.853,39.656,66.732,39.656,64.61z"/>
<path fill="#2C4FF9" d="M16.312,66.536c0-1.439,0.013-2.879-0.004-4.318c-0.013-1.085,0.478-1.646,1.579-1.645
	c1.639,0.001,3.279,0.007,4.918-0.003c1.114-0.007,1.602,0.591,1.605,1.642c0.007,2.959,0.008,5.918-0.007,8.877
	c-0.005,1.067-0.55,1.611-1.647,1.599c-1.599-0.017-3.199,0.013-4.798-0.01c-1.184-0.017-1.632-0.488-1.645-1.703
	c-0.016-1.479-0.004-2.959-0.004-4.438C16.309,66.536,16.311,66.536,16.312,66.536z"/>
</svg>
