<?xml version="1.0" encoding="utf-8"?>
<!-- Generator: Adobe Illustrator 17.0.0, SVG Export Plug-In . SVG Version: 6.00 Build 0)  -->
<!DOCTYPE svg PUBLIC "-//W3C//DTD SVG 1.1//EN" "http://www.w3.org/Graphics/SVG/1.1/DTD/svg11.dtd">
<svg version="1.1" id="Fames" xmlns="http://www.w3.org/2000/svg" xmlns:xlink="http://www.w3.org/1999/xlink" x="0px" y="0px"
	 width="128px" height="128px" viewBox="0 0 128 128" enable-background="new 0 0 128 128" xml:space="preserve">
<g>
	<path fill="#FFFFFF" d="M121.365,66.753l-8.181-1.524l-4.86-0.905c0.025-0.149,0.039-0.317,0.029-0.504l-0.088-1.573
		c-0.165-2.956-0.336-6.012-0.543-9.022c-0.088-1.287-1.191-2.305-2.184-2.609c-4.833-1.481-9.751-2.966-14.506-4.402
		c-1.34-0.405-2.68-0.809-4.019-1.214c-2.656-0.803-5.313-1.607-7.969-2.411c-3.834-1.161-7.668-2.322-11.504-3.479
		c-3.066-0.925-6.132-1.847-9.199-2.77c-3.226-0.97-6.451-1.94-9.676-2.913c-3.383-1.021-6.764-2.045-10.146-3.07
		c-3.512-1.064-7.024-2.127-10.538-3.188c-1.147-0.346-2.318-0.685-3.45-1.012c-0.532-0.154-1.067-0.308-1.606-0.465
		c-0.2-0.058-0.405-0.087-0.608-0.087c-0.407,0-0.81,0.115-1.159,0.335c-0.258-0.101-0.527-0.153-0.795-0.153
		c-0.524,0-1.041,0.19-1.447,0.551c-0.065,0.058-0.121,0.104-0.17,0.144c-0.17,0.141-0.403,0.333-0.624,0.626
		c-1.076,1.434-2.15,2.869-3.224,4.304c-1.66,2.218-3.377,4.513-5.072,6.761c-0.886,1.176-1.812,2.363-2.706,3.512
		c-0.416,0.534-0.833,1.069-1.247,1.605c-0.295,0.381-0.454,0.849-0.454,1.33V70.52c0,0.749,0.386,1.445,1.021,1.843
		c0.351,0.22,0.751,0.331,1.152,0.331c0.199,0,0.397-0.031,0.59-0.085c0.287,0.204,0.622,0.344,0.986,0.389
		c0.032,0.004,0.065,0.009,0.097,0.013c0.117,0.016,0.262,0.037,0.433,0.049c1.596,0.11,3.191,0.222,4.787,0.334
		c3.84,0.27,7.797,0.547,11.718,0.796c-0.578,0.713-0.698,1.581-0.693,2.186c0.04,4.988,0.041,10.216,0.003,15.537
		c-0.008,1.092,0.362,2.968,2.925,3.261c2.848,0.325,5.746,0.688,8.549,1.038c1.425,0.178,2.849,0.357,4.275,0.531
		c1.005,0.123,1.991,0.229,3.034,0.34c0.474,0.051,0.954,0.102,1.443,0.156c0.08,0.009,0.159,0.013,0.238,0.013
		c0.532,0,1.049-0.196,1.45-0.554c0.46-0.412,0.723-1.001,0.723-1.619v-0.408l0-0.729c0-1.098,0.002-2.196,0.003-3.294
		c0.004-2.818,0.008-5.721-0.013-8.6c0.751-0.081,1.495-0.174,2.222-0.264c0.558-0.07,1.135-0.142,1.697-0.206
		c0.323-0.037,0.647-0.072,0.975-0.106v14.771c0,1.098,0.819,2.024,1.909,2.157l18.267,2.236l14.521,1.778
		c0.088,0.011,0.176,0.016,0.264,0.016c0.366,0,0.724-0.094,1.042-0.269c0.296,0.145,0.623,0.223,0.957,0.223
		c0.053,0,0.107-0.002,0.161-0.006c0.111-0.008,0.212-0.015,0.308-0.021c0.227-0.014,0.442-0.028,0.679-0.056
		c1.851-0.223,3.702-0.446,5.554-0.67c3.567-0.431,7.255-0.877,10.882-1.306c1.411-0.167,2.855-0.32,4.251-0.468
		c1.137-0.121,2.312-0.245,3.471-0.377c1.377-0.157,2.77-0.331,4.116-0.499c0.605-0.075,1.21-0.151,1.815-0.225
		c1.09-0.134,1.909-1.059,1.909-2.157V68.89C123.14,67.843,122.394,66.945,121.365,66.753z M27.353,29.25
		c6.896,2.081,13.788,4.175,20.683,6.257c6.29,1.899,12.585,3.785,18.875,5.683c6.492,1.959,12.981,3.928,19.471,5.89
		c6.174,1.866,12.351,3.724,18.518,5.613c0.27,0.083,0.635,0.434,0.652,0.681c0.241,3.515,0.43,7.034,0.629,10.552l-15.79-2.94
		c-0.132-0.025-0.265-0.037-0.398-0.037c-0.354,0-0.702,0.088-1.015,0.254c-0.016,0-0.031,0.001-0.047,0.001
		c-0.292-0.14-0.612-0.213-0.938-0.213c-0.105,0-0.21,0.008-0.315,0.023c-0.086,0.013-0.159,0.022-0.222,0.031
		c-0.149,0.02-0.289,0.039-0.45,0.072c-1.308,0.263-2.616,0.526-3.925,0.789c-3.307,0.664-6.727,1.351-10.09,2.038
		c-5.437,1.11-10.873,2.223-16.309,3.336c-0.527,0.108-1.054,0.216-1.581,0.324c-0.657-0.075-1.314-0.151-1.97-0.227
		c-0.122-0.213-0.277-0.409-0.471-0.574c-0.546-0.466-1.163-0.729-1.886-0.805c-1.553-0.163-3.106-0.325-4.659-0.486
		c-1.325-0.138-2.649-0.275-3.974-0.414c-1.537-0.161-3.074-0.323-4.611-0.484c-4.89-0.514-9.944-1.045-14.923-1.555
		c0.003-0.087,0.006-0.173,0.006-0.263c-0.04-8.581-0.038-17.31-0.035-25.75c0.001-2.701,0.002-5.402,0.001-8.103
		c0-0.249-0.014-0.478-0.028-0.721c-0.006-0.11-0.014-0.229-0.02-0.364c0-0.005-0.002-0.01-0.002-0.015
		C24.162,28.315,25.762,28.769,27.353,29.25z M11.563,39.483c2.776-3.682,5.531-7.381,8.299-11.069
		c0.067-0.089,0.159-0.164,0.282-0.266v35.258c-0.001,0.001-0.003,0.001-0.004,0.002c-2.834,1.251-5.684,2.538-8.342,3.742
		c-0.778,0.353-1.555,0.721-2.306,1.077c-0.341,0.162-0.683,0.324-1.024,0.484c-0.365,0.172-0.662,0.434-0.875,0.749
		c0-8.28,0-16.56,0-24.84C8.917,42.909,10.26,41.211,11.563,39.483z M11.538,71.009c0.042-0.021,0.085-0.041,0.127-0.062
		c2.722-1.334,5.536-2.714,8.319-4.014c0.628-0.293,1.136-0.645,1.534-1.061c0.182,0.072,0.377,0.121,0.58,0.141
		c0.261,0.026,0.516,0.051,0.767,0.076c0.519,0.05,1.01,0.098,1.496,0.154c2.79,0.322,5.579,0.645,8.369,0.967
		c5.097,0.589,10.314,1.193,15.528,1.793c-1.916,0.392-3.833,0.785-5.749,1.176c-3.277,0.669-6.729,1.372-10.235,2.076
		c-0.353,0.025-0.708,0.036-1.066,0.036c-1.221,0-2.461-0.122-3.677-0.197C22.198,71.765,16.869,71.381,11.538,71.009z
		 M55.206,96.244c0-5.706,0-11.361,0-17.175c-1.213,0.125-2.305,0.227-3.394,0.351c-1.618,0.184-3.23,0.419-4.851,0.562
		c-0.749,0.066-1.01,0.315-1.002,1.106c0.041,4.284,0.018,8.57,0.018,12.854c0,0.326,0,0.651,0,1.137
		c-1.547-0.171-3.001-0.316-4.451-0.494c-4.28-0.524-8.557-1.083-12.841-1.572c-0.76-0.087-1.004-0.297-0.998-1.086
		c0.037-5.19,0.038-10.38-0.003-15.57c-0.006-0.79,0.293-1.029,0.988-1.167c1.29-0.256,2.58-0.517,3.87-0.775
		c0.419-0.033,0.817-0.083,1.199-0.149c4.069-0.71,8.163-1.569,12.122-2.4c1.449-0.304,2.947-0.619,4.419-0.92
		c0.392-0.08,0.751-0.178,1.098-0.273c0.139-0.038,0.277-0.076,0.416-0.112c0.131-0.034,0.254-0.083,0.373-0.139
		c1.01-0.207,2.019-0.413,3.029-0.62c0.028,0.003,0.057,0.007,0.086,0.01c0.229,0.026,0.464,0.04,0.698,0.04
		c0.418,0,0.833-0.041,1.235-0.123c9.878-2.003,20.092-4.074,30.229-6.169c0.128-0.027,0.252-0.049,0.375-0.069v36.723
		c0,0.008,0.001,0.016,0.001,0.025C76.947,98.905,66.128,97.581,55.206,96.244z M120.967,96.6c-1.971,0.242-3.94,0.497-5.913,0.722
		c-2.576,0.293-5.156,0.542-7.731,0.846c-5.482,0.647-10.96,1.318-16.441,1.976c-0.22,0.026-0.444,0.038-0.715,0.056v-36.74
		c0.1,0.017,0.199,0.036,0.299,0.058c1.398,0.309,2.81,0.561,4.176,0.804c0.588,0.105,1.175,0.209,1.762,0.319l6.391,1.191
		l2.883,0.537c0.134,0.025,0.267,0.037,0.399,0.037c0.268,0,0.53-0.051,0.773-0.144c4.709,0.877,9.413,1.753,14.116,2.629
		C120.967,78.126,120.967,87.363,120.967,96.6z"/>
	<path fill="#FFFFFF" d="M103.761,73.199c-1.647-0.193-3.287-0.445-4.931-0.665c-1.725-0.23-3.451-0.45-5.307-0.691
		c0,1.773,0,3.394,0,5.016c0,6.79-0.003,13.58,0.004,20.37c0,0.399-0.172,0.908,0.463,0.908c0.063,0,0.133-0.005,0.212-0.015
		c3.199-0.423,6.405-0.797,9.61-1.172c0.515-0.06,0.719-0.258,0.718-0.802c-0.014-7.363-0.014-14.727,0-22.09
		C104.531,73.486,104.327,73.266,103.761,73.199z M102.354,94.932c-2.194,0.257-4.43,0.522-6.656,0.805
		c-0.004-5.019-0.004-10.094-0.003-15.017l0-3.86l0-2.544c0.969,0.125,1.905,0.247,2.846,0.373c0.58,0.077,1.159,0.159,1.739,0.241
		c0.68,0.096,1.375,0.193,2.074,0.285C102.343,81.914,102.343,88.535,102.354,94.932z"/>
	<path fill="#FFFFFF" d="M119.152,94.296c-0.026-2.354-0.011-4.709-0.011-7.063c0-3.682,0.01-7.365-0.02-11.047
		c-0.003-0.314-0.226-0.856-0.43-0.898c-1.017-0.214-2.062-0.297-3.138-0.431c0,6.938,0,13.764,0,20.673
		c1.018-0.131,1.938-0.281,2.864-0.358C119.008,95.122,119.158,94.854,119.152,94.296z"/>
	<path fill="#FFFFFF" d="M106.365,73.591c0,7.751,0,15.358,0,23.032c0.366-0.034,0.663-0.054,0.958-0.091
		c1.794-0.222,3.584-0.488,5.383-0.652c0.776-0.071,0.986-0.349,0.981-1.117c-0.034-5.516-0.018-11.033-0.018-16.55
		c0-0.995,0.032-1.991-0.022-2.983c-0.013-0.247-0.275-0.66-0.47-0.69C110.949,74.194,108.712,73.908,106.365,73.591z
		 M108.676,94.167c-0.046,0.006-0.092,0.012-0.138,0.018V76.075c1.009,0.135,1.991,0.27,2.967,0.412
		c0.001,0.293-0.002,0.592-0.005,0.898c-0.002,0.276-0.005,0.553-0.005,0.829c0,1.326-0.001,2.653-0.002,3.979
		c-0.003,3.81-0.005,7.739,0.014,11.625C110.551,93.921,109.602,94.046,108.676,94.167z"/>
	<path fill="#FFFFFF" d="M54.407,47.118c-3.217-0.78-6.42-1.621-9.628-2.44c-1.977-0.505-3.955-1.008-6.123-1.561
		c0,2.483-0.021,4.796,0.037,7.107c0.005,0.202,0.515,0.514,0.826,0.568c4.952,0.87,9.913,1.695,14.865,2.565
		c0.121,0.021,0.225,0.032,0.313,0.032c0.381,0,0.486-0.205,0.478-0.694c-0.025-1.536-0.028-3.074,0.003-4.61
		C55.191,47.502,55.005,47.263,54.407,47.118z M52.985,50.907c-1.916-0.333-3.839-0.662-5.713-0.982
		c-2.11-0.361-4.282-0.732-6.432-1.107c-0.013-0.955-0.015-1.918-0.015-2.905c1.162,0.296,2.289,0.583,3.416,0.871
		c0.843,0.215,1.685,0.432,2.527,0.648c2.037,0.524,4.134,1.063,6.223,1.577C52.985,49.626,52.982,50.257,52.985,50.907z"/>
	<path fill="#FFFFFF" d="M40.266,41.656c4.522,1.163,9.049,2.306,13.576,3.45c0.4,0.101,0.81,0.159,1.216,0.237
		c0.321-1.837,0.29-1.878-1.308-2.322c-3.888-1.08-7.774-2.172-11.662-3.252c-1.09-0.303-2.186-0.58-3.281-0.87
		C38.338,40.926,38.471,41.194,40.266,41.656z"/>
</g>
</svg>
