<?xml version="1.0" encoding="utf-8"?>
<!-- Generator: Adobe Illustrator 17.0.0, SVG Export Plug-In . SVG Version: 6.00 Build 0)  -->
<!DOCTYPE svg PUBLIC "-//W3C//DTD SVG 1.1//EN" "http://www.w3.org/Graphics/SVG/1.1/DTD/svg11.dtd">
<svg version="1.1" id="Fames" xmlns="http://www.w3.org/2000/svg" xmlns:xlink="http://www.w3.org/1999/xlink" x="0px" y="0px"
	 width="128px" height="128px" viewBox="0 0 128 128" enable-background="new 0 0 128 128" xml:space="preserve">
<g>
	<polygon fill="none" points="0,74.196 71.761,32.493 128,64.963 56.239,106.666 	"/>
	<path fill="none" d="M96.977,75.899C85.147,75.903,73.318,75.9,61.488,75.9c-11.723,0-23.446,0.002-35.169-0.001
		c-5.469-0.001-9.058-3.602-9.058-9.086c0-0.065,0-0.13,0-0.195L4.22,74.197l52.005,30.025l67.555-39.259l-17.851-10.307
		c0,4.089,0.001,8.178,0,12.267C105.928,72.263,102.305,75.897,96.977,75.899z"/>
	<path fill="none" d="M26.419,72.49c11.722,0.001,23.443,0,35.165,0c11.793,0,23.585,0.002,35.378-0.001
		c3.464-0.001,5.556-2.104,5.557-5.583c0.001-4.739,0-9.479,0-14.218l-3.483-2.011c0,1.563,0,3.131,0,4.713
		c-1.126,0-2.177,0-3.281,0c0-2.209,0-4.406,0-6.607l-3.514-2.029c0,7.421,0,14.838,0,22.27c-19.285,0-38.521,0-57.843,0
		c0-4.119,0-8.241,0-12.364l-13.726,7.976c0,0.712,0,1.424,0,2.137C20.672,70.458,22.715,72.489,26.419,72.49z"/>
	<path fill="none" d="M37.769,31.624c0,6.886,0,13.751,0,20.623l33.992-19.754l17.029,9.832c0-3.57,0-7.137,0-10.701
		C71.74,31.624,54.777,31.624,37.769,31.624z"/>
	<path fill="none" d="M37.769,54.7c0,3.627,0,7.255,0,10.892c17.08,0,34.068,0,51.022,0c0-6.969,0-13.907,0-20.83l-17.016-9.824
		L37.769,54.7z"/>
	<path fill="none" d="M34.397,28.23c19.236,0,38.497,0,57.843,0c0,5.372,0,10.73,0,16.086l3.514,2.029c0-1.482,0-2.967,0-4.462
		c1.053,0,2.129,0,3.281,0c0,2.11,0,4.228,0,6.357l3.483,2.011c0-6.596,0.001-13.192,0-19.788c-0.001-3.69-2.038-5.716-5.746-5.717
		c-23.479-0.001-46.957-0.001-70.436,0c-3.616,0-5.664,2.057-5.664,5.69c-0.001,10.582-0.001,21.165,0,31.747l13.726-7.976
		C34.397,45.568,34.397,36.915,34.397,28.23z M27.422,52.026c-1.849-0.036-3.348-1.575-3.339-3.428
		c0.009-1.895,1.581-3.425,3.481-3.389c1.855,0.035,3.345,1.565,3.336,3.425C30.891,50.53,29.319,52.063,27.422,52.026z"/>
	<path fill="#FFFFFF" d="M88.79,65.592c-16.954,0-33.942,0-51.022,0c0-3.637,0-7.265,0-10.892l-3.371,1.959
		c0,4.124,0,8.245,0,12.364c19.321,0,38.558,0,57.843,0c0-7.433,0-14.849,0-22.27l-3.45-1.992
		C88.79,51.685,88.79,58.623,88.79,65.592z"/>
	<path fill="#FFFFFF" d="M37.769,31.624c17.008,0,33.971,0,51.022,0c0,3.563,0,7.131,0,10.701l3.45,1.992c0-5.356,0-10.715,0-16.086
		c-19.345,0-38.607,0-57.843,0c0,8.685,0,17.337,0,25.976l3.371-1.959C37.769,45.376,37.769,38.51,37.769,31.624z"/>
	<g>
		<path fill="#FFFFFF" d="M105.929,52.22c0-7.248,0.001-14.496,0-21.744c-0.001-5.558-3.57-9.14-9.112-9.14
			c-23.517-0.002-47.034-0.002-70.551,0c-5.397,0-9.003,3.617-9.004,9.03c-0.002,12.149-0.002,24.298,0,36.448
			c0.001,5.485,3.59,9.085,9.058,9.086C38.043,75.902,49.766,75.9,61.488,75.9c11.829,0,23.659,0.003,35.488-0.001
			c5.328-0.002,8.951-3.636,8.952-8.976c0.001-4.089,0-8.178,0-12.267l17.851,10.307l-67.555,39.259L4.22,74.197l13.042-7.579
			c0-0.818,0-1.635,0-2.453L0,74.196l56.239,32.47L128,64.963L105.929,52.22z M102.518,66.906c-0.001,3.478-2.093,5.582-5.557,5.583
			c-11.793,0.003-23.585,0.001-35.378,0.001c-11.722,0-23.443,0.001-35.165,0c-3.704,0-5.747-2.032-5.747-5.717
			c-0.001-12.112-0.001-24.225,0-36.337c0-3.632,2.048-5.69,5.664-5.69c23.479-0.001,46.957-0.001,70.436,0
			c3.708,0,5.746,2.027,5.746,5.717C102.52,42.61,102.52,54.758,102.518,66.906z"/>
		<path fill="#FFFFFF" d="M34.397,69.024c19.321,0,38.558,0,57.843,0c0-13.609,0-27.163,0-40.794c-19.345,0-38.607,0-57.843,0
			C34.397,41.884,34.397,55.463,34.397,69.024z M62.145,65.592c-5.224,0-10.455,0-15.693,0l0.041-14.309l1.219,0.704l14.448,8.342
			L62.145,65.592z M47.68,49.228l15.553-9.039l15.668,9.046l-10.399,6.043l-5.154,2.995L47.68,49.228z M80.035,65.592
			c-5.168,0-10.339,0-15.517,0l0.015-5.264l15.542-9.032L80.035,65.592z M88.79,65.592c-2.126,0-4.255,0-6.382,0l0.046-16.357
			l-0.592-0.342l-0.001-0.689L65.35,38.672l6.425-3.734l17.016,9.824C88.79,51.685,88.79,58.623,88.79,65.592z M37.769,31.624
			c17.008,0,33.971,0,51.022,0c0,3.563,0,7.131,0,10.701l-17.029-9.832l-9.121,5.3l-0.005,0L44.717,48.206v0.003l-6.949,4.038
			C37.769,45.376,37.769,38.51,37.769,31.624z M37.769,54.7l6.353-3.692L44.08,65.592c-2.104,0-4.205,0-6.312,0
			C37.769,61.956,37.769,58.327,37.769,54.7z"/>
		<path fill="#FFFFFF" d="M95.754,55.39c1.105,0,2.155,0,3.281,0c0-4.568,0-9.051,0-13.507c-1.152,0-2.229,0-3.281,0
			C95.754,46.427,95.754,50.884,95.754,55.39z"/>
		<path fill="#FFFFFF" d="M27.564,45.209c-1.9-0.036-3.472,1.494-3.481,3.389c-0.009,1.853,1.49,3.392,3.339,3.428
			c1.896,0.037,3.469-1.496,3.478-3.392C30.91,46.774,29.419,45.244,27.564,45.209z"/>
	</g>
</g>
</svg>
