<?xml version="1.0" encoding="utf-8"?>
<!-- Generator: Adobe Illustrator 17.0.0, SVG Export Plug-In . SVG Version: 6.00 Build 0)  -->
<!DOCTYPE svg PUBLIC "-//W3C//DTD SVG 1.1//EN" "http://www.w3.org/Graphics/SVG/1.1/DTD/svg11.dtd">
<svg version="1.1" id="Fames" xmlns="http://www.w3.org/2000/svg" xmlns:xlink="http://www.w3.org/1999/xlink" x="0px" y="0px"
	 width="128px" height="128px" viewBox="0 0 128 128" enable-background="new 0 0 128 128" xml:space="preserve">
<g>
	<path fill="#FFFFFF" d="M124.536,70.942c0.125-2.298,0.189-4.62-0.013-6.906c-0.096-1.085-0.797-2.155-1.372-3.146
		c-0.383-0.662-1.063-1.146-1.537-1.766c-0.202-0.266-0.366-0.71-0.293-1.012c0.548-2.292,0.463-2.526-1.631-3.538
		c0.536-0.896,1.111-1.763,1.59-2.681c0.723-1.384,0.013-3.03-1.458-3.045c-3.128-0.035-6.261,0.116-9.386,0.286
		c-0.35,0.019-0.982,0.716-0.928,0.985c0.086,0.421,0.594,0.839,1.024,1.078c0.298,0.166,0.765,0.023,1.156,0.023
		c2.431-0.001,4.861,0,7.321,0c-1.33,3.211-2.051,3.791-4.72,3.66c-0.51-0.025-1.027-0.17-1.516-0.331
		c-3.3-1.089-6.62-2.123-9.883-3.313c-10.817-3.943-21.94-5.949-33.477-5.647c-3.809,0.1-7.577,0.353-11.12,1.834
		c-6.132,2.563-12.22,5.227-18.328,7.844c-0.476,0.203-0.951,0.487-1.451,0.549c-5.173,0.638-10.346,1.287-15.531,1.839
		c-3.592,0.382-7.105,0.857-9.733,3.725c-0.221,0.241-0.585,0.37-0.903,0.497c-2.43,0.967-4.387,2.566-6.281,4.345
		c-1.797,1.688-2.466,3.555-2.07,5.962c0.164,0.995,0.254,2.189-0.142,3.053c-1.021,2.226-0.552,3.265,1.93,3.372
		c5.212,0.227,10.426,0.392,15.637,0.626c0.565,0.025,1.203,0.218,1.66,0.54c4.125,2.919,9.19,2.632,12.966-0.722
		c0.43-0.382,1.13-0.624,1.712-0.642c3.131-0.09,6.264-0.087,9.396-0.121c13.573-0.142,27.148-0.296,40.721-0.399
		c0.558-0.004,1.275,0.312,1.653,0.722c5.058,5.485,12.802,5.021,17.203-1.046c0.26-0.357,0.786-0.67,1.223-0.728
		c4.135-0.548,8.278-1.02,12.416-1.545C122.945,74.971,124.396,73.523,124.536,70.942z M29.115,79.638
		c-4.31,0.031-7.741-3.387-7.799-7.766c-0.057-4.3,3.329-7.812,7.562-7.847c4.476-0.036,8.063,3.34,8.104,7.625
		C37.023,76.125,33.596,79.607,29.115,79.638z M97.672,80.166c-4.649-0.068-8.383-3.863-8.312-8.445
		c0.074-4.748,3.859-8.287,8.779-8.206c4.354,0.071,8.118,4.065,8.008,8.495C106.033,76.561,102.216,80.232,97.672,80.166z
		 M122.521,68.212c-0.119,4.512-0.225,4.859-4.48,5.223c-3.24,0.276-6.464,0.76-9.802,1.165c0.311-8.874-3.917-13.923-11.282-13.508
		c-3.528,0.199-6.281,1.92-8.206,4.871c-1.933,2.964-2.054,6.19-0.995,9.839c-16.569,0.161-32.965,0.321-49.504,0.481
		c1.86-5.371,0.937-9.838-3.763-13.017c-3.413-2.308-7.854-2.09-11.164,0.272c-2.145,1.532-3.51,3.608-4.036,6.184
		c-0.511,2.507-0.042,4.906,1.322,7.469c-4.958-0.235-9.588-0.456-14.228-0.677c-0.119-2.087-0.277-4.029-0.314-5.973
		c-0.01-0.562,0.171-1.268,0.529-1.673c1.881-2.128,3.933-4.061,6.686-5.061c0.479-0.174,1.004-0.415,1.335-0.781
		c2.059-2.273,4.782-2.829,7.645-3.138c5.484-0.591,10.965-1.224,16.443-1.871c0.543-0.064,1.073-0.32,1.587-0.539
		c6.512-2.771,12.968-5.684,19.557-8.256c2.29-0.895,4.897-1.236,7.381-1.338c8.143-0.335,16.286-0.078,24.187,2.151
		c6.223,1.756,12.359,3.822,18.5,5.857c2.251,0.746,4.463,1.384,6.864,1.124c0.771-0.084,1.56-0.013,2.318-0.013
		c0.061,0.119,0.147,0.224,0.125,0.257c-0.838,1.3-0.465,2.35,0.685,3.204C122.587,62.447,122.598,65.269,122.521,68.212z"/>
	<path fill="#FFFFFF" d="M93.611,52.492c-1.343-0.497-2.664-1.078-4.039-1.454c-0.487-0.134-1.403,0.055-1.606,0.401
		c-0.434,0.739,0.247,1.128,0.912,1.371c1.098,0.401,2.19,0.819,3.284,1.229c0,0.07,0,0.138,0.001,0.208
		c-2.55,0.174-5.098,0.372-7.649,0.521c-9.497,0.555-18.995,1.092-28.493,1.641c-2.601,0.151-5.204,0.302-7.802,0.51
		c-0.423,0.033-0.893,0.288-1.201,0.585c-0.147,0.141-0.074,0.821,0.093,0.914c0.418,0.237,0.953,0.405,1.429,0.381
		c5.032-0.261,10.063-0.561,15.092-0.86c6.634-0.395,13.267-0.802,19.901-1.2c3.165-0.19,6.332-0.359,9.495-0.565
		c1.047-0.068,1.844-0.546,2.027-1.672C95.24,53.379,94.548,52.839,93.611,52.492z"/>
</g>
</svg>
