<?xml version="1.0" encoding="utf-8"?>
<!-- Generator: Adobe Illustrator 17.0.0, SVG Export Plug-In . SVG Version: 6.00 Build 0)  -->
<!DOCTYPE svg PUBLIC "-//W3C//DTD SVG 1.1//EN" "http://www.w3.org/Graphics/SVG/1.1/DTD/svg11.dtd">
<svg version="1.1" id="Fames" xmlns="http://www.w3.org/2000/svg" xmlns:xlink="http://www.w3.org/1999/xlink" x="0px" y="0px"
	 width="128px" height="128px" viewBox="0 0 128 128" enable-background="new 0 0 128 128" xml:space="preserve">
<g>
	<path fill="#FFFFFF" d="M64.658,0.444C99.969,0.47,128.59,29.12,128.59,64.44c-0.001,35.368-28.708,64.044-64.073,64.005
		C29.137,128.405,0.54,99.71,0.59,64.301C0.639,29.005,29.321,0.418,64.658,0.444z M5.207,64.409
		c-0.005,32.732,26.543,59.344,59.276,59.417c32.744,0.074,59.472-26.593,59.49-59.355c0.018-32.769-26.641-59.42-59.426-59.411
		C31.836,5.07,5.212,31.699,5.207,64.409z"/>
	<g>
		<path fill="#FFFFFF" d="M32.795,44.556c7.036,0.007,14.072-0.013,21.107,0.046c1.35,0.011,2.742,0.168,4.036,0.536
			c3.613,1.029,5.556,3.619,6.263,7.213c0.321,1.634,0.409,3.29,0.098,4.936c-0.55,2.918-2.259,4.799-5.217,5.603
			c0.114,0.07,0.167,0.13,0.225,0.135c3.202,0.309,5.06,2.196,5.824,5.178c0.853,3.329,0.709,6.675-0.597,9.865
			c-1.501,3.667-4.472,5.499-8.281,6.098c-0.67,0.105-1.359,0.127-2.04,0.128c-7.14,0.009-14.279,0.006-21.418,0.006
			C32.795,71.052,32.795,57.804,32.795,44.556z M40.773,78.294c0.104,0.02,0.163,0.04,0.222,0.04c4.035,0,8.07,0.045,12.104-0.018
			c3.106-0.048,5.031-1.847,5.473-4.926c0.47-3.268-1.111-5.835-4.165-6.68c-0.669-0.185-1.384-0.277-2.079-0.283
			c-3.621-0.027-7.242-0.013-10.863-0.013c-0.222,0-0.443,0-0.692,0C40.773,70.402,40.773,74.325,40.773,78.294z M40.766,60.454
			c0.245,0,0.428,0,0.612,0c3.329,0,6.658,0.002,9.986-0.001c1.651-0.001,2.943-0.858,3.569-2.395
			c0.58-1.425,0.627-2.904,0.265-4.38c-0.513-2.092-1.925-3.16-4.076-3.16c-3.225,0-6.451,0-9.676,0c-0.22,0-0.439,0-0.68,0
			C40.766,53.854,40.766,57.113,40.766,60.454z"/>
		<path fill="#FFFFFF" d="M96.384,73.619c-0.137,0.686-0.239,1.383-0.419,2.058c-0.793,2.973-2.623,5.149-5.33,6.527
			c-4.946,2.517-10.066,2.834-15.237,0.783c-3.29-1.305-5.5-3.772-6.718-7.077c-1.914-5.192-1.412-10.225,1.33-14.986
			c2.231-3.874,5.783-5.787,10.143-6.293c2.678-0.311,5.335-0.168,7.913,0.682c4.241,1.399,6.635,4.468,7.672,8.692
			c0.265,1.079,0.359,2.2,0.534,3.301c0.032,0.201,0.074,0.4,0.112,0.6c0,0.828,0,1.656,0,2.484c-6.609,0-13.219,0-19.871,0
			c0.022,1.964,0.281,3.801,1.404,5.374c1.469,2.058,3.494,2.915,6.001,2.435c2.348-0.449,3.688-1.975,4.273-4.226
			c0.133-0.512,0.203-1.04,0.309-1.595c2.637,0,5.261,0,7.884,0C96.384,72.791,96.384,73.205,96.384,73.619z M88.453,66.39
			c-0.17-2.165-0.777-4.092-2.762-5.145c-2.226-1.181-4.563-1.183-6.73,0.179c-1.775,1.116-2.329,2.935-2.456,4.966
			C80.502,66.39,84.424,66.39,88.453,66.39z"/>
		<path fill="#FFFFFF" d="M74.554,52.461c0-1.317,0-2.592,0-3.898c5.275,0,10.521,0,15.819,0c0,1.275,0,2.565,0,3.898
			C85.128,52.461,79.866,52.461,74.554,52.461z"/>
	</g>
</g>
</svg>
