<?xml version="1.0" encoding="utf-8"?>
<!-- Generator: Adobe Illustrator 17.0.0, SVG Export Plug-In . SVG Version: 6.00 Build 0)  -->
<!DOCTYPE svg PUBLIC "-//W3C//DTD SVG 1.1//EN" "http://www.w3.org/Graphics/SVG/1.1/DTD/svg11.dtd">
<svg version="1.1" id="Fames" xmlns="http://www.w3.org/2000/svg" xmlns:xlink="http://www.w3.org/1999/xlink" x="0px" y="0px"
	 width="128px" height="128px" viewBox="0 0 128 128" enable-background="new 0 0 128 128" xml:space="preserve">
<g>
	<path fill="#FFFFFF" d="M-0.075,85.095c0.471-2.625,0.719-5.314,1.447-7.866C8.458,52.395,15.624,27.584,22.77,2.767
		c0.705-2.448,2.099-3.229,4.516-2.511C41.13,4.368,54.971,8.49,68.816,12.598c1.174,0.348,2.362,0.667,3.562,0.912
		c2.202,0.45,3.415,2.197,4.926,3.584c9.371,8.604,18.761,17.188,28.169,25.752c0.603,0.549,1.411,0.874,2.126,1.299
		c0.108,0.065,0.267,0.081,0.336,0.171c1.302,1.696,3.214,3.054,3.027,5.577c-0.032,0.434,0.147,0.908,0.317,1.329
		c5.426,13.476,10.864,26.947,16.299,40.419c1.014,2.513,0.541,3.63-1.973,4.67c-23.71,9.805-47.469,19.494-71.111,29.459
		c-14.015,5.907-29.108-0.433-35.481-13.06c-0.255-0.506-0.795-0.997-1.319-1.219C6.977,106.949,0.201,96.768-0.075,85.095z
		 M27.692,6.032c-0.148,0.445-0.264,0.759-0.357,1.079C20.436,30.898,13.55,54.688,6.631,78.468
		c-1.065,3.662-1.399,7.353-0.714,11.098c2.053,11.227,11.766,19.904,24.819,18.05c9.249-1.314,15.45-6.822,18.113-15.824
		c5.7-19.268,11.228-38.587,16.826-57.885c1.441-4.969,2.884-9.937,4.423-15.241C56.013,14.257,41.871,10.332,27.692,6.032z
		 M106.951,54.916c-4.517,5.058-8.878,9.944-13.24,14.828c-12.017,13.455-23.94,26.996-36.092,40.328
		c-5.657,6.206-12.877,9.328-21.413,8.871c-1.835-0.098-3.654-0.474-5.839-0.771c0.587,0.43,0.872,0.666,1.183,0.862
		c6.868,4.332,14.052,4.664,21.458,1.603c22.536-9.313,45.062-18.651,67.591-27.982c0.421-0.174,0.831-0.376,1.273-0.576
		C116.894,79.68,111.957,67.384,106.951,54.916z M33.764,113.097c0.751,0.083,1.501,0.216,2.254,0.24
		c7.008,0.224,12.916-2.217,17.596-7.451c16.595-18.562,33.167-37.143,49.745-55.72c0.242-0.271,0.444-0.576,0.696-0.906
		c-9.796-8.904-19.518-17.742-29.353-26.683c-0.169,0.541-0.3,0.93-0.414,1.324c-6.61,22.944-13.223,45.887-19.823,68.834
		c-1.839,6.394-5.406,11.586-10.727,15.568C40.743,110.545,37.388,112.045,33.764,113.097z"/>
	<path fill="#FFFFFF" d="M21.458,87.498c-0.015-3.202,2.456-5.787,5.528-5.783c3.175,0.004,5.732,2.564,5.754,5.759
		c0.021,3.204-2.425,5.741-5.544,5.748C23.979,93.23,21.472,90.729,21.458,87.498z"/>
</g>
</svg>
