<?xml version="1.0" encoding="utf-8"?>
<!-- Generator: Adobe Illustrator 17.0.0, SVG Export Plug-In . SVG Version: 6.00 Build 0)  -->
<!DOCTYPE svg PUBLIC "-//W3C//DTD SVG 1.1//EN" "http://www.w3.org/Graphics/SVG/1.1/DTD/svg11.dtd">
<svg version="1.1" id="Fames" xmlns="http://www.w3.org/2000/svg" xmlns:xlink="http://www.w3.org/1999/xlink" x="0px" y="0px"
	 width="128px" height="128px" viewBox="0 0 128 128" enable-background="new 0 0 128 128" xml:space="preserve">
<g>
	<path fill="#FFFFFF" d="M105.856,59.379c0.086-1.582,0.13-3.181-0.009-4.755c-0.066-0.747-0.549-1.484-0.945-2.166
		c-0.264-0.456-0.732-0.789-1.058-1.216c-0.139-0.183-0.252-0.489-0.202-0.697c0.377-1.578,0.319-1.739-1.123-2.436
		c0.369-0.617,0.765-1.214,1.095-1.846c0.498-0.953,0.009-2.086-1.004-2.097c-2.154-0.024-4.311,0.08-6.463,0.197
		c-0.241,0.013-0.676,0.493-0.639,0.678c0.059,0.29,0.409,0.578,0.705,0.742c0.205,0.114,0.527,0.016,0.796,0.016
		c1.674-0.001,3.347,0,5.041,0c-0.916,2.211-1.412,2.61-3.25,2.52c-0.351-0.017-0.707-0.117-1.044-0.228
		c-2.272-0.75-4.558-1.462-6.805-2.281c-7.448-2.715-15.107-4.096-23.051-3.888c-2.623,0.069-5.217,0.243-7.657,1.263
		c-4.222,1.765-8.414,3.599-12.62,5.401c-0.328,0.14-0.655,0.335-0.999,0.378C43.062,49.403,39.5,49.85,35.93,50.23
		c-2.473,0.263-4.892,0.59-6.702,2.565c-0.152,0.166-0.403,0.255-0.622,0.342c-1.673,0.666-3.021,1.767-4.325,2.992
		c-1.237,1.162-1.698,2.448-1.425,4.105c0.113,0.685,0.175,1.507-0.098,2.102c-0.703,1.533-0.38,2.248,1.329,2.322
		c3.589,0.156,7.179,0.27,10.767,0.431c0.389,0.017,0.828,0.15,1.143,0.372c2.84,2.01,6.328,1.812,8.928-0.497
		c0.296-0.263,0.778-0.43,1.179-0.442c2.156-0.062,4.313-0.06,6.47-0.083c9.346-0.098,18.693-0.204,28.039-0.275
		c0.384-0.003,0.878,0.215,1.138,0.497c3.483,3.777,8.815,3.457,11.845-0.72c0.179-0.246,0.541-0.461,0.842-0.501
		c2.847-0.377,5.7-0.702,8.549-1.064C104.76,62.153,105.759,61.156,105.856,59.379z M40.153,65.367
		c-2.968,0.021-5.33-2.332-5.37-5.347c-0.039-2.961,2.292-5.379,5.207-5.403c3.082-0.025,5.552,2.3,5.58,5.25
		C45.598,62.948,43.238,65.345,40.153,65.367z M87.358,65.73c-3.201-0.047-5.772-2.66-5.723-5.815
		c0.051-3.269,2.657-5.706,6.045-5.65c2.998,0.049,5.59,2.799,5.514,5.849C93.115,63.248,90.487,65.776,87.358,65.73z
		 M104.468,57.499c-0.082,3.107-0.155,3.346-3.085,3.596c-2.231,0.19-4.451,0.523-6.749,0.802c0.214-6.11-2.697-9.587-7.768-9.301
		c-2.429,0.137-4.325,1.322-5.65,3.354c-1.331,2.041-1.414,4.262-0.685,6.775c-11.409,0.111-22.698,0.221-34.086,0.331
		c1.281-3.698,0.645-6.774-2.591-8.963c-2.35-1.589-5.408-1.439-7.687,0.187c-1.477,1.055-2.417,2.484-2.779,4.258
		c-0.352,1.726-0.029,3.378,0.91,5.143c-3.414-0.162-6.602-0.314-9.797-0.466c-0.082-1.437-0.191-2.774-0.216-4.113
		c-0.007-0.387,0.118-0.873,0.364-1.152c1.295-1.465,2.708-2.796,4.604-3.485c0.33-0.12,0.691-0.286,0.919-0.538
		c1.418-1.565,3.293-1.948,5.264-2.161c3.776-0.407,7.55-0.843,11.322-1.288c0.374-0.044,0.739-0.22,1.093-0.371
		c4.484-1.908,8.929-3.914,13.466-5.685c1.577-0.616,3.372-0.851,5.082-0.921c5.607-0.231,11.214-0.054,16.654,1.481
		c4.285,1.209,8.51,2.632,12.738,4.033c1.55,0.514,3.073,0.953,4.726,0.774c0.531-0.058,1.074-0.009,1.596-0.009
		c0.042,0.082,0.101,0.154,0.086,0.177c-0.577,0.895-0.32,1.618,0.472,2.206C104.514,53.53,104.521,55.473,104.468,57.499z"/>
	<path fill="#FFFFFF" d="M84.562,46.675c-0.925-0.342-1.834-0.742-2.781-1.001c-0.335-0.092-0.966,0.038-1.106,0.276
		c-0.299,0.509,0.17,0.777,0.628,0.944c0.756,0.276,1.508,0.564,2.261,0.846c0,0.048,0,0.095,0.001,0.143
		c-1.756,0.12-3.51,0.256-5.267,0.359c-6.539,0.382-13.079,0.752-19.619,1.13c-1.791,0.104-3.583,0.208-5.372,0.351
		c-0.291,0.023-0.615,0.198-0.827,0.403c-0.101,0.097-0.051,0.565,0.064,0.629c0.288,0.163,0.656,0.279,0.984,0.262
		c3.465-0.18,6.929-0.386,10.392-0.592c4.568-0.272,9.135-0.552,13.703-0.826c2.179-0.131,4.36-0.247,6.538-0.389
		c0.721-0.047,1.27-0.376,1.396-1.151C85.684,47.286,85.207,46.914,84.562,46.675z"/>
	<path fill="#FFFFFF" d="M122.674,19.612H6.425c-1.675,0-3.038,1.363-3.038,3.038v74.414c0,1.675,1.363,3.038,3.038,3.038h116.249
		c1.675,0,3.038-1.363,3.038-3.038V22.65C125.712,20.975,124.349,19.612,122.674,19.612z M123.185,97.064
		c0,0.282-0.229,0.512-0.512,0.512H6.425c-0.282,0-0.512-0.229-0.512-0.512V22.65c0-0.282,0.229-0.512,0.512-0.512h116.249
		c0.282,0,0.512,0.23,0.512,0.512V97.064z"/>
	<path fill="#FFFFFF" d="M89.27,106.069H39.829c-0.698,0-1.263,0.566-1.263,1.263c0,0.698,0.566,1.263,1.263,1.263H89.27
		c0.698,0,1.263-0.566,1.263-1.263C90.533,106.635,89.967,106.069,89.27,106.069z"/>
	<path fill="#FFFFFF" d="M47.636,78.567H34.724c-1.47,0-2.667,1.196-2.667,2.667v6.175c0,1.47,1.196,2.667,2.667,2.667h12.912
		c1.47,0,2.667-1.196,2.667-2.667v-6.175C50.303,79.764,49.107,78.567,47.636,78.567z M48.899,87.41
		c0,0.697-0.567,1.263-1.263,1.263H34.724c-0.697,0-1.263-0.567-1.263-1.263v-6.175c0-0.697,0.567-1.263,1.263-1.263h12.912
		c0.697,0,1.263,0.567,1.263,1.263V87.41z"/>
	<path fill="#FFFFFF" d="M71.04,78.567H58.128c-1.47,0-2.667,1.196-2.667,2.667v6.175c0,1.47,1.196,2.667,2.667,2.667H71.04
		c1.47,0,2.667-1.196,2.667-2.667v-6.175C73.707,79.764,72.511,78.567,71.04,78.567z M72.303,87.41c0,0.697-0.567,1.263-1.263,1.263
		H58.128c-0.697,0-1.263-0.567-1.263-1.263v-6.175c0-0.697,0.567-1.263,1.263-1.263H71.04c0.697,0,1.263,0.567,1.263,1.263V87.41z"
		/>
	<path fill="#FFFFFF" d="M94.444,78.567H81.532c-1.47,0-2.667,1.196-2.667,2.667v6.175c0,1.47,1.196,2.667,2.667,2.667h12.912
		c1.47,0,2.667-1.196,2.667-2.667v-6.175C97.111,79.764,95.915,78.567,94.444,78.567z M95.707,87.41
		c0,0.697-0.567,1.263-1.263,1.263H81.532c-0.697,0-1.263-0.567-1.263-1.263v-6.175c0-0.697,0.567-1.263,1.263-1.263h12.912
		c0.697,0,1.263,0.567,1.263,1.263V87.41z"/>
	<path fill="#FFFFFF" d="M25.21,78.777c-0.217-0.126-0.485-0.126-0.702,0l-8.552,4.938c-0.217,0.125-0.351,0.357-0.351,0.608
		s0.134,0.482,0.351,0.608l8.552,4.938c0.109,0.063,0.23,0.094,0.351,0.094s0.242-0.031,0.351-0.094
		c0.217-0.125,0.351-0.357,0.351-0.608v-9.875C25.561,79.133,25.427,78.902,25.21,78.777z M24.157,88.044l-6.447-3.722l6.447-3.722
		V88.044z"/>
	<path fill="#FFFFFF" d="M113.212,83.714l-8.552-4.938c-0.217-0.126-0.485-0.126-0.702,0c-0.217,0.125-0.351,0.357-0.351,0.608
		v9.875c0,0.251,0.134,0.482,0.351,0.608c0.109,0.063,0.23,0.094,0.351,0.094s0.242-0.031,0.351-0.094l8.552-4.938
		c0.217-0.125,0.351-0.357,0.351-0.608S113.429,83.839,113.212,83.714z M105.01,88.044V80.6l6.447,3.722L105.01,88.044z"/>
</g>
</svg>
