<?xml version="1.0" encoding="utf-8"?>
<!-- Generator: Adobe Illustrator 17.0.0, SVG Export Plug-In . SVG Version: 6.00 Build 0)  -->
<!DOCTYPE svg PUBLIC "-//W3C//DTD SVG 1.1//EN" "http://www.w3.org/Graphics/SVG/1.1/DTD/svg11.dtd">
<svg version="1.1" id="Fames" xmlns="http://www.w3.org/2000/svg" xmlns:xlink="http://www.w3.org/1999/xlink" x="0px" y="0px"
	 width="128px" height="128px" viewBox="0 0 128 128" enable-background="new 0 0 128 128" xml:space="preserve">
<g>
	<g>
		<path fill="#FFFFFF" d="M125.831,71.593H86.78c-1.199,0-2.169,0.971-2.169,2.169v49.898c0,1.198,0.97,2.169,2.169,2.169h39.051
			c1.199,0,2.169-0.971,2.169-2.169V73.763C128,72.565,127.03,71.593,125.831,71.593z M123.661,75.932v32.542H88.949V75.932H123.661
			z M88.949,121.492v-8.678h34.712v8.678H88.949z"/>
		<path fill="#FFFFFF" d="M75.932,110.644h-4.339V73.763c0-1.198-0.97-2.169-2.169-2.169H8.678c-1.199,0-2.169,0.971-2.169,2.169
			v36.881H2.169c-1.199,0-2.169,0.971-2.169,2.169v6.508c0,1.198,0.97,2.169,2.169,2.169h73.763c1.199,0,2.169-0.971,2.169-2.169
			v-6.508C78.102,111.616,77.131,110.644,75.932,110.644z M10.847,75.932h56.407v34.712H10.847V75.932z M73.763,117.153H4.339
			v-2.169h4.339h60.746h4.339V117.153z"/>
		<path fill="#FFFFFF" d="M13.017,58.576h26.034c1.199,0,2.169-0.971,2.169-2.169V10.847c0-1.198-0.97-2.169-2.169-2.169H13.017
			c-1.199,0-2.169,0.971-2.169,2.169v45.559C10.847,57.605,11.818,58.576,13.017,58.576z M15.186,54.237v-8.678h21.695v8.678H15.186
			z M36.881,13.017V41.22H15.186V13.017H36.881z"/>
		<circle fill="#FFFFFF" cx="26.034" cy="49.898" r="2.169"/>
		<path fill="#FFFFFF" d="M125.831,2.169H56.407c-1.199,0-2.169,0.971-2.169,2.169v47.518c0,1.198,0.97,2.169,2.169,2.169h32.542
			v6.719H75.932c-1.199,0-2.169,0.971-2.169,2.169c0,1.198,0.97,2.169,2.169,2.169h32.542c1.199,0,2.169-0.971,2.169-2.169
			c0-1.198-0.97-2.169-2.169-2.169H93.288v-6.719h32.542c1.199,0,2.169-0.971,2.169-2.169V4.339
			C128,3.141,127.03,2.169,125.831,2.169z M123.661,6.508v30.373H58.576V6.508H123.661z M58.576,49.687V41.22h65.085v8.467H58.576z"
			/>
		<circle fill="#FFFFFF" cx="91.119" cy="45.559" r="2.169"/>
		<circle fill="#FFFFFF" cx="106.305" cy="117.153" r="2.169"/>
	</g>
</g>
</svg>
