<?xml version="1.0" encoding="utf-8"?>
<!-- Generator: Adobe Illustrator 17.0.0, SVG Export Plug-In . SVG Version: 6.00 Build 0)  -->
<!DOCTYPE svg PUBLIC "-//W3C//DTD SVG 1.1//EN" "http://www.w3.org/Graphics/SVG/1.1/DTD/svg11.dtd">
<svg version="1.1" id="Fames" xmlns="http://www.w3.org/2000/svg" xmlns:xlink="http://www.w3.org/1999/xlink" x="0px" y="0px"
	 width="128px" height="128px" viewBox="0 0 128 128" enable-background="new 0 0 128 128" xml:space="preserve">
<g>
	<path fill="#FFFFFF" d="M99.459,81.48c0-3.993-3.247-7.24-7.239-7.24H92.08c-1-2.799-3.655-4.826-6.797-4.826
		c-0.148,0-0.277,0.061-0.419,0.084c-0.973-2.847-3.648-4.912-6.82-4.912c-0.85,0-1.654,0.174-2.413,0.449V50.109
		c0-3.992-3.247-7.239-7.239-7.239s-7.24,3.247-7.24,7.239v21.591l-0.764,0.255c-0.91,0.301-8.889,3.143-8.889,9.525
		c0,0.599-0.09,1.645-0.19,2.908c-0.441,5.482-0.715,10.215,0.424,12.609c1.681,3.531,7.371,9.789,9.419,11.985v8.697h4.826v-9.652
		c0-0.618-0.238-1.217-0.665-1.663c-2.102-2.206-7.855-8.564-9.222-11.435c-0.676-1.422-0.184-7.535,0.025-10.148
		c0.115-1.437,0.208-2.624,0.208-3.298c0-2.14,3.043-3.884,4.826-4.647v4.591c-0.002,0.067-0.096,1.57-1.706,3.178
		c-0.942,0.942-0.942,2.469,0,3.412c0.471,0.471,1.089,0.706,1.706,0.706s1.235-0.235,1.706-0.706
		c3.032-3.031,3.12-6.184,3.12-6.532V50.109c0-1.329,1.082-2.414,2.414-2.414c1.331,0,2.413,1.084,2.413,2.414v21.718v9.652
		c0,1.333,1.079,2.413,2.414,2.413c1.333,0,2.413-1.079,2.413-2.413v-9.652c0-1.329,1.082-2.414,2.413-2.414
		s2.414,1.084,2.414,2.414v9.652c0,1.333,1.079,2.413,2.414,2.413c1.333,0,2.413-1.079,2.413-2.413v-7.24
		c1.332,0,2.414,1.084,2.414,2.414v7.239c0,1.334,1.08,2.414,2.413,2.414c1.333,0,2.414-1.079,2.414-2.414v-4.765
		c1.182,0.156,2.111,1.14,2.116,2.479c0.184,3.469,0.547,13.168,0.028,16.377c-0.272,1.688-3.583,5.5-8.35,7.88
		c-0.817,0.41-1.333,1.244-1.333,2.159v9.652h4.825v-8.211c4.511-2.587,8.993-6.839,9.625-10.707
		C100.129,94.46,99.531,82.683,99.459,81.48z"/>
	<path fill="#FFFFFF" d="M121.48,11.5H6.05v89.286h42.282c-0.367-0.599-0.704-1.183-0.959-1.715c-0.441-0.929-0.74-1.97-0.94-3.111
		H10.876V16.325h105.778V95.96h-12.142c-0.061,1.371-0.165,2.611-0.32,3.578c-0.066,0.419-0.193,0.835-0.312,1.249h17.599V11.5
		H121.48z"/>
	<path fill="#FFFFFF" d="M68.392,38.043c-1.334,0-2.414-1.079-2.414-2.414v-9.652c0-1.333,1.079-2.413,2.414-2.413
		c1.333,0,2.413,1.079,2.413,2.413v9.652C70.804,36.964,69.725,38.043,68.392,38.043z"/>
	<path fill="#FFFFFF" d="M78.044,42.87c-0.618,0-1.234-0.235-1.706-0.706c-0.943-0.943-0.943-2.47,0-3.413l7.239-7.239
		c0.942-0.943,2.47-0.943,3.412,0c0.942,0.942,0.942,2.469,0,3.412l-7.239,7.24C79.279,42.634,78.662,42.87,78.044,42.87z"/>
	<path fill="#FFFFFF" d="M58.739,42.87c-0.618,0-1.235-0.235-1.706-0.706l-7.24-7.24c-0.942-0.943-0.942-2.47,0-3.412
		c0.943-0.943,2.47-0.943,3.412,0l7.24,7.239c0.942,0.943,0.942,2.469,0,3.413C59.973,42.634,59.356,42.87,58.739,42.87z"/>
	<path fill="#FFFFFF" d="M90.109,52.523H82.87c-1.334,0-2.414-1.08-2.414-2.414s1.079-2.414,2.414-2.414h7.239
		c1.333,0,2.414,1.08,2.414,2.414S91.442,52.523,90.109,52.523z"/>
	<path fill="#FFFFFF" d="M53.912,52.523h-7.24c-1.333,0-2.413-1.08-2.413-2.414s1.079-2.414,2.413-2.414h7.24
		c1.333,0,2.413,1.08,2.413,2.414S55.247,52.523,53.912,52.523z"/>
</g>
</svg>
