<?xml version="1.0" encoding="utf-8"?>
<!-- Generator: Adobe Illustrator 17.0.0, SVG Export Plug-In . SVG Version: 6.00 Build 0)  -->
<!DOCTYPE svg PUBLIC "-//W3C//DTD SVG 1.1//EN" "http://www.w3.org/Graphics/SVG/1.1/DTD/svg11.dtd">
<svg version="1.1" id="Fames" xmlns="http://www.w3.org/2000/svg" xmlns:xlink="http://www.w3.org/1999/xlink" x="0px" y="0px"
	 width="128px" height="128px" viewBox="0 0 128 128" enable-background="new 0 0 128 128" xml:space="preserve">
<g>
	<path fill="#FFFFFF" d="M128,15.252c0,32.5,0,65,0,97.5c-1.305,2.089-2.259,2.328-4.564,1.29c-1.629-0.734-3.282-1.427-4.963-2.03
		c-11.442-4.11-23.318-6.17-35.377-7.19c-18.762-1.587-37.456-1.068-55.998,2.465c-7.738,1.474-15.337,3.471-22.539,6.752
		c-2.296,1.046-3.266,0.801-4.559-1.287c0-32.5,0-65,0-97.5c1.283-2.089,2.23-2.268,4.558-1.316c3.149,1.288,6.323,2.557,9.57,3.559
		c11.79,3.638,23.921,5.339,36.206,6.074c17.354,1.038,34.608,0.312,51.694-3.082c7.352-1.46,14.569-3.409,21.418-6.532
		C125.73,12.914,126.708,13.165,128,15.252z M5.36,90.688c0.071,0.033,0.141,0.065,0.212,0.098c0.229-0.379,0.465-0.754,0.685-1.139
		c5.04-8.815,10.074-17.634,15.121-26.445c1.326-2.315,3.254-2.516,5.002-0.525c4.124,4.694,8.233,9.402,12.349,14.103
		c1.174,1.34,2.353,2.676,3.592,4.085c0.327-0.48,0.59-0.845,0.833-1.223c6.912-10.75,13.893-21.456,20.683-32.283
		c1.636-2.608,4.18-2.561,5.721,0.179c4.936,8.778,10.101,17.427,15.179,26.125c0.306,0.524,0.621,1.043,0.982,1.65
		c0.324-0.364,0.547-0.6,0.755-0.849c3.311-3.964,6.613-7.936,9.932-11.894c1.324-1.58,3.124-1.591,4.492-0.06
		c0.25,0.279,0.487,0.57,0.727,0.858c6.719,8.064,13.439,16.128,20.148,24.199c0.223,0.269,0.344,0.623,0.512,0.937
		c0.099-0.106,0.198-0.212,0.297-0.318c0-22.623,0-45.245,0-67.908c-0.226,0.041-0.351,0.044-0.461,0.086
		c-14.434,5.501-29.51,7.708-44.818,8.59c-12.536,0.722-25.064,0.477-37.558-0.922c-11.492-1.287-22.779-3.46-33.632-7.573
		c-0.218-0.083-0.456-0.112-0.752-0.182C5.36,43.808,5.36,67.248,5.36,90.688z M24.466,68.653c-0.288,0.471-0.529,0.843-0.749,1.227
		c-5.659,9.899-11.215,19.86-17.04,29.66c-1.603,2.697-1.269,5.349-1.344,8.233c19.04-7.042,38.705-9.073,58.666-9.074
		c19.96-0.001,39.622,2.037,58.614,9.051c0.027-0.501,0.068-0.902,0.069-1.304c0.005-2.75,0.061-5.501-0.037-8.247
		c-0.027-0.754-0.352-1.633-0.831-2.215c-5.239-6.369-10.534-12.692-15.816-19.026c-2.424-2.906-4.853-5.808-7.311-8.75
		c-0.265,0.288-0.469,0.492-0.653,0.712c-3.388,4.062-6.777,8.125-10.159,12.192c-1.862,2.24-3.753,2.1-5.215-0.406
		c-5.076-8.699-10.147-17.4-15.223-26.099c-0.26-0.446-0.548-0.876-0.889-1.419c-0.339,0.505-0.596,0.875-0.84,1.255
		c-6.78,10.537-13.558,21.076-20.338,31.614c-1.615,2.51-3.293,2.645-5.262,0.4c-4.918-5.605-9.823-11.22-14.735-16.83
		C25.105,69.323,24.821,69.034,24.466,68.653z"/>
	<path fill="#FFFFFF" d="M37.304,45.443c-0.05,5.882-4.831,10.591-10.72,10.558c-5.9-0.033-10.63-4.877-10.584-10.838
		c0.046-5.835,4.899-10.539,10.802-10.471C32.706,34.761,37.354,39.519,37.304,45.443z M31.998,45.328
		c-0.002-2.925-2.408-5.325-5.336-5.325c-2.911,0.001-5.348,2.433-5.343,5.334c0.005,2.901,2.452,5.342,5.353,5.339
		C29.578,50.674,32,48.242,31.998,45.328z"/>
</g>
</svg>
