<?xml version="1.0" encoding="utf-8"?>
<!-- Generator: Adobe Illustrator 17.0.0, SVG Export Plug-In . SVG Version: 6.00 Build 0)  -->
<!DOCTYPE svg PUBLIC "-//W3C//DTD SVG 1.1//EN" "http://www.w3.org/Graphics/SVG/1.1/DTD/svg11.dtd">
<svg version="1.1" id="Fames" xmlns="http://www.w3.org/2000/svg" xmlns:xlink="http://www.w3.org/1999/xlink" x="0px" y="0px"
	 width="128px" height="128px" viewBox="0 0 128 128" enable-background="new 0 0 128 128" xml:space="preserve">
<g>
	<path fill="#FFFFFF" d="M127.064,122.537L87.198,82.673c7.725-8.777,12.425-20.277,12.425-32.862C99.623,22.346,77.278,0,49.814,0
		C22.347,0,0,22.346,0,49.813s22.347,49.811,49.814,49.811c12.582,0,24.083-4.7,32.86-12.425l39.864,39.862
		c0.625,0.625,1.444,0.939,2.263,0.939c0.819,0,1.638-0.311,2.263-0.937C128.312,125.811,128.312,123.785,127.064,122.537z
		 M80.811,80.145c-0.13,0.096-0.282,0.147-0.401,0.267c-0.117,0.117-0.171,0.269-0.267,0.401
		c-7.831,7.665-18.532,12.412-30.332,12.412C25.875,93.223,6.4,73.749,6.4,49.813C6.4,25.875,25.875,6.4,49.814,6.4
		s43.411,19.473,43.411,43.411C93.223,61.611,88.478,72.314,80.811,80.145z"/>
	<path fill="#FFFFFF" d="M49.814,15.206c-1.766,0-3.2,1.431-3.2,3.2s1.434,3.2,3.2,3.2c15.552,0,28.205,12.653,28.205,28.205
		c0,1.769,1.434,3.2,3.2,3.2s3.2-1.431,3.2-3.2C84.416,30.731,68.894,15.206,49.814,15.206z"/>
</g>
</svg>
