<?xml version="1.0" encoding="utf-8"?>
<!-- Generator: Adobe Illustrator 17.0.0, SVG Export Plug-In . SVG Version: 6.00 Build 0)  -->
<!DOCTYPE svg PUBLIC "-//W3C//DTD SVG 1.1//EN" "http://www.w3.org/Graphics/SVG/1.1/DTD/svg11.dtd">
<svg version="1.1" id="Fames" xmlns="http://www.w3.org/2000/svg" xmlns:xlink="http://www.w3.org/1999/xlink" x="0px" y="0px"
	 width="128px" height="128px" viewBox="0 0 128 128" enable-background="new 0 0 128 128" xml:space="preserve">
<g>
	<path fill="#FFFFFF" d="M65.065-0.002c35.311,0.026,63.933,28.676,63.932,63.996c-0.001,35.368-28.708,64.044-64.073,64.005
		c-35.379-0.04-63.977-28.734-63.927-64.144C1.047,28.559,29.728-0.028,65.065-0.002z M5.614,63.963
		C5.609,96.695,32.157,123.306,64.89,123.38c32.744,0.074,59.472-26.593,59.49-59.355c0.018-32.769-26.641-59.42-59.426-59.411
		C32.243,4.624,5.619,31.253,5.614,63.963z"/>
	<path fill="#FFFFFF" d="M78.403,59.405c-0.323,2.959-0.576,5.65-0.959,8.321c-0.048,0.337-0.763,0.798-1.19,0.822
		c-1.708,0.096-3.427,0.103-5.136,0.023c-1.179-0.055-1.558,0.349-1.549,1.537c0.048,6.471,0.024,12.942,0.021,19.414
		c-0.001,1.91-0.006,1.913-1.85,1.918c-1.808,0.005-3.616,0.004-5.424,0c-1.902-0.004-1.909-0.007-1.91-1.859
		c-0.003-6.424-0.041-12.848,0.029-19.271c0.015-1.4-0.425-1.83-1.785-1.744c-1.659,0.105-3.33-0.008-4.994,0.034
		c-0.916,0.023-1.274-0.321-1.258-1.247c0.04-2.236,0.039-4.473,0-6.709c-0.016-0.924,0.338-1.272,1.256-1.249
		c1.712,0.042,3.429-0.057,5.137,0.031c1.231,0.064,1.657-0.315,1.646-1.597c-0.022-2.61-0.098-5.257,0.283-7.824
		c0.777-5.228,4.565-8.552,9.869-8.821c2.271-0.115,4.558,0.133,6.839,0.171c0.962,0.016,1.346,0.396,1.317,1.38
		c-0.056,1.854-0.04,3.711-0.008,5.566c0.015,0.853-0.329,1.186-1.178,1.191c-1.615,0.009-3.242-0.022-4.84,0.169
		c-2.032,0.243-2.974,1.274-3.086,3.285c-0.101,1.803-0.015,3.615-0.049,5.422c-0.015,0.842,0.418,1.046,1.157,1.038
		c1.951-0.02,3.902-0.004,5.853-0.003C77.105,59.405,77.618,59.405,78.403,59.405z"/>
</g>
</svg>
