<?xml version="1.0" encoding="utf-8"?>
<!-- Generator: Adobe Illustrator 17.0.0, SVG Export Plug-In . SVG Version: 6.00 Build 0)  -->
<!DOCTYPE svg PUBLIC "-//W3C//DTD SVG 1.1//EN" "http://www.w3.org/Graphics/SVG/1.1/DTD/svg11.dtd">
<svg version="1.1" id="Fames" xmlns="http://www.w3.org/2000/svg" xmlns:xlink="http://www.w3.org/1999/xlink" x="0px" y="0px"
	 width="128px" height="128px" viewBox="0 0 128 128" enable-background="new 0 0 128 128" xml:space="preserve">
<g>
	<path fill="#FFFFFF" d="M63.603,3.17c5.041,0,9.141,4.1,9.141,9.139s-4.101,9.139-9.141,9.139s-9.141-4.1-9.141-9.139
		C54.462,7.27,58.562,3.17,63.603,3.17 M63.603-1.399c-7.573,0-13.712,6.137-13.712,13.708c0,7.571,6.139,13.708,13.712,13.708
		c7.573,0,13.712-6.137,13.712-13.708C77.315,4.738,71.176-1.399,63.603-1.399L63.603-1.399z"/>
	<path fill="#FFFFFF" d="M111.595,30.606H15.611c-3.787,0-6.856,3.07-6.856,6.856s3.07,6.856,6.856,6.856h28.696
		c1.585,0,3.77,1.227,4.918,4.202c1.329,3.444,0.677,9.521-0.154,14.696l-1.121,6.073c-0.005,0.03-0.059,0.029-0.059,0.058
		l-9.207,49.203c-0.658,3.728,1.853,7.283,5.582,7.941c0.402,0.071,0.812,0.105,1.205,0.105c3.244,0,5.975-2.34,6.562-5.667
		l5.856-34.263v0.047c0,0,2.071-8.972,5.557-8.972h0.313c3.557,0,4.985,8.972,4.985,8.972V86.69l6.137,34.25
		c0.586,3.326,3.523,5.661,6.788,5.661c0.396,0,0.816-0.035,1.219-0.105c3.729-0.658,6.234-4.216,5.576-7.945l-9.241-49.207
		c-0.001-0.002,0.003-0.006,0.003-0.008c-0.005-0.03-0.009-0.062-0.015-0.092l-1.077-6.116c-0.831-5.176-1.482-11.165-0.154-14.608
		c1.148-2.975,3.476-4.202,4.918-4.202h28.696c3.787,0,6.856-3.07,6.856-6.856S115.382,30.606,111.595,30.606z M15.611,39.78
		c-1.26,0-2.285-1.042-2.285-2.302c0-1.26,1.025-2.302,2.285-2.302h95.985c1.26,0,2.285,1.026,2.285,2.285s-1.025,2.285-2.285,2.285
		H82.6c-4.439,0-7.838,4.21-8.851,6.834c-1.384,3.587-1.429,9.125-0.111,17.337l-0.003,0.03l0.002,0.031l0.962,5.467l0.161,0.926
		l9.213,49.029c0.143,0.81-0.177,1.417-0.381,1.707c-0.204,0.291-0.667,0.8-1.479,0.943c-0.136,0.024-0.273,0.036-0.408,0.036
		c-1.112,0-2.059-0.754-2.252-1.849l-6.065-34.212h-0.004c-0.077-0.571-0.522-2.871-1.435-5.362
		c-0.651-1.776-1.384-3.152-2.241-4.286c-2.026-2.682-4.353-3.206-5.949-3.206h-0.313c-1.563,0-3.857,0.494-5.916,3.125
		c-0.871,1.113-1.637,2.477-2.34,4.228c-1.036,2.582-1.573,5.043-1.631,5.317l-0.031,0.105l-5.921,34.252
		c-0.198,1.11-1.071,1.884-2.126,1.884c-0.131,0-0.266-0.012-0.401-0.036c-0.811-0.143-1.273-0.65-1.475-0.939
		c-0.203-0.289-0.521-0.896-0.378-1.707l9.215-49.01l0.001-0.005l0.05-0.265l1.078-6.093l0.006-0.036l0.006-0.036
		c1.322-8.236,1.293-13.798-0.095-17.395c-1.012-2.623-3.878-6.781-9.073-6.781"/>
</g>
</svg>
