<?xml version="1.0" encoding="utf-8"?>
<!-- Generator: Adobe Illustrator 17.0.0, SVG Export Plug-In . SVG Version: 6.00 Build 0)  -->
<!DOCTYPE svg PUBLIC "-//W3C//DTD SVG 1.1//EN" "http://www.w3.org/Graphics/SVG/1.1/DTD/svg11.dtd">
<svg version="1.1" id="Fames" xmlns="http://www.w3.org/2000/svg" xmlns:xlink="http://www.w3.org/1999/xlink" x="0px" y="0px"
	 width="128px" height="128px" viewBox="0 0 128 128" enable-background="new 0 0 128 128" xml:space="preserve">
<path fill="#FFFFFF" d="M128,61.25c0,1.917,0,3.833,0,5.75c-0.084,0.404-0.22,0.804-0.245,1.211
	c-0.669,10.723-3.81,20.686-9.627,29.697c-10.631,16.467-25.657,26.324-45.083,29.339c-2.006,0.311-4.03,0.505-6.045,0.753
	c-2,0-4,0-6,0c-0.154-0.06-0.304-0.157-0.462-0.174c-2.192-0.232-4.405-0.335-6.576-0.694c-14.089-2.335-26.161-8.598-36.05-18.906
	c-9.441-9.84-15.189-21.541-17.15-35.063C0.465,71.115,0.252,69.055,0,67c0-2,0-4,0-6c0.092-0.526,0.2-1.049,0.272-1.578
	c0.379-2.8,0.562-5.641,1.151-8.395c3.309-15.461,11.249-28.069,23.743-37.745C33.963,6.47,43.916,2.295,54.95,0.752
	C56.963,0.47,58.983,0.249,61,0c2,0,4,0,6,0c0.528,0.092,1.053,0.233,1.585,0.268c6.187,0.399,12.176,1.717,17.96,3.93
	c12.498,4.78,22.564,12.699,30.161,23.698c5.645,8.172,9.184,17.202,10.534,27.062C127.527,57.05,127.749,59.152,128,61.25z
	 M122.796,61.476c0.074-0.211,0.129-0.29,0.125-0.366c-0.432-8.727-2.682-16.958-6.803-24.662c-0.194-0.363-0.818-0.694-1.248-0.702
	c-3.287-0.058-6.577-0.011-9.865-0.048c-0.812-0.009-1.124,0.267-1.343,1.065c-1.034,3.752-3.271,6.613-6.733,8.415
	c-0.877,0.457-1.052,0.96-0.928,1.86c0.299,2.182,0.547,4.373,0.731,6.567c0.217,2.6,0.344,5.207,0.514,7.871
	C105.807,61.476,114.28,61.476,122.796,61.476z M97.322,66.526c-0.057,0.177-0.116,0.289-0.126,0.405
	c-0.411,4.804-0.796,9.611-1.244,14.412c-0.074,0.796,0.277,1.085,0.887,1.405c3.499,1.838,5.793,4.691,6.821,8.494
	c0.244,0.903,0.652,1.068,1.469,1.059c3.163-0.037,6.327-0.047,9.49,0.006c0.88,0.015,1.316-0.295,1.716-1.066
	c3.169-6.111,5.21-12.576,6.143-19.387c0.239-1.747,0.321-3.515,0.48-5.326C114.269,66.526,105.796,66.526,97.322,66.526z
	 M61.489,35.796c-0.335-0.037-0.536-0.079-0.737-0.079c-6.826-0.004-13.652,0.014-20.477-0.026
	c-0.907-0.005-1.146,0.453-1.278,1.158c-0.816,4.366-1.618,8.735-2.454,13.098c-0.15,0.784,0.24,0.971,0.873,1.192
	c4.562,1.59,7.575,4.695,8.877,9.364c0.24,0.862,0.63,1.066,1.467,1.058c4.162-0.041,8.324-0.016,12.486-0.021
	c0.399,0,0.799-0.046,1.244-0.073C61.489,52.87,61.489,44.393,61.489,35.796z M61.486,66.462c-4.868,0-9.606-0.015-14.342,0.039
	c-0.265,0.003-0.663,0.527-0.765,0.877c-1.388,4.746-4.411,7.924-9.08,9.511c-0.647,0.22-0.871,0.478-0.744,1.15
	c0.828,4.364,1.646,8.73,2.435,13.101c0.164,0.911,0.604,1.172,1.52,1.166c6.576-0.04,13.152-0.02,19.729-0.025
	c0.4,0,0.8-0.047,1.248-0.076C61.486,83.61,61.486,75.134,61.486,66.462z M4.799,61.536c5.151,0,9.849,0.015,14.546-0.038
	c0.273-0.003,0.684-0.504,0.788-0.847c1.612-5.317,5.053-8.655,10.496-9.931c0.377-0.088,0.848-0.621,0.922-1.014
	c0.367-1.958,0.574-3.947,0.918-5.91c0.465-2.651,1.003-5.288,1.52-7.985c-0.339-0.037-0.623-0.095-0.907-0.095
	c-6.66-0.005-13.321-0.023-19.981,0.037c-0.465,0.004-1.119,0.492-1.356,0.932c-2.394,4.45-4.206,9.144-5.228,14.09
	C5.798,54.253,5.385,57.794,4.799,61.536z M5.158,66.512c-0.05,0.259-0.098,0.381-0.092,0.499c0.47,8.591,2.684,16.702,6.643,24.345
	c0.393,0.758,0.885,0.942,1.673,0.938c6.494-0.026,12.987-0.014,19.481-0.019c0.362,0,0.723-0.042,1.008-0.059
	c-0.772-4.666-1.558-9.244-2.259-13.835c-0.118-0.772-0.399-1.017-1.113-1.183c-5.22-1.217-8.634-4.407-10.236-9.528
	c-0.121-0.386-0.247-0.769-0.372-1.159C14.951,66.512,10.094,66.512,5.158,66.512z M66.554,35.715c0,8.7,0,17.212,0,25.706
	c8.608,0,17.115,0,25.915,0c-0.482-4.779-0.935-9.41-1.456-14.034c-0.028-0.248-0.622-0.611-0.96-0.62
	c-5.906-0.149-11.209-4.561-12.569-10.213c-0.079-0.329-0.549-0.799-0.844-0.804C73.315,35.694,69.988,35.715,66.554,35.715z
	 M66.513,92.281c3.469,0,6.795,0.025,10.119-0.041c0.307-0.006,0.778-0.548,0.875-0.919c1.534-5.874,6.935-9.991,12.54-10.053
	c0.752-0.008,1-0.309,1.071-1.019c0.273-2.731,0.666-5.452,0.871-8.188c0.135-1.806,0.026-3.631,0.026-5.512
	c-8.427,0-16.935,0-25.501,0C66.513,75.123,66.513,83.604,66.513,92.281z M61.461,5.302c-0.413,0.072-0.744,0.099-1.056,0.19
	c-3.541,1.033-6.406,3.123-8.878,5.784C46.473,16.72,43.41,23.283,40.995,30.2c-0.05,0.143-0.006,0.318-0.006,0.514
	c6.822,0,13.622,0,20.472,0C61.461,22.21,61.461,13.79,61.461,5.302z M61.454,122.725c0-8.567,0-16.988,0-25.439
	c-6.883,0-13.677,0-20.692,0c0.775,1.995,1.438,3.866,2.221,5.686c2.4,5.577,5.348,10.809,9.833,15.02
	C55.242,120.269,57.976,122.02,61.454,122.725z M48.223,7.326c-9.134,0.673-30.536,16.043-32.644,23.471c0.393,0,0.763,0,1.133,0
	c5.83-0.002,11.66-0.038,17.489,0.026c1.058,0.012,1.404-0.378,1.707-1.293c2.647-8.008,6.218-15.515,12.045-21.768
	C48.058,7.649,48.12,7.494,48.223,7.326z M15.232,97.201c8.393,11.861,19.243,19.647,33.158,23.721
	c-0.281-0.437-0.362-0.617-0.49-0.754c-5.248-5.605-8.629-12.287-11.226-19.424c-0.423-1.161-0.572-2.758-1.411-3.339
	c-0.855-0.592-2.405-0.198-3.652-0.2C26.282,97.196,20.952,97.201,15.232,97.201z M66.515,122.997
	c1.811-0.798,3.446-1.326,4.883-2.184c5.498-3.285,8.897-8.396,11.743-13.935c0.13-0.253-0.141-0.929-0.425-1.143
	c-2.585-1.953-4.361-4.446-5.164-7.587c-0.194-0.756-0.544-0.986-1.292-0.963c-1.581,0.05-3.165,0.015-4.747,0.015
	c-1.649,0-3.299,0-4.997,0C66.515,105.779,66.515,114.175,66.515,122.997z M66.522,30.797c3.312,0,6.511-0.024,9.71,0.017
	c0.813,0.01,1.145-0.241,1.344-1.052c0.622-2.527,1.965-4.656,3.861-6.44c0.641-0.603,1.693-1.178,1.774-1.859
	c0.089-0.752-0.689-1.629-1.143-2.421c-2.683-4.67-5.817-8.965-10.537-11.786c-1.501-0.897-3.203-1.458-5.008-2.26
	C66.522,13.788,66.522,22.19,66.522,30.797z M41.835,63.962c-0.039-4.844-3.848-8.581-8.702-8.539
	c-4.733,0.042-8.485,3.895-8.445,8.671c0.04,4.807,3.881,8.52,8.767,8.475C38.11,72.526,41.873,68.661,41.835,63.962z M82.29,33.215
	c-0.068,4.632,3.597,8.402,8.218,8.453c4.55,0.051,8.382-3.629,8.451-8.115c0.074-4.765-3.494-8.593-8.115-8.708
	C86.108,24.727,82.361,28.393,82.29,33.215z M98.961,94.646c-0.001-4.601-3.75-8.328-8.364-8.316
	c-4.636,0.012-8.305,3.699-8.319,8.36c-0.014,4.658,3.687,8.463,8.235,8.468C95.276,103.163,98.962,99.448,98.961,94.646z
	 M112.478,30.786C109.06,22.435,87.306,6.921,79.825,7.402c0.031,0.075,0.042,0.167,0.093,0.221
	c3.247,3.457,5.817,7.376,8.002,11.571c0.173,0.332,0.837,0.6,1.259,0.582c7.297-0.303,12.411,3.268,14.565,10.19
	c0.099,0.319,0.481,0.778,0.739,0.784C107.129,30.809,109.776,30.786,112.478,30.786z M112.744,97.213
	c-3.014,0-5.698-0.018-8.382,0.034c-0.217,0.004-0.528,0.464-0.621,0.766c-2.128,6.872-7.29,10.547-14.415,10.161
	c-0.836-0.045-1.245,0.15-1.625,0.908c-1.968,3.922-4.346,7.575-7.349,10.799c-0.212,0.228-0.381,0.497-0.57,0.747
	C93.515,116.834,104.374,109.072,112.744,97.213z"/>
</svg>
