<?xml version="1.0" encoding="utf-8"?>
<!-- Generator: Adobe Illustrator 17.0.0, SVG Export Plug-In . SVG Version: 6.00 Build 0)  -->
<!DOCTYPE svg PUBLIC "-//W3C//DTD SVG 1.1//EN" "http://www.w3.org/Graphics/SVG/1.1/DTD/svg11.dtd">
<svg version="1.1" id="Fames" xmlns="http://www.w3.org/2000/svg" xmlns:xlink="http://www.w3.org/1999/xlink" x="0px" y="0px"
	 width="128px" height="128px" viewBox="0 0 128 128" enable-background="new 0 0 128 128" xml:space="preserve">
<g>
	<path fill="#FFFFFF" d="M61.015,127.316c-2.476-0.342-4.976-0.559-7.424-1.045c-22.434-4.458-38.283-17.231-47.465-38.12
		c-4.281-9.74-5.749-20.076-4.536-30.634c2.411-20.991,12.697-37.139,30.712-48.19c10.846-6.653,22.784-9.399,35.472-8.889
		c25.474,1.025,48.603,18.31,56.856,42.45c1.774,5.19,2.951,10.5,3.325,15.98c0.023,0.343,0.148,0.679,0.225,1.018
		c0,2.644,0,5.289,0,7.933c-0.075,0.294-0.197,0.585-0.218,0.882c-0.456,6.637-1.877,13.072-4.533,19.16
		c-9.159,20.998-24.975,33.853-47.464,38.388c-2.486,0.501-5.029,0.717-7.545,1.065C65.951,127.316,63.483,127.316,61.015,127.316z
		 M119.717,63.804C119.67,33.374,95.075,8.86,64.582,8.85C34.378,8.839,9.647,33.61,9.718,63.804
		c0.071,30.482,24.687,55.087,55.064,55.041C95.121,118.799,119.764,94.108,119.717,63.804z"/>
	
		<line fill="none" stroke="#FFFFFF" stroke-width="19" stroke-linecap="round" stroke-linejoin="round" stroke-miterlimit="10" x1="64.68" y1="53.147" x2="64.68" y2="95.619"/>
	
		<line fill="none" stroke="#FFFFFF" stroke-width="19" stroke-linecap="round" stroke-linejoin="round" stroke-miterlimit="10" x1="64.68" y1="34.004" x2="64.68" y2="37.306"/>
</g>
</svg>
