<?xml version="1.0" encoding="utf-8"?>
<!-- Generator: Adobe Illustrator 17.0.0, SVG Export Plug-In . SVG Version: 6.00 Build 0)  -->
<!DOCTYPE svg PUBLIC "-//W3C//DTD SVG 1.1//EN" "http://www.w3.org/Graphics/SVG/1.1/DTD/svg11.dtd">
<svg version="1.1" id="Fames" xmlns="http://www.w3.org/2000/svg" xmlns:xlink="http://www.w3.org/1999/xlink" x="0px" y="0px"
	 width="128px" height="128px" viewBox="0 0 128 128" enable-background="new 0 0 128 128" xml:space="preserve">
<g>
	<path fill="#FFFFFF" d="M63.983-0.057c35.262,0.019,64.077,28.74,63.966,63.997c-0.113,35.617-28.541,63.959-64.085,63.997
		C28.549,127.975-0.091,99.145-0.051,63.894C-0.01,28.631,28.734-0.076,63.983-0.057z M4.372,63.929
		c0,32.962,26.591,59.594,59.527,59.619c32.943,0.025,59.621-26.584,59.655-59.5c0.034-33.021-26.59-59.678-59.607-59.681
		C31.006,4.363,4.373,30.991,4.372,63.929z"/>
	<path fill="#FFFFFF" d="M63.821,95.926c-6.246,0-12.493,0.005-18.739-0.001c-7.843-0.008-13.085-5.263-13.087-13.118
		c-0.003-12.54-0.004-25.081,0.001-37.621c0.003-7.96,5.217-13.192,13.153-13.196c12.588-0.006,25.176-0.005,37.764,0
		c7.741,0.003,13.013,5.284,13.017,13.044c0.007,12.588,0.006,25.176,0,37.764c-0.003,7.858-5.251,13.12-13.085,13.127
		C76.504,95.931,70.162,95.926,63.821,95.926z M81.733,59.317C84.5,73.019,74.042,82.09,64.288,82.168
		c-5.031,0.04-9.472-1.655-13.047-5.231c-4.856-4.856-6.357-10.769-4.96-17.635c-2.876,0-5.584,0.064-8.286-0.028
		c-1.268-0.043-1.613,0.352-1.604,1.608c0.056,7.531,0.018,15.063,0.031,22.595c0.008,4.633,3.39,8.015,8.046,8.019
		c12.966,0.014,25.932,0.012,38.898,0.001c4.747-0.004,8.119-3.362,8.14-8.079c0.016-3.48,0.004-6.96,0.004-10.44
		c0-4.1,0.008-8.199-0.01-12.299c-0.002-0.562,0.239-1.356-0.766-1.36C87.785,59.309,84.838,59.317,81.733,59.317z M50.153,63.975
		c0.006,7.667,6.151,13.797,13.825,13.791c7.654-0.006,13.793-6.16,13.795-13.829c0.002-7.637-6.18-13.8-13.832-13.79
		C56.279,50.157,50.147,56.307,50.153,63.975z M84.473,50.297c1.954,0,3.908-0.026,5.86,0.012c0.836,0.016,1.21-0.24,1.186-1.134
		c-0.05-1.857,0.05-3.72-0.041-5.573c-0.184-3.745-3.535-7.034-7.277-7.17c-1.808-0.066-3.622,0.015-5.431-0.031
		c-0.865-0.022-1.169,0.291-1.162,1.158c0.032,3.859,0.04,7.719-0.004,11.578c-0.011,0.998,0.429,1.193,1.294,1.174
		C80.756,50.269,82.615,50.298,84.473,50.297z"/>
</g>
</svg>
