<?xml version="1.0" encoding="utf-8"?>
<!-- Generator: Adobe Illustrator 17.0.0, SVG Export Plug-In . SVG Version: 6.00 Build 0)  -->
<!DOCTYPE svg PUBLIC "-//W3C//DTD SVG 1.1//EN" "http://www.w3.org/Graphics/SVG/1.1/DTD/svg11.dtd">
<svg version="1.1" id="Fames" xmlns="http://www.w3.org/2000/svg" xmlns:xlink="http://www.w3.org/1999/xlink" x="0px" y="0px"
	 width="128px" height="128px" viewBox="0 0 128 128" enable-background="new 0 0 128 128" xml:space="preserve">
<g>
	<path fill="#FFFFFF" d="M109.425,23.737c-0.836-1.353-2.273-1.794-3.564-2.046c-0.928-0.181-1.84-0.333-2.736-0.482
		c-2.69-0.444-5.012-0.828-7.315-1.959c-2.709-1.332-5.488-3.077-8.749-5.491c-0.682-0.506-1.313-1.139-1.984-1.811
		c-0.825-0.825-1.675-1.681-2.758-2.457c-4.003-2.879-9.272-4.633-15.231-5.069C61.759,4.027,56.462,4.72,51.924,6.477
		c-3.67,1.424-6.049,3.559-8.568,5.819l-1.296,1.156c-5.017,4.395-10.419,7.334-14.441,7.864c-0.135,0.016-0.373,0.03-0.677,0.049
		c-3.613,0.233-8.56,0.552-8.879,4.254c-0.16,1.859,0.184,3.694,0.514,5.469c0.249,1.331,0.484,2.59,0.468,3.678
		c-0.022,1.613-0.119,3.269-0.219,4.944c-0.244,4.173-0.495,8.484,0.295,12.671c1.643,8.709,8.76,14.617,18.573,15.418
		c3.329,0.273,6.663,0.447,9.992,0.617l-17.123,52.131c-0.465,1.418,0.306,2.95,1.729,3.418c0.281,0.089,0.566,0.135,0.844,0.135
		c1.139,0,2.198-0.725,2.571-1.862l9.169-27.907l1.042-0.468l-3.564,19.161c-0.276,1.47,0.696,2.882,2.165,3.156
		c0.168,0.032,0.336,0.049,0.501,0.049c1.28,0,2.417-0.909,2.655-2.211l4.249-22.844l11.937-5.353l13.426,7.266l3.894,20.931
		c0.244,1.302,1.38,2.211,2.658,2.211c0.165,0,0.327-0.016,0.498-0.049c1.47-0.273,2.436-1.686,2.165-3.156l-3.096-16.63l1.702,0.92
		l8.79,24.979c0.392,1.112,1.437,1.808,2.552,1.808c0.298,0,0.604-0.051,0.898-0.154c1.41-0.498,2.152-2.043,1.654-3.451
		L80.67,68.391c2.363-0.127,4.733-0.225,7.085-0.401c6.985-0.525,15.526-2.279,19.645-11.247c1.965-4.279,2.484-10.303,1.58-18.441
		c-0.46-3.778-0.271-7.207,0.56-10.189C109.917,26.76,110.345,25.228,109.425,23.737z M72.757,68.719l1.231,6.617l-9.905,4.444
		l-9.123-4.936l1.139-6.124c2.649,0.065,5.315,0.168,7.938,0.168l0,0C66.928,68.884,69.845,68.8,72.757,68.719z M53.125,84.688
		l0.793-4.257l3.943,2.135L53.125,84.688z M70.08,83.021l4.928-2.208l1.007,5.421L70.08,83.021z M82.137,89.544l-0.271-1.448
		l0.566,1.61L82.137,89.544z M103.606,38.925c0.777,7.009,0.395,12.243-1.126,15.561c-2.352,5.128-6.736,7.477-15.131,8.111
		c-7.743,0.582-15.586,0.88-23.312,0.88l0,0c-8.519,0-17.231-0.36-25.894-1.069c-7.388-0.604-12.511-4.728-13.699-11.031
		c-0.668-3.532-0.436-7.505-0.211-11.35c0.103-1.754,0.203-3.491,0.227-5.183c0.022-1.629-0.276-3.215-0.563-4.75
		c-0.192-1.026-0.376-2.011-0.441-2.893c0.674-0.146,1.835-0.303,3.832-0.433c0.471-0.03,0.834-0.057,1.026-0.081
		c7.275-0.958,14.522-6.725,17.304-9.158l1.348-1.199c2.325-2.087,4.162-3.732,6.915-4.798c3.781-1.467,8.268-2.041,12.806-1.702
		c3.461,0.252,8.433,1.164,12.465,4.065c0.723,0.52,1.386,1.183,2.087,1.886c0.782,0.782,1.591,1.591,2.595,2.336
		c3.532,2.617,6.576,4.522,9.588,6.003c3.018,1.483,5.965,1.97,8.817,2.441c0.663,0.111,1.337,0.222,2.019,0.346
		C103.295,30.508,103.073,34.562,103.606,38.925z"/>
	<path fill="#FFFFFF" d="M91.682,28.23c-1.472-0.176-2.828,0.888-3.001,2.371c-0.449,3.816-0.639,6.85-0.639,10.143l0.014,1.475
		c0.043,2.931,0.076,5.461-1.296,7.494c-2.988,4.425-12.249,4.262-18.376,4.17c-1.226-0.022-2.373-0.041-3.391-0.027
		c-5.02,0.057-10.149-0.281-14.998-0.636c-3.275-0.241-5.859-0.43-7.821-2.39c-2.097-2.097-2.203-4.679-2.2-8.969
		c0-0.812,0.095-1.616,0.181-2.419c0.116-1.05,0.238-2.135,0.214-3.296c-0.043-1.935-0.249-3.889-0.444-5.545
		c-0.176-1.483-1.529-2.53-3.004-2.368c-1.486,0.176-2.547,1.521-2.371,3.007c0.181,1.526,0.373,3.318,0.406,5.023
		c0.019,0.804-0.076,1.67-0.179,2.585c-0.111,0.999-0.217,2.003-0.217,3.267c-0.003,4.103-0.003,8.755,3.786,12.546
		c3.383,3.383,7.564,3.689,11.269,3.962c4.944,0.363,10.203,0.704,15.434,0.65c0.972-0.016,2.07,0.008,3.242,0.027
		c1.096,0.019,2.246,0.038,3.434,0.038c7.177,0,15.542-0.704,19.521-6.59c2.322-3.44,2.271-7.242,2.222-10.598l-0.014-1.402
		c0-3.072,0.179-5.919,0.604-9.513C94.229,29.748,93.165,28.403,91.682,28.23z"/>
</g>
</svg>
