<?xml version="1.0" encoding="utf-8"?>
<!-- Generator: Adobe Illustrator 18.0.0, SVG Export Plug-In . SVG Version: 6.00 Build 0)  -->
<!DOCTYPE svg PUBLIC "-//W3C//DTD SVG 1.1//EN" "http://www.w3.org/Graphics/SVG/1.1/DTD/svg11.dtd">
<svg version="1.1" id="Fames" xmlns="http://www.w3.org/2000/svg" xmlns:xlink="http://www.w3.org/1999/xlink" x="0px" y="0px"
	 viewBox="0 0 128 128" enable-background="new 0 0 128 128" xml:space="preserve">
<g>
	<path fill="#FFFFFF" d="M103.4,64.2c0,16.9,0,33.8,0,50.8c0,7.9-5.2,13.1-13.1,13.1c-17.5,0-35.1,0-52.6,0c-7.8,0-13-5.2-13-13
		c0-33.9,0-67.9,0-101.8c0-8,5.2-13.2,13.2-13.2c17.5,0,35.1,0,52.6,0c7.7,0,13,5.2,13,12.9C103.4,30,103.4,47.1,103.4,64.2z
		 M98.5,64c0-17,0-34,0-51.1c0-5-3-8-8.1-8c-17.5,0-35.1,0-52.6,0c-5.3,0-8.3,2.9-8.3,8.3c0,33.9,0,67.8,0,101.7
		c0,5.2,3,8.2,8.2,8.2c17.5,0,35,0,52.5,0c5.3,0,8.3-2.9,8.3-8.3C98.5,97.9,98.5,80.9,98.5,64z"/>
	<path fill="#FFFFFF" d="M34.6,19.8c19.7,0,39.2,0,58.9,0c0,27.8,0,55.6,0,83.5c-19.6,0-39.2,0-58.9,0
		C34.6,75.5,34.6,47.7,34.6,19.8z M88.5,98.4c0-24.7,0-49.2,0-73.7c-16.4,0-32.8,0-49,0c0,24.6,0,49.1,0,73.7
		C55.8,98.4,72.1,98.4,88.5,98.4z"/>
	<path fill="#FFFFFF" d="M73.8,10c0,1.6,0,3.1,0,4.7c-6.5,0-12.9,0-19.5,0c0-1.5,0-3.1,0-4.7C60.7,10,67.2,10,73.8,10z"/>
	<path fill="#FFFFFF" d="M64,118.2c-2.7,0-4.9-2.3-4.9-5c0-2.7,2.3-4.8,4.9-4.8c2.7,0,5,2.3,4.9,5C68.9,116,66.6,118.2,64,118.2z"/>
</g>
</svg>
