<?xml version="1.0" encoding="utf-8"?>
<!-- Generator: Adobe Illustrator 17.0.0, SVG Export Plug-In . SVG Version: 6.00 Build 0)  -->
<!DOCTYPE svg PUBLIC "-//W3C//DTD SVG 1.1//EN" "http://www.w3.org/Graphics/SVG/1.1/DTD/svg11.dtd">
<svg version="1.1" id="Fames" xmlns="http://www.w3.org/2000/svg" xmlns:xlink="http://www.w3.org/1999/xlink" x="0px" y="0px"
	 width="128px" height="128px" viewBox="0 0 128 128" enable-background="new 0 0 128 128" xml:space="preserve">
<path id="XMLID_4755_" fill="#FFFFFF" d="M64.273,109.888c-2.039-1.878-4.139-3.695-6.107-5.644
	C40.843,87.09,23.543,69.913,6.238,52.741c-1.936-1.921-1.933-3.23-0.008-5.157c9.18-9.185,18.371-18.361,27.531-27.566
	c0.968-0.973,2.002-1.411,3.382-1.409c18.524,0.029,37.047,0.028,55.571,0.002c1.455-0.002,2.561,0.442,3.598,1.485
	c9.153,9.212,18.348,18.383,27.518,27.579c0.522,0.523,0.931,1.158,1.393,1.741c0,0.478,0,0.956,0,1.434
	c-0.678,0.816-1.294,1.694-2.044,2.437c-18.307,18.168-36.626,36.323-54.955,54.469c-0.779,0.771-1.675,1.424-2.517,2.132
	C65.229,109.888,64.751,109.888,64.273,109.888z M64.99,102.892c8.625-17.107,17.096-33.909,25.607-50.789
	c-17.153,0-34.112,0-51.224,0C47.908,69.026,56.37,85.803,64.99,102.892z M88.889,48.226c-0.223-0.3-0.3-0.433-0.404-0.538
	c-7.609-7.642-15.229-15.274-22.817-22.937c-0.704-0.711-1.043-0.308-1.523,0.174c-7.464,7.506-14.936,15.005-22.402,22.51
	c-0.202,0.203-0.356,0.453-0.617,0.791C57.094,48.226,72.883,48.226,88.889,48.226z M13.866,51.998
	c-0.062,0.103-0.124,0.205-0.186,0.308c14.186,14.098,28.371,28.197,42.557,42.295c0.098-0.082,0.195-0.164,0.293-0.245
	c-0.906-1.8-1.812-3.6-2.719-5.4c-6.047-11.995-12.101-23.987-18.126-35.993c-0.349-0.696-0.713-1.025-1.529-0.98
	c-1.349,0.074-2.705,0.017-4.059,0.017C24.686,51.998,19.276,51.998,13.866,51.998z M73.393,94.463
	c0.088,0.074,0.176,0.148,0.264,0.223C87.878,80.55,102.099,66.414,116.501,52.1c-0.516-0.061-0.669-0.095-0.823-0.095
	c-6.692-0.002-13.384,0.012-20.075-0.021c-0.77-0.004-1.01,0.399-1.293,0.962C88.411,64.67,82.499,76.389,76.591,88.11
	C75.524,90.227,74.459,92.345,73.393,94.463z M38.292,24.321c0,7.138,0,14.142,0,20.54c6.798-6.691,13.839-13.621,20.87-20.54
	C52.25,24.321,45.293,24.321,38.292,24.321z M34.379,27.935c-6.75,6.744-13.57,13.557-20.279,20.259c6.576,0,13.401,0,20.279,0
	C34.379,41.3,34.379,34.479,34.379,27.935z M70.489,24.318c7.243,7.127,14.282,14.053,21.234,20.894c0-6.813,0-13.83,0-20.894
	C84.684,24.318,77.729,24.318,70.489,24.318z M116.13,48.224c-6.875-6.87-13.697-13.688-20.508-20.495c0,6.756,0,13.605,0,20.495
	C102.521,48.224,109.323,48.224,116.13,48.224z"/>
</svg>
