<?xml version="1.0" encoding="utf-8"?>
<!-- Generator: Adobe Illustrator 17.0.0, SVG Export Plug-In . SVG Version: 6.00 Build 0)  -->
<!DOCTYPE svg PUBLIC "-//W3C//DTD SVG 1.1//EN" "http://www.w3.org/Graphics/SVG/1.1/DTD/svg11.dtd">
<svg version="1.1" id="Fames" xmlns="http://www.w3.org/2000/svg" xmlns:xlink="http://www.w3.org/1999/xlink" x="0px" y="0px"
	 width="900px" height="128px" viewBox="0 0 900 128" enable-background="new 0 0 900 128" xml:space="preserve">
<g enable-background="new    ">
	<path fill="#FFFFFF" d="M233.812,32.5c-3.527,0-6.622-1.888-6.746-6.189h3.156c0.124,2.353,1.764,3.343,3.589,3.343
		c2.042,0,3.59-1.331,3.59-3.652c0-2.228-1.207-3.62-3.683-3.62h-0.526v-2.754h0.526c2.29,0,3.342-1.331,3.342-3.342
		c0-2.229-1.455-3.404-3.25-3.404c-1.918,0-3.156,1.207-3.311,3.156h-3.156c0.186-3.744,2.94-6.003,6.467-6.003
		c3.745,0,6.406,2.506,6.406,6.157c0,2.353-1.052,3.868-2.754,4.704c1.888,0.836,3.094,2.476,3.094,5.198
		C240.558,30.333,237.495,32.5,233.812,32.5z"/>
	<path fill="#FFFFFF" d="M258.564,30.209c-1.393,1.393-3.404,2.073-5.694,2.073h-7.736V10.25h7.736c2.29,0,4.301,0.682,5.694,2.074
		c2.383,2.383,2.228,5.601,2.228,8.788S260.947,27.827,258.564,30.209z M256.274,14.737c-0.928-1.021-2.166-1.485-3.744-1.485
		h-4.054v16.029h4.054c1.578,0,2.816-0.464,3.744-1.485c1.145-1.269,1.176-3.651,1.176-6.684
		C257.45,18.079,257.419,16.005,256.274,14.737z"/>
	<path fill="#FFFFFF" d="M285.324,32.283L280.682,23h-4.178v9.283h-3.342V10.25h8.541c4.178,0,6.839,2.692,6.839,6.438
		c0,3.156-1.918,5.167-4.394,5.848l5.075,9.748H285.324z M281.456,13.251h-4.951v6.9h4.951c2.228,0,3.745-1.269,3.745-3.435
		S283.684,13.251,281.456,13.251z"/>
	<path fill="#FFFFFF" d="M293.427,32.283V10.25h14.08v3.002h-10.738v6.437h9.16v2.971h-9.16v6.622h10.738v3.002H293.427z"/>
	<path fill="#FFFFFF" d="M324.738,32.283l-1.516-4.425h-8.695l-1.517,4.425h-3.559l8.077-22.033h2.692l8.077,22.033H324.738z
		 M318.952,15.232l-3.435,9.778h6.777L318.952,15.232z"/>
	<path fill="#FFFFFF" d="M331.418,32.283V10.25h3.342v19.031h10.614v3.002H331.418z"/>
	<path fill="#FFFFFF" d="M364.059,13.251v19.031h-3.342V13.251h-6.065V10.25h15.473v3.002H364.059z"/>
	<path fill="#FFFFFF" d="M373.926,32.283V10.25h3.342v22.033H373.926z"/>
	<path fill="#FFFFFF" d="M399.113,32.283V17.553l-5.075,10.737h-2.476l-5.199-10.737v14.729h-3.342V10.25h3.342l6.437,13.709
		l6.313-13.709h3.342v22.033H399.113z"/>
	<path fill="#FFFFFF" d="M408.173,32.283V10.25h14.08v3.002h-10.738v6.437h9.16v2.971h-9.16v6.622h10.738v3.002H408.173z"/>
	<path fill="#FFFFFF" d="M441.371,32.468c-2.29,0-4.271-0.835-5.787-2.352c-2.166-2.166-2.135-4.611-2.135-8.851
		s-0.031-6.684,2.135-8.85c1.516-1.517,3.497-2.353,5.787-2.353c4.054,0,7.086,2.383,7.86,6.777h-3.404
		c-0.526-2.229-2.011-3.775-4.456-3.775c-1.3,0-2.476,0.495-3.249,1.331c-1.083,1.176-1.331,2.444-1.331,6.869
		c0,4.426,0.248,5.694,1.331,6.87c0.773,0.835,1.949,1.33,3.249,1.33c2.445,0,3.961-1.547,4.487-3.774h3.373
		C448.488,30.085,445.363,32.468,441.371,32.468z"/>
	<path fill="#FFFFFF" d="M466.617,30.117c-1.517,1.517-3.466,2.352-5.818,2.352c-2.352,0-4.271-0.835-5.786-2.352
		c-2.166-2.166-2.136-4.611-2.136-8.851s-0.03-6.684,2.136-8.85c1.516-1.517,3.435-2.353,5.786-2.353
		c2.353,0,4.302,0.836,5.818,2.353c2.166,2.166,2.104,4.61,2.104,8.85S468.783,27.951,466.617,30.117z M464.079,14.427
		c-0.773-0.835-1.98-1.361-3.28-1.361s-2.506,0.526-3.28,1.361c-1.083,1.176-1.299,2.414-1.299,6.839
		c0,4.426,0.216,5.663,1.299,6.839c0.774,0.836,1.98,1.361,3.28,1.361s2.507-0.525,3.28-1.361c1.083-1.176,1.3-2.413,1.3-6.839
		C465.379,16.841,465.162,15.603,464.079,14.427z"/>
	<path fill="#FFFFFF" d="M487.19,32.283L477.009,16.78v15.503h-3.342V10.25h3.063l10.181,15.473V10.25h3.343v22.033H487.19z"/>
	<path fill="#FFFFFF" d="M499.346,13.251v6.715h9.16v3.002h-9.16v9.314h-3.342V10.25h14.08v3.002H499.346z"/>
	<path fill="#FFFFFF" d="M514.103,32.283V10.25h3.342v22.033H514.103z"/>
	<path fill="#FFFFFF" d="M536.38,29.961c-1.671,1.765-3.744,2.507-6.065,2.507c-2.29,0-4.271-0.835-5.786-2.352
		c-2.166-2.166-2.136-4.611-2.136-8.851s-0.03-6.684,2.136-8.85c1.516-1.517,3.435-2.353,5.786-2.353
		c4.673,0,7.396,3.063,8.015,6.839h-3.373c-0.557-2.413-2.166-3.837-4.642-3.837c-1.3,0-2.476,0.526-3.249,1.361
		c-1.083,1.176-1.33,2.414-1.33,6.839c0,4.426,0.247,5.694,1.33,6.87c0.773,0.835,1.949,1.33,3.249,1.33
		c1.455,0,2.724-0.557,3.59-1.547c0.805-0.929,1.114-2.042,1.114-3.466v-1.237h-4.704v-2.848h8.046v3.373
		C538.36,26.589,537.834,28.415,536.38,29.961z"/>
	<path fill="#FFFFFF" d="M550.826,32.468c-4.487,0-7.891-3.063-7.891-7.612V10.25h3.342v14.452c0,2.939,1.795,4.765,4.549,4.765
		s4.58-1.825,4.58-4.765V10.25h3.342v14.606C558.748,29.405,555.313,32.468,550.826,32.468z"/>
	<path fill="#FFFFFF" d="M576.319,32.283L571.678,23H567.5v9.283h-3.342V10.25h8.541c4.178,0,6.839,2.692,6.839,6.438
		c0,3.156-1.919,5.167-4.395,5.848l5.075,9.748H576.319z M572.451,13.251H567.5v6.9h4.951c2.229,0,3.745-1.269,3.745-3.435
		S574.68,13.251,572.451,13.251z"/>
	<path fill="#FFFFFF" d="M597.079,32.283l-1.517-4.425h-8.695l-1.517,4.425h-3.559l8.077-22.033h2.691l8.077,22.033H597.079z
		 M591.292,15.232l-3.435,9.778h6.777L591.292,15.232z"/>
	<path fill="#FFFFFF" d="M609.36,13.251v19.031h-3.342V13.251h-6.065V10.25h15.473v3.002H609.36z"/>
	<path fill="#FFFFFF" d="M631.544,30.117c-1.517,1.517-3.466,2.352-5.817,2.352s-4.271-0.835-5.787-2.352
		c-2.166-2.166-2.135-4.611-2.135-8.851s-0.031-6.684,2.135-8.85c1.517-1.517,3.436-2.353,5.787-2.353s4.301,0.836,5.817,2.353
		c2.166,2.166,2.104,4.61,2.104,8.85S633.71,27.951,631.544,30.117z M629.007,14.427c-0.774-0.835-1.98-1.361-3.28-1.361
		s-2.507,0.526-3.28,1.361c-1.083,1.176-1.3,2.414-1.3,6.839c0,4.426,0.217,5.663,1.3,6.839c0.773,0.836,1.98,1.361,3.28,1.361
		s2.506-0.525,3.28-1.361c1.083-1.176,1.3-2.413,1.3-6.839C630.307,16.841,630.09,15.603,629.007,14.427z"/>
	<path fill="#FFFFFF" d="M650.756,32.283L646.114,23h-4.178v9.283h-3.342V10.25h8.54c4.178,0,6.839,2.692,6.839,6.438
		c0,3.156-1.918,5.167-4.394,5.848l5.074,9.748H650.756z M646.888,13.251h-4.951v6.9h4.951c2.228,0,3.744-1.269,3.744-3.435
		S649.115,13.251,646.888,13.251z"/>
	<path fill="#FFFFFF" d="M664.707,32.468c-3.311,0-5.693-0.773-7.798-2.908l2.228-2.197c1.609,1.608,3.373,2.104,5.632,2.104
		c2.878,0,4.55-1.237,4.55-3.373c0-0.959-0.279-1.764-0.867-2.289c-0.557-0.526-1.113-0.743-2.413-0.929l-2.6-0.371
		c-1.795-0.248-3.219-0.866-4.178-1.764c-1.083-1.021-1.609-2.414-1.609-4.209c0-3.837,2.785-6.468,7.365-6.468
		c2.909,0,4.951,0.743,6.839,2.507l-2.136,2.104c-1.361-1.3-2.939-1.702-4.796-1.702c-2.6,0-4.022,1.485-4.022,3.435
		c0,0.805,0.247,1.517,0.835,2.043c0.557,0.495,1.454,0.866,2.476,1.021l2.507,0.372c2.042,0.309,3.188,0.805,4.115,1.64
		c1.207,1.052,1.795,2.63,1.795,4.518C672.629,30.054,669.318,32.468,664.707,32.468z"/>
</g>
<g enable-background="new    ">
	<path fill="#FFFFFF" d="M31.3,76.833h-2.197l-4.889-17.639l-4.889,17.639h-2.197L11.495,54.8h2.506l4.301,17.763L23.161,54.8h2.104
		l4.858,17.763L34.425,54.8h2.506L31.3,76.833z"/>
	<path fill="#FFFFFF" d="M40.361,69.809c0,3.342,1.578,5.261,4.487,5.261c1.764,0,2.785-0.526,3.992-1.733l1.517,1.331
		c-1.547,1.547-2.971,2.352-5.57,2.352c-4.023,0-6.653-2.414-6.653-7.798c0-4.92,2.383-7.798,6.25-7.798
		c3.93,0,6.251,2.847,6.251,7.364v1.021H40.361z M47.942,65.6c-0.588-1.392-1.95-2.289-3.559-2.289
		c-1.609,0-2.971,0.897-3.559,2.289c-0.34,0.836-0.402,1.3-0.464,2.538h8.045C48.344,66.899,48.283,66.436,47.942,65.6z"/>
	<path fill="#FFFFFF" d="M73.311,75.688c-0.805,0.804-2.166,1.33-3.713,1.33c-1.671,0-3.063-0.402-4.301-1.98v8.603h-2.228V61.608
		h2.228v1.795c1.238-1.609,2.63-1.98,4.301-1.98c1.547,0,2.909,0.525,3.713,1.33c1.547,1.548,1.856,4.085,1.856,6.468
		S74.858,74.141,73.311,75.688z M69.133,63.403c-3.311,0-3.837,2.847-3.837,5.817s0.526,5.817,3.837,5.817s3.806-2.847,3.806-5.817
		S72.444,63.403,69.133,63.403z"/>
	<path fill="#FFFFFF" d="M88.439,64.517c-0.835-0.835-1.455-1.113-2.63-1.113c-2.228,0-3.651,1.764-3.651,4.084v9.346H79.93V61.608
		h2.228v1.856c0.835-1.269,2.506-2.042,4.27-2.042c1.455,0,2.569,0.34,3.652,1.423L88.439,64.517z"/>
	<path fill="#FFFFFF" d="M101.681,75.286c-1.052,1.052-2.506,1.732-4.363,1.732c-1.856,0-3.311-0.681-4.363-1.732
		c-1.547-1.578-1.856-3.714-1.856-6.065s0.31-4.487,1.856-6.065c1.052-1.052,2.507-1.732,4.363-1.732
		c1.857,0,3.312,0.681,4.363,1.732c1.547,1.578,1.857,3.714,1.857,6.065S103.228,73.708,101.681,75.286z M100.103,64.517
		c-0.712-0.711-1.702-1.113-2.785-1.113s-2.042,0.402-2.754,1.113c-1.114,1.114-1.238,3.002-1.238,4.704s0.124,3.59,1.238,4.703
		c0.712,0.712,1.671,1.114,2.754,1.114s2.073-0.402,2.785-1.114c1.114-1.113,1.207-3.001,1.207-4.703S101.217,65.631,100.103,64.517
		z"/>
	<path fill="#FFFFFF" d="M113.096,76.833h-1.98l-5.57-15.225h2.414l4.147,12.223l4.177-12.223h2.414L113.096,76.833z"/>
	<path fill="#FFFFFF" d="M121.695,57.276V54.77h2.507v2.507H121.695z M121.819,76.833V61.608h2.228v15.225H121.819z"/>
	<path fill="#FFFFFF" d="M138.743,76.833v-1.826c-1.238,1.609-2.661,2.012-4.332,2.012c-1.547,0-2.909-0.526-3.714-1.33
		c-1.547-1.548-1.856-4.085-1.856-6.468s0.31-4.92,1.856-6.468c0.805-0.805,2.167-1.33,3.714-1.33c1.671,0,3.063,0.371,4.301,1.949
		V54.8h2.228v22.033H138.743z M134.906,63.403c-3.312,0-3.837,2.847-3.837,5.817s0.526,5.817,3.837,5.817
		c3.311,0,3.806-2.847,3.806-5.817S138.217,63.403,134.906,63.403z"/>
	<path fill="#FFFFFF" d="M147.899,69.809c0,3.342,1.578,5.261,4.487,5.261c1.764,0,2.785-0.526,3.992-1.733l1.517,1.331
		c-1.547,1.547-2.971,2.352-5.57,2.352c-4.022,0-6.653-2.414-6.653-7.798c0-4.92,2.382-7.798,6.25-7.798
		c3.93,0,6.251,2.847,6.251,7.364v1.021H147.899z M155.48,65.6c-0.588-1.392-1.949-2.289-3.559-2.289
		c-1.609,0-2.971,0.897-3.559,2.289c-0.34,0.836-0.402,1.3-0.464,2.538h8.045C155.883,66.899,155.821,66.436,155.48,65.6z"/>
	<path fill="#FFFFFF" d="M179.24,76.833v-1.454c-1.238,1.237-2.352,1.64-4.394,1.64c-2.104,0-3.342-0.402-4.301-1.393
		c-0.743-0.742-1.145-1.888-1.145-3.095c0-2.661,1.857-4.394,5.261-4.394h4.58v-1.455c0-2.228-1.114-3.342-3.899-3.342
		c-1.95,0-2.94,0.465-3.837,1.733l-1.517-1.393c1.362-1.764,2.909-2.259,5.384-2.259c4.085,0,6.096,1.764,6.096,5.074v10.336H179.24
		z M179.24,69.809h-4.27c-2.29,0-3.404,0.929-3.404,2.692s1.083,2.6,3.497,2.6c1.299,0,2.444-0.094,3.404-1.021
		c0.526-0.495,0.773-1.361,0.773-2.631V69.809z"/>
	<path fill="#FFFFFF" d="M200.493,77.019c-3.837,0-6.746-2.6-6.746-7.798c0-5.199,2.909-7.798,6.746-7.798
		c2.104,0,3.435,0.557,5.013,2.259l-1.516,1.423c-1.145-1.269-2.042-1.701-3.497-1.701c-1.485,0-2.723,0.588-3.527,1.732
		c-0.712,0.99-0.99,2.166-0.99,4.085s0.278,3.095,0.99,4.085c0.804,1.145,2.042,1.732,3.527,1.732c1.455,0,2.352-0.464,3.497-1.732
		l1.516,1.454C203.928,76.462,202.598,77.019,200.493,77.019z"/>
	<path fill="#FFFFFF" d="M218.252,64.517c-0.835-0.835-1.455-1.113-2.63-1.113c-2.228,0-3.651,1.764-3.651,4.084v9.346h-2.228
		V61.608h2.228v1.856c0.835-1.269,2.506-2.042,4.27-2.042c1.455,0,2.569,0.34,3.652,1.423L218.252,64.517z"/>
	<path fill="#FFFFFF" d="M231.493,75.286c-1.052,1.052-2.506,1.732-4.363,1.732c-1.856,0-3.311-0.681-4.363-1.732
		c-1.547-1.578-1.856-3.714-1.856-6.065s0.31-4.487,1.856-6.065c1.052-1.052,2.507-1.732,4.363-1.732
		c1.857,0,3.312,0.681,4.363,1.732c1.547,1.578,1.857,3.714,1.857,6.065S233.041,73.708,231.493,75.286z M229.915,64.517
		c-0.712-0.711-1.702-1.113-2.785-1.113s-2.042,0.402-2.754,1.113c-1.114,1.114-1.238,3.002-1.238,4.704s0.124,3.59,1.238,4.703
		c0.712,0.712,1.671,1.114,2.754,1.114s2.073-0.402,2.785-1.114c1.114-1.113,1.207-3.001,1.207-4.703S231.029,65.631,229.915,64.517
		z"/>
	<path fill="#FFFFFF" d="M242.908,77.019c-2.568,0-4.58-0.588-6.251-2.197l1.485-1.485c1.207,1.269,2.847,1.765,4.734,1.765
		c2.507,0,4.054-0.897,4.054-2.692c0-1.331-0.774-2.073-2.538-2.229l-2.507-0.217c-2.971-0.247-4.549-1.578-4.549-4.084
		c0-2.785,2.352-4.456,5.601-4.456c2.167,0,4.116,0.525,5.478,1.64l-1.455,1.454c-1.083-0.835-2.476-1.206-4.054-1.206
		c-2.228,0-3.404,0.959-3.404,2.506c0,1.3,0.743,2.073,2.661,2.229l2.445,0.217c2.661,0.247,4.487,1.269,4.487,4.115
		C249.097,75.316,246.591,77.019,242.908,77.019z"/>
	<path fill="#FFFFFF" d="M257.758,77.019c-2.568,0-4.58-0.588-6.251-2.197l1.485-1.485c1.207,1.269,2.847,1.765,4.735,1.765
		c2.506,0,4.054-0.897,4.054-2.692c0-1.331-0.774-2.073-2.538-2.229l-2.506-0.217c-2.971-0.247-4.549-1.578-4.549-4.084
		c0-2.785,2.352-4.456,5.601-4.456c2.166,0,4.116,0.525,5.478,1.64l-1.455,1.454c-1.083-0.835-2.476-1.206-4.054-1.206
		c-2.228,0-3.404,0.959-3.404,2.506c0,1.3,0.743,2.073,2.661,2.229l2.444,0.217c2.662,0.247,4.487,1.269,4.487,4.115
		C263.947,75.316,261.44,77.019,257.758,77.019z"/>
	<path fill="#FFFFFF" d="M286.252,75.688c-0.805,0.804-2.166,1.33-3.713,1.33c-1.671,0-3.063-0.402-4.301-1.98v8.603h-2.228V61.608
		h2.228v1.795c1.238-1.609,2.63-1.98,4.301-1.98c1.547,0,2.909,0.525,3.713,1.33c1.547,1.548,1.856,4.085,1.856,6.468
		S287.8,74.141,286.252,75.688z M282.075,63.403c-3.311,0-3.837,2.847-3.837,5.817s0.526,5.817,3.837,5.817s3.806-2.847,3.806-5.817
		S285.386,63.403,282.075,63.403z"/>
	<path fill="#FFFFFF" d="M296.677,76.833c-2.661,0-3.868-1.732-3.868-4.054V54.8h2.228v17.887c0,1.485,0.495,2.228,2.042,2.228
		h1.207v1.919H296.677z"/>
	<path fill="#FFFFFF" d="M310.692,76.833v-1.454c-1.238,1.237-2.352,1.64-4.394,1.64c-2.104,0-3.342-0.402-4.301-1.393
		c-0.743-0.742-1.145-1.888-1.145-3.095c0-2.661,1.857-4.394,5.261-4.394h4.58v-1.455c0-2.228-1.114-3.342-3.899-3.342
		c-1.95,0-2.94,0.465-3.837,1.733l-1.517-1.393c1.362-1.764,2.909-2.259,5.384-2.259c4.085,0,6.096,1.764,6.096,5.074v10.336
		H310.692z M310.692,69.809h-4.27c-2.29,0-3.404,0.929-3.404,2.692s1.083,2.6,3.497,2.6c1.299,0,2.444-0.094,3.404-1.021
		c0.526-0.495,0.773-1.361,0.773-2.631V69.809z"/>
	<path fill="#FFFFFF" d="M322.603,76.833c-2.6,0-3.899-1.826-3.899-4.085v-9.345h-1.918v-1.702h1.918v-4.766h2.228v4.766h3.25v1.702
		h-3.25v9.283c0,1.393,0.65,2.228,2.073,2.228h1.176v1.919H322.603z"/>
	<path fill="#FFFFFF" d="M331.326,63.403v13.43h-2.228v-13.43h-1.95v-1.702h1.95v-2.878c0-2.259,1.269-4.085,3.868-4.085h1.609
		v1.919h-1.207c-1.424,0-2.042,0.835-2.042,2.228v2.816h3.249v1.702H331.326z"/>
	<path fill="#FFFFFF" d="M347.508,75.286c-1.052,1.052-2.506,1.732-4.363,1.732c-1.856,0-3.311-0.681-4.363-1.732
		c-1.547-1.578-1.856-3.714-1.856-6.065s0.31-4.487,1.856-6.065c1.052-1.052,2.507-1.732,4.363-1.732
		c1.857,0,3.312,0.681,4.363,1.732c1.547,1.578,1.857,3.714,1.857,6.065S349.055,73.708,347.508,75.286z M345.93,64.517
		c-0.712-0.711-1.702-1.113-2.785-1.113s-2.042,0.402-2.754,1.113c-1.114,1.114-1.238,3.002-1.238,4.704s0.124,3.59,1.238,4.703
		c0.712,0.712,1.671,1.114,2.754,1.114s2.073-0.402,2.785-1.114c1.114-1.113,1.207-3.001,1.207-4.703S347.044,65.631,345.93,64.517z
		"/>
	<path fill="#FFFFFF" d="M362.636,64.517c-0.835-0.835-1.455-1.113-2.63-1.113c-2.228,0-3.651,1.764-3.651,4.084v9.346h-2.228
		V61.608h2.228v1.856c0.835-1.269,2.506-2.042,4.27-2.042c1.455,0,2.569,0.34,3.652,1.423L362.636,64.517z"/>
	<path fill="#FFFFFF" d="M386.708,76.833v-9.376c0-2.692-1.455-4.054-3.745-4.054c-2.228,0-3.806,1.393-3.806,3.806v9.624h-2.228
		v-9.376c0-2.692-1.454-4.054-3.744-4.054s-3.806,1.393-3.806,4.054v9.376h-2.228V61.608h2.228v1.671
		c1.083-1.238,2.599-1.856,4.301-1.856c2.104,0,3.744,0.866,4.673,2.537c1.176-1.671,2.877-2.537,5.013-2.537
		c1.64,0,3.002,0.525,3.93,1.423c1.083,1.053,1.64,2.476,1.64,4.239v9.748H386.708z"/>
	<path fill="#FFFFFF" d="M406.844,77.019c-2.568,0-4.58-0.588-6.251-2.197l1.485-1.485c1.207,1.269,2.847,1.765,4.735,1.765
		c2.506,0,4.054-0.897,4.054-2.692c0-1.331-0.774-2.073-2.538-2.229l-2.506-0.217c-2.971-0.247-4.549-1.578-4.549-4.084
		c0-2.785,2.352-4.456,5.601-4.456c2.166,0,4.116,0.525,5.478,1.64l-1.455,1.454c-1.083-0.835-2.476-1.206-4.054-1.206
		c-2.228,0-3.404,0.959-3.404,2.506c0,1.3,0.743,2.073,2.661,2.229l2.444,0.217c2.662,0.247,4.487,1.269,4.487,4.115
		C413.033,75.316,410.526,77.019,406.844,77.019z"/>
	<path fill="#FFFFFF" d="M427.171,75.286c-1.052,1.052-2.506,1.732-4.363,1.732c-1.856,0-3.311-0.681-4.363-1.732
		c-1.547-1.578-1.856-3.714-1.856-6.065s0.31-4.487,1.856-6.065c1.052-1.052,2.507-1.732,4.363-1.732
		c1.857,0,3.312,0.681,4.363,1.732c1.547,1.578,1.857,3.714,1.857,6.065S428.718,73.708,427.171,75.286z M425.593,64.517
		c-0.712-0.711-1.702-1.113-2.785-1.113s-2.042,0.402-2.754,1.113c-1.114,1.114-1.238,3.002-1.238,4.704s0.124,3.59,1.238,4.703
		c0.712,0.712,1.671,1.114,2.754,1.114s2.073-0.402,2.785-1.114c1.114-1.113,1.207-3.001,1.207-4.703S426.707,65.631,425.593,64.517
		z"/>
	<path fill="#FFFFFF" d="M437.596,76.833c-2.661,0-3.868-1.732-3.868-4.054V54.8h2.228v17.887c0,1.485,0.495,2.228,2.042,2.228
		h1.207v1.919H437.596z"/>
	<path fill="#FFFFFF" d="M452.602,76.833v-1.702c-1.083,1.238-2.599,1.888-4.301,1.888c-1.64,0-3.001-0.495-3.93-1.424
		c-1.083-1.052-1.547-2.506-1.547-4.27v-9.717h2.228v9.376c0,2.692,1.423,4.054,3.713,4.054s3.806-1.393,3.806-4.054v-9.376h2.229
		v15.225H452.602z"/>
	<path fill="#FFFFFF" d="M464.635,76.833c-2.6,0-3.899-1.826-3.899-4.085v-9.345h-1.918v-1.702h1.918v-4.766h2.229v4.766h3.249
		v1.702h-3.249v9.283c0,1.393,0.649,2.228,2.073,2.228h1.176v1.919H464.635z"/>
	<path fill="#FFFFFF" d="M470.512,57.276V54.77h2.507v2.507H470.512z M470.636,76.833V61.608h2.228v15.225H470.636z"/>
	<path fill="#FFFFFF" d="M488.241,75.286c-1.052,1.052-2.507,1.732-4.363,1.732s-3.312-0.681-4.363-1.732
		c-1.547-1.578-1.856-3.714-1.856-6.065s0.31-4.487,1.856-6.065c1.052-1.052,2.507-1.732,4.363-1.732s3.312,0.681,4.363,1.732
		c1.547,1.578,1.856,3.714,1.856,6.065S489.788,73.708,488.241,75.286z M486.663,64.517c-0.712-0.711-1.702-1.113-2.785-1.113
		s-2.042,0.402-2.754,1.113c-1.114,1.114-1.238,3.002-1.238,4.704s0.124,3.59,1.238,4.703c0.712,0.712,1.671,1.114,2.754,1.114
		s2.073-0.402,2.785-1.114c1.114-1.113,1.207-3.001,1.207-4.703S487.777,65.631,486.663,64.517z"/>
	<path fill="#FFFFFF" d="M504.607,76.833v-9.376c0-2.692-1.455-4.054-3.744-4.054c-2.29,0-3.775,1.393-3.775,4.054v9.376h-2.229
		V61.608h2.229v1.671c1.083-1.238,2.568-1.856,4.271-1.856c1.64,0,2.971,0.495,3.898,1.423c1.083,1.053,1.578,2.476,1.578,4.239
		v9.748H504.607z"/>
	<path fill="#FFFFFF" d="M524.22,76.833c-2.6,0-3.899-1.826-3.899-4.085v-9.345h-1.918v-1.702h1.918v-4.766h2.229v4.766h3.249v1.702
		h-3.249v9.283c0,1.393,0.649,2.228,2.073,2.228h1.176v1.919H524.22z"/>
	<path fill="#FFFFFF" d="M539.751,75.286c-1.052,1.052-2.506,1.732-4.363,1.732c-1.856,0-3.311-0.681-4.362-1.732
		c-1.548-1.578-1.857-3.714-1.857-6.065s0.31-4.487,1.857-6.065c1.052-1.052,2.506-1.732,4.362-1.732
		c1.857,0,3.312,0.681,4.363,1.732c1.548,1.578,1.857,3.714,1.857,6.065S541.299,73.708,539.751,75.286z M538.173,64.517
		c-0.711-0.711-1.701-1.113-2.785-1.113c-1.083,0-2.042,0.402-2.754,1.113c-1.113,1.114-1.237,3.002-1.237,4.704
		s0.124,3.59,1.237,4.703c0.712,0.712,1.671,1.114,2.754,1.114c1.084,0,2.074-0.402,2.785-1.114
		c1.114-1.113,1.207-3.001,1.207-4.703S539.287,65.631,538.173,64.517z"/>
	<path fill="#FFFFFF" d="M558.869,77.019c-2.568,0-4.58-0.588-6.251-2.197l1.485-1.485c1.207,1.269,2.848,1.765,4.735,1.765
		c2.506,0,4.054-0.897,4.054-2.692c0-1.331-0.774-2.073-2.538-2.229l-2.506-0.217c-2.971-0.247-4.55-1.578-4.55-4.084
		c0-2.785,2.353-4.456,5.602-4.456c2.166,0,4.115,0.525,5.478,1.64l-1.455,1.454c-1.083-0.835-2.476-1.206-4.054-1.206
		c-2.228,0-3.403,0.959-3.403,2.506c0,1.3,0.742,2.073,2.661,2.229l2.444,0.217c2.661,0.247,4.487,1.269,4.487,4.115
		C565.059,75.316,562.552,77.019,558.869,77.019z"/>
	<path fill="#FFFFFF" d="M579.165,76.833v-9.407c0-2.661-1.423-4.022-3.713-4.022s-3.807,1.393-3.807,4.022v9.407h-2.228V54.8h2.228
		v8.479c1.114-1.269,2.568-1.856,4.271-1.856c3.435,0,5.478,2.196,5.478,5.632v9.778H579.165z"/>
	<path fill="#FFFFFF" d="M596.583,75.286c-1.052,1.052-2.506,1.732-4.363,1.732c-1.856,0-3.311-0.681-4.362-1.732
		C586.31,73.708,586,71.572,586,69.221s0.31-4.487,1.857-6.065c1.052-1.052,2.506-1.732,4.362-1.732
		c1.857,0,3.312,0.681,4.363,1.732c1.548,1.578,1.857,3.714,1.857,6.065S598.131,73.708,596.583,75.286z M595.005,64.517
		c-0.711-0.711-1.701-1.113-2.785-1.113c-1.083,0-2.042,0.402-2.754,1.113c-1.113,1.114-1.237,3.002-1.237,4.704
		s0.124,3.59,1.237,4.703c0.712,0.712,1.671,1.114,2.754,1.114c1.084,0,2.074-0.402,2.785-1.114
		c1.114-1.113,1.207-3.001,1.207-4.703S596.119,65.631,595.005,64.517z"/>
	<path fill="#FFFFFF" d="M617.529,76.833h-2.073l-3.991-11.821l-3.961,11.821h-2.073l-4.828-15.225h2.414l3.497,12.223l3.991-12.223
		h1.919l4.022,12.223l3.466-12.223h2.414L617.529,76.833z"/>
	<path fill="#FFFFFF" d="M631.202,77.019c-3.837,0-6.746-2.6-6.746-7.798c0-5.199,2.909-7.798,6.746-7.798
		c2.104,0,3.435,0.557,5.013,2.259l-1.516,1.423c-1.146-1.269-2.043-1.701-3.497-1.701c-1.485,0-2.724,0.588-3.527,1.732
		c-0.712,0.99-0.99,2.166-0.99,4.085s0.278,3.095,0.99,4.085c0.804,1.145,2.042,1.732,3.527,1.732c1.454,0,2.352-0.464,3.497-1.732
		l1.516,1.454C634.637,76.462,633.307,77.019,631.202,77.019z"/>
	<path fill="#FFFFFF" d="M648.713,76.833v-1.454c-1.237,1.237-2.352,1.64-4.394,1.64c-2.104,0-3.342-0.402-4.302-1.393
		c-0.742-0.742-1.145-1.888-1.145-3.095c0-2.661,1.856-4.394,5.261-4.394h4.579v-1.455c0-2.228-1.113-3.342-3.898-3.342
		c-1.949,0-2.939,0.465-3.837,1.733l-1.517-1.393c1.361-1.764,2.909-2.259,5.385-2.259c4.084,0,6.096,1.764,6.096,5.074v10.336
		H648.713z M648.713,69.809h-4.27c-2.29,0-3.404,0.929-3.404,2.692s1.083,2.6,3.497,2.6c1.3,0,2.444-0.094,3.403-1.021
		c0.526-0.495,0.773-1.361,0.773-2.631V69.809z"/>
	<path fill="#FFFFFF" d="M661.149,77.019c-2.568,0-4.58-0.588-6.251-2.197l1.485-1.485c1.207,1.269,2.847,1.765,4.734,1.765
		c2.507,0,4.054-0.897,4.054-2.692c0-1.331-0.773-2.073-2.537-2.229l-2.507-0.217c-2.971-0.247-4.549-1.578-4.549-4.084
		c0-2.785,2.352-4.456,5.601-4.456c2.167,0,4.116,0.525,5.478,1.64l-1.454,1.454c-1.083-0.835-2.476-1.206-4.054-1.206
		c-2.229,0-3.404,0.959-3.404,2.506c0,1.3,0.743,2.073,2.661,2.229l2.445,0.217c2.661,0.247,4.486,1.269,4.486,4.115
		C667.338,75.316,664.832,77.019,661.149,77.019z"/>
	<path fill="#FFFFFF" d="M673.09,69.809c0,3.342,1.578,5.261,4.487,5.261c1.764,0,2.785-0.526,3.991-1.733l1.517,1.331
		c-1.547,1.547-2.971,2.352-5.57,2.352c-4.022,0-6.652-2.414-6.652-7.798c0-4.92,2.383-7.798,6.25-7.798
		c3.931,0,6.251,2.847,6.251,7.364v1.021H673.09z M680.672,65.6c-0.589-1.392-1.95-2.289-3.56-2.289
		c-1.608,0-2.971,0.897-3.559,2.289c-0.34,0.836-0.402,1.3-0.464,2.538h8.046C681.073,66.899,681.012,66.436,680.672,65.6z"/>
	<path fill="#FFFFFF" d="M699.573,80.516c-0.31,0.835-0.65,1.393-1.084,1.795c-0.804,0.773-1.887,1.052-2.971,1.052h-0.959v-1.98
		h0.681c1.548,0,2.012-0.495,2.507-1.888l1.083-2.971l-5.478-14.915h2.414l4.178,12.223l4.146-12.223h2.414L699.573,80.516z"/>
	<path fill="#FFFFFF" d="M719.096,75.286c-1.052,1.052-2.507,1.732-4.363,1.732s-3.312-0.681-4.363-1.732
		c-1.547-1.578-1.856-3.714-1.856-6.065s0.31-4.487,1.856-6.065c1.052-1.052,2.507-1.732,4.363-1.732s3.312,0.681,4.363,1.732
		c1.547,1.578,1.856,3.714,1.856,6.065S720.643,73.708,719.096,75.286z M717.518,64.517c-0.712-0.711-1.702-1.113-2.785-1.113
		s-2.042,0.402-2.754,1.113c-1.114,1.114-1.238,3.002-1.238,4.704s0.124,3.59,1.238,4.703c0.712,0.712,1.671,1.114,2.754,1.114
		s2.073-0.402,2.785-1.114c1.114-1.113,1.207-3.001,1.207-4.703S718.632,65.631,717.518,64.517z"/>
	<path fill="#FFFFFF" d="M735.338,76.833v-1.702c-1.083,1.238-2.6,1.888-4.302,1.888c-1.64,0-3.001-0.495-3.93-1.424
		c-1.083-1.052-1.547-2.506-1.547-4.27v-9.717h2.228v9.376c0,2.692,1.424,4.054,3.714,4.054s3.806-1.393,3.806-4.054v-9.376h2.229
		v15.225H735.338z"/>
	<path fill="#FFFFFF" d="M751.611,64.517c-0.836-0.835-1.455-1.113-2.631-1.113c-2.228,0-3.651,1.764-3.651,4.084v9.346h-2.228
		V61.608h2.228v1.856c0.836-1.269,2.507-2.042,4.271-2.042c1.454,0,2.568,0.34,3.651,1.423L751.611,64.517z"/>
	<path fill="#FFFFFF" d="M774.071,75.688c-0.805,0.804-2.166,1.33-3.713,1.33c-1.671,0-3.063-0.402-4.302-1.98v8.603h-2.228V61.608
		h2.228v1.795c1.238-1.609,2.631-1.98,4.302-1.98c1.547,0,2.908,0.525,3.713,1.33c1.548,1.548,1.856,4.085,1.856,6.468
		S775.619,74.141,774.071,75.688z M769.894,63.403c-3.311,0-3.837,2.847-3.837,5.817s0.526,5.817,3.837,5.817
		c3.312,0,3.807-2.847,3.807-5.817S773.205,63.403,769.894,63.403z"/>
	<path fill="#FFFFFF" d="M789.199,64.517c-0.835-0.835-1.454-1.113-2.63-1.113c-2.229,0-3.651,1.764-3.651,4.084v9.346h-2.229
		V61.608h2.229v1.856c0.835-1.269,2.506-2.042,4.271-2.042c1.454,0,2.568,0.34,3.651,1.423L789.199,64.517z"/>
	<path fill="#FFFFFF" d="M802.44,75.286c-1.052,1.052-2.506,1.732-4.363,1.732c-1.856,0-3.311-0.681-4.362-1.732
		c-1.548-1.578-1.857-3.714-1.857-6.065s0.31-4.487,1.857-6.065c1.052-1.052,2.506-1.732,4.362-1.732
		c1.857,0,3.312,0.681,4.363,1.732c1.548,1.578,1.857,3.714,1.857,6.065S803.988,73.708,802.44,75.286z M800.862,64.517
		c-0.711-0.711-1.701-1.113-2.785-1.113c-1.083,0-2.042,0.402-2.754,1.113c-1.113,1.114-1.237,3.002-1.237,4.704
		s0.124,3.59,1.237,4.703c0.712,0.712,1.671,1.114,2.754,1.114c1.084,0,2.074-0.402,2.785-1.114
		c1.114-1.113,1.207-3.001,1.207-4.703S801.977,65.631,800.862,64.517z"/>
	<path fill="#FFFFFF" d="M818.157,76.833v-1.826c-1.238,1.609-2.661,2.012-4.332,2.012c-1.548,0-2.909-0.526-3.714-1.33
		c-1.547-1.548-1.856-4.085-1.856-6.468s0.31-4.92,1.856-6.468c0.805-0.805,2.166-1.33,3.714-1.33c1.671,0,3.063,0.371,4.301,1.949
		V54.8h2.229v22.033H818.157z M814.32,63.403c-3.312,0-3.838,2.847-3.838,5.817s0.526,5.817,3.838,5.817
		c3.311,0,3.806-2.847,3.806-5.817S817.631,63.403,814.32,63.403z"/>
	<path fill="#FFFFFF" d="M835.544,76.833v-1.702c-1.083,1.238-2.599,1.888-4.301,1.888c-1.641,0-3.002-0.495-3.93-1.424
		c-1.083-1.052-1.548-2.506-1.548-4.27v-9.717h2.229v9.376c0,2.692,1.423,4.054,3.713,4.054s3.807-1.393,3.807-4.054v-9.376h2.228
		v15.225H835.544z"/>
	<path fill="#FFFFFF" d="M849.218,77.019c-3.837,0-6.746-2.6-6.746-7.798c0-5.199,2.909-7.798,6.746-7.798
		c2.104,0,3.435,0.557,5.013,2.259l-1.516,1.423c-1.146-1.269-2.043-1.701-3.497-1.701c-1.485,0-2.724,0.588-3.527,1.732
		c-0.712,0.99-0.99,2.166-0.99,4.085s0.278,3.095,0.99,4.085c0.804,1.145,2.042,1.732,3.527,1.732c1.454,0,2.352-0.464,3.497-1.732
		l1.516,1.454C852.652,76.462,851.322,77.019,849.218,77.019z"/>
	<path fill="#FFFFFF" d="M862.737,76.833c-2.6,0-3.899-1.826-3.899-4.085v-9.345h-1.919v-1.702h1.919v-4.766h2.228v4.766h3.25v1.702
		h-3.25v9.283c0,1.393,0.65,2.228,2.073,2.228h1.177v1.919H862.737z"/>
	<path fill="#FFFFFF" d="M873.534,77.019c-2.568,0-4.58-0.588-6.251-2.197l1.485-1.485c1.207,1.269,2.847,1.765,4.734,1.765
		c2.507,0,4.054-0.897,4.054-2.692c0-1.331-0.773-2.073-2.537-2.229l-2.507-0.217c-2.971-0.247-4.549-1.578-4.549-4.084
		c0-2.785,2.352-4.456,5.601-4.456c2.167,0,4.116,0.525,5.478,1.64l-1.454,1.454c-1.083-0.835-2.476-1.206-4.054-1.206
		c-2.229,0-3.404,0.959-3.404,2.506c0,1.3,0.743,2.073,2.661,2.229l2.445,0.217c2.661,0.247,4.486,1.269,4.486,4.115
		C879.723,75.316,877.217,77.019,873.534,77.019z"/>
</g>
<g enable-background="new    ">
	<path fill="#FFFFFF" d="M82.795,111.916c-1.331,1.33-3.28,2.042-5.57,2.042h-7.55V91.925h7.55c2.29,0,4.239,0.712,5.57,2.043
		c2.29,2.29,2.166,5.663,2.166,8.727S85.084,109.626,82.795,111.916z M81.155,95.639c-1.145-1.176-2.63-1.609-4.333-1.609h-4.796
		v17.824h4.796c1.702,0,3.188-0.433,4.333-1.608c1.516-1.579,1.454-4.858,1.454-7.551S82.671,97.217,81.155,95.639z"/>
	<path fill="#FFFFFF" d="M89.969,94.401v-2.507h2.507v2.507H89.969z M90.093,113.958V98.733h2.228v15.225H90.093z"/>
	<path fill="#FFFFFF" d="M102.809,120.951c-2.29,0-3.559-0.588-5.168-2.042l1.455-1.424c1.114,0.99,1.888,1.517,3.651,1.517
		c2.94,0,4.178-2.073,4.178-4.673v-2.383c-1.238,1.578-2.63,1.98-4.271,1.98c-1.547,0-2.878-0.557-3.682-1.361
		c-1.517-1.517-1.857-3.868-1.857-6.344s0.34-4.827,1.857-6.344c0.804-0.805,2.166-1.33,3.713-1.33c1.671,0,3.033,0.371,4.271,1.98
		v-1.795h2.197v15.688C109.152,118.197,106.8,120.951,102.809,120.951z M103.149,100.528c-3.311,0-3.806,2.847-3.806,5.693
		s0.495,5.694,3.806,5.694s3.775-2.848,3.775-5.694S106.46,100.528,103.149,100.528z"/>
	<path fill="#FFFFFF" d="M114.595,94.401v-2.507h2.507v2.507H114.595z M114.719,113.958V98.733h2.228v15.225H114.719z"/>
	<path fill="#FFFFFF" d="M126.816,113.958c-2.6,0-3.899-1.826-3.899-4.085v-9.345h-1.918v-1.702h1.918v-4.766h2.228v4.766h3.25
		v1.702h-3.25v9.283c0,1.393,0.65,2.228,2.073,2.228h1.176v1.919H126.816z"/>
	<path fill="#FFFFFF" d="M141.203,113.958v-1.454c-1.238,1.237-2.352,1.64-4.394,1.64c-2.104,0-3.342-0.402-4.301-1.393
		c-0.743-0.742-1.145-1.888-1.145-3.095c0-2.661,1.857-4.394,5.261-4.394h4.58v-1.455c0-2.228-1.114-3.342-3.899-3.342
		c-1.949,0-2.939,0.465-3.837,1.733l-1.517-1.393c1.362-1.764,2.909-2.259,5.385-2.259c4.084,0,6.096,1.764,6.096,5.074v10.336
		H141.203z M141.203,106.934h-4.27c-2.29,0-3.404,0.929-3.404,2.692s1.083,2.6,3.497,2.6c1.3,0,2.444-0.094,3.404-1.021
		c0.526-0.495,0.773-1.361,0.773-2.631V106.934z"/>
	<path fill="#FFFFFF" d="M152.648,113.958c-2.661,0-3.868-1.732-3.868-4.054V91.925h2.228v17.887c0,1.485,0.495,2.228,2.042,2.228
		h1.207v1.919H152.648z"/>
	<path fill="#FFFFFF" d="M161.836,113.958c-2.661,0-3.868-1.732-3.868-4.054V91.925h2.228v17.887c0,1.485,0.495,2.228,2.042,2.228
		h1.207v1.919H161.836z"/>
	<path fill="#FFFFFF" d="M170.282,117.641c-0.309,0.835-0.649,1.393-1.083,1.795c-0.804,0.773-1.888,1.052-2.971,1.052h-0.959v-1.98
		h0.681c1.547,0,2.011-0.495,2.506-1.888l1.083-2.971l-5.478-14.915h2.414l4.178,12.223l4.146-12.223h2.414L170.282,117.641z"/>
	<path fill="#FFFFFF" d="M197.663,113.958v-1.702c-1.083,1.238-2.599,1.888-4.301,1.888c-1.64,0-3.001-0.495-3.93-1.424
		c-1.083-1.052-1.547-2.506-1.547-4.27v-9.717h2.228v9.376c0,2.692,1.423,4.054,3.713,4.054s3.806-1.393,3.806-4.054v-9.376h2.228
		v15.225H197.663z"/>
	<path fill="#FFFFFF" d="M210.223,114.144c-2.568,0-4.58-0.588-6.251-2.197l1.485-1.485c1.207,1.269,2.847,1.765,4.734,1.765
		c2.507,0,4.054-0.897,4.054-2.692c0-1.331-0.774-2.073-2.538-2.229l-2.507-0.217c-2.971-0.247-4.549-1.578-4.549-4.084
		c0-2.785,2.352-4.456,5.601-4.456c2.167,0,4.116,0.525,5.478,1.64l-1.455,1.454c-1.083-0.835-2.476-1.206-4.054-1.206
		c-2.228,0-3.404,0.959-3.404,2.506c0,1.3,0.743,2.073,2.661,2.229l2.445,0.217c2.661,0.247,4.487,1.269,4.487,4.115
		C216.412,112.441,213.905,114.144,210.223,114.144z"/>
	<path fill="#FFFFFF" d="M220.647,94.401v-2.507h2.507v2.507H220.647z M220.771,113.958V98.733h2.228v15.225H220.771z"/>
	<path fill="#FFFFFF" d="M238.346,113.958v-9.376c0-2.692-1.455-4.054-3.744-4.054c-2.29,0-3.775,1.393-3.775,4.054v9.376h-2.228
		V98.733h2.228v1.671c1.083-1.238,2.568-1.856,4.271-1.856c1.64,0,2.971,0.495,3.899,1.423c1.083,1.053,1.578,2.476,1.578,4.239
		v9.748H238.346z"/>
	<path fill="#FFFFFF" d="M250.874,120.951c-2.29,0-3.559-0.588-5.168-2.042l1.455-1.424c1.114,0.99,1.888,1.517,3.651,1.517
		c2.94,0,4.178-2.073,4.178-4.673v-2.383c-1.238,1.578-2.63,1.98-4.271,1.98c-1.547,0-2.878-0.557-3.682-1.361
		c-1.517-1.517-1.857-3.868-1.857-6.344s0.34-4.827,1.857-6.344c0.804-0.805,2.166-1.33,3.713-1.33c1.671,0,3.033,0.371,4.271,1.98
		v-1.795h2.197v15.688C257.218,118.197,254.866,120.951,250.874,120.951z M251.214,100.528c-3.311,0-3.806,2.847-3.806,5.693
		s0.495,5.694,3.806,5.694s3.775-2.848,3.775-5.694S254.525,100.528,251.214,100.528z"/>
	<path fill="#FFFFFF" d="M274.293,113.958c-2.661,0-3.868-1.732-3.868-4.054V91.925h2.228v17.887c0,1.485,0.495,2.228,2.042,2.228
		h1.207v1.919H274.293z"/>
	<path fill="#FFFFFF" d="M288.309,113.958v-1.454c-1.238,1.237-2.352,1.64-4.394,1.64c-2.104,0-3.342-0.402-4.301-1.393
		c-0.743-0.742-1.145-1.888-1.145-3.095c0-2.661,1.857-4.394,5.261-4.394h4.58v-1.455c0-2.228-1.114-3.342-3.899-3.342
		c-1.949,0-2.939,0.465-3.837,1.733l-1.517-1.393c1.362-1.764,2.909-2.259,5.385-2.259c4.084,0,6.096,1.764,6.096,5.074v10.336
		H288.309z M288.309,106.934h-4.27c-2.29,0-3.404,0.929-3.404,2.692s1.083,2.6,3.497,2.6c1.3,0,2.444-0.094,3.404-1.021
		c0.526-0.495,0.773-1.361,0.773-2.631V106.934z"/>
	<path fill="#FFFFFF" d="M300.219,113.958c-2.6,0-3.899-1.826-3.899-4.085v-9.345h-1.918v-1.702h1.918v-4.766h2.228v4.766h3.25
		v1.702h-3.25v9.283c0,1.393,0.65,2.228,2.073,2.228h1.176v1.919H300.219z"/>
	<path fill="#FFFFFF" d="M307.365,106.934c0,3.342,1.578,5.261,4.487,5.261c1.764,0,2.785-0.526,3.992-1.733l1.517,1.331
		c-1.547,1.547-2.971,2.352-5.57,2.352c-4.023,0-6.653-2.414-6.653-7.798c0-4.92,2.383-7.798,6.25-7.798
		c3.93,0,6.251,2.847,6.251,7.364v1.021H307.365z M314.946,102.725c-0.588-1.392-1.95-2.289-3.559-2.289
		c-1.609,0-2.971,0.897-3.559,2.289c-0.34,0.836-0.402,1.3-0.464,2.538h8.045C315.348,104.024,315.287,103.561,314.946,102.725z"/>
	<path fill="#FFFFFF" d="M327.166,114.144c-2.568,0-4.58-0.588-6.251-2.197l1.485-1.485c1.207,1.269,2.847,1.765,4.735,1.765
		c2.506,0,4.054-0.897,4.054-2.692c0-1.331-0.774-2.073-2.538-2.229l-2.506-0.217c-2.971-0.247-4.549-1.578-4.549-4.084
		c0-2.785,2.352-4.456,5.601-4.456c2.166,0,4.116,0.525,5.478,1.64l-1.455,1.454c-1.083-0.835-2.476-1.206-4.054-1.206
		c-2.228,0-3.404,0.959-3.404,2.506c0,1.3,0.743,2.073,2.661,2.229l2.444,0.217c2.662,0.247,4.487,1.269,4.487,4.115
		C333.354,112.441,330.848,114.144,327.166,114.144z"/>
	<path fill="#FFFFFF" d="M341.675,113.958c-2.6,0-3.899-1.826-3.899-4.085v-9.345h-1.918v-1.702h1.918v-4.766h2.228v4.766h3.25
		v1.702h-3.25v9.283c0,1.393,0.65,2.228,2.073,2.228h1.176v1.919H341.675z"/>
	<path fill="#FFFFFF" d="M363.888,101.642c-0.835-0.835-1.455-1.113-2.63-1.113c-2.228,0-3.651,1.764-3.651,4.084v9.346h-2.228
		V98.733h2.228v1.856c0.835-1.269,2.506-2.042,4.271-2.042c1.454,0,2.568,0.34,3.651,1.423L363.888,101.642z"/>
	<path fill="#FFFFFF" d="M368.744,106.934c0,3.342,1.578,5.261,4.487,5.261c1.764,0,2.785-0.526,3.992-1.733l1.517,1.331
		c-1.547,1.547-2.971,2.352-5.57,2.352c-4.023,0-6.653-2.414-6.653-7.798c0-4.92,2.383-7.798,6.25-7.798
		c3.93,0,6.251,2.847,6.251,7.364v1.021H368.744z M376.325,102.725c-0.588-1.392-1.95-2.289-3.559-2.289
		c-1.609,0-2.971,0.897-3.559,2.289c-0.34,0.836-0.402,1.3-0.464,2.538h8.045C376.727,104.024,376.666,103.561,376.325,102.725z"/>
	<path fill="#FFFFFF" d="M393.496,113.958v-9.376c0-2.692-1.455-4.054-3.745-4.054c-2.29,0-3.775,1.393-3.775,4.054v9.376h-2.228
		V98.733h2.228v1.671c1.083-1.238,2.568-1.856,4.27-1.856c1.64,0,2.971,0.495,3.899,1.423c1.083,1.053,1.578,2.476,1.578,4.239
		v9.748H393.496z"/>
	<path fill="#FFFFFF" d="M410.233,113.958v-1.826c-1.238,1.609-2.661,2.012-4.333,2.012c-1.547,0-2.909-0.526-3.713-1.33
		c-1.547-1.548-1.857-4.085-1.857-6.468s0.31-4.92,1.857-6.468c0.804-0.805,2.166-1.33,3.713-1.33c1.671,0,3.064,0.371,4.302,1.949
		v-8.572h2.228v22.033H410.233z M406.396,100.528c-3.311,0-3.837,2.847-3.837,5.817s0.526,5.817,3.837,5.817
		c3.312,0,3.807-2.847,3.807-5.817S409.707,100.528,406.396,100.528z"/>
	<path fill="#FFFFFF" d="M419.389,106.934c0,3.342,1.578,5.261,4.487,5.261c1.764,0,2.785-0.526,3.992-1.733l1.517,1.331
		c-1.547,1.547-2.971,2.352-5.57,2.352c-4.022,0-6.653-2.414-6.653-7.798c0-4.92,2.382-7.798,6.25-7.798
		c3.93,0,6.251,2.847,6.251,7.364v1.021H419.389z M426.97,102.725c-0.588-1.392-1.949-2.289-3.559-2.289
		c-1.609,0-2.971,0.897-3.559,2.289c-0.34,0.836-0.402,1.3-0.464,2.538h8.045C427.372,104.024,427.311,103.561,426.97,102.725z"/>
	<path fill="#FFFFFF" d="M442.903,101.642c-0.835-0.835-1.455-1.113-2.63-1.113c-2.228,0-3.651,1.764-3.651,4.084v9.346h-2.228
		V98.733h2.228v1.856c0.835-1.269,2.506-2.042,4.271-2.042c1.454,0,2.568,0.34,3.651,1.423L442.903,101.642z"/>
	<path fill="#FFFFFF" d="M447.293,94.401v-2.507h2.507v2.507H447.293z M447.417,113.958V98.733h2.228v15.225H447.417z"/>
	<path fill="#FFFFFF" d="M464.991,113.958v-9.376c0-2.692-1.454-4.054-3.744-4.054s-3.775,1.393-3.775,4.054v9.376h-2.228V98.733
		h2.228v1.671c1.083-1.238,2.568-1.856,4.271-1.856c1.64,0,2.971,0.495,3.899,1.423c1.083,1.053,1.578,2.476,1.578,4.239v9.748
		H464.991z"/>
	<path fill="#FFFFFF" d="M477.521,120.951c-2.29,0-3.559-0.588-5.168-2.042l1.454-1.424c1.114,0.99,1.888,1.517,3.651,1.517
		c2.94,0,4.178-2.073,4.178-4.673v-2.383c-1.237,1.578-2.63,1.98-4.271,1.98c-1.547,0-2.878-0.557-3.682-1.361
		c-1.517-1.517-1.857-3.868-1.857-6.344s0.341-4.827,1.857-6.344c0.804-0.805,2.166-1.33,3.713-1.33c1.671,0,3.032,0.371,4.271,1.98
		v-1.795h2.197v15.688C483.864,118.197,481.512,120.951,477.521,120.951z M477.86,100.528c-3.311,0-3.806,2.847-3.806,5.693
		s0.495,5.694,3.806,5.694c3.312,0,3.775-2.848,3.775-5.694S481.172,100.528,477.86,100.528z"/>
	<path fill="#FFFFFF" d="M505.767,113.958v-1.454c-1.237,1.237-2.352,1.64-4.394,1.64c-2.104,0-3.342-0.402-4.302-1.393
		c-0.742-0.742-1.145-1.888-1.145-3.095c0-2.661,1.856-4.394,5.261-4.394h4.579v-1.455c0-2.228-1.113-3.342-3.898-3.342
		c-1.949,0-2.939,0.465-3.837,1.733l-1.517-1.393c1.361-1.764,2.909-2.259,5.385-2.259c4.084,0,6.096,1.764,6.096,5.074v10.336
		H505.767z M505.767,106.934h-4.27c-2.29,0-3.404,0.929-3.404,2.692s1.083,2.6,3.497,2.6c1.3,0,2.444-0.094,3.403-1.021
		c0.526-0.495,0.773-1.361,0.773-2.631V106.934z"/>
	<path fill="#FFFFFF" d="M523.153,113.958v-9.376c0-2.692-1.454-4.054-3.744-4.054s-3.775,1.393-3.775,4.054v9.376h-2.228V98.733
		h2.228v1.671c1.083-1.238,2.568-1.856,4.271-1.856c1.64,0,2.971,0.495,3.899,1.423c1.083,1.053,1.578,2.476,1.578,4.239v9.748
		H523.153z"/>
	<path fill="#FFFFFF" d="M539.891,113.958v-1.826c-1.237,1.609-2.661,2.012-4.332,2.012c-1.547,0-2.909-0.526-3.713-1.33
		c-1.548-1.548-1.857-4.085-1.857-6.468s0.31-4.92,1.857-6.468c0.804-0.805,2.166-1.33,3.713-1.33c1.671,0,3.063,0.371,4.302,1.949
		v-8.572h2.228v22.033H539.891z M536.054,100.528c-3.312,0-3.837,2.847-3.837,5.817s0.525,5.817,3.837,5.817
		s3.807-2.847,3.807-5.817S539.365,100.528,536.054,100.528z"/>
	<path fill="#FFFFFF" d="M555.233,94.401v-2.507h2.507v2.507H555.233z M555.357,113.958V98.733h2.228v15.225H555.357z"/>
	<path fill="#FFFFFF" d="M572.932,113.958v-9.376c0-2.692-1.454-4.054-3.744-4.054s-3.775,1.393-3.775,4.054v9.376h-2.228V98.733
		h2.228v1.671c1.083-1.238,2.568-1.856,4.271-1.856c1.64,0,2.971,0.495,3.899,1.423c1.083,1.053,1.578,2.476,1.578,4.239v9.748
		H572.932z"/>
	<path fill="#FFFFFF" d="M584.842,113.958c-2.6,0-3.899-1.826-3.899-4.085v-9.345h-1.919v-1.702h1.919v-4.766h2.228v4.766h3.25
		v1.702h-3.25v9.283c0,1.393,0.65,2.228,2.073,2.228h1.177v1.919H584.842z"/>
	<path fill="#FFFFFF" d="M591.987,106.934c0,3.342,1.578,5.261,4.486,5.261c1.764,0,2.785-0.526,3.992-1.733l1.517,1.331
		c-1.548,1.547-2.971,2.352-5.57,2.352c-4.022,0-6.653-2.414-6.653-7.798c0-4.92,2.383-7.798,6.251-7.798
		c3.93,0,6.251,2.847,6.251,7.364v1.021H591.987z M599.568,102.725c-0.588-1.392-1.949-2.289-3.559-2.289s-2.971,0.897-3.559,2.289
		c-0.341,0.836-0.402,1.3-0.464,2.538h8.045C599.971,104.024,599.909,103.561,599.568,102.725z"/>
	<path fill="#FFFFFF" d="M615.501,101.642c-0.835-0.835-1.454-1.113-2.63-1.113c-2.229,0-3.651,1.764-3.651,4.084v9.346h-2.229
		V98.733h2.229v1.856c0.835-1.269,2.506-2.042,4.271-2.042c1.454,0,2.568,0.34,3.651,1.423L615.501,101.642z"/>
	<path fill="#FFFFFF" d="M628.34,113.958v-1.454c-1.237,1.237-2.352,1.64-4.394,1.64c-2.104,0-3.342-0.402-4.302-1.393
		c-0.742-0.742-1.145-1.888-1.145-3.095c0-2.661,1.856-4.394,5.261-4.394h4.579v-1.455c0-2.228-1.113-3.342-3.898-3.342
		c-1.949,0-2.939,0.465-3.837,1.733l-1.517-1.393c1.361-1.764,2.909-2.259,5.385-2.259c4.084,0,6.096,1.764,6.096,5.074v10.336
		H628.34z M628.34,106.934h-4.27c-2.29,0-3.404,0.929-3.404,2.692s1.083,2.6,3.497,2.6c1.3,0,2.444-0.094,3.403-1.021
		c0.526-0.495,0.773-1.361,0.773-2.631V106.934z"/>
	<path fill="#FFFFFF" d="M641.89,114.144c-3.837,0-6.745-2.6-6.745-7.798c0-5.199,2.908-7.798,6.745-7.798
		c2.104,0,3.436,0.557,5.014,2.259l-1.517,1.423c-1.145-1.269-2.042-1.701-3.497-1.701c-1.485,0-2.723,0.588-3.527,1.732
		c-0.712,0.99-0.99,2.166-0.99,4.085s0.278,3.095,0.99,4.085c0.805,1.145,2.042,1.732,3.527,1.732c1.455,0,2.353-0.464,3.497-1.732
		l1.517,1.454C645.325,113.587,643.994,114.144,641.89,114.144z"/>
	<path fill="#FFFFFF" d="M655.409,113.958c-2.6,0-3.899-1.826-3.899-4.085v-9.345h-1.918v-1.702h1.918v-4.766h2.229v4.766h3.249
		v1.702h-3.249v9.283c0,1.393,0.649,2.228,2.073,2.228h1.176v1.919H655.409z"/>
	<path fill="#FFFFFF" d="M661.286,94.401v-2.507h2.507v2.507H661.286z M661.41,113.958V98.733h2.228v15.225H661.41z"/>
	<path fill="#FFFFFF" d="M674.343,113.958h-1.98l-5.57-15.225h2.413l4.147,12.223l4.177-12.223h2.414L674.343,113.958z"/>
	<path fill="#FFFFFF" d="M684.148,106.934c0,3.342,1.578,5.261,4.487,5.261c1.764,0,2.785-0.526,3.991-1.733l1.517,1.331
		c-1.547,1.547-2.971,2.352-5.57,2.352c-4.022,0-6.652-2.414-6.652-7.798c0-4.92,2.383-7.798,6.25-7.798
		c3.931,0,6.251,2.847,6.251,7.364v1.021H684.148z M691.73,102.725c-0.589-1.392-1.95-2.289-3.56-2.289
		c-1.608,0-2.971,0.897-3.559,2.289c-0.34,0.836-0.402,1.3-0.464,2.538h8.046C692.132,104.024,692.07,103.561,691.73,102.725z"/>
	<path fill="#FFFFFF" d="M711.127,113.958c-2.6,0-3.899-1.826-3.899-4.085v-9.345h-1.919v-1.702h1.919v-4.766h2.228v4.766h3.25
		v1.702h-3.25v9.283c0,1.393,0.65,2.228,2.073,2.228h1.177v1.919H711.127z"/>
	<path fill="#FFFFFF" d="M718.272,106.934c0,3.342,1.578,5.261,4.487,5.261c1.764,0,2.785-0.526,3.991-1.733l1.517,1.331
		c-1.547,1.547-2.971,2.352-5.57,2.352c-4.022,0-6.652-2.414-6.652-7.798c0-4.92,2.383-7.798,6.25-7.798
		c3.931,0,6.251,2.847,6.251,7.364v1.021H718.272z M725.854,102.725c-0.589-1.392-1.95-2.289-3.56-2.289
		c-1.608,0-2.971,0.897-3.559,2.289c-0.34,0.836-0.402,1.3-0.464,2.538h8.046C726.256,104.024,726.194,103.561,725.854,102.725z"/>
	<path fill="#FFFFFF" d="M739.188,114.144c-3.837,0-6.746-2.6-6.746-7.798c0-5.199,2.909-7.798,6.746-7.798
		c2.104,0,3.435,0.557,5.013,2.259l-1.516,1.423c-1.146-1.269-2.043-1.701-3.497-1.701c-1.485,0-2.724,0.588-3.527,1.732
		c-0.712,0.99-0.99,2.166-0.99,4.085s0.278,3.095,0.99,4.085c0.804,1.145,2.042,1.732,3.527,1.732c1.454,0,2.352-0.464,3.497-1.732
		l1.516,1.454C742.622,113.587,741.292,114.144,739.188,114.144z"/>
	<path fill="#FFFFFF" d="M758.184,113.958v-9.407c0-2.661-1.423-4.022-3.713-4.022s-3.807,1.393-3.807,4.022v9.407h-2.228V91.925
		h2.228v8.479c1.114-1.269,2.568-1.856,4.271-1.856c3.435,0,5.478,2.196,5.478,5.632v9.778H758.184z"/>
	<path fill="#FFFFFF" d="M775.57,113.958v-9.376c0-2.692-1.454-4.054-3.744-4.054s-3.775,1.393-3.775,4.054v9.376h-2.228V98.733
		h2.228v1.671c1.083-1.238,2.568-1.856,4.271-1.856c1.64,0,2.971,0.495,3.899,1.423c1.083,1.053,1.578,2.476,1.578,4.239v9.748
		H775.57z"/>
	<path fill="#FFFFFF" d="M792.988,112.411c-1.052,1.052-2.507,1.732-4.363,1.732s-3.312-0.681-4.363-1.732
		c-1.547-1.578-1.856-3.714-1.856-6.065s0.31-4.487,1.856-6.065c1.052-1.052,2.507-1.732,4.363-1.732s3.312,0.681,4.363,1.732
		c1.547,1.578,1.856,3.714,1.856,6.065S794.535,110.833,792.988,112.411z M791.41,101.642c-0.712-0.711-1.702-1.113-2.785-1.113
		s-2.042,0.402-2.754,1.113c-1.114,1.114-1.238,3.002-1.238,4.704s0.124,3.59,1.238,4.703c0.712,0.712,1.671,1.114,2.754,1.114
		s2.073-0.402,2.785-1.114c1.114-1.113,1.207-3.001,1.207-4.703S792.524,102.756,791.41,101.642z"/>
	<path fill="#FFFFFF" d="M803.413,113.958c-2.661,0-3.868-1.732-3.868-4.054V91.925h2.228v17.887c0,1.485,0.495,2.228,2.043,2.228
		h1.206v1.919H803.413z"/>
	<path fill="#FFFFFF" d="M817.955,112.411c-1.052,1.052-2.507,1.732-4.363,1.732s-3.312-0.681-4.363-1.732
		c-1.547-1.578-1.856-3.714-1.856-6.065s0.31-4.487,1.856-6.065c1.052-1.052,2.507-1.732,4.363-1.732s3.312,0.681,4.363,1.732
		c1.547,1.578,1.856,3.714,1.856,6.065S819.502,110.833,817.955,112.411z M816.377,101.642c-0.712-0.711-1.702-1.113-2.785-1.113
		s-2.042,0.402-2.754,1.113c-1.114,1.114-1.238,3.002-1.238,4.704s0.124,3.59,1.238,4.703c0.712,0.712,1.671,1.114,2.754,1.114
		s2.073-0.402,2.785-1.114c1.114-1.113,1.207-3.001,1.207-4.703S817.491,102.756,816.377,101.642z"/>
	<path fill="#FFFFFF" d="M829.463,120.951c-2.29,0-3.559-0.588-5.168-2.042l1.454-1.424c1.114,0.99,1.888,1.517,3.651,1.517
		c2.94,0,4.178-2.073,4.178-4.673v-2.383c-1.237,1.578-2.63,1.98-4.271,1.98c-1.547,0-2.878-0.557-3.682-1.361
		c-1.517-1.517-1.857-3.868-1.857-6.344s0.341-4.827,1.857-6.344c0.804-0.805,2.166-1.33,3.713-1.33c1.671,0,3.032,0.371,4.271,1.98
		v-1.795h2.197v15.688C835.807,118.197,833.454,120.951,829.463,120.951z M829.803,100.528c-3.311,0-3.806,2.847-3.806,5.693
		s0.495,5.694,3.806,5.694c3.312,0,3.775-2.848,3.775-5.694S833.114,100.528,829.803,100.528z"/>
	<path fill="#FFFFFF" d="M841.249,94.401v-2.507h2.507v2.507H841.249z M841.373,113.958V98.733h2.228v15.225H841.373z"/>
	<path fill="#FFFFFF" d="M850.593,106.934c0,3.342,1.578,5.261,4.486,5.261c1.764,0,2.785-0.526,3.992-1.733l1.517,1.331
		c-1.548,1.547-2.971,2.352-5.57,2.352c-4.022,0-6.653-2.414-6.653-7.798c0-4.92,2.383-7.798,6.251-7.798
		c3.93,0,6.251,2.847,6.251,7.364v1.021H850.593z M858.174,102.725c-0.588-1.392-1.949-2.289-3.559-2.289s-2.971,0.897-3.559,2.289
		c-0.341,0.836-0.402,1.3-0.464,2.538h8.045C858.576,104.024,858.515,103.561,858.174,102.725z"/>
	<path fill="#FFFFFF" d="M870.394,114.144c-2.568,0-4.58-0.588-6.251-2.197l1.485-1.485c1.207,1.269,2.847,1.765,4.734,1.765
		c2.507,0,4.054-0.897,4.054-2.692c0-1.331-0.773-2.073-2.537-2.229l-2.507-0.217c-2.971-0.247-4.549-1.578-4.549-4.084
		c0-2.785,2.352-4.456,5.601-4.456c2.167,0,4.116,0.525,5.478,1.64l-1.454,1.454c-1.083-0.835-2.476-1.206-4.054-1.206
		c-2.229,0-3.404,0.959-3.404,2.506c0,1.3,0.743,2.073,2.661,2.229l2.445,0.217c2.661,0.247,4.486,1.269,4.486,4.115
		C876.582,112.441,874.076,114.144,870.394,114.144z"/>
	<path fill="#FFFFFF" d="M880.879,113.958v-2.909h2.909v2.909H880.879z"/>
</g>
</svg>
