<?xml version="1.0" encoding="utf-8"?>
<!-- Generator: Adobe Illustrator 17.0.0, SVG Export Plug-In . SVG Version: 6.00 Build 0)  -->
<!DOCTYPE svg PUBLIC "-//W3C//DTD SVG 1.1//EN" "http://www.w3.org/Graphics/SVG/1.1/DTD/svg11.dtd">
<svg version="1.1" id="Fames" xmlns="http://www.w3.org/2000/svg" xmlns:xlink="http://www.w3.org/1999/xlink" x="0px" y="0px"
	 width="128px" height="128px" viewBox="0 0 128 128" enable-background="new 0 0 128 128" xml:space="preserve">
<g>
	<path fill="#FFFFFF" d="M64.929-0.003c35.332-0.031,64.048,28.639,64.067,63.968c0.019,35.314-28.697,64.041-64.01,64.033
		c-35.328-0.008-64.01-28.715-63.99-64.046C1.017,28.683,29.662,0.029,64.929-0.003z M65.014,4.533
		C32.244,4.512,5.6,31.074,5.532,63.831c-0.068,32.914,26.547,59.615,59.439,59.631c32.815,0.016,59.48-26.629,59.489-59.447
		C124.47,31.182,97.857,4.554,65.014,4.533z"/>
	<path fill="#FFFFFF" d="M67.665,59.254c0.148-0.236,0.268-0.496,0.447-0.705c3.623-4.219,8.265-5.655,13.621-4.703
		c5.253,0.934,8.342,4.385,9.716,9.349c0.59,2.131,0.883,4.403,0.922,6.618c0.117,6.666,0.016,13.335,0.07,20.002
		c0.01,1.224-0.291,1.675-1.586,1.63c-2.759-0.096-5.526-0.098-8.285,0.001c-1.313,0.047-1.584-0.436-1.574-1.642
		c0.053-6.048,0.074-12.098-0.012-18.145c-0.022-1.543-0.273-3.151-0.776-4.606c-1.011-2.926-3.516-4.238-6.57-3.72
		c-4.025,0.682-6.367,3.423-6.371,7.482c-0.007,6.334-0.032,12.669,0.023,19.003c0.011,1.228-0.296,1.671-1.588,1.628
		c-2.807-0.095-5.62-0.065-8.428-0.011c-1.018,0.02-1.428-0.237-1.424-1.347c0.042-11.335,0.045-22.67,0.028-34.005
		c-0.001-0.944,0.331-1.238,1.246-1.226c3,0.04,6.001,0.038,9.001,0.002c0.876-0.01,1.19,0.321,1.15,1.174
		c-0.047,0.994-0.011,1.992-0.011,2.988C67.398,59.099,67.532,59.177,67.665,59.254z"/>
	<path fill="#FFFFFF" d="M48.964,73.173c0,5.568-0.027,11.135,0.022,16.703c0.01,1.143-0.272,1.602-1.501,1.567
		c-2.805-0.082-5.616-0.081-8.421,0c-1.218,0.035-1.511-0.403-1.507-1.556c0.038-11.183,0.036-22.366,0.008-33.548
		c-0.003-1.073,0.253-1.523,1.426-1.491c2.853,0.077,5.711,0.075,8.564,0.001c1.157-0.03,1.446,0.39,1.437,1.48
		c-0.043,5.615-0.02,11.23-0.02,16.845C48.969,73.173,48.967,73.173,48.964,73.173z"/>
	<path fill="#FFFFFF" d="M48.963,42.356c-0.028,3.255-2.436,5.608-5.744,5.612s-5.696-2.472-5.636-5.844
		c0.058-3.249,2.492-5.571,5.806-5.539C46.641,36.617,48.991,39.05,48.963,42.356z"/>
</g>
</svg>
