<?xml version="1.0" encoding="utf-8"?>
<!-- Generator: Adobe Illustrator 17.0.0, SVG Export Plug-In . SVG Version: 6.00 Build 0)  -->
<!DOCTYPE svg PUBLIC "-//W3C//DTD SVG 1.1//EN" "http://www.w3.org/Graphics/SVG/1.1/DTD/svg11.dtd">
<svg version="1.1" id="Fames" xmlns="http://www.w3.org/2000/svg" xmlns:xlink="http://www.w3.org/1999/xlink" x="0px" y="0px"
	 width="128px" height="128px" viewBox="0 0 128 128" enable-background="new 0 0 128 128" xml:space="preserve">
<g>
	<path fill="#FFFFFF" d="M-0.004,64.018c-0.02-35.242,28.681-63.98,63.937-64.021c35.294-0.041,64.116,28.773,64.063,64.044
		c-0.054,35.266-28.789,63.975-64.015,63.957C28.722,127.979,0.015,99.275-0.004,64.018z M64.03,4.419
		C31.144,4.401,4.475,30.957,4.418,63.777c-0.057,33.06,26.49,59.756,59.465,59.799c32.946,0.043,59.64-26.537,59.692-59.438
		C123.627,31.116,97.026,4.437,64.03,4.419z"/>
	<path fill="#FFFFFF" d="M91.536,82.186c0-0.635,0-1.243,0-1.851c0-8.248,0.016-16.496-0.021-24.744
		c-0.005-1.032,0.247-1.793,1.021-2.504c1.078-0.991,2.034-2.114,3.32-3.473c0.052,0.904,0.099,1.352,0.099,1.799
		c0.004,10.012,0.006,20.024,0.002,30.036c-0.002,3.608-1.748,5.355-5.357,5.356c-17.735,0.004-35.471,0.003-53.206,0
		c-3.62-0.001-5.358-1.737-5.359-5.344c-0.003-10.012-0.001-20.024-0.001-30.036c0-0.426,0-0.852,0-1.714
		c1.587,1.609,2.965,2.94,4.243,4.36c0.254,0.282,0.172,0.906,0.173,1.372c0.009,8.296,0.007,16.591,0.007,24.887
		c0,0.61,0,1.219,0,1.877c1.661,0.351,2.894,0.217,4.1-1.048c3.52-3.69,7.178-7.25,10.796-10.845
		c1.079-1.072,2.403-1.195,3.309-0.376c0.989,0.894,0.951,2.249-0.17,3.386c-2.511,2.545-5.052,5.061-7.578,7.592
		c-0.36,0.361-0.703,0.74-1.264,1.332c12.314,0,24.324,0,36.611,0c-0.44-0.499-0.745-0.883-1.088-1.228
		c-2.354-2.365-4.718-4.722-7.076-7.083c-1.616-1.618-1.892-2.854-0.874-3.9c1.017-1.046,2.362-0.781,3.922,0.778
		c3.372,3.37,6.798,6.689,10.085,10.14C88.422,82.208,89.646,82.682,91.536,82.186z"/>
	<path fill="#FFFFFF" d="M95.32,43.529c-0.376,0.396-0.692,0.746-1.025,1.079c-8.827,8.829-17.656,17.658-26.486,26.485
		c-2.636,2.635-4.996,2.637-7.635-0.002c-8.831-8.826-17.658-17.655-26.486-26.485c-0.333-0.333-0.65-0.683-1.031-1.084
		c1.003-1.694,2.481-2.332,4.319-2.332c5.337,0.002,10.674,0,16.012,0c12.628,0,25.257,0.004,37.885-0.003
		C92.755,41.185,94.301,41.758,95.32,43.529z M41.556,45.677c7.557,7.553,15.109,15.1,22.327,22.314
		C71.266,60.61,78.808,53.068,86.2,45.677C71.523,45.677,56.484,45.677,41.556,45.677z"/>
</g>
</svg>
