<?xml version="1.0" encoding="utf-8"?>
<!-- Generator: Adobe Illustrator 17.0.0, SVG Export Plug-In . SVG Version: 6.00 Build 0)  -->
<!DOCTYPE svg PUBLIC "-//W3C//DTD SVG 1.1//EN" "http://www.w3.org/Graphics/SVG/1.1/DTD/svg11.dtd">
<svg version="1.1" id="Fames" xmlns="http://www.w3.org/2000/svg" xmlns:xlink="http://www.w3.org/1999/xlink" x="0px" y="0px"
	 width="128px" height="128px" viewBox="0 0 128 128" enable-background="new 0 0 128 128" xml:space="preserve">
<path fill="#FFFFFF" d="M122.879,83.574c-2.612,0-5.077-1.079-6.992-3.024c-0.724-2.03-3.713-9.457-9.747-12.86
	c-1.079-0.609-3.729-1.24-7.499-1.869c-1.624-2.485-4.398-5.155-6.222-6.785c1.693-1.489,4.991-3.779,10.197-4.926
	c0.855-0.187,1.504-0.883,1.635-1.749c0.131-0.866-0.286-1.721-1.048-2.152c-0.051-0.03-0.318-0.177-0.766-0.407l3.817-3.865
	c0.534-0.541,0.735-1.325,0.53-2.058c-0.206-0.731-0.789-1.296-1.526-1.478c-8.874-2.196-9.163-2.196-9.469-2.196
	c-0.249,0-0.497,0.044-0.731,0.13L84.19,44.335c-33.024-4.977-44.435,3.536-52.802,9.794c-0.582,0.435-1.148,0.852-1.713,1.266
	c-10.2,1.023-19.382,2.737-24.986,3.923c0,0-0.004,0.007-0.006,0.008c-0.223,0.048-0.442,0.124-0.648,0.249
	c-0.999,0.603-1.321,1.902-0.717,2.9C10.098,73.708,17.856,79.38,22.059,82c-1.568,1.017-3.352,1.571-5.215,1.571
	c-1.168,0-2.113,0.947-2.113,2.113s0.945,2.113,2.113,2.113c3.238,0,6.309-1.124,8.833-3.199c2.527,2.078,5.599,3.2,8.836,3.199
	h0.001c3.237,0,6.309-1.124,8.835-3.199c2.527,2.078,5.601,3.199,8.837,3.199s6.309-1.123,8.836-3.199
	c2.526,2.078,5.596,3.199,8.835,3.199c3.24,0,6.309-1.123,8.835-3.199c2.527,2.078,5.599,3.2,8.836,3.199c0.001,0,0.003,0,0.003,0
	c3.237,0,6.308-1.124,8.833-3.199c2.528,2.078,5.602,3.2,8.839,3.199c3.237,0,6.309-1.123,8.835-3.199
	c2.526,2.076,5.598,3.199,8.835,3.199c1.166,0,2.113-0.947,2.113-2.113C124.986,84.518,124.045,83.574,122.879,83.574z
	 M45.606,58.763c20.754,0,39.304,2.021,42.861,2.433c0.99,0.84,2.526,2.228,3.947,3.709c-16.431-2.159-43.718-4.188-63.68-5.165
	C34.168,59.157,39.93,58.763,45.606,58.763z M54.121,51.176c1.728,0.121,3.616,0.299,5.623,0.554
	c-1.111,1.149-1.975,2.245-2.531,3.003c-2.409-0.079-4.884-0.138-7.408-0.17C51.153,53.289,52.59,52.151,54.121,51.176z
	 M65.16,52.574c4.003,0.741,8.254,1.807,12.465,3.333c-4.245-0.347-9.4-0.701-15.099-0.963C63.276,54.14,64.163,53.303,65.16,52.574
	z M95.965,44.504c0.859,0.192,2.709,0.635,4.665,1.111l-2.32,2.348c-1.697-0.668-3.793-1.39-6.198-2.04L95.965,44.504z
	 M85.658,48.838c4.269,0.7,7.932,1.849,10.618,2.876c-3.627,1.558-6.016,3.49-7.347,4.782c-9.918-5.702-21.375-8.13-30.285-9.122
	C65.508,46.681,74.226,46.962,85.658,48.838z M44.4,50.979c0.516-0.023,1.583-0.059,3.088-0.055c-1.224,1.104-2.362,2.33-3.444,3.63
	c-2.113,0.025-4.229,0.099-6.333,0.214C39.665,53.436,41.834,52.13,44.4,50.979z M97.925,80.266c-0.801-0.876-2.316-0.871-3.114,0
	c-1.955,2.133-4.538,3.307-7.275,3.307c-0.001,0-0.001,0-0.003,0c-2.738,0-5.324-1.175-7.281-3.307
	c-0.4-0.437-0.966-0.685-1.556-0.685c0,0,0,0-0.001,0c-0.592,0-1.156,0.249-1.556,0.686c-1.952,2.131-4.537,3.306-7.275,3.306
	c-2.738,0-5.322-1.175-7.277-3.307c-0.4-0.437-0.965-0.685-1.556-0.685l0,0c-0.592,0-1.156,0.249-1.556,0.685
	c-1.957,2.134-4.541,3.307-7.28,3.307s-5.324-1.173-7.28-3.307c-0.8-0.872-2.316-0.872-3.114,0c-1.955,2.133-4.54,3.307-7.278,3.307
	c0,0,0,0-0.001,0c-2.738,0-5.324-1.175-7.281-3.307c-0.135-0.146-1.014-0.7-1.014-0.7c-2.657-1.53-10.276-5.94-17.341-16.269
	c20.134-0.427,90.34,5.34,95.183,8.071c4.134,2.331,6.582,7.446,7.52,9.767c-1.817,1.575-4.038,2.437-6.375,2.437
	C102.47,83.575,99.883,82.4,97.925,80.266z"/>
</svg>
