<?xml version="1.0" encoding="utf-8"?>
<!-- Generator: Adobe Illustrator 17.0.0, SVG Export Plug-In . SVG Version: 6.00 Build 0)  -->
<!DOCTYPE svg PUBLIC "-//W3C//DTD SVG 1.1//EN" "http://www.w3.org/Graphics/SVG/1.1/DTD/svg11.dtd">
<svg version="1.1" id="Fames" xmlns="http://www.w3.org/2000/svg" xmlns:xlink="http://www.w3.org/1999/xlink" x="0px" y="0px"
	 width="128px" height="128px" viewBox="0 0 128 128" enable-background="new 0 0 128 128" xml:space="preserve">
<g>
	<path fill="#FFFFFF" d="M93.362,55.487c0.225-0.102,0.341-0.217,0.341-0.495c-0.009-5.865-0.006-11.729-0.005-17.594
		c0.001-4.707-0.002-9.415,0.006-14.122c0-0.299-0.077-0.461-0.37-0.595c-5.741-2.624-11.474-5.262-17.21-7.896
		c-3.662-1.681-7.326-3.361-10.987-5.044c-0.129-0.06-0.246-0.147-0.369-0.221c-0.077,0-0.155,0-0.233,0
		c-0.368,0.188-0.73,0.391-1.106,0.563c-4.979,2.279-9.961,4.554-14.941,6.831c-4.407,2.015-8.813,4.031-13.222,6.04
		c-0.227,0.104-0.304,0.228-0.304,0.481c0.007,10.62,0.007,21.241,0.002,31.861c0,0.231,0.055,0.363,0.281,0.472
		c5.587,2.68,11.168,5.369,16.751,8.056c3.631,1.748,7.263,3.496,10.892,5.248c0.095,0.046,0.149,0.074,0.255,0.074
		c0.058,0,0.167,0,0.225,0c0.111-0.009,0.111-0.009,0.21-0.056c5.819-2.661,11.64-5.32,17.461-7.979
		C85.146,59.235,89.253,57.359,93.362,55.487z M64.421,12.287c0.135-0.061,0.346-0.06,0.482,0.001
		c4.573,2.073,9.14,4.157,13.708,6.241c3.066,1.399,6.131,2.799,9.196,4.2c0.068,0.031,0.129,0.077,0.25,0.152
		c-0.364,0.179-0.68,0.337-0.998,0.489c-1.647,0.789-3.295,1.575-4.94,2.366c-0.028,0.013-0.053,0.014-0.08,0.024L58.437,15.013
		c0.316-0.146,0.621-0.286,0.919-0.421C61.043,13.82,62.728,13.045,64.421,12.287z M63.673,66.503
		c-0.126-0.047-0.213-0.072-0.294-0.11c-3.878-1.84-7.756-3.679-11.633-5.521c-4.64-2.205-9.278-4.414-13.921-6.614
		c-0.208-0.099-0.283-0.214-0.283-0.442c0.005-7.217,0.004-14.433,0.004-21.65c0-2.509-0.002-5.019-0.002-7.528
		c0-0.102,0.014-0.204,0.026-0.363c0.451,0.201,0.857,0.378,1.261,0.562c5.009,2.287,10.017,4.576,15.026,6.863
		c3.171,1.448,6.343,2.895,9.517,4.336c0.226,0.103,0.306,0.238,0.306,0.489c-0.005,4.435,0,8.87,0.003,13.305
		c0.002,4.465,0.004,8.929,0.006,13.393c0,0.973,0.002,1.945,0.002,2.918C63.691,66.245,63.681,66.349,63.673,66.503z
		 M64.373,33.966c-5.961-2.7-11.925-5.395-17.889-8.09c-1.92-0.867-3.841-1.732-5.761-2.6c-0.077-0.035-0.147-0.083-0.283-0.162
		c0.377-0.169,0.699-0.313,1.021-0.456c2.699-1.195,5.397-2.393,8.1-3.579c0.038-0.017,0.088-0.019,0.135-0.026l23.5,10.939
		c-0.822,0.397-1.552,0.75-2.282,1.1c-1.997,0.955-3.997,1.905-5.992,2.865C64.728,34.05,64.571,34.056,64.373,33.966z
		 M66.611,65.372c-0.085,0.041-0.174,0.076-0.323,0.14c-0.008-0.163-0.017-0.267-0.016-0.371c0.008-9.533,0.017-19.065,0.019-28.598
		c0-0.272,0.084-0.413,0.33-0.533c2.657-1.297,5.307-2.606,7.959-3.912l0.345,14.426l8.521-3.91l-0.142-14.798
		c0.041-0.066,0.102-0.12,0.196-0.165c2.454-1.195,4.905-2.396,7.357-3.594c0.065-0.032,0.138-0.046,0.247-0.081
		c0.009,0.139,0.022,0.242,0.022,0.344c0,8.823-0.002,17.645-0.003,26.468c0,0.905-0.005,1.809,0.006,2.714
		c0.002,0.208-0.075,0.312-0.258,0.399c-4.919,2.322-9.834,4.649-14.751,6.975C72.95,62.375,69.781,63.874,66.611,65.372z"/>
	<path fill="#FFFFFF" d="M125.037,72.61c0-0.299-0.077-0.461-0.37-0.595c-5.741-2.624-11.474-5.262-17.21-7.896
		c-3.662-1.681-7.326-3.361-10.987-5.044c-0.129-0.06-0.246-0.147-0.369-0.221c-0.077,0-0.155,0-0.233,0
		c-0.368,0.188-0.73,0.391-1.106,0.563c-4.979,2.279-9.961,4.554-14.941,6.831c-4.407,2.015-8.813,4.031-13.222,6.04
		c-0.227,0.104-0.304,0.228-0.304,0.481c0.007,10.62,0.007,21.241,0.002,31.861c0,0.231,0.055,0.363,0.281,0.472
		c5.587,2.68,11.168,5.369,16.751,8.056c3.631,1.748,7.263,3.496,10.892,5.248c0.095,0.046,0.149,0.074,0.255,0.074
		c0.058,0,0.167,0,0.225,0c0.112-0.01,0.112-0.01,0.21-0.056c5.819-2.661,11.64-5.32,17.461-7.979
		c4.107-1.876,8.214-3.752,12.323-5.624c0.225-0.102,0.341-0.217,0.341-0.495c-0.009-5.865-0.006-11.729-0.005-17.594
		C125.032,82.025,125.029,77.317,125.037,72.61z M95.755,61.62c0.135-0.061,0.346-0.06,0.482,0.001
		c4.573,2.073,9.14,4.157,13.708,6.241c3.066,1.399,6.131,2.799,9.196,4.2c0.068,0.031,0.129,0.077,0.25,0.152
		c-0.364,0.179-0.68,0.337-0.998,0.489c-1.647,0.789-3.295,1.575-4.94,2.366c-0.028,0.013-0.053,0.014-0.08,0.024L89.769,64.347
		c0.316-0.146,0.622-0.287,0.921-0.422C92.377,63.153,94.062,62.378,95.755,61.62z M95.006,115.836
		c-0.126-0.047-0.213-0.072-0.294-0.11c-3.878-1.84-7.756-3.679-11.633-5.521c-4.64-2.205-9.278-4.414-13.921-6.614
		c-0.208-0.099-0.283-0.214-0.283-0.442c0.005-7.217,0.004-14.433,0.004-21.65c0-2.509-0.002-5.019-0.002-7.528
		c0-0.102,0.014-0.204,0.026-0.363c0.452,0.201,0.857,0.378,1.261,0.562c5.009,2.287,10.017,4.576,15.026,6.863
		c3.171,1.448,6.343,2.895,9.517,4.336c0.226,0.103,0.306,0.238,0.306,0.489c-0.005,4.435,0,8.87,0.003,13.305
		c0.002,4.465,0.004,8.929,0.006,13.393c0,0.973,0.002,1.945,0.002,2.918C95.024,115.578,95.014,115.682,95.006,115.836z
		 M95.706,83.3c-5.962-2.7-11.925-5.395-17.889-8.09c-1.92-0.867-3.841-1.732-5.761-2.6c-0.077-0.035-0.147-0.083-0.283-0.162
		c0.377-0.169,0.699-0.313,1.021-0.456c2.699-1.195,5.397-2.393,8.1-3.579c0.039-0.017,0.089-0.02,0.137-0.026l23.5,10.939
		c-0.823,0.396-1.552,0.751-2.284,1.101c-1.997,0.955-3.997,1.905-5.992,2.865C96.061,83.384,95.904,83.389,95.706,83.3z
		 M122.204,103.234c-4.919,2.322-9.834,4.649-14.751,6.975c-3.17,1.499-6.339,2.998-9.509,4.496
		c-0.085,0.041-0.174,0.076-0.323,0.14c-0.007-0.162-0.017-0.266-0.016-0.371c0.008-9.533,0.017-19.065,0.019-28.598
		c0-0.272,0.084-0.413,0.33-0.533c2.657-1.297,5.308-2.607,7.96-3.912l0.344,14.427l8.521-3.911l-0.141-14.799
		c0.041-0.066,0.102-0.119,0.195-0.164c2.454-1.195,4.905-2.396,7.357-3.594c0.065-0.032,0.138-0.046,0.247-0.081
		c0.009,0.139,0.022,0.242,0.022,0.344c0,8.823-0.002,17.645-0.003,26.468c0,0.905-0.005,1.809,0.006,2.714
		C122.464,103.043,122.387,103.147,122.204,103.234z"/>
	<path fill="#FFFFFF" d="M61.335,72.015c-5.741-2.624-11.474-5.262-17.21-7.896c-3.662-1.681-7.326-3.361-10.987-5.044
		c-0.129-0.06-0.246-0.147-0.369-0.221c-0.077,0-0.155,0-0.233,0c-0.368,0.188-0.73,0.391-1.106,0.563
		c-4.95,2.266-9.903,4.528-14.854,6.791l-0.171,0.078c-4.379,2.002-8.757,4.005-13.138,6.002c-0.227,0.104-0.304,0.228-0.304,0.481
		C2.97,83.389,2.969,94.01,2.964,104.63c0,0.231,0.055,0.363,0.281,0.472c5.587,2.68,11.168,5.369,16.751,8.056
		c3.631,1.748,7.263,3.496,10.892,5.248c0.095,0.046,0.149,0.074,0.255,0.074c0.058,0,0.167,0,0.225,0
		c0.111-0.01,0.111-0.01,0.211-0.056c5.819-2.661,11.64-5.32,17.461-7.979c4.107-1.876,8.214-3.752,12.323-5.624
		c0.225-0.102,0.341-0.217,0.341-0.495c-0.009-5.865-0.006-11.729-0.005-17.594c0.001-4.707-0.002-9.415,0.006-14.122
		C61.705,72.311,61.628,72.149,61.335,72.015z M32.421,61.62c0.135-0.061,0.346-0.06,0.482,0.001
		c4.573,2.073,9.14,4.157,13.708,6.241c3.066,1.399,6.131,2.799,9.196,4.2c0.068,0.031,0.129,0.077,0.25,0.152
		c-0.364,0.179-0.68,0.337-0.998,0.489c-1.647,0.789-3.295,1.575-4.94,2.366c-0.028,0.013-0.053,0.014-0.08,0.024L26.436,64.347
		c0.316-0.146,0.622-0.287,0.92-0.422C29.043,63.153,30.728,62.378,32.421,61.62z M31.673,115.836
		c-0.126-0.047-0.213-0.072-0.294-0.11c-3.878-1.84-7.756-3.679-11.633-5.521c-4.64-2.205-9.278-4.414-13.921-6.614
		c-0.208-0.099-0.283-0.214-0.283-0.442c0.005-7.217,0.004-14.433,0.004-21.65c0-2.509-0.002-5.019-0.002-7.528
		c0-0.102,0.014-0.204,0.026-0.363c0.451,0.201,0.857,0.378,1.261,0.562c5.009,2.287,10.017,4.576,15.026,6.863
		c3.171,1.448,6.343,2.895,9.517,4.336c0.226,0.103,0.306,0.238,0.306,0.489c-0.005,4.435,0,8.87,0.003,13.305
		c0.002,4.465,0.004,8.929,0.006,13.393c0,0.973,0.002,1.945,0.002,2.918C31.691,115.578,31.681,115.682,31.673,115.836z
		 M32.373,83.3c-5.962-2.7-11.925-5.395-17.889-8.09c-1.92-0.867-3.841-1.732-5.761-2.6c-0.077-0.035-0.147-0.083-0.283-0.162
		c0.377-0.169,0.699-0.313,1.021-0.456c2.699-1.195,5.397-2.393,8.1-3.579c0.039-0.017,0.089-0.02,0.137-0.026l23.5,10.939
		c-0.823,0.396-1.552,0.751-2.283,1.1c-1.997,0.955-3.997,1.905-5.992,2.865C32.728,83.384,32.571,83.389,32.373,83.3z
		 M58.871,103.234c-4.919,2.322-9.834,4.649-14.751,6.975c-3.17,1.499-6.339,2.998-9.509,4.496c-0.085,0.041-0.174,0.076-0.323,0.14
		c-0.008-0.162-0.017-0.266-0.016-0.371c0.008-9.533,0.017-19.065,0.019-28.598c0-0.272,0.084-0.413,0.33-0.533
		c2.657-1.297,5.307-2.606,7.959-3.912l0.345,14.427l8.521-3.911l-0.142-14.798c0.041-0.066,0.102-0.12,0.196-0.165
		c2.454-1.195,4.905-2.396,7.357-3.594c0.065-0.032,0.138-0.046,0.247-0.081c0.009,0.139,0.022,0.242,0.022,0.344
		c0,8.823-0.002,17.645-0.003,26.468c0,0.905-0.005,1.809,0.006,2.714C59.131,103.043,59.054,103.147,58.871,103.234z"/>
</g>
</svg>
