<?xml version="1.0" encoding="utf-8"?>
<!-- Generator: Adobe Illustrator 17.0.0, SVG Export Plug-In . SVG Version: 6.00 Build 0)  -->
<!DOCTYPE svg PUBLIC "-//W3C//DTD SVG 1.1//EN" "http://www.w3.org/Graphics/SVG/1.1/DTD/svg11.dtd">
<svg version="1.1" id="Fames" xmlns="http://www.w3.org/2000/svg" xmlns:xlink="http://www.w3.org/1999/xlink" x="0px" y="0px"
	 width="128px" height="128px" viewBox="0 0 128 128" enable-background="new 0 0 128 128" xml:space="preserve">
<g>
	<path fill="#FFFFFF" d="M0,58.134c0.701-2.212,1.61-4.298,3.35-5.931c2.163-2.03,4.665-3.167,7.675-3.142
		c3.725,0.03,7.45,0.007,11.219,0.007c1.14-3.584,2.9-6.74,5.442-9.417c13.006-13.696,33.288-7.805,39.188,8.154
		c0.385,1.043,0.841,1.283,1.871,1.281c15.722-0.033,31.443-0.014,47.165-0.025c6.318-0.005,10.071,2.771,11.921,8.88
		c0.023,0.075,0.112,0.13,0.17,0.194c0,8.178,0,16.356,0,24.533c-0.081,0.149-0.196,0.289-0.239,0.449
		c-1.461,5.395-5.579,8.576-11.165,8.623c-0.431,0.004-0.861,0.037-1.404,0.062c0.044,1.597,0.252,3.211-1.325,4.199
		c-0.533,0-1.067,0-1.6,0c-1.697-0.968-1.249-2.728-1.383-4.195c-31.348,0-62.527,0-93.8,0c-0.004,1.581,0.249,3.212-1.35,4.195
		c-0.533,0-1.067,0-1.6,0c-1.692-0.972-1.26-2.719-1.381-4.267c-0.638,0-1.123-0.009-1.608,0.001
		c-3.531,0.073-6.457-1.32-8.565-4.057C1.452,86.214,0.843,84.351,0,82.668C0,74.49,0,66.312,0,58.134z M21.261,53.338
		c-3.464,0-6.918-0.018-10.372,0.005c-4.193,0.027-6.603,2.443-6.614,6.65c-0.018,6.932-0.012,13.864-0.002,20.796
		c0.006,4.244,2.452,6.675,6.734,6.676c35.327,0.005,70.654,0.005,105.982,0c4.268-0.001,6.731-2.441,6.74-6.682
		c0.014-6.932,0.016-13.864-0.001-20.796c-0.01-4.182-2.466-6.641-6.634-6.644c-15.819-0.01-31.639-0.005-47.458-0.003
		c-0.433,0-0.866,0.036-1.301,0.055c1.171,14.043-10.804,25.392-23.269,25.566C32.6,79.135,20.008,67.747,21.261,53.338z
		 M25.6,55.365c-0.061,10.85,8.212,19.239,19.032,19.301c10.882,0.062,19.286-8.171,19.364-18.969
		c0.08-10.955-8.174-19.379-19.033-19.428C34.007,36.22,25.661,44.45,25.6,55.365z"/>
	<path fill="#FFFFFF" d="M85.333,70.382c0,2.706,0.008,5.412-0.003,8.119c-0.006,1.585-0.789,2.533-2.078,2.562
		c-1.34,0.03-2.185-0.958-2.186-2.591c-0.004-5.412-0.008-10.825,0.006-16.237c0.004-1.567,0.836-2.502,2.142-2.494
		c1.255,0.007,2.102,0.93,2.113,2.391C85.348,64.881,85.333,67.632,85.333,70.382z"/>
	<path fill="#FFFFFF" d="M93.866,70.591c0,2.661,0.011,5.323-0.004,7.984c-0.009,1.545-0.861,2.504-2.157,2.486
		c-1.297-0.017-2.099-0.96-2.101-2.538c-0.009-5.412-0.009-10.823,0-16.235c0.002-1.582,0.794-2.526,2.088-2.551
		c1.339-0.026,2.166,0.949,2.172,2.602C93.874,65.091,93.866,67.841,93.866,70.591z"/>
	<path fill="#FFFFFF" d="M102.404,70.359c0.001,2.706,0.007,5.412-0.002,8.118c-0.005,1.623-0.87,2.627-2.197,2.588
		c-1.29-0.038-2.07-0.979-2.072-2.575c-0.01-5.412-0.009-10.824-0.001-16.236c0.003-1.558,0.83-2.514,2.125-2.519
		c1.295-0.005,2.131,0.946,2.141,2.506C102.416,64.947,102.403,67.653,102.404,70.359z"/>
	<path fill="#FFFFFF" d="M106.667,70.401c0-2.661-0.005-5.323,0.002-7.984c0.004-1.696,0.763-2.656,2.096-2.677
		c1.341-0.022,2.164,0.949,2.166,2.608c0.007,5.367,0.007,10.735,0,16.102c-0.002,1.649-0.834,2.635-2.165,2.614
		c-1.326-0.021-2.093-0.988-2.097-2.677C106.662,75.724,106.667,73.062,106.667,70.401z"/>
	<path fill="#FFFFFF" d="M32.001,55.39c0.029-6.76,6.091-12.751,12.873-12.722c6.759,0.029,12.761,6.102,12.724,12.872
		c-0.037,6.764-6.088,12.743-12.875,12.724C37.977,68.246,31.972,62.17,32.001,55.39z M44.869,46.935
		c-5.033-0.017-8.578,3.483-8.602,8.492c-0.024,5.002,3.524,8.57,8.524,8.573c4.942,0.003,8.504-3.513,8.541-8.43
		C53.369,50.547,49.846,46.952,44.869,46.935z"/>
</g>
</svg>
