<?xml version="1.0" encoding="utf-8"?>
<!-- Generator: Adobe Illustrator 17.0.0, SVG Export Plug-In . SVG Version: 6.00 Build 0)  -->
<!DOCTYPE svg PUBLIC "-//W3C//DTD SVG 1.1//EN" "http://www.w3.org/Graphics/SVG/1.1/DTD/svg11.dtd">
<svg version="1.1" id="Fames" xmlns="http://www.w3.org/2000/svg" xmlns:xlink="http://www.w3.org/1999/xlink" x="0px" y="0px"
	 width="128px" height="128px" viewBox="0 0 128 128" enable-background="new 0 0 128 128" xml:space="preserve">
<g transform="translate(-140.71875,-472.75)">
	<path fill="#FFFFFF" d="M247.613,480.928l-9.51,9.51c-6.575,2.192-13.488,5.286-20.745,9.284l-11.108,13.33l-0.136,3.504
		l-14.622,15.29l-20.853-9.871l-1.698-0.795l-1.174,1.445l-24.98,30.76l-2.068,2.547l3.062,1.183l88.145,34.057l3.622,1.4
		l-0.388-3.865l-3.721-36.739l-0.135-1.346l-1.219-0.569l-25.143-11.894l8.417-8.228l1.96-1.246
		c-0.296,1.185-0.312,2.296-0.045,3.333c0.267,0.977,0.83,1.896,1.689,2.754c1.155,1.155,2.444,1.796,3.865,1.915
		c1.451,0.089,3.017-0.359,4.705-1.337c0.504,1.155,1.067,2.042,1.689,2.664c1.422,1.422,2.965,2.14,4.624,2.14
		c1.629-0.03,3.388-0.755,5.283-2.177c0.267,0.385,0.475,0.647,0.623,0.795c3.199,3.199,7.018,2.583,11.461-1.86l1.463-1.653
		l0.939-2.348c2.458-1.274,4.503-2.724,6.132-4.353c0.563-0.563,1.372-1.528,2.438-2.89c1.747-4.709,2.473-10.62,2.177-17.728
		l6.358-6.349c-1.955-4.798-4.625-8.888-8.002-12.264C256.896,485.506,252.529,482.705,247.613,480.928L247.613,480.928z
		 M248.326,484.567c3.791,1.718,7.078,3.971,9.862,6.755c2.636,2.636,4.874,5.792,6.71,9.465l-5.997,5.997
		c0.74,6.072,0.392,11.836-1.03,17.286c-0.622,0.859-1.077,1.438-1.373,1.734c-0.444,0.444-1.524,1.316-3.242,2.619l3.197-7.911
		c-2.488-1.007-5.242-1.362-8.264-1.066l1.508-4.001c-4.413-1.155-7.908-1.062-10.485,0.271l1.779-4.443
		c-5.953-1.925-10.628-1.184-14.035,2.222c-0.741,0.741-1.397,1.597-1.96,2.574c-0.563,0.978-1.017,2.089-1.373,3.333l-4.046,3.956
		c0.918-2.044,1.566-4.621,1.951-7.731c3.673-1.125,6.844-3.024,9.51-5.69l0.975-1.066l-2.131-2.303l-0.713,0.795
		c-2.903,2.903-6.467,4.932-10.702,6.087c0.119,5.154-1.101,9.004-3.649,11.551c-1.659,1.659-3.71,2.561-6.168,2.709l0.578-13.375
		l10.26-12.21c3.288-1.807,10.2-4.963,20.745-9.465L248.326,484.567z M234.825,513.133c0.713,0.008,1.45,0.116,2.213,0.316
		l-5.021,11.867l-4.66,4.75c-1.748,1.748-3.307,2.828-4.669,3.242c-1.392,0.385-2.556,0.108-3.504-0.84
		c-0.681-0.681-0.89-1.484-0.623-2.402c0.267-0.977,1.007-2.073,2.222-3.287l5.726-5.735c0.207-1.155,0.525-2.173,0.939-3.062
		c0.444-0.918,0.992-1.705,1.644-2.357C230.778,513.938,232.686,513.106,234.825,513.133L234.825,513.133z M244.055,517.595
		c0.494,0.007,0.983,0.063,1.472,0.163l-4.886,12.355l-3.911,4.082c-1.451,1.451-2.786,2.316-4.001,2.583
		c-1.185,0.237-2.234-0.102-3.152-1.021c-0.533-0.533-0.935-1.383-1.201-2.538l6.53-6.439l2.574-6.665
		C239.718,518.406,241.914,517.563,244.055,517.595L244.055,517.595z M205.988,521.045l-0.452,9.862
		c0.889,0.059,1.614,0.075,2.177,0.045l-10.124,10.043c-3.584,3.584-4.076,4.106-6.298,5.498c-2.221,1.333-3.749,1.579-4.579,0.75
		c-1.896-1.896-2.368-3.759,3.408-9.535L205.988,521.045z M251.09,522.462c0.413,0.008,0.814,0.047,1.192,0.099l-3.865,10.702
		l-1.689,1.779c-2.755,2.755-5.247,3.016-7.469,0.795l4.308-4.308l3.333-8.571C248.454,522.604,249.851,522.435,251.09,522.462
		L251.09,522.462z M170.287,527.086l17.728,8.39c-3.97,4.011-4.504,5.169-5.346,7.574c-0.841,2.405-0.016,4.487,1.82,6.323
		c1.57,1.57,3.497,2.047,6.029,1.113c2.532-0.933,3.227-1.306,6.663-4.742l4.118-4.028l25.531,12.066l3.188,31.546l-81.462-31.483
		L170.287,527.086z"/>
</g>
</svg>
