<?xml version="1.0" encoding="utf-8"?>
<!-- Generator: Adobe Illustrator 17.0.0, SVG Export Plug-In . SVG Version: 6.00 Build 0)  -->
<!DOCTYPE svg PUBLIC "-//W3C//DTD SVG 1.1//EN" "http://www.w3.org/Graphics/SVG/1.1/DTD/svg11.dtd">
<svg version="1.1" id="Fames" xmlns="http://www.w3.org/2000/svg" xmlns:xlink="http://www.w3.org/1999/xlink" x="0px" y="0px"
	 width="128px" height="128px" viewBox="0 0 128 128" enable-background="new 0 0 128 128" xml:space="preserve">
<path fill="#FFFFFF" d="M83.105,99.166c-14.093-7.048-28.122-14.064-42.257-21.134c-5.158,6.137-11.689,9.345-19.777,8.751
	c-6.208-0.456-11.417-3.125-15.509-7.845c-8.102-9.348-7.241-23.515,1.853-31.801c9.027-8.224,24.005-8.559,33.442,2.832
	C54.894,42.95,68.959,35.918,83.12,28.838c-1.798-6.845-0.727-13.225,3.277-19.032c3.112-4.514,7.372-7.518,12.667-8.966
	c10.784-2.95,21.913,2.177,26.74,12.272c4.72,9.87,1.62,21.787-7.287,28.286c-8.504,6.204-22.28,6.522-31.432-4.475
	c-14.045,7.022-28.109,14.055-42.26,21.13c1.144,3.943,1.19,7.839-0.025,11.894c14.106,7.056,28.201,14.107,42.358,21.188
	c4.325-5.269,9.787-8.355,16.565-8.795c5.677-0.368,10.826,1.233,15.352,4.703c8.981,6.886,11.527,19.293,6.024,29.244
	c-5.398,9.763-17.267,14.131-27.789,10.348C87.537,123.121,79.758,112.105,83.105,99.166z M105.166,36.579
	c7.548-0.011,13.696-6.188,13.683-13.747c-0.013-7.55-6.183-13.689-13.747-13.678c-7.555,0.01-13.691,6.175-13.678,13.743
	C91.435,30.448,97.604,36.59,105.166,36.579z M118.849,105.124c0.001-7.48-6.145-13.664-13.597-13.682
	c-7.67-0.018-13.814,6.084-13.824,13.731c-0.01,7.534,6.187,13.714,13.73,13.691C112.72,118.841,118.848,112.69,118.849,105.124z
	 M22.828,50.299C15.281,50.307,9.167,56.441,9.14,64.031c-0.026,7.513,6.148,13.667,13.731,13.689
	c7.452,0.021,13.711-6.192,13.692-13.59C36.543,56.439,30.438,50.291,22.828,50.299z"/>
</svg>
