<?xml version="1.0" encoding="utf-8"?>
<!-- Generator: Adobe Illustrator 17.0.0, SVG Export Plug-In . SVG Version: 6.00 Build 0)  -->
<!DOCTYPE svg PUBLIC "-//W3C//DTD SVG 1.1//EN" "http://www.w3.org/Graphics/SVG/1.1/DTD/svg11.dtd">
<svg version="1.1" id="Fames" xmlns="http://www.w3.org/2000/svg" xmlns:xlink="http://www.w3.org/1999/xlink" x="0px" y="0px"
	 width="128px" height="128px" viewBox="0 0 128 128" enable-background="new 0 0 128 128" xml:space="preserve">
<g>
	<path fill="#FFFFFF" d="M88.011,12.418c-11.856,0-23.711,0.006-35.567-0.004c-3.301-0.003-5.219-2.744-4.142-5.868
		c0.584-1.693,1.995-2.632,4.092-2.639c5.715-0.018,11.429-0.014,17.144-0.013c17.954,0.001,35.908,0.002,53.862,0.011
		c2.996,0.002,4.725,1.741,4.575,4.55c-0.127,2.363-1.737,3.947-4.14,3.955c-7.378,0.023-14.756,0.012-22.133,0.013
		c-4.563,0.001-9.126,0-13.69,0C88.011,12.423,88.011,12.42,88.011,12.418z"/>
	<path fill="#FFFFFF" d="M88.021,56.472c-11.515,0-23.03,0.004-34.546-0.008c-0.888-0.001-1.819,0.027-2.657-0.212
		c-2.052-0.586-3.035-2.551-2.664-5.031c0.291-1.947,1.897-3.262,4.099-3.266c8.53-0.016,17.06-0.009,25.589-0.01
		c14.97-0.001,29.94-0.005,44.909,0.01c0.885,0.001,1.82,0.008,2.643,0.279c1.934,0.637,2.923,2.693,2.512,4.895
		c-0.381,2.039-1.912,3.328-4.062,3.33c-11.942,0.011-23.883,0.005-35.825,0.005C88.021,56.464,88.021,56.469,88.021,56.472z"/>
	<path fill="#FFFFFF" d="M87.978,100.246c-11.856,0-23.713,0.006-35.569-0.004c-2.797-0.002-4.351-1.608-4.309-4.385
		c0.038-2.499,1.563-4.088,4.064-4.114c3.753-0.039,7.506-0.016,11.259-0.016c20.002,0,40.004-0.001,60.006,0.006
		c2.94,0.001,4.64,1.687,4.545,4.451c-0.083,2.422-1.718,4.047-4.172,4.053c-7.634,0.02-15.268,0.01-22.902,0.012
		c-4.308,0.001-8.615,0-12.923,0V100.246z"/>
	<path fill="#FFFFFF" d="M33.332,108.518c0,2.766,0.325,5.58-0.072,8.289c-0.676,4.607-4.611,8.06-9.279,8.268
		c-4.598,0.204-9.22,0.245-13.815,0.021c-5.851-0.285-10.072-4.985-10.086-10.829c-0.009-3.882-0.014-7.765,0.002-11.647
		c0.024-6.093,4.639-10.794,10.732-10.875c4.138-0.055,8.277-0.064,12.415-0.006c5.812,0.08,10.293,4.675,10.328,10.508
		c0.012,2.09,0.002,4.181,0.002,6.272C33.482,108.518,33.407,108.518,33.332,108.518z M17.156,97.135
		c-2.09,0-4.18-0.032-6.269,0.008c-3.107,0.06-5.33,2.259-5.356,5.332c-0.033,3.838-0.035,7.677,0.012,11.515
		c0.042,3.449,2.372,5.723,5.835,5.745c3.753,0.023,7.506,0.012,11.26,0.006c3.178-0.005,5.4-1.955,5.496-5.145
		c0.128-4.218,0.106-8.445-0.001-12.665c-0.074-2.9-2.181-4.771-5.091-4.79C21.08,97.127,19.118,97.138,17.156,97.135z"/>
	<path fill="#FFFFFF" d="M17.21,47.984c2.218,0,4.439-0.077,6.653,0.015c5.451,0.226,9.614,4.508,9.678,9.945
		c0.05,4.222,0.051,8.446,0.007,12.668c-0.059,5.765-4.639,10.406-10.398,10.503c-4.051,0.068-8.105,0.077-12.156-0.012
		C4.779,80.967,0.104,76.12,0.08,69.894c-0.015-3.754-0.017-7.507,0-11.261c0.027-5.855,4.337-10.372,10.222-10.638
		c2.298-0.104,4.605-0.017,6.908-0.017C17.21,47.98,17.21,47.982,17.21,47.984z M16.939,75.955c1.791,0,3.589-0.105,5.371,0.022
		c3.804,0.27,5.777-2.724,5.838-5.551c0.09-4.134,0.082-8.272-0.001-12.406c-0.052-2.601-1.862-4.512-4.312-4.757
		c-0.664-0.066-1.347,0.079-2.021,0.081c-3.624,0.011-7.248-0.024-10.872,0.018c-2.902,0.034-5.258,1.839-5.328,4.301
		C5.49,62.05,5.462,66.447,5.612,70.831c0.098,2.858,2.708,5.088,5.571,5.119C13.102,75.971,15.021,75.954,16.939,75.955z"/>
	<path fill="#FFFFFF" d="M33.304,15.105c0,4.821,0.38,9.199-0.101,13.481c-0.543,4.831-4.801,8.277-9.68,8.431
		c-4.305,0.136-8.623,0.163-12.925-0.004c-5.426-0.211-9.902-4.132-10.333-9.531c-0.392-4.911-0.331-9.904,0.053-14.82
		c0.362-4.628,4.709-8.468,9.383-8.647c4.899-0.187,9.811-0.074,14.716-0.045c0.787,0.005,1.572,0.259,2.409,0.407
		c-1.486,1.569-2.854,3.053-4.282,4.476c-0.214,0.213-0.714,0.186-1.083,0.187c-3.414,0.013-6.827-0.006-10.241,0.012
		c-3.481,0.019-5.677,2.2-5.698,5.667C5.503,18.39,5.499,22.06,5.526,25.73c0.027,3.642,2.315,5.91,5.927,5.918
		c3.712,0.009,7.425,0.004,11.137,0.004c3.358,0,5.505-2.094,5.578-5.473c0.034-1.578-0.018-3.158,0.028-4.736
		c0.013-0.431,0.124-0.962,0.394-1.266C30.062,18.524,31.598,16.927,33.304,15.105z"/>
	<path fill="#FFFFFF" d="M70.562,62.609c6.098,0.001,12.197-0.019,18.295,0.009c3.41,0.016,5.393,3.473,3.734,6.47
		c-0.882,1.593-2.329,2.115-4.081,2.112c-8.401-0.017-16.802-0.005-25.204-0.005c-3.668,0-7.336,0.043-11.002-0.019
		c-3.253-0.055-5.126-2.976-3.947-6.026c0.631-1.634,2.043-2.537,4.038-2.539C58.451,62.604,64.507,62.608,70.562,62.609z"/>
	<path fill="#FFFFFF" d="M70.557,106.395c6.013,0,12.026-0.004,18.039,0.002c2.824,0.003,4.475,1.573,4.492,4.248
		c0.017,2.651-1.652,4.316-4.449,4.32c-12.069,0.017-24.137,0.017-36.206-0.001c-2.786-0.004-4.369-1.659-4.333-4.401
		c0.034-2.647,1.631-4.163,4.418-4.166C58.532,106.39,64.544,106.395,70.557,106.395z"/>
	<path fill="#FFFFFF" d="M70.676,18.312c5.97,0,11.94-0.003,17.91,0.001c2.827,0.002,4.504,1.584,4.506,4.229
		c0.002,2.67-1.618,4.307-4.444,4.32c-7.249,0.035-14.498,0.013-21.748,0.014c-4.776,0-9.552,0.01-14.328-0.002
		c-2.847-0.007-4.463-1.566-4.472-4.268c-0.009-2.699,1.556-4.286,4.281-4.291C58.48,18.305,64.578,18.312,70.676,18.312z"/>
	<path fill="#FFFFFF" d="M16.89,19.485c4.852-4.852,9.493-9.493,14.134-14.133c0.603-0.603,1.186-1.228,1.816-1.801
		c1.159-1.055,2.604-1.057,3.679-0.041c1.113,1.051,1.195,2.585,0.094,3.763c-1.368,1.463-2.811,2.855-4.225,4.275
		c-4.332,4.35-8.664,8.7-13,13.045c-1.715,1.719-3.062,1.709-4.796-0.029c-1.114-1.116-2.231-2.231-3.322-3.37
		c-1.245-1.3-1.295-2.85-0.162-3.964c1.11-1.092,2.699-1.021,3.972,0.229C15.685,18.053,16.215,18.724,16.89,19.485z"/>
</g>
</svg>
