<?xml version="1.0" encoding="utf-8"?>
<!-- Generator: Adobe Illustrator 17.0.0, SVG Export Plug-In . SVG Version: 6.00 Build 0)  -->
<!DOCTYPE svg PUBLIC "-//W3C//DTD SVG 1.1//EN" "http://www.w3.org/Graphics/SVG/1.1/DTD/svg11.dtd">
<svg version="1.1" id="Fames" xmlns="http://www.w3.org/2000/svg" xmlns:xlink="http://www.w3.org/1999/xlink" x="0px" y="0px"
	 width="128px" height="128px" viewBox="0 0 128 128" enable-background="new 0 0 128 128" xml:space="preserve">
<g>
	<path fill="#FFFFFF" d="M128,99.502c-0.161,0.512-0.32,1.024-0.483,1.535c-1.344,4.224-5.151,6.96-9.753,6.962
		c-22.313,0.007-44.626,0.003-66.94,0.003c-13.321,0-26.643,0-39.964,0c-5.724,0-9.133-2.607-10.69-8.167
		C0.137,99.717,0.058,99.612,0,99.502c0-23.667,0-47.333,0-71c0.16-0.509,0.318-1.019,0.48-1.527
		c1.291-4.058,4.999-6.854,9.25-6.963c0.915-0.023,1.832-0.009,2.748-0.009c34.763,0,69.525,0,104.288,0
		c6.149,0,9.394,2.419,11.113,8.282c0.023,0.078,0.08,0.145,0.121,0.217C128,52.168,128,75.835,128,99.502z M63.933,104.001
		c17.832,0,35.663,0.001,53.495-0.001c4.087-0.001,6.57-2.453,6.571-6.499c0.003-22.331,0.003-44.663,0-66.994
		c-0.001-4.054-2.475-6.505-6.562-6.505c-35.58-0.002-71.16-0.001-106.74,0c-4.321,0-6.696,2.395-6.696,6.749
		c-0.001,22.206-0.001,44.413,0,66.619c0,4.229,2.422,6.63,6.687,6.631C28.436,104.002,46.185,104.002,63.933,104.001z"/>
	<path fill="#FFFFFF" d="M107.943,28.089c0,23.989,0,47.886,0,71.848c-29.286,0-58.516,0-87.844,0c0-23.908,0-47.834,0-71.848
		C49.329,28.089,78.588,28.089,107.943,28.089z M103.945,32.09c-26.694,0-53.286,0-79.844,0c0,21.349,0,42.609,0,63.845
		c26.663,0,53.226,0,79.844,0C103.945,74.638,103.945,53.408,103.945,32.09z"/>
	<path fill="#FFFFFF" d="M119.998,63.939c0.032,2.223-1.78,4.061-4.001,4.06c-2.175-0.001-3.965-1.766-3.995-3.939
		c-0.031-2.233,1.767-4.058,3.998-4.057C118.176,60.004,119.967,61.767,119.998,63.939z"/>
</g>
</svg>
