<?xml version="1.0" encoding="utf-8"?>
<!-- Generator: Adobe Illustrator 17.0.0, SVG Export Plug-In . SVG Version: 6.00 Build 0)  -->
<!DOCTYPE svg PUBLIC "-//W3C//DTD SVG 1.1//EN" "http://www.w3.org/Graphics/SVG/1.1/DTD/svg11.dtd">
<svg version="1.1" id="Fames" xmlns="http://www.w3.org/2000/svg" xmlns:xlink="http://www.w3.org/1999/xlink" x="0px" y="0px"
	 width="128px" height="128px" viewBox="0 0 128 128" enable-background="new 0 0 128 128" xml:space="preserve">
<g>
	<path fill="#FFFFFF" d="M60.194,126.5c-2.476-0.342-4.977-0.559-7.424-1.045c-22.434-4.458-38.284-17.231-47.465-38.12
		c-4.281-9.74-5.75-20.076-4.536-30.635C3.18,35.709,13.466,19.561,31.481,8.51c10.846-6.654,22.784-9.399,35.472-8.889
		c25.475,1.025,48.603,18.31,56.856,42.451c1.774,5.19,2.951,10.5,3.325,15.98c0.024,0.343,0.148,0.679,0.225,1.018
		c0,2.644,0,5.288,0,7.933c-0.075,0.294-0.197,0.584-0.218,0.882c-0.455,6.638-1.877,13.072-4.533,19.16
		c-9.159,20.998-24.974,33.853-47.464,38.388c-2.485,0.501-5.029,0.717-7.546,1.066C65.13,126.5,62.661,126.5,60.194,126.5z
		 M118.896,62.988C118.848,32.558,94.254,8.044,63.761,8.034C33.556,8.023,8.826,32.794,8.897,62.988
		c0.071,30.482,24.687,55.087,55.065,55.042C94.299,117.984,118.942,93.292,118.896,62.988z"/>
	<path fill="#FFFFFF" d="M55.601,82.665c0.465-0.644,0.702-1.086,1.042-1.427c12.637-12.654,25.286-25.296,37.919-37.953
		c1.235-1.237,2.582-1.969,4.371-1.474c2.859,0.791,3.953,4.124,2.102,6.431c-0.274,0.342-0.601,0.643-0.913,0.954
		C86.265,63.06,72.38,76.896,58.576,90.811c-2.074,2.091-4.705,2.452-7.057-0.008c-5.115-5.345-10.43-10.498-15.661-15.732
		c-2.042-2.044-2.19-4.723-0.371-6.563c1.818-1.84,4.538-1.716,6.563,0.306c4.051,4.047,8.101,8.094,12.14,12.153
		C54.623,81.399,54.979,81.909,55.601,82.665z"/>
</g>
</svg>
