<?xml version="1.0" encoding="utf-8"?>
<!-- Generator: Adobe Illustrator 17.0.0, SVG Export Plug-In . SVG Version: 6.00 Build 0)  -->
<!DOCTYPE svg PUBLIC "-//W3C//DTD SVG 1.1//EN" "http://www.w3.org/Graphics/SVG/1.1/DTD/svg11.dtd">
<svg version="1.1" id="Fames" xmlns="http://www.w3.org/2000/svg" xmlns:xlink="http://www.w3.org/1999/xlink" x="0px" y="0px"
	 width="128px" height="128px" viewBox="0 0 128 128" enable-background="new 0 0 128 128" xml:space="preserve">
<g>
	<path fill="#FFFFFF" d="M95.73,128c-1.439-0.895-1.787-2.193-1.678-3.834c0.451-6.815,2.717-13.173,4.814-19.574
		c2.16-6.596,4.335-13.187,5.106-20.132c0.16-1.438,0.275-2.889,0.284-4.335c0.038-6.148,0.085-12.297,0.016-18.444
		c-0.043-3.861-3.411-6.28-6.832-5.06c-2.061,0.735-3.351,2.57-3.401,4.986c-0.048,2.348,0.004,4.699-0.019,7.048
		c-0.019,1.957-0.945,3.008-2.569,2.989c-1.584-0.019-2.533-1.125-2.543-3.055c-0.019-3.899-0.001-7.798-0.009-11.696
		c-0.007-3.384-2.029-5.661-5.029-5.684c-3.062-0.024-5.173,2.28-5.2,5.703c-0.018,2.249,0.011,4.499-0.012,6.748
		c-0.019,1.821-0.972,2.87-2.54,2.867c-1.535-0.002-2.548-1.098-2.558-2.879c-0.024-3.999,0.001-7.998-0.012-11.996
		c-0.01-3.325-2.115-5.582-5.156-5.558c-2.958,0.023-5.049,2.29-5.059,5.514c-0.012,3.949,0.004,7.898-0.006,11.846
		c-0.005,1.951-0.911,3.044-2.503,3.073c-1.66,0.03-2.602-1.08-2.603-3.113c-0.005-13.746-0.005-27.492-0.006-41.237
		c0-0.55,0.016-1.1-0.002-1.649c-0.1-2.978-2.266-5.134-5.144-5.13c-2.883,0.004-5.054,2.165-5.059,5.17
		c-0.022,13.796-0.013,27.592-0.014,41.387c-0.001,5.548,0.002,11.097-0.004,16.645c-0.002,1.908-0.557,2.827-1.878,3.171
		c-1.612,0.419-2.718-0.117-3.684-1.792c-3.043-5.277-6.074-10.562-9.135-15.828c-1.106-1.903-2.819-2.857-5.006-2.616
		c-2.24,0.247-3.755,1.541-4.405,3.729c-0.491,1.652-0.007,3.142,0.86,4.563c2.97,4.868,5.719,9.838,7.293,15.373
		c0.873,3.071,1.857,6.111,2.73,9.182c0.991,3.485,2.409,6.767,4.437,9.774c4.273,6.335,8.54,12.674,12.843,18.989
		c1.548,2.272,1.439,3.29-0.716,4.856c-0.6,0-1.2,0-1.8,0c-0.727-0.864-1.534-1.675-2.169-2.602
		c-3.897-5.686-7.744-11.407-11.631-17.1c-3.248-4.757-5.474-9.965-6.891-15.525c-1.862-7.302-4.473-14.272-8.634-20.617
		c-1.768-2.697-2.147-5.696-1.09-8.761c1.425-4.135,4.426-6.516,8.73-6.956c4.133-0.423,7.429,1.293,9.658,4.8
		c1.526,2.4,2.865,4.919,4.293,7.381c0.243,0.419,0.515,0.821,0.965,1.535c0.05-0.753,0.101-1.166,0.101-1.58
		c0.005-15.897-0.007-31.795,0.013-47.692c0.009-7.655,7.086-12.631,14.017-9.898c3.852,1.519,6.399,5.197,6.426,9.454
		c0.04,6.399,0.012,12.798,0.013,19.197c0,0.798,0,1.596,0,2.579c2.872-1.307,5.71-1.71,8.631-0.63
		c2.938,1.086,4.896,3.179,6.174,6.123c2.865-1.615,5.817-2.148,8.94-1.083c3.076,1.048,5.127,3.177,6.402,6.208
		c2.271-1.278,4.602-1.921,7.119-1.541c4.997,0.754,8.665,4.692,8.781,9.883c0.149,6.644,0.106,13.298-0.052,19.943
		c-0.176,7.415-2.317,14.457-4.458,21.489c-1.743,5.726-3.429,11.469-5.031,17.236c-0.423,1.523-0.551,3.154-0.608,4.743
		c-0.052,1.454-0.46,2.609-1.699,3.414C96.93,128,96.33,128,95.73,128z"/>
	<path fill="#FFFFFF" d="M68.439,33.8c0-4.523,0.013-8.768-0.003-13.012c-0.03-8.391-5.824-14.774-14.147-15.606
		c-8.254-0.826-16.1,5.832-16.451,14.113c-0.18,4.243-0.066,8.498-0.084,12.747c-0.002,0.487,0,0.973,0,1.564
		c-5.066-4.396-8.029-16.526-0.834-25.713c7.363-9.402,21.163-10.583,29.925-2.578C76.035,13.709,74.956,27.006,68.439,33.8z"/>
</g>
</svg>
