<?xml version="1.0" encoding="utf-8"?>
<!-- Generator: Adobe Illustrator 18.0.0, SVG Export Plug-In . SVG Version: 6.00 Build 0)  -->
<!DOCTYPE svg PUBLIC "-//W3C//DTD SVG 1.1//EN" "http://www.w3.org/Graphics/SVG/1.1/DTD/svg11.dtd">
<svg version="1.1" id="Fames" xmlns="http://www.w3.org/2000/svg" xmlns:xlink="http://www.w3.org/1999/xlink" x="0px" y="0px"
	 viewBox="0 0 128 128" enable-background="new 0 0 128 128" xml:space="preserve">
<g transform="translate(0.000000,1136.000000) scale(0.100000,-0.100000)">
	<path fill="#FFFFFF" d="M87.7,11305.8c-1.3-0.2-5.1-1.6-8.8-3c-3.7-1.4-20.6-7.5-37.8-13.4c-33.6-11.5-36.5-13.1-41-21.8
		c-1.6-3-2.6-7.2-2.7-12.8c-0.5-8.2,44-1025.6,45.3-1035.7c1.3-10.2,6.9-18.9,14.4-22.2c3-1.3,63.4-16.2,78.4-19.4
		c4.3-0.8,30.9,3.4,201.9,31.5c108.3,17.9,197.8,32.3,198.6,32c1.3-0.5,1.4-3,1.3-10.7l-0.3-10.2l-22.9-3.8l-22.9-3.8l0.8-18.1
		c0.5-9.9,1-22.2,1.4-27.4l0.6-9.3l40.2-8.5l40.2-8.5l202.4,38.7c111.4,21.4,203,39,203.8,39.4c1.3,0.5,1.4,3,0.8,11.8
		c-0.3,6.1-0.8,17.4-1.3,25l-0.6,13.8l-18.2,2.4c-10.1,1.3-19.4,2.6-20.6,2.9c-2.2,0.5-2.4,1.3-2.9,16.2c-0.3,8.6-0.2,16,0.2,16.5
		c0.3,0.3,74.2,12.8,164.2,27.7c127.8,21.1,164.2,27.5,166.2,29c3.8,2.9,7.5,8.5,9,13.8c1,3.5-2.1,90.4-14.2,401.9
		c-8.6,218.6-16,400.6-16.6,404.8c-1.3,8.6-5.8,16.3-11,19c-2.7,1.6-117.3,11.8-567.4,51.5C49,11310.3,90.8,11306.6,87.7,11305.8z
		 M670.6,11221c296.5-22.9,541.6-41.9,544.5-42.2l5.4-0.6l16.8-386.1c9.3-212.3,16.8-388,16.8-390.2c-0.2-3.7-0.5-4.2-3.7-4.8
		c-28.2-5-1085-175-1085.3-174.6c-0.5,0.3-42.9,1025-43,1038.7c0,2.2,0.5,2.4,4.8,1.9C129.5,11263,374.1,11243.9,670.6,11221z
		 M815.9,10277.9l0.3-9.4l-5.8-1.3c-3.2-0.6-36.6-6.4-74.4-12.8c-37.8-6.4-69.9-12-71.5-12.3l-3-0.5v10.6c0,5.8,0.2,10.6,0.3,10.7
		c7.4,1.6,149.3,25,151.2,24.8C815.4,10287.3,815.6,10287.1,815.9,10277.9z"/>
</g>
</svg>
