<?xml version="1.0" encoding="utf-8"?>
<!-- Generator: Adobe Illustrator 17.0.0, SVG Export Plug-In . SVG Version: 6.00 Build 0)  -->
<!DOCTYPE svg PUBLIC "-//W3C//DTD SVG 1.1//EN" "http://www.w3.org/Graphics/SVG/1.1/DTD/svg11.dtd">
<svg version="1.1" id="Fames" xmlns="http://www.w3.org/2000/svg" xmlns:xlink="http://www.w3.org/1999/xlink" x="0px" y="0px"
	 width="128px" height="128px" viewBox="0 0 128 128" enable-background="new 0 0 128 128" xml:space="preserve">
<path fill="#FFFFFF" d="M115.823,91.431c-8.908,3.436-17.712,6.86-26.538,10.229c-22.044,8.414-44.06,16.904-66.189,25.089
	c-3.18,1.176-6.921,0.836-10.918,1.252c0-41.979,0-82.574,0-123.639C14.131,3.006,16.339,1.474,18.463,0
	c32.574,10.307,64.823,20.511,97.36,30.806C115.823,50.953,115.823,70.808,115.823,91.431z M20.999,84.628
	c0,13.709,0,26.515,0,40.125c13.597-5.177,26.725-10.176,39.672-15.106c0-10.449,0-20.335,0-30.649
	C47.291,80.897,34.326,82.737,20.999,84.628z M60.829,47.092c-13.395-1.272-26.382-2.506-39.684-3.769c0,13.404,0,26.302,0,39.751
	c13.464-1.909,26.529-3.761,39.684-5.626C60.829,67.111,60.829,57.524,60.829,47.092z M60.741,16.178
	c-13.233-4.17-26.189-8.253-39.56-12.467c0,12.945,0,25.228,0,38.074c13.223,1.267,26.222,2.513,39.56,3.792
	C60.741,35.636,60.741,26.215,60.741,16.178z M62.571,108.924c10.017-3.834,19.183-7.341,28.059-10.738c0-8.036,0-15.349,0-23.431
	c-9.623,1.39-18.814,2.718-28.059,4.054C62.571,89.014,62.571,98.413,62.571,108.924z M90.626,73.304c0-7.949,0-15.398,0-23.391
	c-9.424-0.896-18.583-1.767-28.007-2.664c0,10.173,0,19.729,0,29.892C71.985,75.858,80.986,74.625,90.626,73.304z M62.7,45.663
	c9.316,0.903,18.468,1.79,27.96,2.71c0-7.763,0-15.05,0-22.711c-9.244-2.919-18.329-5.788-27.96-8.829
	C62.7,26.723,62.7,35.898,62.7,45.663z M113.03,71.682c-7.238,0.989-13.793,1.885-20.398,2.788c0,7.857,0,15.097,0,22.998
	c7.209-2.767,13.858-5.319,20.398-7.83C113.03,83.632,113.03,78.231,113.03,71.682z M112.926,70.016c0-6.284,0-11.946,0-17.959
	c-6.924-0.686-13.505-1.337-20.274-2.007c0,7.788,0,15.039,0,22.906C99.682,71.937,106.226,70.988,112.926,70.016z M92.521,48.451
	c7.037,0.707,13.513,1.358,20.408,2.05c0-6.171,0-11.844,0-17.822c-6.743-2.123-13.322-4.195-20.408-6.427
	C92.521,34.227,92.521,41.049,92.521,48.451z"/>
</svg>
