<?xml version="1.0" encoding="utf-8"?>
<!-- Generator: Adobe Illustrator 17.0.0, SVG Export Plug-In . SVG Version: 6.00 Build 0)  -->
<!DOCTYPE svg PUBLIC "-//W3C//DTD SVG 1.1//EN" "http://www.w3.org/Graphics/SVG/1.1/DTD/svg11.dtd">
<svg version="1.1" id="Fames" xmlns="http://www.w3.org/2000/svg" xmlns:xlink="http://www.w3.org/1999/xlink" x="0px" y="0px"
	 width="128px" height="128px" viewBox="0 0 128 128" enable-background="new 0 0 128 128" xml:space="preserve">
<g>
	<path fill="#FFFFFF" d="M127.997,64.052c-0.041,35.316-28.768,63.991-64.061,63.946C28.603,127.953-0.03,99.265-0.003,63.937
		C0.023,28.564,28.802-0.098,64.195-0.002C99.443,0.093,128.037,28.801,127.997,64.052z M4.55,63.962
		c-0.004,32.83,26.592,59.458,59.411,59.482c32.798,0.024,59.465-26.614,59.482-59.418C123.46,31.213,96.851,4.578,64.026,4.55
		C31.218,4.523,4.554,31.158,4.55,63.962z"/>
	<path fill="#FFFFFF" d="M37.254,82.015c5.831,0.152,11.001-1.313,15.406-4.694c-1.99-0.917-4.083-1.655-5.929-2.793
		c-1.933-1.192-3.116-3.12-3.886-5.37c1.499-0.078,2.848-0.149,4.196-0.219c-5.021-2.211-7.897-5.77-8.268-11.42
		c1.608,0.436,2.956,0.801,4.304,1.166c0.081-0.088,0.162-0.176,0.242-0.264c-4.47-4.282-5.71-9.168-2.991-15.121
		c6.125,7.189,13.609,11.295,23.071,12.002c0-1.401-0.104-2.628,0.019-3.832c0.431-4.209,2.555-7.348,6.352-9.197
		c3.77-1.836,7.718-1.763,10.909,0.904c2.126,1.777,3.79,1.338,5.798,0.51c0.998-0.412,1.974-0.875,3.251-1.445
		c-0.801,2.555-2.278,4.268-4.133,5.728c0.062,0.113,0.124,0.227,0.187,0.34c1.685-0.443,3.37-0.885,5.056-1.328
		c0.087,0.094,0.175,0.188,0.262,0.283c-1.321,1.391-2.556,2.88-3.994,4.137c-0.95,0.831-1.302,1.658-1.358,2.909
		c-0.615,13.516-6.412,23.973-18.904,29.759c-9.624,4.457-19.358,3.725-28.685-1.441C37.842,82.453,37.555,82.221,37.254,82.015z"/>
</g>
</svg>
