<?xml version="1.0" encoding="utf-8"?>
<!-- Generator: Adobe Illustrator 17.0.0, SVG Export Plug-In . SVG Version: 6.00 Build 0)  -->
<!DOCTYPE svg PUBLIC "-//W3C//DTD SVG 1.1//EN" "http://www.w3.org/Graphics/SVG/1.1/DTD/svg11.dtd">
<svg version="1.1" id="Fames" xmlns="http://www.w3.org/2000/svg" xmlns:xlink="http://www.w3.org/1999/xlink" x="0px" y="0px"
	 width="128px" height="128px" viewBox="0 0 128 128" enable-background="new 0 0 128 128" xml:space="preserve">
<g>
	<path fill="#FFFFFF" d="M111.364,69.704c-0.39,7.752-5.734,12.431-11.121,13.496c-1.059,0.209-2.157,0.313-3.237,0.314
		c-22.002,0.019-44.005,0.002-66.007,0.027c-7.832,0.009-14.033-5.881-14.329-13.703c-0.293,0.088-0.604,0.108-0.826,0.259
		c-2.544,1.72-5.314,3.199-7.554,5.253c-3.736,3.426-3.624,7.139-0.063,10.783c3.327,3.405,7.532,5.406,11.88,7.1
		c8.519,3.32,17.412,5.056,26.47,6.015c3.368,0.357,6.748,0.591,10.449,0.909c-0.389-0.497-0.555-0.759-0.768-0.975
		c-1.685-1.697-3.389-3.376-5.066-5.08c-1.311-1.331-1.42-3.017-0.309-4.174c1.167-1.216,2.853-1.133,4.253,0.252
		c3.584,3.548,7.156,7.109,10.728,10.67c1.336,1.332,1.354,2.913,0.021,4.247c-3.564,3.569-7.137,7.129-10.717,10.682
		c-1.42,1.409-3.05,1.507-4.261,0.294c-1.164-1.165-1.036-2.863,0.356-4.252c1.966-1.962,3.952-3.904,6.212-6.134
		c-0.793-0.064-1.227-0.112-1.662-0.133c-10.404-0.507-20.678-1.875-30.717-4.729c-6.335-1.801-12.465-4.098-17.834-8.043
		c-3.219-2.365-5.893-5.197-6.888-9.201c-1.072-4.316,0.215-8.067,3.087-11.336c3.29-3.746,7.52-6.129,12.004-8.1
		c0.932-0.41,1.288-0.853,1.282-1.903c-0.048-8.435-0.035-16.871-0.024-25.307c0.011-8.759,5.906-14.656,14.634-14.659
		c5.261-0.002,10.523-0.019,15.784,0.018c0.885,0.006,1.405-0.198,1.791-1.072c0.806-1.825,1.736-3.598,2.655-5.371
		c1.582-3.052,4.126-4.646,7.548-4.715c3.26-0.066,6.523-0.071,9.783,0c3.362,0.074,5.896,1.616,7.465,4.624
		c0.944,1.809,1.876,3.627,2.73,5.479c0.359,0.779,0.786,1.068,1.668,1.061c5.348-0.047,10.697-0.014,16.045-0.027
		c8.451-0.019,14.462,5.942,14.48,14.414c0.018,8.436,0.025,16.871-0.021,25.307c-0.006,1.144,0.263,1.748,1.395,2.232
		c4.097,1.749,7.943,3.942,11.094,7.171c2.748,2.816,4.482,6.066,4.194,10.147c-0.214,3.042-1.564,5.576-3.544,7.802
		c-3.461,3.892-7.898,6.347-12.602,8.365c-8.004,3.433-16.432,5.264-25.011,6.496c-1.677,0.241-3.364,0.41-5.045,0.624
		c-2.075,0.264-3.493-0.63-3.677-2.331c-0.197-1.818,0.945-2.876,3.097-3.235c5.948-0.994,11.92-1.9,17.806-3.192
		c5.611-1.232,11.043-3.18,15.921-6.284c2.167-1.379,4.217-3.097,5.915-5.019c2.298-2.6,2.192-5.302,0.12-8.093
		C118.52,73.404,115.07,71.513,111.364,69.704z M63.99,77.912c0,0,0,0.003,0,0.005c10.956,0,21.913,0.007,32.869-0.003
		c5.419-0.005,8.905-3.485,8.908-8.871c0.005-10.739,0.004-21.478,0-32.217c-0.002-5.47-3.484-8.981-8.945-8.997
		c-6-0.018-12-0.057-17.999,0.02c-1.85,0.024-3.021-0.605-3.791-2.306c-1.074-2.371-2.314-4.667-3.463-7.005
		c-0.596-1.213-1.51-1.83-2.892-1.817c-3.087,0.028-6.174,0.032-9.261-0.001c-1.433-0.016-2.367,0.604-2.985,1.878
		c-1.156,2.383-2.415,4.716-3.532,7.117c-0.719,1.546-1.814,2.145-3.499,2.13c-6.043-0.055-12.087-0.034-18.13-0.021
		c-5.49,0.012-8.997,3.506-9,8.952c-0.006,10.782-0.006,21.565,0,32.347c0.003,5.3,3.519,8.788,8.85,8.79
		C42.077,77.915,53.033,77.912,63.99,77.912z"/>
	<path fill="#FFFFFF" d="M64.001,33.433c10.721-0.012,19.468,8.659,19.513,19.344c0.045,10.797-8.74,19.602-19.55,19.596
		c-10.663-0.006-19.421-8.76-19.446-19.436C44.491,42.184,53.22,33.446,64.001,33.433z M50.13,52.899
		c-0.036,7.653,6.226,13.911,13.926,13.917c7.54,0.006,13.79-6.196,13.844-13.737c0.055-7.757-6.066-14.046-13.724-14.099
		C56.405,38.926,50.167,45.109,50.13,52.899z"/>
</g>
</svg>
