<?xml version="1.0" encoding="utf-8"?>
<!-- Generator: Adobe Illustrator 17.0.0, SVG Export Plug-In . SVG Version: 6.00 Build 0)  -->
<!DOCTYPE svg PUBLIC "-//W3C//DTD SVG 1.1//EN" "http://www.w3.org/Graphics/SVG/1.1/DTD/svg11.dtd">
<svg version="1.1" id="Fames" xmlns="http://www.w3.org/2000/svg" xmlns:xlink="http://www.w3.org/1999/xlink" x="0px" y="0px"
	 width="128px" height="128px" viewBox="0 0 128 128" enable-background="new 0 0 128 128" xml:space="preserve">
<g>
	<path fill="#FFFFFF" d="M64.567,0.257c35.311,0.026,63.933,28.676,63.932,63.996c-0.001,35.368-28.708,64.044-64.073,64.005
		c-35.379-0.04-63.977-28.734-63.927-64.144C0.548,28.818,29.23,0.231,64.567,0.257z M5.115,64.222
		c-0.005,32.732,26.543,59.344,59.276,59.417c32.744,0.074,59.472-26.593,59.49-59.355c0.018-32.769-26.641-59.42-59.426-59.411
		C31.745,4.883,5.12,31.511,5.115,64.222z"/>
	<path fill="#FFFFFF" d="M33.77,52.129c0-0.04,0-0.08,0-0.12c3.214-3.66,6.634-7.104,10.551-10.022
		c2.188-1.63,4.478-3.088,7.145-3.827c2.642-0.732,4.569-0.159,6.173,2.037c0.718,0.983,1.253,2.138,1.686,3.284
		c1.084,2.874,1.572,5.901,2.04,8.921c0.775,5.006,1.953,9.913,3.506,14.729c0.341,1.058,0.785,2.1,1.318,3.074
		c0.771,1.408,1.622,1.532,2.848,0.479c0.618-0.531,1.194-1.129,1.704-1.766c2.308-2.885,4.162-6.061,5.802-9.358
		c0.86-1.728,1.267-3.573,0.92-5.525c-0.443-2.489-2.441-3.962-4.917-3.486c-1.023,0.197-1.993,0.667-2.985,1.019
		c-0.153,0.054-0.296,0.136-0.512,0.238c0.031-0.21,0.043-0.327,0.067-0.442c0.896-4.346,3.164-7.829,6.728-10.434
		c3.544-2.591,7.483-3.981,11.926-3.314c3.457,0.518,5.85,2.438,6.939,5.821c0.243,0.754,0.349,1.552,0.519,2.329
		c0,0.88,0,1.76,0,2.641c-0.102,0.629-0.197,1.259-0.308,1.886c-0.884,4.97-2.725,9.59-5.168,13.981
		c-3.816,6.858-8.77,12.821-14.411,18.237c-2.686,2.578-5.487,5.024-8.582,7.108c-2.888,1.944-5.86,1.923-8.726-0.055
		c-2.127-1.469-3.686-3.424-4.683-5.8c-0.548-1.305-1.022-2.646-1.448-3.996c-2.137-6.777-4.23-13.569-6.38-20.342
		c-0.579-1.824-1.264-3.618-1.977-5.395c-0.478-1.191-1.245-1.532-2.505-1.225c-0.596,0.145-1.199,0.339-1.739,0.624
		c-1.038,0.547-2.033,1.175-3.084,1.792c-0.107-0.134-0.241-0.303-0.375-0.472C35.151,53.877,34.461,53.003,33.77,52.129z"/>
</g>
</svg>
