<?xml version="1.0" encoding="utf-8"?>
<!-- Generator: Adobe Illustrator 17.0.0, SVG Export Plug-In . SVG Version: 6.00 Build 0)  -->
<!DOCTYPE svg PUBLIC "-//W3C//DTD SVG 1.1//EN" "http://www.w3.org/Graphics/SVG/1.1/DTD/svg11.dtd">
<svg version="1.1" id="Fames" xmlns="http://www.w3.org/2000/svg" xmlns:xlink="http://www.w3.org/1999/xlink" x="0px" y="0px"
	 width="128px" height="128px" viewBox="0 0 128 128" enable-background="new 0 0 128 128" xml:space="preserve">
<g>
	<path fill="#FFFFFF" d="M119.878,44.032c1.327,9.253,2.657,18.526,3.991,27.821c1.816,0.189,2.955-0.598,4.132-2.93
		c0-7.333,0-14.667,0-22C126.477,43.508,124.732,43.67,119.878,44.032z"/>
	<path fill="#FFFFFF" d="M4.863,43.878C2.48,43.716,0.872,44.711,0,46.923c0,7.333,0,14.667,0,22
		c1.18,2.339,2.318,3.126,4.121,2.929c1.342-9.319,2.681-18.613,4.027-27.96C7.184,43.892,6.019,43.957,4.863,43.878z"/>
	<path fill="#FFFFFF" d="M87.848,60.323c-0.807-0.709-1.619-1.453-2.404-2.172c-1.891-1.733-3.847-3.525-5.977-5.051
		c-5.09-3.646-10.317-5.494-15.535-5.494c-3.984,0-8.031,1.08-12.029,3.209c-4.985,2.655-9.146,6.05-12.721,10.382l-0.547,0.662
		l0.572,0.64c4.507,5.044,9.15,8.685,14.195,11.132c3.573,1.733,7.14,2.612,10.6,2.612c0,0,0,0,0,0c2.002,0,4.019-0.293,5.994-0.87
		c6.434-1.881,12.035-5.634,18.161-12.169c0.407-0.435,0.602-0.901,0.578-1.385C88.701,61.071,88.167,60.602,87.848,60.323z
		 M69.436,73.452c-1.793,0.524-3.621,0.79-5.433,0.79c-3.156,0-6.429-0.811-9.728-2.411c-4.591-2.227-8.848-5.509-12.995-10.022
		c3.279-3.812,7.069-6.836,11.562-9.229c3.706-1.973,7.437-2.974,11.089-2.974c4.792,0,9.627,1.723,14.371,5.12
		c2.032,1.456,3.943,3.206,5.79,4.899c0.793,0.726,1.612,1.477,2.436,2.2c0.022,0.02,0.059,0.052,0.097,0.087
		C80.787,68.124,75.482,71.685,69.436,73.452z"/>
	<path fill="#FFFFFF" d="M120.228,67.506c-1.017-7.71-2.006-14.424-3.024-20.525c-0.954-5.715-4.149-9.489-9.24-10.915
		c-6.327-1.771-11.193-2.882-15.78-3.602c-6.346-0.995-13.113-1.459-21.296-1.459c-2.585,0-5.377,0.047-8.536,0.142
		c-1.204,0-2.409-0.01-3.613-0.021c-1.215-0.01-2.43-0.021-3.645-0.021c-1.679,0-3.07,0.02-4.378,0.063
		c-10.986,0.364-20.572,1.796-29.305,4.378c-6.179,1.827-9.758,5.726-10.637,11.588c-1.219,8.133-2.288,16.422-3.322,24.439
		l-0.423,3.28c-0.8,6.186,1.456,10.695,6.895,13.785c3.955,2.247,8.592,4.798,13.576,6.639c3.171,1.171,5.826,1.716,8.354,1.716
		c0.772,0,1.542-0.053,2.288-0.158c4.513-0.635,9.209-1.411,13.957-2.307c4.586-0.865,8.403-1.268,12.01-1.268
		c2.038,0,4.029,0.136,5.919,0.405c5.226,0.744,10.548,1.64,15.818,2.664c1.906,0.37,3.802,0.558,5.633,0.558
		c3.457,0,6.861-0.672,10.117-1.998c5.334-2.172,9.978-4.604,14.196-7.437c3.64-2.445,5.394-5.779,5.213-9.908
		C120.841,73.81,120.646,70.672,120.228,67.506z M114.677,85.794c-4.104,2.756-8.63,5.126-13.835,7.245
		c-3.016,1.228-6.166,1.85-9.363,1.85c-1.703,0-3.47-0.176-5.251-0.522c-5.303-1.031-10.659-1.932-15.918-2.681
		c-1.983-0.282-4.07-0.425-6.201-0.425c-3.735,0-7.668,0.414-12.38,1.303c-4.718,0.89-9.383,1.661-13.865,2.292
		c-0.654,0.092-1.33,0.138-2.009,0.138c-2.285,0-4.719-0.506-7.661-1.592c-4.843-1.789-9.395-4.294-13.281-6.501
		c-4.718-2.68-6.593-6.427-5.899-11.79l0.423-3.281c1.032-8.007,2.099-16.286,3.316-24.398c0.764-5.097,3.782-8.357,9.226-9.967
		c8.568-2.533,17.99-3.939,28.804-4.297c1.285-0.043,2.655-0.062,4.311-0.062c1.209,0,2.418,0.01,3.628,0.021
		c1.215,0.01,2.43,0.021,3.645,0.021l0.03,0c3.145-0.095,5.922-0.142,8.49-0.142c8.077,0,14.746,0.456,20.986,1.435
		c4.507,0.707,9.302,1.802,15.551,3.552c5.42,1.518,7.237,5.905,7.807,9.318c1.015,6.079,2,12.771,3.014,20.458
		c0.408,3.095,0.6,6.182,0.761,9.866C119.158,81.067,117.741,83.736,114.677,85.794z"/>
	<path fill="#FFFFFF" d="M63.943,53.634c-4.58,0.014-8.23,3.683-8.232,8.274c-0.002,4.643,3.665,8.295,8.337,8.303
		c4.481,0.008,8.223-3.695,8.24-8.157C72.308,57.315,68.646,53.62,63.943,53.634z M63.975,65.401
		c-1.917,0.004-3.468-1.567-3.458-3.502c0.009-1.938,1.556-3.467,3.498-3.459c1.931,0.008,3.485,1.577,3.463,3.497
		C67.455,63.885,65.927,65.397,63.975,65.401z"/>
</g>
</svg>
