<?xml version="1.0" encoding="utf-8"?>
<!-- Generator: Adobe Illustrator 17.0.0, SVG Export Plug-In . SVG Version: 6.00 Build 0)  -->
<!DOCTYPE svg PUBLIC "-//W3C//DTD SVG 1.1//EN" "http://www.w3.org/Graphics/SVG/1.1/DTD/svg11.dtd">
<svg version="1.1" id="Fames" xmlns="http://www.w3.org/2000/svg" xmlns:xlink="http://www.w3.org/1999/xlink" x="0px" y="0px"
	 width="128px" height="128px" viewBox="0 0 128 128" enable-background="new 0 0 128 128" xml:space="preserve">
<g transform="translate(0,-1016.3622)">
	<g transform="translate(41.952623,-2.1991672)">
		<g transform="translate(3.5049804,0.72173277)">
			<path fill="#FFFFFF" d="M7.994,1024.918c-3.01,0.036-6.231,0.309-9.556,1.012c-5.174,1.094-10.21,3.816-14.278,7.308
				c-3.612,3.1-6.412,6.825-7.87,10.68h-5.284c-2.455,0-4.475,1.392-5.959,3.035c-1.483,1.643-2.626,3.639-3.373,5.396
				c-1.959,4.613-2.232,10.4,0.112,15.065c2.015,4.008,6.003,7.982,11.018,7.982h6.97c0.031,0.061,0.113,0.115,0.112,0.112
				c0.076,0.198,0.104,0.353,0.225,0.675c0.326,0.874,0.774,2.24,1.349,3.823c1.15,3.165,2.755,7.505,4.385,12.029
				c1.02,2.831,3.321,4.978,5.959,6.071c1.354,0.561,2.773,0.807,4.16,0.787c-3.35,7.237-8.61,11.322-16.414,12.592
				c-0.075,0-0.15,0-0.225,0c-7.705,2.238-12.074,6.439-14.166,11.58c-2.092,5.141-2.024,10.997-2.024,16.976
				c0,0.942,0.857,1.799,1.799,1.799H76.911c0.942,0,1.799-0.857,1.799-1.799c0-10.963-3.993-19.239-10.006-24.958
				c-5.902-5.613-13.752-8.731-21.811-10.231c-0.447-0.176-0.813-0.378-1.237-0.562c-0.812-17.634,3.719-37.909,4.385-52.84
				c0.342-7.67-0.174-14.09-3.822-18.101c-1.824-2.005-4.46-3.271-7.645-3.485c-2.969-0.202-6.492,0.521-10.68,1.911
				c-1.942-1.627-4.087-3.097-6.408-4.16c-3.194-1.462-6.731-2.408-10.568-2.698c-0.959-0.072-1.92,0-2.923,0V1024.918z
				 M7.882,1028.516c0.902-0.004,1.836-0.065,2.698,0c3.449,0.259,6.544,1.085,9.331,2.361c2.57,1.177,4.794,2.838,6.858,4.834
				c1.898,2.52,3.947,4.268,5.053,6.85l-20.118,6.641c-0.598-0.966-1.305-1.916-2.136-2.698c-1.008-0.948-2.235-1.688-3.598-2.136
				c-0.107-0.036-0.228-0.083-0.337-0.112c-0.143-0.04-0.303-0.083-0.45-0.112c-0.333-0.076-0.664-0.079-1.012-0.112
				c-0.234-0.036-0.435-0.111-0.675-0.111H-19.1c1.298-2.713,2.804-5.564,5.621-7.982c3.658-3.14,8.273-5.584,12.704-6.521
				c3.111-0.658,5.95-0.889,8.657-0.899V1028.516z M38.236,1033.463c2.465,0.166,4.089,0.935,5.284,2.248
				c2.39,2.627,3.251,8.155,2.923,15.515c-0.618,13.862-4.766,33.461-4.272,51.378c-1.992-1.291-3.904-2.52-5.621-4.047
				c-0.302-0.292-0.628-0.488-0.899-0.787c-0.202-0.202-0.366-0.464-0.562-0.675c-1.436-1.736-2.39-3.653-3.148-5.509
				c-0.048-0.119-0.179-0.22-0.225-0.338c-0.027-0.068,0.027-0.155,0-0.223c-1.742-4.603-2.027-9.463-2.811-14.166
				c8.881-7.745,13.163-20.713,8.207-32.491c-0.498-1.18-0.577-1.237-0.787-1.686c-1.383-2.998-3.547-5.743-5.284-7.981
				c2.775-0.765,5.429-1.355,7.195-1.236V1033.463z M33.578,1045.593c0.703,2.274,1.596,3.737,1.793,5.911l-20.856,8.491
				c-0.076-2.635-0.511-5.246-1.237-7.42L33.578,1045.593z M-28.994,1047.516h5.734c0.25,0.094,0.521,0.133,0.787,0.112H4.059
				c0.035,0,0.077,0,0.112,0c0.774,0.061,1.667,0.547,2.586,1.462c0.95,0.945,1.856,2.326,2.586,3.935
				c0.365,0.805,0.65,1.712,0.899,2.586c0.062,0.324,0.175,0.671,0.225,1.012c0.559,3.84,0.371,8.577-0.787,11.13
				c-0.905,1.994-3.566,4.047-5.396,4.047h-31.479c-2.866,0-6.344-3.037-7.87-6.071c-1.715-3.413-1.462-8.322,0.112-12.029
				c0.628-1.479,1.608-3.177,2.698-4.385C-31.164,1048.105-30.055,1047.515-28.994,1047.516L-28.994,1047.516z M35.563,1055.85
				c-0.012,0.379,0.026,0.752,0,1.124c-0.483,6.828-4.967,13.578-8.794,16.062l-2.811-2.136c2.053-3.604,4.762-7.083,5.172-12.029
				L35.563,1055.85z M24.745,1060.557c-0.947,3.208-2.807,6.124-4.722,9.893c-0.393,0.73-0.193,1.726,0.45,2.249l4.722,3.598
				c0.034,0.216,0.079,0.481,0.112,0.675c0.138,10.079,2.326,16.432,5.621,20.799c1.005,1.332,2.131,2.469,3.26,3.485
				c0.845,0.932,1.517,1.915,2.586,2.811l-0.45,7.083c-0.352,4.806-2.681,8.514-6.296,11.355c-3.615,2.841-8.572,4.7-13.603,5.621
				c-5.032,0.921-10.167,0.833-14.278-0.112c-4.111-0.946-6.986-2.753-7.982-4.834c-3.393-7.088-2.172-10.661,0-14.278
				c1.904-3.171,4.833-6.303,6.071-10.68c0.114-0.036,0.225-0.083,0.337-0.112c3.921-1.091,8.559-3.939,12.367-6.521
				s6.746-4.834,6.746-4.834c0.765-0.589,0.926-1.821,0.337-2.586c-0.589-0.765-1.821-0.926-2.586-0.338
				c0,0-2.838,2.337-6.521,4.834c-3.558,2.413-7.914,4.926-10.905,5.846c-1.098,0.295-1.548,0.562-2.586,0.562
				c-1.557,0.202-3.097,0.151-4.272-0.338c-1.732-0.718-3.352-2.315-3.935-3.935c-1.63-4.524-3.231-8.856-4.385-12.03
				c-0.511-1.406-0.919-2.492-1.237-3.373H4.284c3.934,0,7.179-2.927,8.657-6.183c0.666-1.468,1.103-3.072,1.349-4.834
				L24.745,1060.557z M-8.083,1080.906c-0.942,0.087-1.719,1.026-1.63,1.967c0.088,0.942,1.026,1.719,1.968,1.63h7.87
				c0.95,0,1.824-0.848,1.824-1.799c0-0.95-0.874-1.812-1.824-1.799h-7.87C-7.858,1080.906-7.971,1080.906-8.083,1080.906z
				 M40.373,1105.752c0.837,0.542,1.674,1.144,2.473,1.686c0.434,0.349,1.035,0.477,1.574,0.338c0.357,0.187,0.703,0.281,1.124,0.45
				c0.112,0,0.225,0,0.337,0c7.715,1.373,15.008,4.476,20.349,9.556c4.973,4.731,8.107,11.417,8.544,20.461H-33.266
				c0.039-5.21,0.258-10.042,1.799-13.828c1.725-4.238,4.867-7.429,11.805-9.444c0.011-0.002-0.011-0.111,0-0.111
				c3.562-0.612,6.68-1.936,9.444-3.71c-1.167,3.661-1.631,7.846,1.124,13.604c1.733,3.62,5.752,5.775,10.456,6.858
				c4.704,1.083,10.254,1.118,15.74,0.112c5.486-1.004,10.952-3.088,15.177-6.408c4.225-3.32,7.215-8.067,7.645-13.941
				L40.373,1105.752L40.373,1105.752z"/>
		</g>
	</g>
</g>
</svg>
