<?xml version="1.0" encoding="utf-8"?>
<!-- Generator: Adobe Illustrator 17.0.0, SVG Export Plug-In . SVG Version: 6.00 Build 0)  -->
<!DOCTYPE svg PUBLIC "-//W3C//DTD SVG 1.1//EN" "http://www.w3.org/Graphics/SVG/1.1/DTD/svg11.dtd">
<svg version="1.1" id="Fames" xmlns="http://www.w3.org/2000/svg" xmlns:xlink="http://www.w3.org/1999/xlink" x="0px" y="0px"
	 width="128px" height="128px" viewBox="0 0 128 128" enable-background="new 0 0 128 128" xml:space="preserve">
<path id="XMLID_4792_" fill="#FFFFFF" d="M128,120.299l-19.361-36.106l-5.545-8.084l11.309,8.052l-9.133-43.454L69.969,20.578v7.308
	l-3.562-5.189L51.044,7.701L39.771,30.974l0.488,5.847l-4.424-7.431L0,73.826l77.408,25.466L69.73,86.378l10.617,8.869L128,120.299z
	 M104.387,41.367l8.503,40.448L71.012,22.333L104.387,41.367z M64.941,23.838l42.1,61.286l10.988,20.501L56.868,15.968
	L64.941,23.838z M75.161,97.467L1.745,73.317l33.988-42.146L75.161,97.467z M41.806,31.114l9.688-20.001l71.098,104.217
	L81.538,93.741L41.806,31.114z"/>
<g id="XMLID_4786_">
	<polygon id="XMLID_4791_" fill="#454545" points="71.012,22.333 104.387,41.367 112.891,81.815 	"/>
	<polygon id="XMLID_4790_" fill="#454545" points="1.745,73.317 35.733,31.171 75.161,97.467 	"/>
	<polygon id="XMLID_4789_" fill="#454545" points="51.493,11.113 41.806,31.114 81.538,93.741 122.591,115.329 	"/>
	<polygon id="XMLID_4788_" fill="#454545" points="118.029,105.625 107.041,85.124 64.941,23.838 56.868,15.968 	"/>
</g>
</svg>
