<?xml version="1.0" encoding="utf-8"?>
<!-- Generator: Adobe Illustrator 17.0.0, SVG Export Plug-In . SVG Version: 6.00 Build 0)  -->
<!DOCTYPE svg PUBLIC "-//W3C//DTD SVG 1.1//EN" "http://www.w3.org/Graphics/SVG/1.1/DTD/svg11.dtd">
<svg version="1.1" id="Fames" xmlns="http://www.w3.org/2000/svg" xmlns:xlink="http://www.w3.org/1999/xlink" x="0px" y="0px"
	 width="128px" height="128px" viewBox="0 0 128 128" enable-background="new 0 0 128 128" xml:space="preserve">
<g>
	<polygon fill="#FFFFFF" points="76.278,67.078 68.351,60.459 74.084,70.098 40.01,58.889 16.142,89.554 109.464,126.286 
		101.081,80.118 	"/>
	<path fill="#FFFFFF" stroke="#FFFFFF" stroke-width="0.25" stroke-miterlimit="10" d="M111.858,85.784L97.402,58.827l-4.14-6.036
		l8.444,6.01l-6.819-32.444L68.53,11.329v5.457l-2.66-3.875L54.399,1.714L45.982,19.09l0.364,4.366l-3.303-5.549L16.288,51.085
		l57.796,19.013l-5.733-9.64l7.927,6.62L111.858,85.784z M94.228,26.85l6.349,30.201L69.309,12.638L94.228,26.85z M64.776,13.762
		l31.433,45.759l8.204,15.306L58.748,7.887L64.776,13.762z M72.406,68.736L17.591,50.705l25.377-31.467L72.406,68.736z
		 M47.502,19.196L54.735,4.26l53.085,77.813L77.168,65.957L47.502,19.196z"/>
</g>
</svg>
