<?xml version="1.0" encoding="utf-8"?>
<!-- Generator: Adobe Illustrator 17.0.0, SVG Export Plug-In . SVG Version: 6.00 Build 0)  -->
<!DOCTYPE svg PUBLIC "-//W3C//DTD SVG 1.1//EN" "http://www.w3.org/Graphics/SVG/1.1/DTD/svg11.dtd">
<svg version="1.1" id="Fames" xmlns="http://www.w3.org/2000/svg" xmlns:xlink="http://www.w3.org/1999/xlink" x="0px" y="0px"
	 width="128px" height="128px" viewBox="0 0 128 128" enable-background="new 0 0 128 128" xml:space="preserve">
<g>
	<path fill="#FFFFFF" d="M70.618,99.779c0-0.93,0.001-1.86,0-2.79c-0.005-5.672-0.38-11.325-0.807-16.977
		c-0.412-5.454-1.432-10.782-3.206-15.95c-0.524-1.527-1.332-2.958-2.037-4.419c-0.158-0.328-0.41-0.619-0.653-0.897
		c-0.389-0.446-0.819-0.418-1.181,0.024c-0.292,0.356-0.549,0.747-0.783,1.146c-1.527,2.597-2.329,5.463-3.072,8.349
		c-0.952,3.699-1.563,7.459-1.929,11.257c-0.169,1.756-0.244,3.521-0.352,5.283c-0.477,7.75-0.622,15.509-0.567,23.272
		c0.001,0.186,0,0.373-0.024,0.557c-0.064,0.494-0.331,0.493-0.679,0.261c-0.077-0.051-0.149-0.111-0.223-0.168
		c-3.515-2.708-6.665-5.789-9.364-9.313c-0.403-0.527-0.576-1.234-0.834-1.866c-0.191-0.468-0.244-1.028-0.535-1.413
		c-1.902-2.52-3.848-5.008-5.792-7.496c-0.227-0.29-0.518-0.536-0.806-0.768c-0.135-0.109-0.428-0.243-0.489-0.187
		c-0.969,0.872-1.254-0.177-1.654-0.627c-4.107-4.621-8.065-9.348-11.505-14.516c-1.377-2.069-2.021-4.205-2.322-6.571
		c-0.487-3.825-1.056-7.64-1.544-11.465c-0.641-5.022-1.278-10.046-1.838-15.078c-0.416-3.737-0.712-7.488-1.051-11.234
		c-0.117-1.295-0.189-2.594-0.302-3.889c-0.062-0.707,0.181-1.239,0.714-1.716c3.295-2.945,6.665-5.797,10.315-8.297
		c1.225-0.839,2.516-1.584,3.791-2.348c0.55-0.33,0.685-0.243,0.718,0.458c0.096,2.041,0.194,4.083,0.249,6.126
		c0.126,4.692,0.193,9.387,0.348,14.078c0.134,4.039,0.336,8.075,0.557,12.11c0.042,0.774,0.199,1.583,0.496,2.295
		c1.912,4.591,3.852,9.171,5.843,13.728c0.46,1.054,1.07,2.07,1.766,2.985c0.674,0.886,1.207,0.716,1.485-0.373
		c0.114-0.445,0.149-0.917,0.165-1.379c0.027-0.79,0.006-1.581,0.014-2.372c0.107-10.46,0.201-20.92,0.331-31.38
		c0.042-3.438,0.178-6.875,0.267-10.312c0.097-3.716,0.192-7.432,0.282-11.149c0.04-1.667,0.092-1.753,1.611-2.36
		c5.206-2.08,10.599-3.478,16.135-4.311c0.904-0.136,1.867-0.109,2.772,0.036c5.479,0.875,10.831,2.239,16,4.285
		c1.431,0.566,1.565,0.712,1.601,2.227c0.114,4.832,0.219,9.665,0.336,14.497c0.09,3.716,0.199,7.432,0.285,11.149
		c0.091,3.902,0.179,7.805,0.246,11.708c0.106,6.228,0.183,12.456,0.304,18.683c0.01,0.514,0.143,1.357,0.438,1.469
		c0.747,0.284,1.137-0.505,1.422-1.034c1.016-1.881,2.015-3.777,2.895-5.725c1.32-2.923,2.462-5.927,3.817-8.832
		c0.874-1.873,1.106-3.831,1.186-5.821c0.163-4.039,0.238-8.082,0.342-12.123c0.099-3.856,0.182-7.712,0.287-11.567
		c0.059-2.182,0.14-4.364,0.226-6.545c0.034-0.847,0.164-0.945,0.885-0.474c2.1,1.374,4.243,2.701,6.226,4.232
		c2.498,1.928,4.851,4.045,7.276,6.069c0.699,0.584,1.002,1.289,0.926,2.205c-0.18,2.175-0.31,4.353-0.483,6.528
		c-0.191,2.407-0.366,4.817-0.622,7.217c-0.365,3.417-0.757,6.833-1.212,10.239c-0.775,5.803-1.609,11.598-2.417,17.396
		c-0.122,0.874-0.226,1.752-0.358,2.624c-0.141,0.93-0.479,1.755-1.049,2.541c-2.048,2.821-3.948,5.753-6.057,8.526
		c-1.968,2.587-4.129,5.027-6.215,7.523c-0.38,0.455-0.719,0.91-1.513,0.571c-0.278-0.119-0.953,0.303-1.236,0.65
		c-1.468,1.8-2.872,3.652-4.291,5.493c-0.397,0.515-0.784,1.04-1.143,1.582c-0.307,0.463-0.78,0.943-0.811,1.438
		c-0.108,1.691-1.184,2.793-2.193,3.926c-1.483,1.665-2.972,3.335-4.586,4.87c-1.205,1.146-2.59,2.109-3.932,3.102
		c-0.672,0.498-0.856,0.389-0.861-0.463c-0.019-2.837-0.007-5.674-0.007-8.511C70.632,99.779,70.625,99.779,70.618,99.779z"/>
	<path fill="#FFFFFF" d="M111.65,127.97c-1.022,0-2.047,0.052-3.064-0.021c-0.534-0.038-1.175-0.158-1.544-0.489
		c-0.353-0.318-0.53-0.953-0.553-1.459c-0.01-0.211,0.551-0.516,0.9-0.662c0.737-0.306,0.75-0.275,0.169-0.8
		c-0.928-0.839-1.218-2.397-0.491-3.406c0.284-0.393,0.895-0.752,1.371-0.77c2.179-0.083,4.364-0.068,6.545-0.015
		c0.419,0.01,0.905,0.265,1.228,0.555c0.627,0.564,0.492,1.364-0.274,1.774c-0.434,0.232-0.625,0.331-0.125,0.728
		c1.003,0.798,1.373,2.375,0.869,3.486c-0.354,0.781-1.061,1.023-1.827,1.056c-1.066,0.045-2.136,0.011-3.204,0.011
		C111.65,127.962,111.65,127.966,111.65,127.97z M111.47,126.348c0.834,0,1.668,0.022,2.501-0.009
		c0.407-0.015,0.705-0.245,0.698-0.705c-0.007-0.451-0.283-0.694-0.704-0.698c-1.575-0.017-3.151-0.016-4.726,0.001
		c-0.426,0.005-0.77,0.28-0.668,0.697c0.068,0.277,0.418,0.65,0.68,0.684C109.98,126.411,110.729,126.35,111.47,126.348z
		 M111.761,121.857c0,0.004,0,0.009,0,0.013c-0.695,0-1.39-0.013-2.084,0.005c-0.387,0.01-0.759,0.114-0.804,0.591
		c-0.052,0.552,0.339,0.738,0.778,0.778c0.598,0.055,1.202,0.051,1.804,0.055c0.695,0.005,1.391,0.016,2.084-0.022
		c0.506-0.028,1.108-0.06,1.075-0.783c-0.03-0.644-0.588-0.618-1.046-0.633C112.966,121.842,112.363,121.857,111.761,121.857z"/>
	<path fill="#FFFFFF" d="M57.051,127.969c-1.161,0-2.324,0.042-3.483-0.01c-1.605-0.073-2.144-0.654-2.169-2.255
		c-0.018-1.161-0.03-2.323,0.011-3.483c0.044-1.256,0.512-1.838,1.768-1.874c2.644-0.077,5.293-0.067,7.939-0.01
		c1.095,0.023,1.558,0.409,1.662,1.506c0.139,1.467,0.158,2.963,0.033,4.43c-0.099,1.168-0.681,1.613-1.861,1.669
		c-1.297,0.062-2.6,0.014-3.9,0.014C57.051,127.961,57.051,127.965,57.051,127.969z M57.059,121.864c-0.837,0-1.674-0.001-2.511,0
		c-0.612,0.001-0.972,0.297-0.985,0.921c-0.018,0.883-0.015,1.766-0.005,2.649c0.007,0.626,0.36,0.937,0.969,0.939
		c1.72,0.005,3.44,0.007,5.16-0.01c0.617-0.006,0.924-0.358,0.921-0.98c-0.004-0.837-0.006-1.674,0-2.511
		c0.005-0.704-0.365-1.01-1.039-1.009C58.732,121.864,57.896,121.863,57.059,121.864z"/>
	<path fill="#FFFFFF" d="M97.629,120.302c1.162,0,2.326-0.045,3.485,0.011c1.479,0.071,1.956,0.601,2.036,2.088
		c0.005,0.093,0.004,0.186,0.005,0.279c0.019,1.135-0.133,2.156-1.487,2.484c-0.49,0.119-0.461,0.429-0.097,0.674
		c0.886,0.597,1.796,1.158,2.687,1.747c0.088,0.058,0.114,0.209,0.169,0.317c-0.089,0.023-0.177,0.063-0.266,0.067
		c-1.586,0.065-3.161,0.146-4.438-1.107c-0.458-0.45-1.042-0.777-1.584-1.136c-0.268-0.177-0.557-0.353-0.862-0.439
		c-1.459-0.411-2.041-0.001-2.15,1.514c-0.042,0.588-0.065,1.114-0.856,1.173c-0.971,0.072-1.276-0.132-1.291-1.123
		c-0.028-1.812-0.03-3.625-0.001-5.437c0.016-0.992,0.133-1.092,1.165-1.117c1.161-0.028,2.324-0.007,3.485-0.007
		C97.629,120.294,97.629,120.298,97.629,120.302z M97.899,123.618c0-0.002,0-0.005,0-0.007c0.695,0,1.392,0.025,2.086-0.008
		c0.557-0.027,0.818-0.368,0.793-0.929c-0.022-0.505-0.308-0.787-0.785-0.796c-1.344-0.025-2.689-0.028-4.033-0.009
		c-0.58,0.008-0.802,0.399-0.782,0.936c0.018,0.488,0.279,0.789,0.774,0.806C96.6,123.635,97.25,123.618,97.899,123.618z"/>
	<path fill="#FFFFFF" d="M83.262,120.297c1.16,0,2.322-0.036,3.481,0.009c1.591,0.061,2.107,0.557,2.169,2.097
		c0.046,1.158,0.054,2.323-0.019,3.479c-0.086,1.359-0.65,1.998-1.992,2.041c-2.55,0.081-5.105,0.074-7.656,0.006
		c-1.16-0.031-1.797-0.723-1.853-1.87c-0.064-1.296-0.065-2.601,0.002-3.897c0.065-1.253,0.563-1.76,1.832-1.83
		c1.342-0.074,2.691-0.017,4.037-0.017C83.262,120.31,83.262,120.303,83.262,120.297z M83.244,121.856c0,0.001,0,0.002,0,0.003
		c-0.882,0-1.764,0.006-2.646-0.002c-0.673-0.006-1.061,0.293-1.07,0.985c-0.011,0.835-0.012,1.671,0.005,2.505
		c0.014,0.676,0.393,1.021,1.059,1.025c1.671,0.01,3.343,0.036,5.012-0.005c0.867-0.021,1.077-0.243,1.135-1.083
		c0.054-0.785,0.054-1.579,0.006-2.365c-0.052-0.855-0.236-1.015-1.134-1.055C84.824,121.828,84.033,121.856,83.244,121.856z"/>
	<path fill="#FFFFFF" d="M12.098,120.292c0.733-0.103,1.184,0.317,1.479,1.059c0.395,0.992,0.837,1.968,1.298,2.932
		c0.339,0.708,0.663,0.726,1.047,0.044c0.409-0.728,0.743-1.499,1.106-2.252c0.182-0.377,0.322-0.778,0.542-1.13
		c0.575-0.921,1.547-0.891,2.056,0.078c0.562,1.07,1.047,2.18,1.611,3.248c0.378,0.717,0.65,0.713,1.022-0.01
		c0.382-0.743,0.685-1.526,1.038-2.284c0.196-0.421,0.389-0.85,0.645-1.233c0.277-0.415,1.418-0.667,1.779-0.368
		c0.51,0.423,0.044,0.861-0.133,1.236c-0.856,1.806-1.753,3.593-2.632,5.389c-0.253,0.517-0.52,0.962-1.214,0.975
		c-0.754,0.013-1.062-0.454-1.323-1.029c-0.326-0.72-0.629-1.452-0.996-2.151c-0.229-0.437-0.556-0.823-0.839-1.231
		c-0.298,0.383-0.645,0.738-0.884,1.156c-0.414,0.726-0.766,1.487-1.134,2.239c-0.276,0.565-0.576,1.043-1.333,1.017
		c-0.678-0.023-0.979-0.43-1.231-0.959c-0.898-1.889-1.819-3.768-2.699-5.665C10.9,120.477,11.041,120.299,12.098,120.292z"/>
	<path fill="#FFFFFF" d="M47.34,124.204c0,0.93,0.027,1.861-0.008,2.789c-0.031,0.822-0.217,0.972-1.006,0.979
		c-0.806,0.007-1.028-0.15-1.068-0.925c-0.047-0.928-0.004-1.86-0.046-2.788c-0.011-0.237-0.199-0.466-0.306-0.699
		c-0.187,0.118-0.407,0.205-0.556,0.361c-0.74,0.771-1.457,1.564-2.19,2.343c-0.693,0.736-1.031,0.785-1.744,0.095
		c-0.8-0.774-1.52-1.63-2.299-2.428c-0.181-0.185-0.457-0.277-0.689-0.412c-0.118,0.276-0.321,0.547-0.339,0.829
		c-0.05,0.787-0.008,1.58-0.03,2.37c-0.028,1.019-0.192,1.228-0.897,1.246c-0.774,0.019-0.956-0.199-0.968-1.311
		c-0.018-1.673-0.032-3.348,0.014-5.02c0.011-0.417,0.138-1.024,0.423-1.197c0.52-0.316,1.183-0.215,1.679,0.239
		c0.514,0.47,0.999,0.973,1.492,1.466c0.592,0.591,1.191,1.176,1.767,1.783c0.484,0.509,0.929,0.531,1.41-0.002
		c0.84-0.932,1.707-1.839,2.537-2.779c0.489-0.553,1.028-0.911,1.807-0.853c0.823,0.061,0.978,0.152,1.01,0.987
		C47.367,122.25,47.339,123.228,47.34,124.204z"/>
	<path fill="#FFFFFF" d="M70.006,127.972c-0.784-0.01-0.976-0.16-1-0.985c-0.036-1.254,0.004-2.51-0.023-3.764
		c-0.025-1.199-0.17-1.328-1.395-1.367c-0.604-0.019-1.208-0.004-1.812-0.014c-0.496-0.008-0.946-0.085-0.962-0.734
		c-0.016-0.619,0.355-0.808,0.89-0.808c2.974-0.002,5.948-0.003,8.922,0c0.532,0,0.907,0.183,0.89,0.806
		c-0.018,0.647-0.462,0.73-0.96,0.737c-0.743,0.01-1.488-0.013-2.23,0.021c-0.954,0.045-1.138,0.206-1.17,1.166
		c-0.045,1.3,0.006,2.603-0.037,3.903C71.089,127.804,70.855,127.982,70.006,127.972z"/>
</g>
</svg>
