<?xml version="1.0" encoding="utf-8"?>
<!-- Generator: Adobe Illustrator 17.0.0, SVG Export Plug-In . SVG Version: 6.00 Build 0)  -->
<!DOCTYPE svg PUBLIC "-//W3C//DTD SVG 1.1//EN" "http://www.w3.org/Graphics/SVG/1.1/DTD/svg11.dtd">
<svg version="1.1" id="Fames" xmlns="http://www.w3.org/2000/svg" xmlns:xlink="http://www.w3.org/1999/xlink" x="0px" y="0px"
	 width="128px" height="128px" viewBox="0 0 128 128" enable-background="new 0 0 128 128" xml:space="preserve">
<g>
	<path fill="#FFFFFF" d="M64.022-0.002c35.345,0.015,64.027,28.735,63.976,64.059c-0.052,35.347-28.812,64.036-64.102,63.941
		c-35.33-0.095-63.894-28.702-63.898-63.993C-0.005,28.656,28.676-0.017,64.022-0.002z M123.422,63.958
		C123.386,31.165,96.785,4.584,63.994,4.573c-32.77-0.01-59.407,26.611-59.42,59.386C4.561,96.8,31.249,123.475,64.065,123.422
		C96.846,123.369,123.458,96.709,123.422,63.958z"/>
	<path fill="#FFFFFF" d="M63.995,39.988c7.188-0.032,14.366,0.238,21.544,0.602c6.778,0.343,9.128,3.805,9.845,10.3
		c0.964,8.725,0.867,17.477,0.028,26.216c-0.169,1.757-0.594,3.465-1.281,5.095c-1.236,2.935-3.473,4.644-6.612,4.945
		c-8.725,0.837-17.482,0.897-26.238,0.841c-6.946-0.044-13.895-0.128-20.813-0.839c-3.137-0.322-5.368-2.015-6.617-4.944
		c-0.985-2.309-1.316-4.759-1.489-7.227c-0.575-8.178-0.588-16.354,0.258-24.516c0.162-1.559,0.573-3.086,1.174-4.542
		c1.231-2.986,3.473-4.749,6.678-5.074C48.292,40.051,56.146,40.05,63.995,39.988z M56.05,75.965
		c6.666-4,13.198-7.919,19.952-11.971c-6.752-4.05-13.284-7.968-19.952-11.968C56.05,60.08,56.05,67.912,56.05,75.965z"/>
</g>
</svg>
