<?xml version="1.0" encoding="utf-8"?>
<!-- Generator: Adobe Illustrator 17.0.0, SVG Export Plug-In . SVG Version: 6.00 Build 0)  -->
<!DOCTYPE svg PUBLIC "-//W3C//DTD SVG 1.1//EN" "http://www.w3.org/Graphics/SVG/1.1/DTD/svg11.dtd">
<svg version="1.1" id="Fames" xmlns="http://www.w3.org/2000/svg" xmlns:xlink="http://www.w3.org/1999/xlink" x="0px" y="0px"
	 width="128px" height="128px" viewBox="0 0 128 128" enable-background="new 0 0 128 128" xml:space="preserve">
<g id="XMLID_461_">
	<g id="XMLID_476_">
		<path id="XMLID_596_" fill-rule="evenodd" clip-rule="evenodd" fill="#FFFFFF" d="M15.228,85.568h3.5
			c-0.107-0.952-0.366-1.795-0.782-2.533c-0.415-0.738-0.945-1.351-1.59-1.842c-0.63-0.507-1.351-0.891-2.165-1.152
			c-0.797-0.261-1.651-0.391-2.557-0.391c-1.259,0-2.395,0.221-3.408,0.669c-0.999,0.444-1.843,1.058-2.533,1.842
			c-0.692,0.783-1.222,1.704-1.59,2.764c-0.369,1.042-0.553,2.181-0.553,3.409c0,1.198,0.184,2.319,0.553,3.362
			c0.368,1.03,0.897,1.927,1.59,2.695c0.69,0.769,1.534,1.374,2.533,1.82c1.012,0.429,2.149,0.644,3.408,0.644
			c1.014,0,1.943-0.154,2.786-0.46c0.847-0.308,1.584-0.752,2.212-1.335c0.629-0.585,1.136-1.292,1.519-2.12
			c0.384-0.83,0.624-1.759,0.714-2.787h-3.499c-0.139,1.107-0.524,1.997-1.153,2.672c-0.615,0.676-1.473,1.013-2.58,1.013
			c-0.814,0-1.503-0.153-2.073-0.46c-0.568-0.324-1.028-0.745-1.38-1.267c-0.354-0.521-0.616-1.105-0.784-1.749
			c-0.154-0.661-0.23-1.337-0.23-2.027c0-0.722,0.076-1.421,0.23-2.096c0.168-0.676,0.429-1.274,0.784-1.797
			c0.351-0.538,0.812-0.959,1.38-1.267c0.57-0.322,1.26-0.483,2.073-0.483c0.446,0,0.868,0.076,1.267,0.23
			c0.413,0.139,0.783,0.337,1.106,0.599c0.321,0.261,0.591,0.567,0.805,0.921C15.028,84.777,15.167,85.153,15.228,85.568z"/>
		<rect id="XMLID_595_" x="19.636" y="80.04" fill="#FFFFFF" width="3.272" height="16.446"/>
		<path id="XMLID_592_" fill-rule="evenodd" clip-rule="evenodd" fill="#FFFFFF" d="M26.903,90.542c0-0.475,0.047-0.943,0.139-1.404
			c0.092-0.462,0.245-0.868,0.461-1.221c0.229-0.352,0.528-0.637,0.897-0.851c0.368-0.231,0.829-0.347,1.381-0.347
			c0.555,0,1.014,0.116,1.383,0.347c0.384,0.214,0.682,0.499,0.897,0.851c0.231,0.353,0.393,0.759,0.484,1.221
			c0.092,0.46,0.139,0.928,0.139,1.404c0,0.477-0.046,0.945-0.139,1.406c-0.091,0.445-0.253,0.852-0.484,1.221
			c-0.215,0.353-0.512,0.636-0.897,0.852c-0.37,0.215-0.829,0.323-1.383,0.323c-0.552,0-1.013-0.109-1.381-0.323
			c-0.369-0.215-0.668-0.499-0.897-0.852c-0.216-0.369-0.369-0.776-0.461-1.221C26.949,91.487,26.903,91.019,26.903,90.542z
			 M23.631,90.542c0,0.953,0.147,1.813,0.439,2.58c0.292,0.768,0.707,1.428,1.242,1.981c0.537,0.539,1.184,0.953,1.935,1.244
			c0.754,0.292,1.598,0.437,2.533,0.437c0.937,0,1.781-0.145,2.533-0.437c0.768-0.291,1.421-0.705,1.959-1.244
			c0.538-0.553,0.952-1.213,1.243-1.981c0.293-0.767,0.438-1.627,0.438-2.58c0-0.952-0.145-1.812-0.438-2.579
			c-0.291-0.783-0.705-1.442-1.243-1.98c-0.538-0.553-1.191-0.975-1.959-1.267c-0.752-0.308-1.596-0.461-2.533-0.461
			c-0.935,0-1.779,0.153-2.533,0.461c-0.752,0.291-1.398,0.713-1.935,1.267c-0.536,0.539-0.951,1.197-1.242,1.98
			C23.779,88.73,23.631,89.59,23.631,90.542z"/>
		<path id="XMLID_591_" fill-rule="evenodd" clip-rule="evenodd" fill="#FFFFFF" d="M45.176,88.769h3.202
			c-0.045-0.767-0.229-1.428-0.552-1.98c-0.322-0.568-0.744-1.036-1.267-1.405c-0.507-0.383-1.089-0.667-1.751-0.851
			c-0.644-0.186-1.32-0.277-2.027-0.277c-0.966,0-1.827,0.161-2.578,0.484c-0.753,0.322-1.39,0.776-1.913,1.359
			c-0.52,0.567-0.92,1.252-1.197,2.049c-0.261,0.784-0.391,1.636-0.391,2.558c0,0.89,0.145,1.711,0.438,2.465
			c0.292,0.737,0.699,1.373,1.221,1.911c0.522,0.539,1.151,0.96,1.888,1.267c0.753,0.292,1.575,0.437,2.465,0.437
			c1.579,0,2.878-0.413,3.891-1.243c1.015-0.83,1.629-2.035,1.843-3.616h-3.156c-0.107,0.738-0.375,1.329-0.805,1.775
			c-0.415,0.429-1.014,0.644-1.797,0.644c-0.507,0-0.936-0.117-1.29-0.346c-0.353-0.231-0.638-0.521-0.853-0.876
			c-0.199-0.367-0.344-0.775-0.437-1.221c-0.093-0.444-0.138-0.883-0.138-1.313c0-0.445,0.044-0.89,0.138-1.336
			c0.093-0.461,0.246-0.875,0.46-1.244c0.229-0.384,0.522-0.691,0.874-0.921c0.355-0.246,0.791-0.369,1.314-0.369
			C44.155,86.719,44.962,87.403,45.176,88.769z"/>
		<polygon id="XMLID_590_" fill-rule="evenodd" clip-rule="evenodd" fill="#FFFFFF" points="49.124,80.04 49.124,96.486 
			52.395,96.486 52.395,92.385 53.662,91.165 56.932,96.486 60.895,96.486 55.896,88.953 60.388,84.578 56.518,84.578 
			52.395,88.861 52.395,80.04 		"/>
		<path id="XMLID_587_" fill-rule="evenodd" clip-rule="evenodd" fill="#FFFFFF" d="M68.009,89.253h-5.321
			c0.015-0.231,0.062-0.492,0.139-0.783c0.092-0.293,0.238-0.568,0.438-0.83c0.214-0.26,0.49-0.475,0.828-0.644
			c0.353-0.184,0.793-0.277,1.311-0.277c0.801,0,1.391,0.215,1.776,0.646C67.579,87.794,67.854,88.424,68.009,89.253z
			 M62.688,91.326h8.591c0.061-0.921-0.017-1.803-0.229-2.649c-0.216-0.843-0.567-1.597-1.06-2.256
			c-0.476-0.661-1.09-1.183-1.844-1.568c-0.751-0.397-1.634-0.598-2.648-0.598c-0.906,0-1.735,0.161-2.488,0.484
			c-0.738,0.322-1.373,0.77-1.911,1.335c-0.539,0.553-0.954,1.215-1.247,1.981c-0.29,0.769-0.435,1.597-0.435,2.488
			c0,0.921,0.137,1.767,0.414,2.535c0.291,0.768,0.697,1.428,1.221,1.982c0.522,0.551,1.158,0.98,1.912,1.288
			c0.753,0.292,1.595,0.437,2.534,0.437c1.352,0,2.501-0.306,3.454-0.92c0.953-0.615,1.658-1.637,2.12-3.064h-2.879
			c-0.107,0.369-0.4,0.722-0.876,1.06c-0.476,0.321-1.045,0.485-1.704,0.485c-0.922,0-1.627-0.239-2.119-0.715
			C63.002,93.154,62.734,92.385,62.688,91.326z"/>
		<path id="XMLID_586_" fill-rule="evenodd" clip-rule="evenodd" fill="#FFFFFF" d="M72.024,84.578v11.908h3.273v-6.243
			c0-1.213,0.197-2.079,0.599-2.603c0.4-0.536,1.044-0.806,1.932-0.806c0.785,0,1.33,0.245,1.638,0.737
			c0.307,0.476,0.46,1.205,0.46,2.188v6.726h3.27v-7.324c0-0.738-0.068-1.405-0.206-2.005c-0.124-0.615-0.348-1.128-0.667-1.542
			c-0.323-0.431-0.769-0.762-1.336-0.991c-0.554-0.245-1.268-0.368-2.142-0.368c-0.692,0-1.367,0.161-2.026,0.484
			c-0.66,0.307-1.199,0.808-1.615,1.498h-0.07v-1.658H72.024z"/>
		<path id="XMLID_585_" fill-rule="evenodd" clip-rule="evenodd" fill="#FFFFFF" d="M85.638,86.766v9.72h3.272v-9.72h2.256v-2.188
			H88.91v-0.714c0-0.49,0.093-0.836,0.274-1.038c0.202-0.213,0.522-0.321,0.969-0.321c0.414,0,0.818,0.008,1.199,0.008v-2.465
			c-0.28-0.015-1.436-0.008-1.73-0.008c-1.334,0-2.332,0.338-2.995,1.014c-0.656,0.674-0.989,1.542-0.989,2.602v0.921h-1.957v2.188
			H85.638z"/>
		<rect id="XMLID_584_" x="92.064" y="80.04" fill="#FFFFFF" width="3.271" height="16.446"/>
		<path id="XMLID_581_" fill-rule="evenodd" clip-rule="evenodd" fill="#FFFFFF" d="M96.511,88.239h3.272
			c0.064-0.644,0.277-1.105,0.644-1.381c0.368-0.276,0.874-0.414,1.52-0.414c0.295,0,0.562,0.022,0.807,0.069
			c0.26,0.029,0.484,0.106,0.669,0.23c0.202,0.108,0.353,0.268,0.462,0.484c0.121,0.199,0.183,0.476,0.183,0.828
			c0.017,0.339-0.085,0.599-0.299,0.785c-0.214,0.169-0.508,0.299-0.876,0.39c-0.369,0.093-0.792,0.161-1.266,0.209
			c-0.477,0.045-0.961,0.106-1.453,0.184c-0.49,0.076-0.982,0.185-1.474,0.322c-0.474,0.123-0.905,0.314-1.289,0.576
			c-0.368,0.261-0.676,0.614-0.921,1.06c-0.233,0.431-0.347,0.982-0.347,1.659c0,0.612,0.097,1.143,0.301,1.587
			c0.214,0.447,0.505,0.816,0.873,1.108c0.369,0.292,0.799,0.506,1.291,0.644c0.492,0.138,1.021,0.206,1.589,0.206
			c0.738,0,1.458-0.107,2.167-0.322c0.704-0.215,1.318-0.592,1.84-1.128c0.004,0.046,0.014,0.214,0.014,0.214
			s0.003,0.469,0.01,0.938l3.112-0.001c-0.013-0.294-0.001-2.112-0.001-2.65V87.64c0-0.722-0.163-1.297-0.485-1.728
			c-0.322-0.444-0.737-0.79-1.243-1.036c-0.507-0.245-1.068-0.406-1.681-0.484c-0.615-0.092-1.22-0.138-1.823-0.138
			c-0.66,0-1.319,0.069-1.98,0.208c-0.644,0.122-1.226,0.338-1.75,0.643c-0.525,0.309-0.951,0.716-1.289,1.222
			C96.75,86.835,96.56,87.472,96.511,88.239z M104.069,90.659v1.221c0,0.183-0.021,0.429-0.069,0.736
			c-0.032,0.308-0.131,0.614-0.301,0.922c-0.168,0.291-0.429,0.544-0.782,0.759c-0.353,0.216-0.852,0.323-1.498,0.323
			c-0.261,0-0.515-0.022-0.761-0.07c-0.243-0.046-0.46-0.123-0.643-0.23c-0.185-0.123-0.33-0.283-0.437-0.485
			c-0.109-0.2-0.164-0.444-0.164-0.736c0-0.308,0.055-0.561,0.164-0.76c0.106-0.2,0.245-0.362,0.412-0.485
			c0.184-0.138,0.391-0.245,0.623-0.322c0.245-0.075,0.493-0.139,0.738-0.184c0.258-0.046,0.522-0.085,0.782-0.115
			c0.261-0.03,0.505-0.069,0.739-0.115c0.244-0.047,0.466-0.1,0.667-0.161C103.754,90.88,103.931,90.781,104.069,90.659z"/>
		<path id="XMLID_578_" fill-rule="evenodd" clip-rule="evenodd" fill="#FFFFFF" d="M114.195,94.344
			c-0.523,0-0.966-0.109-1.336-0.323c-0.368-0.215-0.668-0.492-0.899-0.828c-0.214-0.355-0.375-0.762-0.482-1.222
			c-0.093-0.461-0.139-0.929-0.139-1.405c0-0.491,0.046-0.967,0.139-1.428c0.092-0.462,0.243-0.868,0.46-1.221
			c0.229-0.352,0.522-0.637,0.876-0.851c0.369-0.231,0.821-0.347,1.358-0.347c0.524,0,0.959,0.116,1.316,0.347
			c0.364,0.214,0.665,0.506,0.897,0.874c0.227,0.355,0.389,0.759,0.481,1.222c0.109,0.461,0.163,0.928,0.163,1.404
			c0,0.475-0.047,0.944-0.142,1.405c-0.089,0.46-0.251,0.867-0.482,1.222c-0.214,0.336-0.506,0.613-0.874,0.828
			C115.178,94.235,114.733,94.344,114.195,94.344z M108.183,84.578v16.077h3.273v-5.644h0.045c0.4,0.583,0.906,1.028,1.521,1.336
			c0.628,0.292,1.311,0.437,2.05,0.437c0.874,0,1.633-0.167,2.281-0.506c0.657-0.337,1.203-0.791,1.634-1.358
			c0.447-0.569,0.775-1.219,0.991-1.959c0.214-0.737,0.321-1.503,0.321-2.302c0-0.844-0.107-1.651-0.321-2.42
			c-0.216-0.783-0.544-1.467-0.991-2.049c-0.445-0.584-1.005-1.052-1.682-1.405c-0.675-0.353-1.482-0.53-2.419-0.53
			c-0.735,0-1.412,0.147-2.026,0.438c-0.615,0.291-1.119,0.76-1.52,1.404h-0.047v-1.52H108.183z"/>
		<g id="XMLID_573_">
			<path id="XMLID_576_" fill="#FFFFFF" d="M120.592,82.658v0.263h-0.745v1.948h-0.303v-1.948H118.8v-0.263H120.592z"/>
			<path id="XMLID_574_" fill="#FFFFFF" d="M121.045,82.658h0.429l0.636,1.869l0.631-1.869h0.426v2.211h-0.286v-1.305
				c0-0.045,0.001-0.12,0.003-0.224c0.002-0.104,0.003-0.216,0.003-0.336l-0.631,1.865h-0.297l-0.638-1.865v0.068
				c0,0.054,0.002,0.137,0.005,0.248c0.003,0.111,0.005,0.192,0.005,0.245v1.305h-0.286V82.658z"/>
		</g>
		<polygon id="XMLID_572_" fill="#FFFFFF" points="19.636,100.72 19.636,97.539 20.183,97.539 20.183,98.834 20.764,98.834 
			20.764,97.539 21.31,97.539 21.31,100.72 20.764,100.72 20.764,99.31 20.183,99.31 20.183,100.72 		"/>
		<path id="XMLID_569_" fill="#FFFFFF" d="M21.663,98.31c0-0.449,0.264-0.815,0.837-0.815c0.572,0,0.838,0.366,0.838,0.815v1.639
			c0,0.45-0.265,0.815-0.838,0.815c-0.573,0-0.837-0.366-0.837-0.815V98.31z M22.209,99.936c0,0.238,0.07,0.353,0.291,0.353
			c0.221,0,0.292-0.115,0.292-0.353v-1.613c0-0.238-0.071-0.353-0.292-0.353c-0.221,0-0.291,0.114-0.291,0.353V99.936z"/>
		<polygon id="XMLID_568_" fill="#FFFFFF" points="23.69,100.72 23.69,97.539 24.196,97.539 24.861,99.358 24.871,99.358 
			24.871,97.539 25.364,97.539 25.364,100.72 24.888,100.72 24.192,98.733 24.183,98.733 24.183,100.72 		"/>
		<path id="XMLID_567_" fill="#FFFFFF" d="M26.471,99.107h0.894v1.613H27.1l-0.101-0.238c-0.163,0.194-0.295,0.282-0.551,0.282
			c-0.432,0-0.732-0.308-0.732-0.815v-1.639c0-0.449,0.264-0.815,0.802-0.815c0.547,0,0.82,0.397,0.82,0.873v0.203h-0.52
			c0-0.476-0.097-0.599-0.312-0.599c-0.132,0-0.243,0.079-0.243,0.348v1.635c0,0.203,0.067,0.335,0.256,0.335
			c0.22,0,0.299-0.124,0.299-0.441v-0.309h-0.347V99.107z"/>
		<polygon id="XMLID_566_" fill="#FFFFFF" points="28.774,100.72 28.774,97.539 29.32,97.539 29.32,98.715 29.328,98.715 
			29.901,97.539 30.448,97.539 29.857,98.724 30.523,100.72 29.968,100.72 29.522,99.239 29.513,99.239 29.32,99.592 29.32,100.72 
					"/>
		<path id="XMLID_563_" fill="#FFFFFF" d="M30.553,98.31c0-0.449,0.265-0.815,0.837-0.815c0.573,0,0.837,0.366,0.837,0.815v1.639
			c0,0.45-0.264,0.815-0.837,0.815c-0.572,0-0.837-0.366-0.837-0.815V98.31z M31.101,99.936c0,0.238,0.069,0.353,0.29,0.353
			c0.221,0,0.291-0.115,0.291-0.353v-1.613c0-0.238-0.07-0.353-0.291-0.353c-0.221,0-0.29,0.114-0.29,0.353V99.936z"/>
		<polygon id="XMLID_562_" fill="#FFFFFF" points="32.581,100.72 32.581,97.539 33.088,97.539 33.753,99.358 33.762,99.358 
			33.762,97.539 34.254,97.539 34.254,100.72 33.78,100.72 33.083,98.733 33.073,98.733 33.073,100.72 		"/>
		<path id="XMLID_561_" fill="#FFFFFF" d="M35.361,99.107h0.895v1.613h-0.264l-0.102-0.238c-0.163,0.194-0.294,0.282-0.55,0.282
			c-0.432,0-0.732-0.308-0.732-0.815v-1.639c0-0.449,0.265-0.815,0.801-0.815c0.547,0,0.82,0.397,0.82,0.873v0.203h-0.52
			c0-0.476-0.098-0.599-0.313-0.599c-0.132,0-0.243,0.079-0.243,0.348v1.635c0,0.203,0.067,0.335,0.256,0.335
			c0.221,0,0.301-0.124,0.301-0.441v-0.309h-0.349V99.107z"/>
		<polygon id="XMLID_560_" fill="#FFFFFF" points="36.775,98.125 36.475,98.665 36.244,98.665 36.458,98.125 36.262,98.125 
			36.262,97.611 36.775,97.611 		"/>
		<path id="XMLID_559_" fill="#FFFFFF" d="M38.266,98.323c-0.022-0.273-0.168-0.352-0.291-0.352c-0.177,0-0.273,0.114-0.273,0.312
			c0,0.543,1.11,0.803,1.11,1.666c0,0.525-0.352,0.815-0.863,0.815c-0.508,0-0.798-0.406-0.819-0.881l0.519-0.075
			c0.022,0.322,0.149,0.481,0.326,0.481c0.189,0,0.317-0.101,0.317-0.291c0-0.63-1.11-0.797-1.11-1.71
			c0-0.506,0.308-0.793,0.845-0.793c0.445,0,0.709,0.322,0.758,0.771L38.266,98.323z"/>
		<polygon id="XMLID_558_" fill="#FFFFFF" points="42.586,97.539 42.586,100.72 42.11,100.72 42.11,98.234 42.102,98.234 
			41.608,100.72 41.344,100.72 40.85,98.234 40.842,98.234 40.842,100.72 40.366,100.72 40.366,97.539 41.084,97.539 41.471,99.398 
			41.48,99.398 41.868,97.539 		"/>
		<path id="XMLID_557_" fill="#FFFFFF" d="M42.907,97.539h0.547v2.401c0,0.234,0.092,0.349,0.29,0.349
			c0.199,0,0.291-0.115,0.291-0.349v-2.401h0.546v2.379c0,0.547-0.318,0.846-0.838,0.846c-0.52,0-0.837-0.3-0.837-0.846V97.539z"/>
		<path id="XMLID_556_" fill="#FFFFFF" d="M45.946,98.323c-0.023-0.273-0.168-0.352-0.291-0.352c-0.177,0-0.272,0.114-0.272,0.312
			c0,0.543,1.109,0.803,1.109,1.666c0,0.525-0.353,0.815-0.864,0.815c-0.507,0-0.797-0.406-0.82-0.881l0.521-0.075
			c0.022,0.322,0.149,0.481,0.326,0.481c0.19,0,0.317-0.101,0.317-0.291c0-0.63-1.11-0.797-1.11-1.71
			c0-0.506,0.308-0.793,0.846-0.793c0.445,0,0.71,0.322,0.759,0.771L45.946,98.323z"/>
		<rect id="XMLID_555_" x="46.805" y="97.539" fill="#FFFFFF" width="0.547" height="3.182"/>
		<path id="XMLID_554_" fill="#FFFFFF" d="M48.793,98.601v-0.247c0-0.269-0.123-0.383-0.264-0.383c-0.22,0-0.291,0.114-0.291,0.353
			v1.613c0,0.238,0.071,0.353,0.291,0.353c0.198,0,0.264-0.115,0.264-0.322v-0.384h0.546v0.366c0,0.45-0.265,0.815-0.81,0.815
			c-0.574,0-0.838-0.366-0.838-0.815V98.31c0-0.449,0.264-0.815,0.838-0.815c0.545,0,0.81,0.397,0.81,0.872v0.234H48.793z"/>
		<path id="XMLID_550_" fill="#FFFFFF" d="M52.662,99.297c-0.062,0.291-0.186,0.559-0.3,0.833c0.083,0.075,0.193,0.132,0.304,0.15
			v0.485c-0.234-0.004-0.45-0.088-0.617-0.243c-0.176,0.168-0.353,0.243-0.626,0.243c-0.462,0-0.762-0.304-0.762-0.745
			c0-0.331,0.198-0.661,0.418-0.899c-0.114-0.256-0.25-0.6-0.25-0.877c0-0.432,0.234-0.749,0.691-0.749
			c0.401,0,0.649,0.265,0.649,0.661c0,0.396-0.301,0.691-0.547,0.965c0.11,0.229,0.243,0.449,0.396,0.648
			c0.075-0.194,0.151-0.388,0.194-0.591L52.662,99.297z M51.485,100.289c0.105,0,0.168-0.022,0.252-0.093
			c-0.168-0.198-0.322-0.405-0.436-0.639c-0.093,0.141-0.138,0.225-0.138,0.392C51.163,100.134,51.296,100.289,51.485,100.289
			 M51.427,98.737c0.128-0.167,0.265-0.362,0.265-0.581c0-0.247-0.071-0.344-0.199-0.344c-0.136,0-0.216,0.115-0.216,0.313
			C51.278,98.327,51.353,98.552,51.427,98.737"/>
		<path id="XMLID_547_" fill="#FFFFFF" d="M54.442,100.72h-0.529l0.586-3.181h0.678l0.587,3.181h-0.529l-0.096-0.705h-0.6
			L54.442,100.72z M54.617,99.539h0.442l-0.216-1.366h-0.009L54.617,99.539z"/>
		<path id="XMLID_544_" fill="#FFFFFF" d="M56.539,100.72h-0.545v-3.182h0.767c0.612,0,0.925,0.26,0.925,0.939
			c0,0.511-0.198,0.718-0.382,0.802l0.462,1.441h-0.555l-0.387-1.318c-0.071,0.009-0.186,0.013-0.283,0.013V100.72z M56.539,98.966
			h0.194c0.296,0,0.406-0.11,0.406-0.489c0-0.38-0.11-0.49-0.406-0.49h-0.194V98.966z"/>
		<polygon id="XMLID_543_" fill="#FFFFFF" points="58.401,98.014 57.872,98.014 57.872,97.539 59.476,97.539 59.476,98.014 
			58.948,98.014 58.948,100.72 58.401,100.72 		"/>
		<path id="XMLID_542_" fill="#FFFFFF" d="M60.793,98.323c-0.022-0.273-0.166-0.352-0.291-0.352c-0.175,0-0.273,0.114-0.273,0.312
			c0,0.543,1.111,0.803,1.111,1.666c0,0.525-0.352,0.815-0.864,0.815c-0.506,0-0.797-0.406-0.819-0.881l0.52-0.075
			c0.022,0.322,0.15,0.481,0.326,0.481c0.19,0,0.318-0.101,0.318-0.291c0-0.63-1.111-0.797-1.111-1.71
			c0-0.506,0.308-0.793,0.846-0.793c0.445,0,0.71,0.322,0.758,0.771L60.793,98.323z"/>
		<polygon id="XMLID_541_" fill="#FFFFFF" points="62.75,100.72 62.75,97.539 64.274,97.539 64.274,98.014 63.295,98.014 
			63.295,98.834 64.028,98.834 64.028,99.31 63.295,99.31 63.295,100.72 		"/>
		<polygon id="XMLID_540_" fill="#FFFFFF" points="64.511,100.72 64.511,97.539 65.974,97.539 65.974,98.014 65.058,98.014 
			65.058,98.834 65.764,98.834 65.764,99.31 65.058,99.31 65.058,100.244 66.036,100.244 66.036,100.72 		"/>
		<path id="XMLID_539_" fill="#FFFFFF" d="M67.341,98.323c-0.022-0.273-0.168-0.352-0.291-0.352c-0.177,0-0.273,0.114-0.273,0.312
			c0,0.543,1.111,0.803,1.111,1.666c0,0.525-0.353,0.815-0.865,0.815c-0.506,0-0.796-0.406-0.819-0.881l0.52-0.075
			c0.022,0.322,0.149,0.481,0.326,0.481c0.189,0,0.318-0.101,0.318-0.291c0-0.63-1.111-0.797-1.111-1.71
			c0-0.506,0.309-0.793,0.847-0.793c0.445,0,0.709,0.322,0.757,0.771L67.341,98.323z"/>
		<polygon id="XMLID_538_" fill="#FFFFFF" points="68.478,98.014 67.949,98.014 67.949,97.539 69.552,97.539 69.552,98.014 
			69.024,98.014 69.024,100.72 68.478,100.72 		"/>
		<rect id="XMLID_537_" x="69.862" y="97.539" fill="#FFFFFF" width="0.546" height="3.182"/>
		<polygon id="XMLID_536_" fill="#FFFFFF" points="72.038,97.539 72.576,97.539 71.91,100.72 71.364,100.72 70.699,97.539 
			71.236,97.539 71.633,99.746 71.641,99.746 		"/>
		<path id="XMLID_533_" fill="#FFFFFF" d="M72.858,100.72h-0.529l0.585-3.181h0.679l0.586,3.181H73.65l-0.097-0.705h-0.599
			L72.858,100.72z M73.033,99.539h0.442l-0.216-1.366H73.25L73.033,99.539z"/>
		<polygon id="XMLID_532_" fill="#FFFFFF" points="74.471,100.72 74.471,97.539 75.016,97.539 75.016,100.244 75.876,100.244 
			75.876,100.72 		"/>
		<g id="XMLID_477_">
			<path id="XMLID_527_" fill="#FFFFFF" d="M79.241,97.858c-0.282,0.037-0.59,0.061-0.929,0.083V98.2h1.16v0.331h-0.578
				c0.207,0.129,0.437,0.234,0.701,0.319l-0.207,0.412c-0.063-0.029-0.125-0.058-0.184-0.09v1.58H78.85v-0.14h-1.43v0.14h-0.354
				v-1.548c-0.057,0.022-0.11,0.044-0.16,0.058l-0.185-0.383c0.203-0.053,0.418-0.137,0.645-0.244
				c0.072-0.036,0.137-0.069,0.197-0.104h-0.766V98.2h1.16v-0.242c-0.26,0.015-0.532,0.022-0.82,0.025l-0.11-0.353
				c0.679,0,1.358-0.034,2.041-0.102L79.241,97.858z M79.087,99.106c-0.107-0.057-0.21-0.126-0.316-0.197
				c-0.162-0.108-0.315-0.227-0.46-0.36v0.486h-0.354v-0.367c-0.094,0.086-0.191,0.162-0.291,0.227
				c-0.141,0.086-0.27,0.155-0.388,0.212H79.087z M78.85,99.426h-1.43v0.256h1.43V99.426z M78.85,99.988h-1.43v0.298h1.43V99.988z"
				/>
			<path id="XMLID_519_" fill="#FFFFFF" d="M80.904,98.692l-0.223,0.317c-0.125-0.169-0.253-0.313-0.39-0.435l0.235-0.278
				C80.662,98.411,80.791,98.541,80.904,98.692 M80.941,99.447c-0.093,0.522-0.2,0.959-0.316,1.311l-0.356-0.213
				c0.15-0.41,0.263-0.817,0.344-1.223L80.941,99.447z M81.114,97.874l-0.231,0.322c-0.122-0.155-0.247-0.288-0.378-0.396
				l0.242-0.277C80.879,97.623,81.001,97.742,81.114,97.874 M81.467,97.818v-0.296h0.353v0.296h0.429v-0.296h0.354v0.296h0.357
				v0.348h-0.357v0.285h0.478v0.392h-0.375c0.097,0.176,0.238,0.316,0.386,0.448l-0.189,0.289c-0.074-0.033-0.19-0.165-0.237-0.216
				v0.631h-1.064v0.188c0,0.083,0.025,0.13,0.078,0.136c0.034,0.014,0.181,0.019,0.441,0.019c0.175,0,0.294-0.004,0.354-0.011
				c0.078-0.003,0.141-0.014,0.187-0.032c0.048-0.029,0.076-0.115,0.089-0.266l0.343,0.194c-0.044,0.223-0.103,0.368-0.178,0.432
				c-0.057,0.029-0.119,0.047-0.182,0.054c-0.181,0.014-0.388,0.021-0.612,0.021c-0.319,0-0.52-0.011-0.605-0.025
				c-0.171-0.014-0.256-0.162-0.256-0.439v-0.859c-0.062,0.062-0.145,0.123-0.198,0.159l-0.193-0.311
				c0.101-0.058,0.204-0.144,0.313-0.262c0.047-0.051,0.088-0.098,0.119-0.149h-0.285v-0.392h0.451v-0.285h-0.329v-0.348H81.467z
				 M82.464,99.098c-0.05-0.083-0.093-0.168-0.131-0.255h-0.625c-0.05,0.094-0.104,0.18-0.153,0.255H82.464z M82.324,99.427h-0.722
				V99.7h0.722V99.427z M82.249,98.174H81.82v0.277h0.429V98.174z"/>
			<path id="XMLID_513_" fill="#FFFFFF" d="M85.319,97.501v0.297h1.064v0.351h-0.448c-0.018,0.068-0.041,0.144-0.065,0.223
				c-0.018,0.062-0.038,0.115-0.056,0.208h0.703v0.343h-2.75V98.58h0.657l-0.098-0.431h-0.412v-0.351h1.013v-0.297H85.319z
				 M86.211,100.78h-0.354v-0.116h-1.393v0.116h-0.356v-1.638h2.102V100.78z M85.858,99.413h-1.393v0.302h1.393V99.413z
				 M85.858,99.994h-1.393v0.293h1.393V99.994z M85.416,98.58c0.019-0.103,0.041-0.165,0.063-0.231
				c0.021-0.071,0.04-0.136,0.056-0.201h-0.829l0.109,0.431H85.416z"/>
			<path id="XMLID_504_" fill="#FFFFFF" d="M87.951,97.656c-0.104,0.209-0.235,0.433-0.322,0.577c0,0,0.087,0.084,0.115,0.112
				c0.056-0.118,0.172-0.274,0.222-0.388l0.215,0.117v-0.248h0.228c0.026-0.131,0.047-0.221,0.066-0.311l0.286,0.086
				c-0.016,0.065-0.034,0.127-0.053,0.224h0.366v0.272l0.072-0.104c0.02,0.018,0.034,0.032,0.053,0.044
				c0.094-0.173,0.216-0.345,0.284-0.517l0.251,0.135c-0.107,0.231-0.218,0.438-0.312,0.6c0.026,0.029,0.091,0.073,0.119,0.095
				c0.082-0.141,0.205-0.297,0.272-0.435l0.198,0.134c-0.122,0.224-0.241,0.425-0.353,0.605l0.213-0.079
				c0.075,0.228,0.13,0.434,0.218,0.686l-0.257,0.126c-0.013-0.064-0.028-0.126-0.041-0.184c-0.222,0.051-0.46,0.09-0.716,0.123
				v0.033h-0.892v-0.116l-0.209,0.101c-0.006-0.036-0.013-0.068-0.016-0.101c-0.214,0.073-0.444,0.137-0.692,0.187l-0.045-0.279
				c0.05-0.007,0.112-0.04,0.158-0.048c0.081-0.129,0.174-0.341,0.242-0.47c-0.138-0.159-0.325-0.338-0.429-0.462l0.181-0.255
				c0.006,0.012,0.06,0.051,0.066,0.058c0.081-0.144,0.201-0.309,0.26-0.453L87.951,97.656z M88.438,99.612v-0.197h0.341v0.197
				h1.174v0.293h-0.861c0.088,0.057,0.184,0.111,0.288,0.158c0.184,0.09,0.403,0.165,0.66,0.223l-0.197,0.363
				c-0.257-0.094-0.497-0.219-0.72-0.374c-0.124-0.087-0.237-0.183-0.344-0.291v0.782h-0.341v-0.717
				c-0.112,0.079-0.203,0.152-0.296,0.216c-0.295,0.176-0.544,0.299-0.754,0.371l-0.172-0.28c0.203-0.058,0.418-0.148,0.644-0.267
				c0.113-0.057,0.23-0.113,0.354-0.183h-0.911v-0.293H88.438z M87.838,98.716c-0.042,0.073-0.14,0.282-0.177,0.34
				c0.056-0.011,0.19-0.058,0.24-0.068C87.888,98.93,87.85,98.766,87.838,98.716 M88.185,98.128c-0.1,0.187-0.224,0.393-0.312,0.548
				l0.186-0.077c0.047,0.158,0.088,0.324,0.122,0.5L88.185,98.128z M88.787,98.044h-0.331v0.372h0.331V98.044z M88.787,98.679
				h-0.331v0.375h0.331V98.679z M89.171,99.017l0.203-0.397c-0.081-0.077-0.237-0.222-0.3-0.317l0.017,0.743
				C89.106,99.046,89.165,99.029,89.171,99.017 M89.657,98.654c-0.04,0.064-0.166,0.29-0.204,0.347
				c0.063-0.003,0.22-0.055,0.276-0.063C89.711,98.88,89.676,98.708,89.657,98.654"/>
			<path id="XMLID_500_" fill="#FFFFFF" d="M91.643,99.279c-0.032,0.187-0.065,0.338-0.104,0.454
				c-0.118,0.345-0.291,0.637-0.52,0.885l-0.257-0.248c0.216-0.224,0.379-0.494,0.486-0.81c0.094-0.285,0.156-0.857,0.191-1.702
				h-0.395v-0.275h2.187c-0.097,0.339-0.228,0.655-0.391,0.958h0.635v0.269c-0.134,0.373-0.389,0.857-0.639,1.101
				c0.243,0.165,0.528,0.347,0.82,0.455l-0.141,0.331c-0.328-0.137-0.657-0.348-0.96-0.571c-0.273,0.204-0.624,0.384-0.994,0.538
				l-0.124-0.282c0.313-0.126,0.633-0.288,0.861-0.447C92.113,99.77,91.821,99.517,91.643,99.279 M92.853,97.858h-1.095
				c-0.01,0.279-0.019,0.513-0.031,0.683h0.786C92.626,98.353,92.777,98.119,92.853,97.858 M92.571,99.746
				c0.012-0.01,0.373-0.414,0.555-0.93h-1.372C92.124,99.439,92.549,99.731,92.571,99.746"/>
			<path id="XMLID_493_" fill="#FFFFFF" d="M95.1,97.641V97.5h0.344v0.14h0.598V97.5h0.344v0.14h0.757v0.272h-0.757v0.125h-0.344
				v-0.125h-0.598v0.153h-0.194v0.081h0.488v0.181h-0.488v0.124h0.586v0.19H95.43c-0.017,0.107,0.008,0.148,0.099,0.148
				c0.099,0,0.134-0.046,0.14-0.082l0.166,0.046c-0.014,0.09-0.034,0.154-0.133,0.193c-0.105,0.041-0.204,0.025-0.312,0.02
				c-0.072-0.004-0.141-0.029-0.166-0.079v0.15h0.464v0.198h-0.464v0.126c0.18-0.004,0.364-0.007,0.514-0.014l0.022,0.181
				c-0.401,0.036-0.843,0.061-1.33,0.083l-0.037-0.236c0.191,0,0.39-0.003,0.56-0.007v-0.133h-0.488v-0.198h0.056l-0.128-0.226
				c0.1-0.029,0.187-0.065,0.259-0.108c0.019-0.007,0.035-0.048,0.047-0.062h-0.344v-0.19h0.61v-0.124h-0.5v-0.181h0.5v-0.124H95.1
				v-0.11h-0.77v-0.272H95.1z M97.155,100.054v0.227h-0.416c0.081,0.054,0.197,0.187,0.272,0.245l-0.188,0.255
				c-0.06-0.058-0.119-0.108-0.175-0.151c-0.604,0.073-1.299,0.115-2.085,0.137l-0.103-0.255c0.131,0,0.26-0.003,0.389-0.003
				c0.053-0.051,0.143-0.176,0.194-0.227H94.33v-0.227H97.155z M94.952,98.85h0.278c-0.013-0.031-0.018-0.068-0.018-0.11v-0.099
				h-0.191c-0.041,0.069-0.088,0.156-0.143,0.206c-0.082,0.072-0.196,0.146-0.296,0.189h0.371V98.85z M96.786,99.92h-2.099v-0.224
				h2.099V99.92z M96.312,100.356l0.058-0.075h-0.935c-0.046,0.05-0.135,0.176-0.184,0.219c0.356-0.015,0.861-0.028,1.202-0.053
				C96.424,100.429,96.336,100.37,96.312,100.356 M96.176,98.285c0-0.079,0.003-0.136,0.003-0.194h0.253
				c0,0.065-0.003,0.119-0.003,0.194h0.427c0.007,0.185,0.012,0.365,0.012,0.512c0,0.18,0.003,0.309,0.013,0.381
				c0.005,0.078,0.051,0.039,0.067,0c0.007-0.018,0.018-0.17,0.011-0.174l0.231,0.117c-0.018,0.186-0.054,0.309-0.103,0.366
				c-0.043,0.047-0.097,0.069-0.154,0.069c-0.094,0-0.166-0.035-0.215-0.111c-0.075-0.094-0.113-0.31-0.113-0.648
				c0-0.064-0.003-0.133-0.003-0.27h-0.186c-0.013,0.201-0.045,0.36-0.063,0.453c0.072,0.065,0.131,0.106,0.196,0.174l-0.162,0.245
				c-0.046-0.051-0.096-0.083-0.14-0.127c-0.068,0.122-0.126,0.23-0.229,0.324l-0.191-0.28c0.09-0.073,0.162-0.166,0.219-0.274
				c-0.059-0.05-0.144-0.093-0.197-0.133l0.175-0.195c0.026,0.019,0.078,0.036,0.104,0.051c0.005-0.044,0.028-0.13,0.034-0.238
				h-0.253v-0.242H96.176z"/>
			<path id="XMLID_484_" fill="#FFFFFF" d="M98.668,98.57c-0.051,0.158-0.115,0.317-0.194,0.475v1.721h-0.341v-1.185
				c-0.019,0.022-0.037,0.043-0.05,0.057l-0.219-0.338c0.09-0.112,0.187-0.259,0.287-0.443c0.088-0.162,0.157-0.324,0.213-0.482
				L98.668,98.57z M98.633,97.673c-0.056,0.152-0.135,0.302-0.229,0.462c-0.125,0.19-0.229,0.323-0.309,0.396l-0.22-0.309
				c0.083-0.087,0.169-0.202,0.26-0.346c0.078-0.123,0.14-0.248,0.191-0.375L98.633,97.673z M98.999,98.711
				c0,0.417-0.02,0.763-0.061,1.044c-0.029,0.233-0.073,0.439-0.132,0.615l-0.262-0.194c0.053-0.158,0.096-0.342,0.128-0.551
				c0.03-0.223,0.047-0.529,0.053-0.914H98.999z M99.083,98.217v-0.701h0.331v0.701h0.417v0.312h-0.417v2.223h-0.331v-2.223h-0.391
				v-0.312H99.083z M99.903,97.994l-0.307,0.14c-0.046-0.151-0.103-0.284-0.169-0.406l0.281-0.155
				C99.784,97.703,99.85,97.843,99.903,97.994 M99.783,98.725v1.098c0,0.061,0,0.094,0.006,0.097
				c0.003,0.011,0.012,0.014,0.023,0.014c0.019,0,0.028-0.011,0.034-0.035c0.006-0.019,0.009-0.059,0.012-0.123
				c0-0.04,0.003-0.104,0.005-0.191l0.259,0.166c-0.024,0.241-0.057,0.385-0.093,0.428c-0.013,0.029-0.039,0.043-0.082,0.05
				c-0.02,0.012-0.066,0.015-0.136,0.015c-0.075,0-0.132-0.008-0.171-0.029c-0.096-0.015-0.141-0.126-0.141-0.335v-1.156H99.783z
				 M100.736,98.581v0.328h-0.197v1.378c0,0.198-0.035,0.328-0.1,0.386c-0.069,0.071-0.191,0.108-0.363,0.108
				c-0.062,0-0.121-0.014-0.172-0.043l-0.063-0.378c0.078,0.046,0.156,0.04,0.235,0.04c0.081,0,0.163-0.054,0.163-0.17v-1.321
				h-0.347v-0.328H100.736z M100.686,98.038h-0.745v-0.341h0.745V98.038z"/>
			<path id="XMLID_478_" fill="#FFFFFF" d="M102.133,97.613c-0.013,0.048-0.049,0.124-0.062,0.161h0.734v0.322
				c0.05-0.072,0.093-0.15,0.131-0.234c0.063-0.129,0.113-0.249,0.147-0.36l0.345,0.111c-0.012,0.044-0.049,0.121-0.062,0.161h0.843
				v0.305h-0.49c0.038,0.054,0.072,0.133,0.107,0.183l-0.255,0.194h0.541v1.422c0,0.328-0.132,0.49-0.392,0.49h-0.234l-0.071-0.421
				c0.112,0.021,0.211,0.029,0.305,0.029c0.032,0,0.047-0.065,0.047-0.198v-0.989h-0.417v1.99h-0.34v-2.322h0.009l-0.291-0.252
				c0.025-0.029,0.047-0.089,0.069-0.125h-0.368c0.031,0.058,0.062,0.14,0.093,0.194l-0.241,0.183h0.535v1.393h-0.917v0.425
				c0.162-0.022,0.315-0.043,0.453-0.065c-0.019-0.028-0.035-0.104-0.053-0.136l0.293-0.208c0.125,0.201,0.225,0.417,0.307,0.648
				l-0.307,0.208c-0.025-0.076-0.05-0.148-0.079-0.216c-0.322,0.068-0.669,0.126-1.044,0.173l-0.063-0.349
				c0.05-0.004,0.101-0.008,0.147-0.014v-1.858h0.062l-0.209-0.183c0.085-0.108,0.161-0.23,0.222-0.375
				c0.069-0.14,0.119-0.274,0.156-0.396L102.133,97.613z M102.23,98.456c-0.047-0.115-0.101-0.262-0.16-0.377h-0.116
				c0,0-0.064,0.255-0.181,0.377H102.23z M102.474,98.776h-0.573v0.203h0.573V98.776z M102.474,99.272h-0.573v0.224h0.573V99.272z
				 M103.544,98.456c-0.06-0.118-0.122-0.262-0.184-0.377h-0.113c-0.065,0.138-0.131,0.281-0.2,0.377H103.544z"/>
		</g>
	</g>
	<g id="XMLID_462_">
		<g id="XMLID_463_">
			<g id="XMLID_464_">
				<path id="XMLID_467_" fill="#FFFFFF" d="M103.199,31.974c-1.464-0.882-3.735-0.763-5.526-0.476l-0.467,0.078
					c1.024-0.835,1.505-1.987-0.041-2.723c-1.476-0.695-3.463-0.358-4.982,0.09l-0.213,0.061c0.371-0.633,0.377-1.416-0.82-1.981
					c-1.995-0.945-12.174,2.516-18.76,4.868c-1.685-0.745-3.338-1.227-6.239-0.794l-1.462-0.678l-18.883,5.454l0.006,0.007
					l-0.192,6.226c-2.914,0.853-6.735,2.036-10.361,3.356c-2.432,0.882-10.081,3.967-11.967,6.019
					c-0.488,0.534-0.799,1.327,0.081,1.944c0.969,0.672,2.687,0.609,4.347,0.327c-0.955,0.6-2.993,2.15-1.029,3.491
					c1.145,0.786,3.85,0.401,6.114-0.086c-1.221,0.808-2.858,2.452-0.384,3.73c2.375,1.226,10.716-1.297,18.253-4.478l10.749,6.139
					l-1.339,3.308c-2.192,0.772-4.891,1.724-4.407,2.884c0.386,0.926,1.869,0.436,3.522-0.314l-1.092,2.631
					c-0.197,0.489-0.047,1.096,0.46,1.308c0.504,0.209,1.042-0.12,1.239-0.604l1.109-2.68c0.353,0.748,0.724,1.493,0.992,2.149
					c0.303,0.715,1.036,0.766,1.463,0.473c0.362-0.241,0.409-0.768,0.24-1.177c-0.431-1.041-0.987-2.575-1.446-3.731
					c-0.009-0.03-0.016-0.056-0.028-0.085l0.187-0.473l0.009-0.042l1.016-2.547l1.775,1.018l5.904-2.631l-0.864,2.133h-0.002
					c-2.19,0.774-4.907,1.729-4.424,2.889c0.388,0.93,1.874,0.436,3.526-0.312l-1.091,2.634c-0.196,0.485-0.047,1.093,0.457,1.303
					c0.512,0.21,1.046-0.117,1.246-0.605l1.102-2.676c0.358,0.744,0.728,1.492,1.002,2.15c0.296,0.711,1.028,0.76,1.461,0.471
					c0.355-0.24,0.406-0.77,0.237-1.178c-0.433-1.039-0.988-2.578-1.444-3.73c-0.013-0.025-0.016-0.044-0.028-0.067l1.716-4.303
					l8.215-3.655l5.204,2.696l-4.115-5.014l0.311-12.629c2.714-0.881,7.252-2.382,10.915-3.733
					C95.093,38.173,106.85,34.18,103.199,31.974z M62.658,32.127c-4.074,1.861-7.646,5.644-8.526,6.621
					C54.629,37.728,56.909,33.747,62.658,32.127z M62.937,63.471c-0.009,0.007-0.009,0.01-0.015,0.016l-0.386,0.847l-0.674,1.463
					l-0.434,0.938l-0.004,0.013h0.027l-0.009,0.021l1.653,3.975c0.117,0.278-0.009,0.51-0.15,0.57
					c-0.145,0.058-0.388-0.019-0.507-0.298l-1.39-3.375l-1.763,3.906c-0.112,0.28-0.36,0.353-0.503,0.297
					c-0.146-0.059-0.267-0.289-0.152-0.568l1.527-4.014l-3.393,1.409c-0.574,0.24-0.846-0.421-0.273-0.659l4.005-1.664l0.006,0.001
					v-0.007h0.005v-0.005l0.155-0.405c0.014-0.037,0.051-0.136,0.091-0.267l1.057-2.894l1.143,0.655L62.937,63.471z M64.567,63.37
					l-12.985-7.349c4.664-2.018,8.904-4.246,11.067-5.926c-6.003,2.771-26.68,11.727-29.934,10.047
					c-2.738-1.417,4.637-5.108,4.637-5.108c-0.162,0.057-8.525,2.717-10.263,1.526c-2.002-1.371,5.801-5.125,5.801-5.125
					c-0.154,0.058-7.223,2.629-9.108,1.311c-2.712-1.894,22.069-10.192,26.424-11.923c-0.596,0.158-1.976,0.53-3.806,1.059
					l0.152-5.173l18.4,9.002L64.567,63.37z M63.898,43.265c0.398-1.111,2.067-4.96,6.083-5.661c3.347-0.582,4.705,1.516,8.33,1.542
					c-4.002,0.313-4.456-1.352-8.22-0.746C66.474,38.974,64.295,42.558,63.898,43.265z M71.494,65.081h0.016l-0.004,0.003
					l1.655,3.977c0.118,0.282-0.008,0.51-0.147,0.573c-0.152,0.058-0.399-0.018-0.513-0.298l-1.403-3.346l-1.743,3.877
					c-0.117,0.278-0.367,0.357-0.51,0.295c-0.145-0.055-0.267-0.287-0.148-0.567l1.493-4.002l-3.36,1.398
					c-0.569,0.238-0.841-0.421-0.272-0.657l3.974-1.651l0.004-0.013l0.01,0.013l1.093-2.918l1.693-0.752L71.494,65.081z
					 M82.65,54.067l-3.735-4.549l-6.569,2.502l8.936,4.628l-6.933,3.038l-2.882,1.263l-5.918,2.593l0.301-17.861l17.129-5.955
					L82.65,54.067z M94.101,37.953c-3.736,1.443-7.933,2.852-10.549,3.698l0.061-2.477l-1.431-0.66
					c6.05-1.908,7.193-6.984,3.814-8.9c-3.281-1.857-5.163,2.214-5.163,2.214s1.449-1.904,2.958-1.034
					c1.923,1.107-1.121,4.56-6.023,3.252c-2.24-0.594-3.702-1.391-5.095-2.028c6.147-2.033,16.286-5.201,18.228-4.357
					c1.562,0.68-1.898,3.196-1.898,3.196s5.145-2.676,7.803-1.245c1.963,1.055-3.219,3.426-3.219,3.426s6.594-1.975,9.036-0.645
					C104.717,33.527,96.888,36.877,94.101,37.953z"/>
				<path id="XMLID_466_" fill="#FFFFFF" d="M68.535,49.669c0.632,0.126,1.275-0.439,1.443-1.27c0.16-0.826-0.21-1.6-0.832-1.727
					c-0.629-0.126-1.271,0.443-1.441,1.271C67.535,48.772,67.909,49.542,68.535,49.669z"/>
				<path id="XMLID_465_" fill="#FFFFFF" d="M80.236,45.37c0.625,0.126,1.274-0.442,1.441-1.272
					c0.166-0.824-0.207-1.598-0.839-1.725c-0.627-0.126-1.265,0.441-1.433,1.269C79.234,44.469,79.606,45.244,80.236,45.37z"/>
			</g>
		</g>
	</g>
</g>
</svg>
