<?xml version="1.0" encoding="utf-8"?>
<!-- Generator: Adobe Illustrator 17.0.0, SVG Export Plug-In . SVG Version: 6.00 Build 0)  -->
<!DOCTYPE svg PUBLIC "-//W3C//DTD SVG 1.1//EN" "http://www.w3.org/Graphics/SVG/1.1/DTD/svg11.dtd">
<svg version="1.1" id="Fames" xmlns="http://www.w3.org/2000/svg" xmlns:xlink="http://www.w3.org/1999/xlink" x="0px" y="0px"
	 width="128px" height="128px" viewBox="0 0 128 128" enable-background="new 0 0 128 128" xml:space="preserve">
<g>
	<path fill="#FFFFFF" d="M90.574,112.15l1.361-0.442v5.511l1.856,0.494v-6.6l1.356-0.441v5.716H94.08l0.392,0.828h0.991
		c0.939,0,1.535-0.15,1.535-1.412v-5.176c0-0.828-0.505-1.336-1.918-0.873l-1.29,0.416v-3.049h-1.856v3.65l-1.361,0.442v-2.441
		H88.72v3.043l-1.196,0.387v0.939l1.196-0.384v5.842c0,1.257,0.59,1.41,1.532,1.41h6.745l0.397-0.818l-6.827-0.008L90.574,112.15z"
		/>
	<polygon fill="#FFFFFF" points="85.868,111.381 87.531,111.381 87.531,110.561 85.868,110.561 85.868,107.95 84.017,107.95 
		84.017,110.561 82.351,110.561 82.351,111.381 84.017,111.381 84.017,117.21 82.562,117.679 82.562,118.617 87.317,117.076 
		87.317,116.145 85.868,116.61 	"/>
	<path fill="#FFFFFF" d="M75.429,113.149h5.646v-0.952h-5.767c-0.01-0.226-0.024-0.472-0.024-0.714v-2.587h4.789v-0.945H68.2v0.945
		h4.785v2.587c0,0.242-0.008,0.488-0.025,0.714h-5.774v0.952h5.647c-0.536,2.85-2.538,4.818-5.911,6.866l2.932-0.003
		c1.934-1.181,3.371-2.568,4.276-4.241c0.91,1.673,2.352,3.06,4.274,4.241h2.945C77.971,117.961,75.972,115.999,75.429,113.149z"/>
	<path fill="#FFFFFF" d="M41.956,115.466h-1.64c0.041,0.828,0.161,2.037,0.522,3.202h1.97
		C42.339,117.521,42.068,116.301,41.956,115.466z"/>
	<path fill="#FFFFFF" d="M45.262,109.106l3.497-1.123v-1.082l-4.003,1.289c-0.982,0.315-1.333,1.133-1.333,2.479v3.366
		c0,1.168,0,5.207-1.103,6.274h2.088c0.844-1.499,0.852-5.033,0.852-7.541v-1.331h1.114v8.874h1.85v-8.874h0.605l0.39-0.823h-3.958
		L45.262,109.106z"/>
	<path fill="#FFFFFF" d="M42.688,113.498h-2.84v-1.239h3.024v-0.823h-2.086c0.352-0.605,0.813-1.551,1.114-2.602h0.787v-0.825h-2.56
		c-0.231-0.392-0.441-0.785-0.607-1.111h-1.949c0.207,0.36,0.433,0.74,0.675,1.111h-2.925v0.825h0.932
		c0.296,1.051,0.759,1.997,1.103,2.602h-2.225v0.823h3.025v1.239h-2.834v0.819h2.834v5.994h1.692v-5.994h2.448L42.688,113.498z
		 M38.998,111.437c-0.339-0.615-0.568-1.534-0.901-2.602h1.963C39.717,109.903,39.344,110.822,38.998,111.437z"/>
	<path fill="#FFFFFF" d="M34.332,119.646h2.114c0.785-1.294,1.096-2.969,1.218-4.179h-1.769
		C35.677,116.693,35.184,118.385,34.332,119.646z"/>
	<path fill="#FFFFFF" d="M54.887,108.835h9.905v-0.825h-3.755c-0.237-0.392-0.445-0.785-0.604-1.111h-2.108
		c0.209,0.36,0.431,0.74,0.672,1.111h-4.11V108.835z"/>
	<path fill="#FFFFFF" d="M60.105,114.323h-0.221v-0.003h-1.051c0.221-0.224,0.424-0.436,0.595-0.618h3.348v-0.826h-5.882v0.826
		h0.598c-0.674,0.679-1.759,1.612-2.762,2.172h2.344c0.282-0.206,0.586-0.467,0.882-0.73h1.838v4.347h-1.386l0.394,0.821h1.304
		c0.948,0,1.538-0.152,1.538-1.407v-3.176C61.643,114.469,61.053,114.323,60.105,114.323z"/>
	<path fill="#FFFFFF" d="M59.37,117.766h-1.675c0.647-0.561,1.275-1.173,1.543-1.479h-2.161c-0.306,0.365-1.746,1.57-2.906,2.382
		h2.048c-0.554,0.461-1.225,1.002-1.793,1.388h2.334C57.524,119.613,58.935,118.274,59.37,117.766z"/>
	<path fill="#FFFFFF" d="M65.231,115.054h-2.006c-0.297,0.576-0.88,1.329-1.218,1.647c0.259,0.658,1.022,2.425,1.879,3.356h2.289
		c-0.889-1.017-1.985-2.487-2.247-3.156C64.257,116.584,64.927,115.658,65.231,115.054z"/>
	<path fill="#FFFFFF" d="M50.975,107.599c0.476,0.806,1.006,1.701,1.671,2.47h1.984c-0.639-0.764-1.184-1.773-1.535-2.47H50.975z"/>
	<path fill="#FFFFFF" d="M50.644,110.614c0.433,0.745,0.923,1.563,1.5,2.262h1.875c-0.542-0.705-1.047-1.616-1.371-2.262H50.644z"/>
	<path fill="#FFFFFF" d="M50.59,120.053l2.087,0.004c0.68-1.355,1.102-3.244,1.341-5.003h-1.813
		C51.941,116.813,51.352,118.709,50.59,120.053z"/>
	<path fill="#FFFFFF" d="M54.435,115.059l1.855-0.989v-1.811h7.093v1.811h1.849v-2.634h-1.4v-0.383c0-1.255-0.592-1.404-1.533-1.404
		h-6.45v1.787h-1.414C54.435,111.436,54.435,115.059,54.435,115.059z M57.688,110.471h4.291v0.966h-4.291V110.471z"/>
	<path fill="#FFFFFF" d="M75.575,67.893c0,0.524-0.311,0.805-0.71,0.805s-0.728-0.281-0.728-0.805v-3.451h-0.876v3.457
		c0,0.885,0.633,1.494,1.567,1.494c0.928,0,1.562-0.609,1.562-1.494v-3.457h-0.816L75.575,67.893L75.575,67.893z"/>
	<path fill="#FFFFFF" d="M54.773,68.113h-0.02c0,0-0.041-0.237-0.125-0.551l-0.847-3.121h-0.883l-0.524,4.877h0.736
		c0.006-0.144,0.299-3.241,0.299-3.241c0.03-0.299,0.021-0.574,0.021-0.574h0.018c0,0,0.056,0.275,0.138,0.574
		c0,0,0.849,3.096,0.893,3.241h0.491c0.056-0.164,0.908-3.224,0.908-3.224c0.091-0.315,0.128-0.591,0.128-0.591h0.018
		c0,0-0.008,0.282,0.025,0.591c0,0,0.288,3.103,0.296,3.224h0.827l-0.528-4.877h-0.882l-0.871,3.121
		C54.801,67.876,54.773,68.113,54.773,68.113z"/>
	<path fill="#FFFFFF" d="M67.868,69.319h0.774l0.377-1.259h1.534l0.368,1.259h0.903l-1.573-4.877h-0.815L67.868,69.319z
		 M69.802,65.232h0.017c0,0,0.022,0.224,0.119,0.589l0.484,1.716h-1.259l0.514-1.716C69.785,65.456,69.802,65.232,69.802,65.232z"/>
	<path fill="#FFFFFF" d="M63.785,66.875c0,1.356,0.621,2.515,1.822,2.515c0.425,0,0.768-0.099,0.979-0.279l-0.2-0.581
		c-0.167,0.107-0.331,0.168-0.598,0.168c-0.781,0-1.091-0.883-1.091-1.829c0-0.931,0.278-1.856,1.091-1.856
		c0.28,0,0.466,0.084,0.608,0.167l0.189-0.537c-0.223-0.172-0.536-0.273-0.966-0.273C64.412,64.37,63.785,65.551,63.785,66.875z"/>
	<path fill="#FFFFFF" d="M60.087,64.442l-1.571,4.877h0.785l0.379-1.259h1.523l0.368,1.259h0.903l-1.558-4.877H60.087z
		 M59.823,67.537l0.503-1.716c0.114-0.365,0.13-0.589,0.13-0.589h0.01c0,0,0.026,0.224,0.135,0.589l0.485,1.716H59.823z"/>
	<path fill="#FFFFFF" d="M84.552,51.189c0-2.32-1.43-3.8-4.701-3.8c-1.5,0-2.846,0.285-3.722,0.709v11.643h2.814V49.177
		c0.209-0.09,0.554-0.16,0.908-0.16c1.507,0,1.903,1.013,1.903,2.566c0,1.475-0.537,2.63-1.74,2.63h-0.498l2.488,5.528h3.215
		l-3.093-5.243v-0.033C83.713,54.221,84.552,52.784,84.552,51.189z"/>
	<path fill="#FFFFFF" d="M69.725,47.389c-1.475,0-2.621,0.285-3.503,0.709v11.107c0.845,0.447,2.076,0.711,3.647,0.711
		c3.895,0,5.308-2.815,5.308-6.318C75.176,50.058,73.654,47.389,69.725,47.389z M69.88,57.937c-0.34,0-0.63-0.054-0.842-0.127
		v-8.428c0.224-0.081,0.47-0.123,0.807-0.123c1.738,0,2.448,1.274,2.448,4.281C72.294,56.75,71.62,57.937,69.88,57.937z"/>
	<polygon fill="#FFFFFF" points="86.009,59.741 92.358,59.741 92.358,57.81 88.873,57.81 88.873,54.464 91.939,54.464 
		91.939,52.592 88.873,52.592 88.873,49.49 92.358,49.49 92.358,47.568 86.009,47.568 	"/>
	<path fill="#FFFFFF" d="M96.937,47.568l-3.94,12.173h2.555l0.772-2.604h3.635l0.736,2.604h2.936l-3.917-12.173H96.937z
		 M96.743,55.491l1.121-3.967c0.253-0.864,0.321-1.466,0.321-1.466h0.036c0,0,0.059,0.622,0.279,1.466l1.068,3.967H96.743z"/>
	<path fill="#FFFFFF" d="M48.635,47.408c-1.727,0-2.565,0.602-3.437,1.813c-0.778,1.067-1.188,2.597-1.188,4.437
		c0,1.845,0.41,3.385,1.188,4.444c0.872,1.209,1.71,1.817,3.437,1.817c1.715,0,2.678-0.608,3.543-1.817
		c0.776-1.068,1.182-2.599,1.182-4.444c0-1.832-0.406-3.37-1.182-4.437C51.313,48.01,50.35,47.408,48.635,47.408z M48.635,59.117
		c-2.26,0-2.984-1.92-2.984-5.458c0-3.532,0.724-5.458,2.984-5.458c2.245,0,3.078,1.926,3.078,5.458
		C51.713,57.196,50.88,59.117,48.635,59.117z"/>
	<path fill="#FFFFFF" d="M122.616,52.498c-1.019-0.462-2.043-0.902-2.043-1.786c0-0.869,0.595-1.398,1.544-1.398
		c0.735,0,1.388,0.263,1.812,0.529l0.594-1.745c-0.581-0.388-1.603-0.709-2.915-0.709c-2.342,0-3.832,1.698-3.832,3.746
		c0,1.186,0.624,2.515,2.491,3.363c1.231,0.554,2.021,1.026,2.021,1.809c0,0.869-0.942,1.454-1.945,1.454
		c-0.841,0-1.563-0.305-1.943-0.57l-0.652,1.999c0.675,0.462,1.666,0.726,3.159,0.726c2.395,0,4.386-1.63,4.386-3.82
		C125.294,54.853,124.962,53.559,122.616,52.498z"/>
	<path fill="#FFFFFF" d="M112.802,47.568l-1.975,6.804c-0.219,0.749-0.339,1.365-0.339,1.365h-0.032c0,0-0.112-0.616-0.324-1.365
		l-1.874-6.804h-2.783l-1.276,12.173h2.345c0.046-0.536,0.62-7.01,0.62-7.01c0.063-0.778,0.028-1.486,0.028-1.486h0.036
		c0,0,0.157,0.708,0.377,1.486c0,0,1.843,6.495,2.037,7.01h1.418c0.215-0.619,2.05-7.01,2.05-7.01
		c0.222-0.778,0.363-1.486,0.363-1.486h0.038c0,0-0.017,0.721,0.052,1.486c0,0,0.564,6.544,0.602,7.01h2.713l-1.305-12.173
		C115.573,47.568,112.802,47.568,112.802,47.568z"/>
	<polygon fill="#FFFFFF" points="23.481,59.741 26.623,59.741 26.623,48.868 29.615,48.868 33.817,55.751 31.598,59.741 
		34.79,59.741 41.24,47.585 37.996,47.585 35.22,53.002 35.177,53.002 31.99,47.585 19.786,47.585 19.786,48.868 23.481,48.868 	"/>
	<path fill="#FFFFFF" d="M55.018,59.741c0.246,0,1.375,0,1.612,0c0-0.289,0-5.883,0-5.883s3.998,0,4.297,0c0-0.196,0-0.617,0-0.799
		c-0.299,0-4.297,0-4.297,0v-4.652c0,0,4.478,0,4.784,0c0-0.194,0-0.625,0-0.822c-0.3,0-6.103,0-6.396,0
		C55.018,47.881,55.018,59.443,55.018,59.741z"/>
	<rect x="15.289" y="47.585" fill="#FFFFFF" width="3.168" height="12.156"/>
	<path fill="#FFFFFF" d="M10.948,48.315c1.067,0,1.781,0.448,2.298,0.671l0.732-1.405c-0.86-0.438-2.022-0.712-3.674-0.712
		c-4.514,0-6.833,3.079-6.833,6.52c0,3.523,2.287,6.525,6.807,6.525c1.604,0,2.87-0.257,3.699-0.721l-0.783-1.51
		c-0.615,0.27-1.215,0.684-2.247,0.684c-2.917,0-4.078-2.541-4.078-4.994C6.871,50.934,7.906,48.315,10.948,48.315z"/>
	<path fill="#FFFFFF" d="M42.58,17.622c0.975-0.428,1.972-0.827,2.988-1.189c1.491-0.413,2.884-0.452,4.672-0.124
		c0.336,0.059,0.76-0.092,1.182-0.325c1.918-1.18,5.452-2.035,10.797-2.32c3.549,0.017,7.177,0.402,10.822,1.182
		c0.377,0.075,0.955,0.164,2.122,0.537c0.019,0.005,0.032,0.013,0.047,0.016c3.102,0.995,4.132,2.72,5.491,4.413
		c2.251,2.801,6.833,4.052,8.808,6.123c-0.767-2.833-1.907-5.895-4.702-8.909c-5.065-5.472-13.751-8.871-22.668-8.871
		c-0.505,0-1.007,0.015-1.51,0.036c-9.455,1.493-18.281,6.222-25.092,13.343c2.05-1.415,4.254-2.655,6.582-3.71
		C42.136,17.83,42.279,17.768,42.58,17.622z"/>
	<path fill="#FFFFFF" d="M85.193,16.67c3.53,3.809,4.482,7.661,5.319,11.058c0.032,0.132,0.064,0.266,0.097,0.396
		c0.305,0.411,0.939,0.76,1.359,0.686c3.572-0.938,2.029,1.366,5.72,1.346c1.339-0.009,1.975-0.589,4.161,1.649
		c2.551,3.054,4.651,6.362,6.225,9.838c-3.482-15.374-14.522-28.156-30.058-32.464c-4.366-1.207-8.77-1.661-13.091-1.436
		C72.977,8.37,80.561,11.67,85.193,16.67z"/>
	<path fill="#FFFFFF" d="M46.626,90.082c5.066,5.469,13.751,8.869,22.668,8.869c0.505,0,1.01-0.014,1.511-0.036
		c9.455-1.491,18.279-6.221,25.093-13.341c-2.051,1.414-4.257,2.656-6.583,3.71c-0.016-0.005-0.161,0.059-0.463,0.203
		c-0.974,0.428-1.971,0.827-2.987,1.188c-1.491,0.413-2.888,0.454-4.671,0.126c-0.337-0.06-0.761,0.092-1.184,0.325
		c-1.919,1.182-5.451,2.036-10.797,2.321c-3.549-0.017-7.175-0.402-10.822-1.184c-0.377-0.074-0.957-0.167-2.123-0.537
		c-0.019-0.005-0.032-0.011-0.047-0.016c-3.101-0.994-4.132-2.721-5.491-4.412c-2.249-2.801-6.832-4.054-8.809-6.124
		C42.692,84.005,43.832,87.067,46.626,90.082z"/>
	<path fill="#FFFFFF" d="M46.24,90.44c-3.53-3.81-4.482-7.661-5.319-11.06c-0.033-0.132-0.065-0.265-0.1-0.396
		c-0.302-0.409-0.936-0.759-1.357-0.686c-3.571,0.94-2.027-1.366-5.718-1.345c-1.34,0.008-1.976,0.586-4.162-1.651
		c-2.553-3.05-4.652-6.36-6.224-9.836C26.839,80.84,37.881,93.621,53.419,97.93c4.364,1.204,8.769,1.66,13.088,1.434
		C58.457,98.739,50.87,95.44,46.24,90.44z"/>
</g>
</svg>
