<?xml version="1.0" encoding="utf-8"?>
<!-- Generator: Adobe Illustrator 17.0.0, SVG Export Plug-In . SVG Version: 6.00 Build 0)  -->
<!DOCTYPE svg PUBLIC "-//W3C//DTD SVG 1.1//EN" "http://www.w3.org/Graphics/SVG/1.1/DTD/svg11.dtd">
<svg version="1.1" id="Fames" xmlns="http://www.w3.org/2000/svg" xmlns:xlink="http://www.w3.org/1999/xlink" x="0px" y="0px"
	 width="128px" height="128px" viewBox="0 0 128 128" enable-background="new 0 0 128 128" xml:space="preserve">
<g id="XMLID_237_">
	<path id="XMLID_278_" fill="#FFFFFF" d="M77.78,64.472c1.553-0.049,3.674-0.436,5.163-2.419c1.594-2.121,1.576-3.712,1.576-3.712
		h-0.382c0,0-0.932,2.309-2.533,3.017c-1.469,0.649-3.058,0.85-4.756-0.825c-1.387-1.367-1.433-2.854-1.602-3.845
		c-0.117-0.685-0.046-2.617-0.046-2.617l9.571-0.013c0,0,0.053-2.439-1.042-3.995c-1.054-1.502-2.485-2.679-4.827-2.715
		c-3.264-0.048-5.882,2.77-6.549,5.449c-0.644,2.595-0.789,4.787,0.359,7.852C73.861,63.716,76.562,64.508,77.78,64.472
		 M76.346,49.898c0.792-1.163,1.721-1.345,2.317-1.345c0.598,0,1.548,0.27,2.218,1.543c0.67,1.276,0.646,2.679,0.646,2.679h-6.113
		C75.415,52.775,75.557,51.053,76.346,49.898"/>
	<path id="XMLID_277_" fill="#FFFFFF" d="M87.819,55.405c0.968,0.777,2.366,1.609,3.333,2.139c0.97,0.53,2.421,1.556,2.706,2.371
		c0.288,0.812,0.234,1.752-0.356,2.492c-0.593,0.743-1.401,1.187-2.834,0.762c-1.434-0.426-1.9-0.884-2.579-1.927
		c-0.682-1.044-0.988-2.195-0.988-2.195l-0.413,0.021l0.199,5.482l0.356-0.036c0,0,0.201-0.583,0.771-0.69
		c0.754-0.142,0.771,0,1.505,0.318c0.736,0.319,1.471,0.39,2.673,0.39c1.199,0,2.992-0.672,3.817-1.609
		c0.825-0.937,1.22-1.68,1.22-3.343c0-1.663-0.501-2.282-1.237-3.061c-0.733-0.779-2.169-1.698-3.549-2.528
		c-1.38-0.833-2.241-1.115-2.813-2.088c-0.573-0.973-0.267-1.759,0-2.192c0.249-0.408,0.896-1.044,1.828-1.044
		c0.932,0,1.668,0.336,2.366,0.866c0.876,0.665,1.131,1.001,1.65,1.787c0.27,0.405,0.484,0.866,0.484,0.866h0.285l-0.214-4.705
		h-0.321c0,0-0.056,0.583-0.433,0.726c-0.377,0.142-0.484,0.124-0.858,0c-0.377-0.122-1.362-0.637-2.78-0.637
		c-1.38,0-2.867,0.514-3.799,1.487c-0.988,1.029-1.344,1.927-1.344,3.022C86.493,53.175,86.852,54.626,87.819,55.405"/>
	<path id="XMLID_276_" fill="#FFFFFF" d="M99.839,55.405c0.97,0.777,2.368,1.609,3.335,2.139c0.968,0.53,2.422,1.556,2.707,2.371
		c0.288,0.812,0.234,1.752-0.359,2.492c-0.591,0.743-1.398,1.187-2.831,0.762c-1.434-0.426-1.902-0.884-2.581-1.927
		c-0.68-1.044-0.986-2.195-0.986-2.195l-0.412,0.021l0.199,5.482l0.356-0.036c0,0,0.201-0.583,0.771-0.69
		c0.751-0.142,0.771,0,1.505,0.318c0.736,0.319,1.472,0.39,2.671,0.39c1.202,0,2.994-0.672,3.819-1.609
		c0.825-0.937,1.22-1.68,1.22-3.343c0-1.663-0.504-2.282-1.237-3.061c-0.736-0.779-2.169-1.698-3.549-2.528
		c-1.38-0.833-2.24-1.115-2.816-2.088c-0.573-0.973-0.265-1.759,0-2.192c0.252-0.408,0.896-1.044,1.831-1.044
		c0.93,0,1.665,0.336,2.366,0.866c0.876,0.665,1.131,1.001,1.65,1.787c0.267,0.405,0.484,0.866,0.484,0.866h0.285l-0.214-4.705
		h-0.324c0,0-0.053,0.583-0.43,0.726c-0.377,0.142-0.484,0.124-0.861,0c-0.377-0.122-1.362-0.637-2.778-0.637
		c-1.38,0-2.869,0.514-3.801,1.487c-0.985,1.029-1.345,1.927-1.345,3.022C98.513,53.175,98.872,54.626,99.839,55.405"/>
	<path id="XMLID_275_" fill="#FFFFFF" d="M119.745,47.879c0,0,0.323,0.031,0.481,0.132c0.209,0.132,0.377,0.301,0.504,0.619
		c0.125,0.319,0.117,0.787-0.018,1.202c-0.12,0.364-3.335,9.464-3.335,9.464s-3.351-9.894-3.412-10.07
		c-0.058-0.178-0.094-0.474-0.058-0.695c0.036-0.227,0.382-0.41,0.596-0.52c0.252-0.13,0.634-0.156,0.634-0.156v-0.269h-6.704v0.399
		c0,0,0.408,0.026,0.909,0.308c0.334,0.188,0.527,0.542,0.67,0.802c0.142,0.259,5.639,15.022,5.639,15.022s-0.071,0.354-0.55,1.533
		c-0.478,1.179-0.909,1.627-1.385,1.838c-0.479,0.214-0.835,0.033-1.108-0.094c-0.303-0.14-0.519-0.565-1.426-0.565
		c-0.909,0-1.566,0.565-1.579,1.133c-0.015,0.654,0.288,1.108,1.123,1.484c0.837,0.377,2.187,0.265,3.371-0.476
		c1.156-0.726,1.704-1.594,2.032-2.376c0.217-0.519,5.732-15.595,5.892-16.003c0.16-0.407,0.41-1.115,0.698-1.556
		c0.288-0.443,0.486-0.641,0.746-0.84c0.367-0.282,0.851-0.318,0.851-0.318v-0.293h-4.57V47.879z"/>
	<path id="XMLID_274_" fill="#FFFFFF" d="M8.561,62.211v-9.693h9.464v9.693c0,0,0,0.662-0.42,1.131
		c-0.349,0.389-1.021,0.514-1.021,0.514v0.194h6.915v-0.186c0,0-0.642-0.12-0.99-0.507c-0.42-0.471-0.469-1.146-0.469-1.146V42.692
		c0,0,0.018-0.588,0.438-1.057c0.349-0.387,0.993-0.502,0.993-0.502v-0.202h-6.915l0.005,0.202c0,0,0.634,0.122,0.991,0.502
		c0.456,0.481,0.473,1.057,0.473,1.057v8.145L8.561,50.83v-8.137c0,0,0.008-0.662,0.445-1.133C9.36,41.18,9.999,41.06,9.999,41.06
		v-0.201l-6.913-0.005v0.206c0,0,0.644,0.112,0.993,0.499c0.42,0.471,0.466,1.133,0.466,1.133v19.519c0,0-0.01,0.662-0.43,1.123
		c-0.392,0.428-1.011,0.522-1.011,0.522v0.194h6.915v-0.176c0,0-0.662-0.153-1.011-0.54C8.589,62.865,8.561,62.211,8.561,62.211"/>
	<path id="XMLID_271_" fill="#FFFFFF" d="M30.447,64.176c1.556-0.046,3.674-0.435,5.164-2.416c1.594-2.124,1.576-3.715,1.576-3.715
		h-0.382c0,0-0.932,2.312-2.533,3.017c-1.469,0.649-3.058,0.851-4.756-0.825c-1.385-1.367-1.434-2.852-1.602-3.845
		c-0.115-0.682-0.048-2.617-0.048-2.617l9.574-0.01c0,0,0.053-2.442-1.042-3.997c-1.054-1.502-2.485-2.679-4.827-2.712
		c-3.264-0.051-5.882,2.768-6.549,5.446c-0.644,2.594-0.789,4.787,0.359,7.855C26.529,63.423,29.227,64.215,30.447,64.176
		 M29.014,49.602c0.794-1.161,1.721-1.344,2.317-1.344c0.598,0,1.548,0.272,2.218,1.545c0.669,1.273,0.644,2.676,0.644,2.676h-6.111
		C28.082,52.48,28.224,50.758,29.014,49.602"/>
	<path id="XMLID_270_" fill="#FFFFFF" d="M39.285,50.094c0.512,0.418,0.555,0.858,0.555,0.858v10.923c0,0-0.01,0.909-0.385,1.326
		c-0.555,0.619-1.003,0.57-1.003,0.57v0.202h6.21v-0.202c0,0-0.448,0.049-1.003-0.57c-0.377-0.418-0.387-1.326-0.387-1.326v-9.197
		c0,0-0.127-1.006,0.512-2.014c0.194-0.306,0.741-1.133,1.556-1.393c0.81-0.26,2.039-0.28,2.986,0.448
		c1.194,0.919,1.052,2.712,1.052,2.712v9.444c0,0-0.01,0.909-0.387,1.326c-0.555,0.619-1,0.57-1,0.57v0.202h6.208v-0.202
		c0,0-0.445,0.049-1.003-0.57c-0.374-0.418-0.384-1.326-0.384-1.326V51.441c0-0.257-0.089-2.009-1.258-3.04
		c-1.148-1.016-2.485-1.464-4.135-1.321c-1.609,0.137-2.541,0.817-3.106,1.321c-0.741,0.66-1.029,1.242-1.029,1.242V47.16h-0.394
		c0,0-0.925,0.901-2.277,1.502c-1.433,0.636-2.347,0.883-2.347,0.883v0.257C38.264,49.804,38.852,49.74,39.285,50.094"/>
	<path id="XMLID_269_" fill="#FFFFFF" d="M56.107,50.094c0.512,0.418,0.557,0.858,0.557,0.858v10.923c0,0-0.01,0.909-0.387,1.326
		c-0.555,0.619-1.003,0.57-1.003,0.57v0.202h6.21v-0.202c0,0-0.445,0.049-1.003-0.57c-0.374-0.418-0.384-1.326-0.384-1.326v-9.197
		c0,0-0.128-1.006,0.509-2.014c0.194-0.306,0.743-1.133,1.556-1.393c0.812-0.26,2.039-0.28,2.986,0.448
		c1.197,0.919,1.052,2.712,1.052,2.712v9.444c0,0-0.01,0.909-0.385,1.326c-0.555,0.619-1.003,0.57-1.003,0.57v0.202h6.207v-0.202
		c0,0-0.445,0.049-1.003-0.57c-0.374-0.418-0.384-1.326-0.384-1.326V51.441c0-0.257-0.089-2.009-1.258-3.04
		c-1.146-1.016-2.485-1.464-4.132-1.321c-1.612,0.137-2.544,0.817-3.109,1.321c-0.741,0.66-1.026,1.242-1.026,1.242V47.16H59.71
		c0,0-0.922,0.901-2.276,1.502c-1.433,0.636-2.348,0.883-2.348,0.883v0.257C55.086,49.804,55.674,49.74,56.107,50.094"/>
	<polygon id="XMLID_268_" fill="#FFFFFF" points="54.54,80.087 53.906,80.087 53.907,82.548 51.5,80.086 50.599,80.086 
		51.046,80.571 51.046,84.092 51.679,84.092 51.679,81.248 54.538,84.198 	"/>
	<polygon id="XMLID_267_" fill="#FFFFFF" points="48.186,82.046 48.186,84.095 48.839,84.095 48.839,82.046 48.839,80.086 
		48.186,80.086 	"/>
	<polygon id="XMLID_266_" fill="#FFFFFF" points="69.468,84.096 69.468,80.063 68.262,81.268 68.262,81.521 68.82,81.521 
		68.82,84.096 	"/>
	<polygon id="XMLID_265_" fill="#FFFFFF" points="64.001,80.703 64.001,80.088 61.515,80.087 61.515,84.094 64.183,84.095 
		64.183,83.439 64.143,83.439 62.166,83.439 62.166,82.328 63.793,82.328 63.793,81.681 62.166,81.681 62.166,80.703 	"/>
	<path id="XMLID_264_" fill="#FFFFFF" d="M58.226,80.707c0.41,0,0.778,0.207,1.022,0.531l0.029,0.039l0.451-0.465l-0.024-0.029
		c-0.359-0.439-0.889-0.718-1.478-0.718c-0.543,0-1.034,0.235-1.387,0.613c-0.355,0.378-0.574,0.9-0.574,1.476
		c0,0.576,0.219,1.097,0.574,1.476c0.353,0.378,0.844,0.613,1.387,0.613c0.571,0,1.087-0.261,1.444-0.677l0.024-0.028l-0.45-0.463
		l-0.029,0.036c-0.244,0.302-0.597,0.491-0.99,0.491c-0.363,0-0.694-0.16-0.933-0.423c-0.24-0.262-0.388-0.624-0.388-1.024
		s0.148-0.762,0.388-1.025C57.532,80.868,57.862,80.707,58.226,80.707"/>
	<polygon id="XMLID_263_" fill="#FFFFFF" points="72.189,84.096 74.366,80.088 71.501,80.088 71.501,80.649 73.33,80.649 
		71.46,84.096 	"/>
	<path id="XMLID_262_" fill="#FFFFFF" d="M80.681,83.554c-0.264,0-0.489-0.134-0.624-0.327l-0.023-0.033L80,83.146l-0.022-0.033
		l-0.435,0.436l0.043,0.056c0.245,0.336,0.649,0.554,1.1,0.554h0.002c0.377,0,0.713-0.152,0.951-0.397
		c0.24-0.245,0.386-0.582,0.386-0.949v-0.001v-0.001c0-0.37-0.148-0.707-0.389-0.951c-0.242-0.243-0.58-0.394-0.957-0.394h-0.004
		h-0.003H80.64v0.002c-0.093,0.003-0.181,0.017-0.267,0.038l0.123-0.805h1.285l0.101-0.613h-1.916l-0.279,1.854l0.418,0.427
		l0.058-0.07c0.06-0.07,0.127-0.122,0.2-0.159c0.095-0.048,0.198-0.069,0.298-0.069c0.213,0,0.396,0.083,0.53,0.217
		c0.132,0.134,0.212,0.319,0.212,0.526c0,0.203-0.075,0.389-0.204,0.523C81.072,83.469,80.896,83.554,80.681,83.554"/>
	<path id="XMLID_259_" fill="#FFFFFF" d="M76.631,80.087l-1.06,1.821c-0.176,0.334-0.307,0.607-0.307,0.891
		c0,0.75,0.609,1.359,1.359,1.359c0.752,0,1.36-0.608,1.36-1.359c0-0.751-0.556-1.343-1.307-1.343c-0.049,0-0.117,0.01-0.117,0.01
		l0.809-1.38H76.631z M76.623,82.05c0.414,0,0.75,0.336,0.75,0.75c0,0.413-0.336,0.749-0.75,0.749c-0.412,0-0.749-0.337-0.749-0.749
		C75.874,82.271,76.302,82.05,76.623,82.05"/>
	<path id="XMLID_258_" fill="#FFFFFF" d="M45.485,83.42c-0.126,0.084-0.298,0.127-0.472,0.127c-0.137,0-0.279-0.027-0.398-0.08
		c-0.201-0.09-0.382-0.266-0.476-0.471l-0.441,0.44c0.089,0.142,0.256,0.357,0.525,0.519c0.236,0.144,0.522,0.204,0.799,0.204
		c0.209,0,0.414-0.034,0.591-0.096c0.284-0.099,0.49-0.266,0.629-0.539c0.077-0.154,0.12-0.324,0.12-0.499
		c0-0.155-0.034-0.313-0.104-0.461c-0.053-0.108-0.188-0.31-0.458-0.503c-0.198-0.142-0.496-0.283-0.707-0.395
		c-0.19-0.102-0.476-0.245-0.596-0.409c-0.053-0.071-0.08-0.161-0.08-0.251c0-0.088,0.026-0.175,0.08-0.242
		c0.088-0.108,0.246-0.147,0.401-0.146c0.055,0,0.109,0.004,0.158,0.012c0.207,0.031,0.434,0.18,0.576,0.348l0.426-0.427
		c-0.072-0.109-0.209-0.265-0.439-0.384c-0.189-0.098-0.441-0.151-0.69-0.151c-0.226,0-0.451,0.043-0.619,0.139
		c-0.33,0.185-0.521,0.502-0.521,0.863c0,0.06,0.005,0.121,0.017,0.184c0.041,0.239,0.164,0.429,0.332,0.589
		c0.166,0.161,0.379,0.292,0.603,0.415c0.271,0.149,0.401,0.214,0.624,0.337c0.076,0.042,0.159,0.085,0.221,0.156
		c0.062,0.071,0.107,0.173,0.107,0.342C45.692,83.213,45.61,83.336,45.485,83.42"/>
	<polygon id="XMLID_257_" fill="#FFFFFF" points="89.806,77.836 89.806,74.473 90.982,74.473 90.982,73.832 87.978,73.832 
		87.978,74.473 89.153,74.473 89.153,77.836 	"/>
	<path id="XMLID_254_" fill="#FFFFFF" d="M30.771,77.836l0.431-0.974h1.555l0.427,0.974h0.687l-1.761-4.004h-0.685l0.211,0.479
		l-1.545,3.525H30.771z M31.979,75.093l0.503,1.143l-1.004,0.001L31.979,75.093z"/>
	<polygon id="XMLID_253_" fill="#FFFFFF" points="69.468,73.832 68.819,73.832 68.819,75.427 66.916,75.427 66.916,73.832 
		66.265,73.832 66.265,77.836 66.916,77.836 66.916,76.076 68.819,76.076 68.819,77.836 69.468,77.836 	"/>
	<polygon id="XMLID_252_" fill="#FFFFFF" points="41.885,74.472 43.061,74.472 43.061,73.832 40.057,73.832 40.057,74.472 
		41.232,74.472 41.232,77.836 41.885,77.836 	"/>
	<polygon id="XMLID_251_" fill="#FFFFFF" points="45.803,75.81 45.803,73.836 45.151,73.836 45.151,75.81 45.151,77.832 
		45.803,77.832 	"/>
	<path id="XMLID_250_" fill="#FFFFFF" d="M28.447,75.106c0-0.704-0.57-1.273-1.273-1.274h-1.64v4.002h0.649v-3.347h0.991
		c0.484,0,0.698,0.338,0.698,0.619c0,0.193-0.077,0.367-0.204,0.494c-0.128,0.126-0.302,0.204-0.494,0.206h-0.111L26.91,75.59
		l-0.465,0.461l1.235,1.783h0.817l-1.08-1.532C28.028,76.251,28.447,75.715,28.447,75.106"/>
	<path id="XMLID_249_" fill="#FFFFFF" d="M83.824,76.375V73.83h-0.649v2.54v0.002c0,1.132,0.867,1.538,1.542,1.538
		c0.448,0,1.512-0.298,1.512-1.53V73.83h-0.647v2.551c0,0.601-0.466,0.911-0.879,0.911C84.229,77.292,83.824,76.923,83.824,76.375"
		/>
	<path id="XMLID_248_" fill="#FFFFFF" d="M20.826,74.418c-0.355,0.379-0.574,0.901-0.574,1.476c0,0.576,0.219,1.097,0.574,1.476
		c0.353,0.379,0.844,0.613,1.387,0.613c0.571,0,1.087-0.262,1.445-0.677l0.024-0.028l-0.45-0.464l-0.029,0.036
		c-0.244,0.302-0.597,0.491-0.99,0.491c-0.363,0-0.694-0.16-0.933-0.423c-0.24-0.262-0.388-0.625-0.388-1.025
		c0-0.4,0.148-0.762,0.388-1.025c0.239-0.262,0.569-0.423,0.933-0.423c0.41,0,0.778,0.207,1.022,0.531l0.029,0.039l0.451-0.465
		l-0.024-0.029c-0.359-0.438-0.889-0.718-1.478-0.718C21.67,73.805,21.179,74.04,20.826,74.418"/>
	<polygon id="XMLID_247_" fill="#FFFFFF" points="35.677,77.836 36.327,77.836 36.327,76.071 37.952,76.071 37.952,75.424 
		36.327,75.424 36.327,74.448 38.159,74.448 38.159,73.833 35.677,73.833 	"/>
	<polygon id="XMLID_246_" fill="#FFFFFF" points="51.727,73.832 51.092,73.832 51.094,76.293 48.686,73.83 47.786,73.83 
		48.232,74.315 48.232,77.837 48.865,77.837 48.865,74.992 51.724,77.942 	"/>
	<path id="XMLID_244_" fill="#FFFFFF" d="M54.321,77.37c0.356,0.38,0.85,0.616,1.394,0.616c0.446,0,0.887-0.19,1.218-0.456
		l0.368,0.365v-2.137h-1.316v0.569h0.672v0.644c-0.247,0.256-0.577,0.376-0.942,0.376c-0.377,0-0.687-0.13-0.935-0.401
		c-0.249-0.272-0.4-0.612-0.4-1.025s0.151-0.824,0.4-1.095c0.248-0.271,0.558-0.401,0.935-0.401c0.427,0,0.808,0.176,1.06,0.513
		l0.01,0.016l0.426-0.437l-0.01-0.011c-0.361-0.441-0.893-0.721-1.486-0.721c-0.544,0-1.037,0.236-1.394,0.616
		c-0.356,0.38-0.577,0.905-0.577,1.484C53.744,76.465,53.966,76.99,54.321,77.37"/>
	<polygon id="XMLID_243_" fill="#FFFFFF" points="64.369,73.832 61.366,73.832 61.366,74.473 62.541,74.473 62.541,77.836 
		63.193,77.836 63.193,74.473 64.369,74.473 	"/>
	<polygon id="XMLID_242_" fill="#FFFFFF" points="74.185,77.838 74.185,77.182 74.144,77.182 72.167,77.182 72.167,76.072 
		73.794,76.072 73.794,75.424 72.167,75.424 72.167,74.446 74.002,74.446 74.002,73.831 71.516,73.83 71.517,77.837 	"/>
	<path id="XMLID_241_" fill="#FFFFFF" d="M98.396,74.487h0.991c0.484,0,0.698,0.338,0.698,0.619c0,0.193-0.077,0.367-0.204,0.494
		c-0.128,0.126-0.302,0.204-0.494,0.206h-0.111l-0.152-0.216l-0.464,0.461l1.234,1.783h0.817l-1.08-1.532
		c0.61-0.051,1.03-0.588,1.03-1.196c0-0.704-0.57-1.273-1.273-1.274h-1.64v4.002h0.649V74.487z"/>
	<polygon id="XMLID_240_" fill="#FFFFFF" points="81.369,74.448 81.369,73.833 78.886,73.833 78.886,77.836 79.536,77.836 
		79.536,76.072 81.161,76.072 81.161,75.424 79.536,75.424 79.536,74.448 	"/>
	<path id="XMLID_239_" fill="#FFFFFF" d="M92.719,73.83v2.54v0.002c0,1.132,0.867,1.538,1.542,1.538c0.448,0,1.512-0.298,1.512-1.53
		V73.83h-0.647v2.551c0,0.602-0.466,0.911-0.879,0.911c-0.475,0-0.879-0.369-0.879-0.917V73.83H92.719z"/>
	<polygon id="XMLID_238_" fill="#FFFFFF" points="105.047,74.446 105.047,73.831 102.561,73.83 102.561,77.837 105.229,77.838 
		105.229,77.182 105.189,77.182 103.212,77.182 103.212,76.071 104.839,76.071 104.839,75.424 103.212,75.424 103.212,74.446 	"/>
</g>
</svg>
