<?xml version="1.0" encoding="utf-8"?>
<!-- Generator: Adobe Illustrator 17.0.0, SVG Export Plug-In . SVG Version: 6.00 Build 0)  -->
<!DOCTYPE svg PUBLIC "-//W3C//DTD SVG 1.1//EN" "http://www.w3.org/Graphics/SVG/1.1/DTD/svg11.dtd">
<svg version="1.1" id="Fames" xmlns="http://www.w3.org/2000/svg" xmlns:xlink="http://www.w3.org/1999/xlink" x="0px" y="0px"
	 width="128px" height="128px" viewBox="0 0 128 128" enable-background="new 0 0 128 128" xml:space="preserve">
<path id="XMLID_283_" fill="#FFFFFF" d="M17.931,51.433c-2.417-0.002-4.796,0.57-6.927,1.64l0.002-11.313
	c0-2.358-1.917-4.278-4.278-4.283c-2.362,0-4.284,1.92-4.289,4.279l-0.017,41.6c0,2.362,1.924,4.286,4.283,4.286
	c1.144,0.003,2.218-0.442,3.031-1.247c0.81-0.812,1.254-1.891,1.254-3.038l0.008-16.442c0-1.849,0.724-3.586,2.037-4.898
	c1.309-1.308,3.049-2.025,4.89-2.025c1.846,0,3.584,0.723,4.894,2.032c1.313,1.309,2.034,3.054,2.034,4.901l-0.01,16.439
	c0,2.362,1.918,4.285,4.282,4.285c1.143,0,2.218-0.445,3.027-1.252c0.809-0.81,1.254-1.884,1.254-3.031l0.009-16.439
	c0-4.13-1.612-8.017-4.537-10.948C25.95,53.049,22.064,51.433,17.931,51.433"/>
<path id="XMLID_282_" fill="#FFFFFF" d="M74.261,51.458c-3.93-0.002-7.727,1.589-10.487,4.377c-2.8-2.827-6.504-4.389-10.484-4.391
	c-8.147-0.001-14.775,6.625-14.779,14.762l-0.004,17.166c-0.002,1.146,0.445,2.22,1.251,3.031c0.809,0.811,1.882,1.256,3.029,1.256
	c2.358,0,4.281-1.923,4.286-4.284l0.002-17.169c0.005-3.415,2.795-6.2,6.212-6.2c1.651,0.001,3.21,0.65,4.38,1.825
	c1.171,1.174,1.815,2.731,1.815,4.388l-0.006,17.161c0,1.145,0.447,2.219,1.255,3.027c0.81,0.81,1.885,1.257,3.031,1.257
	c1.145,0.004,2.219-0.441,3.029-1.25c0.811-0.809,1.253-1.884,1.253-3.033l0.015-17.162c0-1.656,0.642-3.214,1.818-4.387
	c1.173-1.177,2.729-1.818,4.383-1.818c3.418,0.004,6.205,2.792,6.205,6.214L80.45,83.387c0,2.363,1.923,4.289,4.283,4.289
	c1.143,0,2.217-0.444,3.027-1.253c0.808-0.809,1.254-1.89,1.254-3.029l0.007-17.163C89.026,58.091,82.403,51.462,74.261,51.458"/>
<path id="XMLID_281_" fill="#FFFFFF" d="M120.8,51.833c-2.163-0.938-4.686,0.068-5.624,2.237
	c-0.056,0.142-4.538,12.159-7.958,20.214c-3.417-8.055-7.879-20.074-7.926-20.197c-0.945-2.188-3.47-3.196-5.639-2.265
	c-2.168,0.934-3.173,3.459-2.248,5.627l11.868,27.645c0.678,1.569,2.219,2.585,3.93,2.592c1.714,0,3.262-1.021,3.945-2.59
	l11.889-27.631C123.967,55.3,122.963,52.774,120.8,51.833"/>
</svg>
