<?xml version="1.0" encoding="utf-8"?>
<!-- Generator: Adobe Illustrator 17.0.0, SVG Export Plug-In . SVG Version: 6.00 Build 0)  -->
<!DOCTYPE svg PUBLIC "-//W3C//DTD SVG 1.1//EN" "http://www.w3.org/Graphics/SVG/1.1/DTD/svg11.dtd">
<svg version="1.1" id="Fames" xmlns="http://www.w3.org/2000/svg" xmlns:xlink="http://www.w3.org/1999/xlink" x="0px" y="0px"
	 width="128px" height="128px" viewBox="0 0 128 128" enable-background="new 0 0 128 128" xml:space="preserve">
<g id="XMLID_23_">
	<g id="XMLID_138_">
		<g id="XMLID_139_">
			<g id="XMLID_140_">
				<path id="XMLID_235_" fill="#FFFFFF" d="M55.509,52.223c0.065,0,0.111,0.052,0.111,0.131c0,0.02-0.007,0.065-0.007,0.092
					c-0.013,0.046-0.033,0.151-0.066,0.321c-0.033,0.131-0.052,0.235-0.065,0.301c-0.026,0.092-0.065,0.15-0.131,0.196
					c-0.269,0.177-0.851,0.294-1.412,0.294c-0.798,0-1.432-0.216-1.851-0.628c-0.386-0.386-0.614-0.988-0.614-1.596
					c0-0.68,0.281-1.347,0.758-1.798c0.425-0.405,0.942-0.588,1.635-0.588c0.373,0,0.693,0.046,1.124,0.17
					c0.151,0.039,0.223,0.065,0.288,0.098c0.118,0.066,0.131,0.124,0.183,0.588l0.046,0.412V50.3c0,0.072-0.046,0.124-0.118,0.124
					c-0.026,0-0.052-0.013-0.065-0.026c-0.026-0.02-0.033-0.033-0.085-0.15c-0.262-0.628-0.772-0.988-1.413-0.988
					c-0.902,0-1.458,0.706-1.458,1.87c0,0.51,0.105,0.974,0.314,1.354c0.274,0.504,0.706,0.752,1.307,0.752
					c0.229,0,0.438-0.039,0.615-0.118c0.281-0.124,0.575-0.406,0.706-0.667l0.066-0.131C55.405,52.262,55.457,52.223,55.509,52.223z
					"/>
				<path id="XMLID_233_" fill="#FFFFFF" d="M59.903,51.026v-1.249c0-0.347-0.072-0.464-0.321-0.51
					c-0.105-0.02-0.138-0.046-0.138-0.111c0-0.072,0.046-0.105,0.144-0.105h0.006l0.726,0.019l0.719-0.019h0.013
					c0.098,0,0.144,0.033,0.144,0.105c0,0.065-0.039,0.091-0.137,0.111c-0.248,0.046-0.32,0.164-0.32,0.51v2.949
					c0,0.353,0.072,0.464,0.32,0.51c0.099,0.02,0.137,0.046,0.137,0.111c0,0.072-0.046,0.105-0.144,0.105h-0.013l-0.719-0.02
					l-0.726,0.02H59.59c-0.099,0-0.144-0.026-0.144-0.105c0-0.065,0.033-0.092,0.138-0.111c0.249-0.046,0.321-0.157,0.321-0.51
					v-1.321h-2.211v1.321c0,0.353,0.072,0.464,0.321,0.51c0.105,0.02,0.138,0.046,0.138,0.111c0,0.072-0.046,0.105-0.138,0.105H58
					l-0.726-0.02l-0.719,0.02h-0.013c-0.098,0-0.137-0.033-0.137-0.105c0-0.065,0.032-0.092,0.131-0.111
					c0.249-0.046,0.327-0.163,0.327-0.51v-2.949c0-0.347-0.078-0.464-0.327-0.51c-0.099-0.02-0.131-0.046-0.131-0.111
					c0-0.072,0.039-0.105,0.137-0.105h0.013l0.719,0.019L58,49.051h0.013c0.092,0,0.138,0.033,0.138,0.105
					c0,0.065-0.033,0.091-0.138,0.111c-0.248,0.046-0.321,0.164-0.321,0.51v1.249H59.903z"/>
				<path id="XMLID_230_" fill="#FFFFFF" d="M62.8,52.674c-0.039,0.098-0.059,0.203-0.059,0.268c0,0.17,0.085,0.268,0.248,0.294
					c0.052,0.007,0.085,0.013,0.105,0.013c0.02,0.007,0.039,0.013,0.052,0.026c0.02,0.02,0.026,0.046,0.026,0.072
					c0,0.072-0.046,0.105-0.137,0.105h-0.013l-0.523-0.02l-0.53,0.02h-0.013c-0.092,0-0.137-0.033-0.137-0.105
					c0-0.046,0.026-0.079,0.072-0.092l0.072-0.026c0.131-0.039,0.209-0.144,0.34-0.451l1.563-3.616
					c0.072-0.164,0.111-0.203,0.203-0.203c0.124,0,0.177,0.059,0.19,0.216c0.006,0.085,0.033,0.209,0.059,0.275l1.301,3.322
					c0.131,0.32,0.196,0.418,0.334,0.458l0.072,0.026c0.046,0.013,0.072,0.046,0.072,0.092c0,0.072-0.046,0.105-0.144,0.105h-0.013
					l-0.7-0.02l-0.693,0.02h-0.014c-0.098,0-0.144-0.033-0.144-0.105c0-0.052,0.032-0.085,0.105-0.098
					c0.209-0.046,0.275-0.111,0.275-0.288c0-0.072-0.019-0.164-0.046-0.235l-0.229-0.588h-1.491L62.8,52.674z M64.35,51.772
					l-0.576-1.465l-0.628,1.465H64.35z"/>
				<path id="XMLID_228_" fill="#FFFFFF" d="M69.523,53.335L69.491,53.4c-0.026,0.052-0.066,0.085-0.112,0.085
					c-0.033,0-0.052-0.013-0.072-0.026c-0.013-0.013-0.033-0.033-0.04-0.059c-0.006,0-0.013-0.026-0.032-0.059l-1.478-3.165
					l-0.17,2.55c-0.006,0.026-0.006,0.052-0.006,0.078c0,0.268,0.098,0.399,0.32,0.432c0.118,0.02,0.157,0.046,0.157,0.111
					c0,0.072-0.046,0.105-0.144,0.105h-0.013l-0.543-0.02l-0.549,0.02h-0.013c-0.099,0-0.138-0.033-0.138-0.105
					c0-0.065,0.033-0.092,0.131-0.111c0.281-0.052,0.366-0.163,0.392-0.523l0.222-2.956c0.007-0.033,0.007-0.059,0.007-0.085
					c0-0.268-0.079-0.366-0.32-0.405c-0.105-0.013-0.144-0.046-0.144-0.111c0-0.072,0.046-0.105,0.138-0.105h0.013l0.464,0.026
					c0.059,0,0.183-0.007,0.366-0.013h0.053c0.163,0,0.196,0.026,0.294,0.229l1.354,2.903l1.393-2.916l0.039-0.079
					c0.059-0.124,0.079-0.137,0.196-0.137h0.033c0.19,0.013,0.334,0.013,0.432,0.007l0.445-0.019h0.013
					c0.092,0,0.138,0.033,0.138,0.105c0,0.065-0.033,0.091-0.138,0.111c-0.242,0.046-0.327,0.157-0.327,0.445
					c0,0.033,0,0.059,0.006,0.092l0.19,2.975c0.02,0.314,0.092,0.412,0.327,0.458c0.105,0.02,0.131,0.046,0.131,0.111
					c0,0.078-0.039,0.105-0.137,0.105h-0.014l-0.771-0.02l-0.759,0.02h-0.006c-0.098,0-0.144-0.033-0.144-0.105
					c0-0.065,0.032-0.092,0.137-0.111c0.308-0.059,0.399-0.157,0.399-0.432v-0.059l-0.17-2.616L69.523,53.335z"/>
				<path id="XMLID_226_" fill="#FFFFFF" d="M73.472,53.452H73.46c-0.099,0-0.138-0.033-0.138-0.105
					c0-0.065,0.033-0.092,0.131-0.111c0.249-0.046,0.327-0.163,0.327-0.51v-2.949c0-0.347-0.078-0.464-0.327-0.51
					c-0.098-0.02-0.131-0.046-0.131-0.111c0-0.079,0.039-0.105,0.15-0.105h0.02l0.7,0.019c0.092,0.007,0.314-0.007,0.674-0.026
					c0.177-0.013,0.36-0.02,0.536-0.02c0.314,0,0.471,0.02,0.706,0.066c0.537,0.118,0.896,0.588,0.896,1.171
					c0,0.798-0.628,1.34-1.55,1.34c-0.425,0-0.608-0.059-0.608-0.19c0-0.072,0.052-0.111,0.163-0.111h0.013l0.164,0.007h0.039
					c0.563,0,0.929-0.366,0.929-0.935c0-0.66-0.392-1.02-1.118-1.02c-0.353,0-0.425,0.065-0.425,0.379v2.91
					c0,0.425,0.085,0.543,0.418,0.595c0.117,0.02,0.157,0.046,0.157,0.111c0,0.078-0.046,0.105-0.157,0.105h-0.013l-0.824-0.02
					L73.472,53.452z"/>
				<path id="XMLID_147_" fill="#FFFFFF" d="M77.887,52.674c-0.04,0.098-0.059,0.203-0.059,0.268c0,0.17,0.085,0.268,0.249,0.294
					c0.052,0.007,0.085,0.013,0.104,0.013c0.02,0.007,0.039,0.013,0.052,0.026c0.02,0.02,0.026,0.046,0.026,0.072
					c0,0.072-0.046,0.105-0.138,0.105h-0.013l-0.523-0.02l-0.53,0.02h-0.013c-0.091,0-0.137-0.033-0.137-0.105
					c0-0.046,0.026-0.079,0.072-0.092l0.072-0.026c0.131-0.039,0.209-0.144,0.34-0.451l1.563-3.616
					c0.072-0.164,0.111-0.203,0.203-0.203c0.124,0,0.177,0.059,0.189,0.216c0.007,0.085,0.033,0.209,0.059,0.275l1.301,3.322
					c0.131,0.32,0.196,0.418,0.334,0.458l0.072,0.026c0.046,0.013,0.072,0.046,0.072,0.092c0,0.072-0.046,0.105-0.144,0.105h-0.013
					l-0.7-0.02l-0.694,0.02H79.62c-0.099,0-0.144-0.033-0.144-0.105c0-0.052,0.033-0.085,0.105-0.098
					c0.209-0.046,0.275-0.111,0.275-0.288c0-0.072-0.02-0.164-0.046-0.235l-0.229-0.588H78.09L77.887,52.674z M79.437,51.772
					l-0.576-1.465l-0.628,1.465H79.437z"/>
				<path id="XMLID_145_" fill="#FFFFFF" d="M85.832,51.726h0.014c0.098,0,0.137,0.033,0.137,0.105c0,0.065-0.02,0.085-0.137,0.111
					c-0.197,0.046-0.275,0.209-0.275,0.576c0,0.157,0.013,0.34,0.046,0.504c0.007,0.033,0.007,0.059,0.007,0.072
					c0,0.046-0.02,0.072-0.059,0.098c-0.32,0.183-1.164,0.36-1.74,0.36c-1.347,0-2.315-0.955-2.315-2.282
					c0-0.353,0.072-0.713,0.19-1.001c0.353-0.85,1.099-1.308,2.113-1.308c0.411,0,0.713,0.052,1.229,0.209
					c0.203,0.065,0.314,0.105,0.385,0.137c0.059,0.033,0.098,0.078,0.118,0.131c0.006,0.02,0.006,0.046,0.013,0.079
					c0.006,0.092,0.006,0.209,0.013,0.36c0.006,0.183,0.006,0.307,0.006,0.366c0,0.15-0.026,0.203-0.117,0.203
					c-0.026,0-0.053-0.007-0.072-0.02c-0.026-0.02-0.033-0.033-0.078-0.157c-0.216-0.582-0.831-0.994-1.498-0.994
					c-0.877,0-1.426,0.66-1.426,1.726c0,1.288,0.654,2.21,1.576,2.21c0.268,0,0.517-0.085,0.693-0.229
					c0.092-0.085,0.105-0.144,0.105-0.49c0-0.419-0.04-0.497-0.281-0.53l-0.164-0.02c-0.098-0.013-0.137-0.046-0.137-0.111
					c0-0.072,0.046-0.105,0.144-0.105h0.007l0.778,0.02L85.832,51.726z"/>
				<path id="XMLID_143_" fill="#FFFFFF" d="M90.528,49.771c0-0.137-0.013-0.242-0.046-0.32c-0.046-0.118-0.118-0.157-0.34-0.183
					c-0.111-0.013-0.15-0.039-0.15-0.111c0-0.072,0.039-0.105,0.137-0.105h0.013l0.543,0.019l0.523-0.019h0.014
					c0.098,0,0.144,0.033,0.144,0.105c0,0.065-0.039,0.091-0.138,0.111c-0.248,0.046-0.32,0.157-0.32,0.51l-0.014,2.753
					c0,0.15,0.007,0.366,0.02,0.595c0.007,0.144,0.013,0.255,0.013,0.281c0,0.111-0.046,0.163-0.131,0.163
					c-0.052,0-0.079-0.019-0.164-0.105l-3.191-3.361l-0.013,2.629c0,0.347,0.105,0.464,0.438,0.504
					c0.118,0.013,0.157,0.046,0.157,0.111c0,0.078-0.039,0.105-0.144,0.105h-0.013l-0.621-0.02l-0.53,0.02h-0.013
					c-0.091,0-0.137-0.033-0.137-0.105c0-0.065,0.033-0.092,0.137-0.111c0.249-0.046,0.314-0.15,0.321-0.51l0.039-2.603v-0.065
					c0-0.222-0.007-0.327-0.039-0.432c-0.053-0.17-0.19-0.307-0.36-0.36c-0.098-0.033-0.124-0.052-0.124-0.111
					c0-0.072,0.046-0.105,0.138-0.105h0.013l0.412,0.019l0.327-0.007h0.019c0.144,0,0.19,0.02,0.262,0.098l2.838,2.982
					L90.528,49.771z"/>
				<path id="XMLID_141_" fill="#FFFFFF" d="M93.641,51.059c0.268,0,0.608-0.007,0.772-0.02c0.34-0.02,0.491-0.105,0.588-0.307
					l0.066-0.137c0.026-0.052,0.059-0.072,0.111-0.072c0.059,0,0.092,0.039,0.092,0.098c0,0.013,0,0.039-0.007,0.072
					c-0.039,0.177-0.059,0.373-0.059,0.563c0,0.177,0.02,0.34,0.053,0.523c0.006,0.033,0.013,0.066,0.013,0.078
					c0,0.066-0.039,0.105-0.105,0.105c-0.052,0-0.085-0.026-0.105-0.079l-0.065-0.157c-0.059-0.137-0.151-0.216-0.308-0.268
					c-0.196-0.072-0.438-0.092-1.04-0.092c-0.066,0-0.118,0-0.235,0.007v1.046c0,0.321,0.033,0.464,0.117,0.543
					c0.092,0.085,0.38,0.131,0.824,0.131c0.229,0,0.445-0.02,0.654-0.052c0.393-0.065,0.634-0.196,0.87-0.497l0.131-0.157
					c0.033-0.046,0.059-0.059,0.105-0.059c0.059,0,0.092,0.039,0.092,0.098c0,0.026-0.007,0.052-0.013,0.085l-0.151,0.399
					c-0.013,0.033-0.053,0.144-0.118,0.34c-0.066,0.177-0.105,0.196-0.419,0.203l-1.543-0.02l-1.687,0.02h-0.066
					c-0.052-0.007-0.085-0.046-0.085-0.105c0-0.065,0.033-0.092,0.131-0.111c0.249-0.046,0.327-0.163,0.327-0.51v-2.949
					c0-0.347-0.078-0.464-0.327-0.51c-0.098-0.02-0.131-0.046-0.131-0.111c0-0.079,0.039-0.105,0.17-0.105l1.595,0.019l1.478-0.019
					l0.183,0.007c0.124,0.013,0.183,0.092,0.19,0.268l0.006,0.347l0.032,0.399v0.078c0,0.085-0.032,0.131-0.104,0.131
					c-0.079,0-0.092-0.019-0.144-0.177c-0.071-0.216-0.189-0.373-0.366-0.491c-0.223-0.144-0.464-0.196-0.909-0.196l-0.51-0.007
					h-0.026c-0.268,0-0.307,0.033-0.307,0.262v1.386H93.641z"/>
			</g>
		</g>
	</g>
	<g id="XMLID_80_">
		<path id="XMLID_135_" fill="#FFFFFF" d="M15.733,54.598c0.348,0.016,0.633-0.083,0.819-0.273c0.186-0.19,0.123-0.534,0.048-0.716
			c-0.068-0.165-0.392-0.357-0.645-0.388c-0.395-0.048-0.692,0.289-0.811,0.498c-0.119,0.21-0.19,0.435-0.139,0.597
			C15.056,54.479,15.384,54.581,15.733,54.598z M15.396,53.569c0.139-0.095,0.301-0.154,0.396-0.162
			c0.247-0.02,0.483,0.135,0.558,0.261c0.075,0.127,0.213,0.356-0.008,0.503c-0.222,0.146-0.514,0.218-0.677,0.21
			c-0.162-0.008-0.415-0.099-0.443-0.253C15.195,53.972,15.258,53.664,15.396,53.569z"/>
		<path id="XMLID_81_" fill="#FFFFFF" d="M50.44,80.703c-0.079-0.127-0.58-0.689-1.472-1.06c-1.467-0.612-3.18-0.8-5.354-0.994
			c-1.775-0.158-6-0.207-9.153,0.335c-2.761,0.473-7.31,1.343-9.29,1.558c-1.762-0.443-3.028-0.968-4.612-1.892
			c-0.863-0.504-1.973-1.331-3.668-2.882c0.009-0.22,0.008-0.522-0.049-0.725c0,0,0.632-0.19,1.064-0.675
			c0,0,0.333-0.327,0.609-0.786c0,0,0.27-0.565,0.897-0.996c0,0,0.637-0.638,0.536-1.571c-0.08-0.731-0.573-1.29-0.373-1.736
			c0,0,0.384-1.063,0.373-2.033c0,0-0.013-0.76-0.785-1.643c-0.753-0.861-0.917-1.512-1.117-1.796c0,0-0.44-0.802-0.822,0.149
			c0,0-0.34-0.823-1.278-0.471c-0.858,0.322-1.678,0.981-1.876,1.539c-0.134,0.378-0.131,0.602-0.191,0.921
			c0,0-0.937-1.147-2.8-1.043c0,0-0.193,0.009-0.503,0.167c-0.006-1.192,0.042-1.766,0.157-2.422
			c0.112-0.64,0.357-1.544,0.531-1.957c0.519,0.299,0.833,0.113,0.833,0.113c0.187-0.131,0.424-0.25,0.424-0.25
			c0.677,0.722,1.849,0.999,1.849,0.999c0.618,0.102,0.998,0.203,0.998,0.203c1.059,0.253,1.359,0.122,1.359,0.122
			c1.183-0.24,1.607-0.945,1.607-0.945c0.166-0.318,0.528-0.216,0.528-0.216c0.714,0.25,1.485,0.187,1.485,0.187
			c1.445-0.035,1.454-0.805,1.454-0.805c0.261-1.016-0.147-2.219-0.147-2.219c-0.022-0.29,0.216-0.338,0.216-0.338
			c0.619-0.043,0.592-0.288,0.592-0.288c-0.01-0.314,0.609-0.262,0.609-0.262c0.51-0.109,1.085-0.343,1.085-0.343
			c0.852-0.364,1.109-1.257,1.109-1.257c0.243-0.531,0.881-0.677,0.881-0.677c1.193-0.374,0.808-1.077,0.808-1.077
			c-0.336-0.546-0.139-0.694-0.139-0.694c0.739-0.473,0.938-1.387,0.938-1.387c0.031-0.144,0.048-0.28,0.055-0.408
			c1.183,0.072,2.551,0.359,3.673,0.912c1.38,0.68,2.416,1.728,3.058,2.717c-0.209,0.058-0.336,0.126-0.336,0.126
			c-0.431-0.067-0.543,0.286-0.543,0.286c-0.181,0.257-0.005,0.856-0.005,0.856c0.127,0.328-0.065,0.685-0.065,0.685
			c-0.091,0.213,0.093,0.48,0.093,0.48c0.114,0.245,0.859,0.433,0.859,0.433c0.127,0.034,0.143,0.185,0.143,0.185
			c0.095,0.412,0.495,0.361,0.495,0.361c0.268-0.031,0.446,0.063,0.446,0.063c0.365,0.198,0.507,0.787,0.507,0.787
			c0.403,0.696,0.89,0.222,0.89,0.222c0.259-0.248,0.344-0.048,0.344-0.048c0.148,0.209,0.455-0.004,0.455-0.004
			c0.554-0.301,0.748-0.633,0.748-0.633c0.129-0.146,0.499-0.388,0.499-0.388c0.487-0.32,0.222-0.605,0.222-0.605
			c-0.129-0.114-0.206-0.202-0.206-0.202c-0.051-0.099,0.19-0.226,0.32-0.419c0.131-0.194,0.178-0.645,0.234-0.819
			c0.19-0.593-0.02-1.084-0.02-1.084c-0.288-0.574-0.91-0.942-0.91-0.942c-0.209-0.146-0.922-0.245-0.922-0.245
			c-0.156-0.052-0.004-0.158-0.004-0.158c0.103-0.059,0.348-0.075,0.348-0.075c0.223-0.031,0.325-0.178,0.325-0.178
			c0.308-0.444-0.214-0.641-0.214-0.641c-0.241-0.155-0.864,0.264-0.864,0.264c-0.377,0.227-0.842,0.149-0.842,0.149
			c-0.409-0.075-0.814,0.043-0.814,0.043c-0.499,0.123-0.675,0.36-0.726,0.565c-0.29-0.529-0.862-1.325-1.896-2.099
			c0.441-0.308,1.323-1.049,1.412-1.134c0,0,0.526,0.457,0.993-0.006c0,0,0.095-0.119,0.217-0.06c0,0,0.475,0.214,1.084-0.249
			c0,0,0.339-0.066,0.518-0.874c0,0,0.194-0.328,0.7-0.732c0,0,0.271-0.444-0.273-0.894c0,0,0.399-0.186,0.34-0.518
			c0,0-0.025-0.246-0.083-0.376c-0.058-0.129-0.126-0.361-0.312-0.427c0,0-0.166-0.107-0.162-0.352c0,0,0.026-0.295-0.269-0.218
			c0,0-0.271,0.189-0.451-0.281c0,0-0.047-0.744-1.286-0.915c-0.386-0.034-1.304,0.076-1.468,0.114
			c-0.163,0.037-0.453,0.015-0.564,0.058c-0.111,0.042-0.459,0.316-0.57,0.443c-0.111,0.127-0.232,0.264-0.317,0.322
			c-0.085,0.058-0.243,0.496-0.243,0.585s-0.089,0.248-0.19,0.105c-0.1-0.142-0.248-0.28-0.369-0.206
			c-0.121,0.074-0.201,0.253-0.201,0.364c0,0.111-0.037,0.322-0.179,0.401c-0.142,0.079-0.371,0.303-0.274,0.654
			c0.169,0.612,0.707,1.145,0.886,1.277c0.06,0.044,0.079,0.095,0.026,0.132c-0.053,0.037-0.201,0.191-0.148,0.327
			c0.09,0.227,0.363,0.548,0.633,0.675c0.485,0.227,0.67,0.206,0.728,0.206c0.058,0,0.037,0.037-0.032,0.09
			c-0.069,0.053-0.543,0.438-0.971,0.533c-0.24,0.054-0.465,0.076-0.657,0.079c-1.325-0.611-2.813-0.881-4.211-0.947
			c-0.689-0.799-2.024-0.88-2.024-0.88c0.436-0.67,0.521-0.648,0.867-1.395c0.56-0.995,0.158-1.982-0.143-2.293
			c-0.098-0.101-0.28-0.502-0.59-0.527c-0.714-0.054-1.001-0.382-1.479-0.493c-0.478-0.108-0.922-0.088-1.162-0.248
			c-1.122-0.75-2.249-0.441-2.249-0.441c-2.096,0.709-3.169,2.666-3.169,2.666c-0.807,1.124-1.056,0.839-1.056,0.839
			c-0.464-0.19-0.199-0.435-0.199-0.435c1.289-1.171,1.156-1.491,1.156-1.491c0.359-0.946-0.765-1.601-0.765-1.601
			c-1.015-0.654-1.899-0.605-1.899-0.605c-0.896,0.054-1.299,0.192-1.816,0.373c-0.685,0.239-1.332,0.481-1.332,0.481
			c-5.343,2.075-5.617,5.651-5.617,5.651c-0.472,3.889,0.902,4.893,0.902,4.893C7.4,54.703,8,54.385,8,54.385
			c-0.073,0.282-0.206,0.799-0.206,0.799c-0.175,1.531,0.624,2.241,0.624,2.241c1.586,1.783,1.866,2.284,1.866,2.284
			c0.017,0.024,0.033,0.044,0.05,0.067c-0.472,1.036-0.82,2.491-0.908,3.213c-0.105,0.859-0.159,2.096-0.051,3.124
			c-0.24,0.299-0.491,0.669-0.747,1.134c0,0-0.198,0.28-0.414,0.677c-0.438-0.353-1.113-1.073-1.305-1.386
			c-0.21-0.343-0.513-0.869-0.464-1.56c0.196,0.054,0.568,0.038,0.743-0.03c0.242-0.093,0.526-0.33,0.674-0.567
			c0.148-0.238,0.306-0.544,0.496-0.823c0.19-0.28,0.443-0.422,0.586-0.87c0.142-0.449,0.105-1.171,0.048-1.572
			c-0.058-0.401-0.343-1.013-0.559-1.103c-0.216-0.09-0.448-0.074-0.538-0.079c-0.09-0.005-0.163-0.047-0.227-0.158
			c-0.064-0.111-0.264-0.39-0.427-0.443c-0.164-0.053-0.333-0.048-0.478,0.085c-0.044,0.04-0.083,0.078-0.142,0.044
			c-0.059-0.035-0.426-0.176-0.608-0.157c-0.181,0.02-0.495,0.068-0.623,0.127c-0.128,0.059-0.441,0.309-0.524,0.554
			c-0.084,0.245-0.265,0.529-0.353,0.628c-0.088,0.098-0.284,0.324-0.314,0.471c-0.03,0.148-0.084,0.667-0.132,0.897
			c-0.049,0.231-0.172,0.775-0.186,1.138c-0.015,0.363,0.029,1.03,0.196,1.236c0.166,0.206,0.328,0.348,0.412,0.343
			c0.083-0.005,0.252,0.012,0.353,0.054c0.152,0.064,0.471,0.211,0.613,0.177c0.056,1.374,0.494,2.198,0.843,2.624
			c0.408,0.497,1.112,1.249,1.439,1.559c-0.038,0.163-0.062,0.325-0.062,0.479c0,0.383,0.026,1.065,0.749,1.479
			c0.415,0.238,0.925,0.282,1.116,0.592c0,0,0.238,0.383,0.502,0.63c0,0-0.923-0.145-0.736-0.463c0,0,0.166-0.407-0.384-0.459
			c0,0-0.285,0-0.57,0.15c-0.265,0.141-0.722-0.023-0.722-0.023s-0.76-0.251-1.193,0.141c-0.647,0.585-1.722,1.136-1.722,1.136
			s-0.992,0.519-1.954,0.78c-0.202,0.06-0.742,0.445-0.53,1.045c0.115,0.325,0.301,0.629,0.297,0.815
			c-0.004,0.186-0.083,0.328-0.182,0.443c-0.099,0.115-0.285,0.356-0.241,0.594c0.044,0.237,0.309,0.724,0.653,0.989
			c0.344,0.265,0.752,0.455,0.93,0.503c0.178,0.047,0.494,0.04,0.534,0.044c0.04,0.004,0.115,0.044,0.17,0.083
			c0.055,0.04,0.625,0.356,0.799,0.4c0.174,0.043,0.499,0.135,0.617,0.135c-0.344,0.257-0.629,0.748-0.629,0.997
			c0,0.25,0.234,0.53,0.586,0.716c0.352,0.186,1.29,0.487,2.14,0.356c0.851-0.13,1.733-0.241,2.144-0.316
			c0.411-0.076,1.468-0.364,1.935-0.803c0.467-0.439,0.831-0.93,0.874-1.041c0.044-0.11-0.008-0.238-0.02-0.249
			c0.031-0.231,0.198-0.444,0.323-0.525c0.309,0.568,1.515,2.033,2.937,2.917c1.762,1.097,4.964,1.689,7.628,1.52
			c0.286-0.018,0.587-0.04,0.897-0.066c1.557,0.382,4.626,0.873,6.421,0.947c2.102,0.087,4.548-0.295,6.552-0.644
			c2.005-0.348,3.693-0.833,5.138-1.203c1.445-0.369,2.532-0.559,3.63-0.717c0.502-0.073,1.016-0.083,1.428-0.073
			c1.213,0.213,2.42,0.438,2.538,0.472C50.549,80.954,50.519,80.829,50.44,80.703z M24.323,80.598
			c-0.938,0.031-2.073-0.03-3.127-0.167c-0.815-0.413-2.11-1.121-2.895-1.651c-1.099-0.74-1.831-1.391-2.192-1.74
			c0.188-0.135,0.598-0.543,0.726-0.874c0.538,0.463,1.944,1.657,2.927,2.334C20.802,79.218,22.406,80.087,24.323,80.598z
			 M15.81,77.239c0.382,0.379,1.171,1.025,1.775,1.452c0.55,0.389,1.524,1.045,2.595,1.578c-0.592-0.113-1.12-0.25-1.514-0.41
			c-1.111-0.451-2.443-1.261-3.44-2.341C15.448,77.448,15.645,77.344,15.81,77.239z M17.521,63.961
			c0.118-0.614,0.695,0.656,0.695,0.656c0.274,0.455,0.966,1.913,0.966,1.913c0.721,1.158,0.112,2.341,0.112,2.341
			c-0.136,0.498-0.347,0.97,0,1.745c0.277,0.619-0.119,1.648-0.4,1.989c-0.281,0.343-0.852,0.887-0.984,1.177
			c-0.132,0.29-0.281,0.567-0.676,0.716c-0.395,0.149-0.531-0.174-0.435-0.34c0.097-0.167,0.272-0.411,0.36-0.499
			c0.088-0.088,0.157-0.252,0.17-0.392c0.024-0.257-0.043-0.811-0.078-1.022c-0.035-0.211-0.061-0.369-0.386-0.448
			c0.22-0.132,0.343-0.518,0.37-0.844c0.14-1.536,0.44-2.584,0.44-2.584c0.538-1.361,0.418-1.705,0.418-1.705
			c-0.083-0.625-0.445-1.272-0.597-1.761C17.272,64.18,17.521,63.961,17.521,63.961z M14.646,65.177
			c0.14-0.562,0.72-1.194,0.957-1.361c0.237-0.166,0.641-0.123,0.957-0.044c0.316,0.079,0.562,0.597,0.603,0.894
			c0.055,0.402,0.303,1.089,0.303,1.089c0.46,1.284-0.042,2.228-0.042,2.228c-0.249,0.608-0.307,1.384-0.307,1.384
			c-0.03,0.756-0.17,1.076-0.17,1.076c-0.115,0.261-0.898,0.784-0.898,0.784c-0.501,0.235-1.238,0.933-1.238,0.933
			c0.329-0.823,0.807-1.072,0.807-1.072c0.866-0.558,0.827-0.981,0.827-0.981c0.089-0.654-0.554-0.704-0.554-0.704
			c-0.803-0.008-0.574,0.689-0.574,0.689c0.076,0.44-0.18,0.633-0.18,0.633c-0.224,0.243-0.275,0.327-0.275,0.327
			c-0.158,0.198-0.229,0.367-0.419,0.709c0.201-0.591,0.325-1.341,0.379-1.904c0.052-0.562,0.031-2.19-0.202-2.88
			C14.338,66.143,14.505,65.739,14.646,65.177z M10.863,77.715c-0.211,0.007-0.547-0.174-0.649-0.225
			c-0.102-0.051-0.253-0.23-0.634-0.383c0.171,0.051,0.47,0.164,0.752-0.333c0,0,0.109-0.234,0.457,0.013
			c0,0,0.164,0.099,0.072,0.265C10.692,77.355,10.759,77.581,10.863,77.715z M10.609,76.357c-0.271-0.051-0.429,0.344-0.429,0.344
			c-0.153,0.302-0.427,0.297-0.427,0.297c-0.579-0.027-0.402-0.588-0.402-0.588c0.115-0.598,1.205-0.383,1.205-0.383
			s0.758,0.1,0.823-0.598c0,0,0.081-0.548-0.689-0.441c0,0-0.799,0.325-1.224-0.043c0,0-0.368-0.365,0.088-0.507
			c0,0,0.163-0.085,0.499,0.108c0.183,0.107,0.246,0.147,0.438,0.157c0,0,0.261-0.011,0.125-0.336
			c-0.029-0.068-0.173-0.232-0.33-0.307c0,0-0.206-0.099-0.432-0.151c-0.221-0.05-0.385,0.072-0.68-0.105
			c0,0-0.377-0.266,0.06-0.467c0,0,0.283-0.142,1.075,0.421c0,0,0.48,0.304,0.525-0.117c0,0,0.017-0.218-0.264-0.414
			c0,0-0.245-0.227,0.12-0.142c0.125,0.029,0.239,0.091,0.57,0.423c0,0,0.167,0.166,0.434,0.235c0.115,0.031,0.395,0.162,0.46-0.042
			c0,0,0.071-0.173,0.285-0.224c0,0,0.232-0.085-0.091-0.41c-0.252-0.248-0.178-0.179-0.339-0.377c0,0-0.224-0.34-1.017-0.373
			c0,0-0.533-0.113-0.282-0.473c0.049-0.07,0.26-0.14,0.407-0.072c0,0,0.479,0.144,0.788,0.422c0,0,0.255,0.144,0.372,0.365
			c0,0,0.254,0.285,0.222-0.25c0,0,0.039-0.232-0.712-0.792c0,0-0.662-0.356-0.33-0.682c0,0,0.22-0.347,0.571,0.444
			c0,0,0.226,0.355,0.557,0.765c0,0,0.228,0.315,0.325,0.633c0,0,0.151,0.467,0.308,0.374c0.06-0.037,0.111-0.09,0.033-0.314
			c0,0-0.365-0.973-0.65-1.363c0,0-0.158-0.225,0.202-0.237c0,0,0.423,0.07,0.585,1.27c0,0,0.064,1.135,0.586,0.788
			c0,0,0.195-0.077,0.008-0.791c-0.399-1.076-0.57-1.48-0.859-1.886c0,0-0.291-0.364,0.107-0.476c0,0,0.436-0.281,0.467,0.609
			c0,0,0.016,0.725,0.307,1.195c0,0,0.132,0.182,0.172,0.538c0,0,0.158,0.341,0.348-0.439c0,0,0.229-0.601,0.65-1.013
			c0,0,0.301-0.307,0.28-0.934c0,0,0.004-0.574,0.487-0.345c0,0,0.181,0.139,0.218,0.329c0,0,0.091,0.356-0.421,0.611
			c0,0-0.542,0.274-0.944,1.229c0,0-0.488,0.978,0.004,0.601c0,0,0.971-0.91,1.725-1.343c0,0,0.26-0.033,0.032,0.436
			c0,0,0.016,0.173-0.468,0.348c0,0-0.418,0.236-0.651,0.426c0,0-0.443,0.207-0.559,0.617c-0.118,0.411-0.678,0.599-0.678,0.599
			s-0.501,0.121-1.045,0.513c0,0-0.247,0.106-0.847,1.154c0,0-0.262,0.51-0.997,1.002c-0.241,0.159-0.356,0.395-0.356,0.395
			C10.806,76.405,10.609,76.357,10.609,76.357z M17.824,60.89c0,0-0.783,0.484-1.962,0.391c0,0-0.557-0.031-0.88-0.152
			c-0.436-0.163-0.63-0.136-0.965-0.3c0,0-0.796-0.362-1.31-0.95c0,0-0.172-0.188-0.333-0.467c0,0-0.284-0.6,0.063-0.428
			c0,0,0.975,0.492,1.9,0.197c0,0,0.492-0.242,1.201,0.42c0,0,0.589,0.494,1.068,0.558c0,0,0.914,0.069,1.153,0.303
			C17.759,60.461,18.149,60.767,17.824,60.89z M21.057,60.472c0,0-0.565,0.238-1.896,0.016c0,0-0.282-0.102-0.935-0.136
			c-0.281-0.016-0.395-0.17-0.597-0.251c-0.356-0.141-0.367-0.103-0.707-0.071c0,0-0.387,0.068-1.353-0.653
			c0,0-0.53-0.444-1.187-0.354c0,0-1.155,0.212-1.852-0.164c0,0-0.584-0.397-0.243-0.955c0,0,0.2-0.334,0.493-0.942
			c0,0,0.428-0.775,1.101-1.329c0,0-0.439,0.696,0.217,0.787c0,0,0.534,0.115,0.661-0.736c0,0,0.289-0.744,0.439-0.294
			c0,0,0.185,0.587-0.398,1.092c0,0-0.597,0.738-0.191,0.9c0,0,0.599,0.286,0.768-0.336c0,0,0.078-0.737,0.114-1.135
			c0,0,0.118-0.629,0.278,0.267c0,0,0.017,0.164-0.089,0.464c-0.11,0.31,0.341,0.492,0.485,0.44c0,0,0.475,0.067,0.633-0.245
			c0,0,0.055-0.336-0.21-0.621c0,0-0.198-0.314-0.158-0.471c0.03-0.119,0.07-0.03,0.332,0.182c0,0,0.307,0.236,0.463,0.799
			c0,0,0.305,0.547,0.752,0.151c0,0,0.24-0.513-0.475-0.974c0,0-0.412-0.233-0.473-0.636c0,0-0.034-0.156,0.397,0.134
			c0,0,0.761,0.626,1.7,0.815c0,0,1.007,0.133,1.561,0.658c0,0,0.625,0.432,0.856,1.681C21.543,58.555,21.936,60.294,21.057,60.472z
			 M10.822,55.411c0,0-1.114-0.38-0.704-0.906c0,0,0.56-0.539-0.075-1.266c0,0-0.67-0.688-0.554-1.148c0,0,0.182-0.862,0.845-1.005
			c0,0,0.733-0.231,1.808,0.625c0,0,0.421,0.342,0.877,0.972c0,0-0.595-0.139-0.734,0.304c0,0-0.191,0.484,1.456,0.601
			c0,0-0.151,0.091-1.006,0.037c0,0-0.42-0.026-0.748-0.265c0,0-0.451-0.293-0.736-0.028c-0.205,0.191-0.266,0.565-0.146,0.704
			c0,0,0.169,0.344,0.7,0.245c0,0,1.626-0.332,2.002-0.083c0,0-0.439,0.218-1.048,0.154c0,0-0.905-0.135-0.859,0.526
			c0,0,0.092,0.551,1.021,0.139c0,0,0.71-0.298,1.179-0.305c0,0,0.657-0.025,0.299,0.285c0,0-0.06,0.116-0.472,0.342
			c0,0-0.255,0.112-0.492,0.283c0,0-0.671,0.439-1.221,1.814c0,0-0.186,0.793-0.462,0.724c0,0-0.455-0.093-0.634-0.682
			c0,0-0.174-0.695,0.043-1.303C11.159,56.176,11.343,55.595,10.822,55.411z M14.63,52.669c-0.535-0.643-0.598-1.395-0.598-1.395
			c0.04-0.677,0.457-0.663,0.457-0.663s0.33-0.01,0.087,0.319c-0.242,0.33-0.187,0.591-0.187,0.591
			c0.034,0.615,0.558,0.93,0.558,0.93c0.235,0.112,0-0.467,0-0.467c-0.063-0.498,0.165-0.491,0.165-0.491
			c0.383-0.094,0.18,0.702,0.18,0.702c-0.018,0.578,0.573,0.339,0.573,0.339c0.485-0.445,0.38-1.118,0.38-1.118
			c-0.032-0.695,0.44-0.55,0.44-0.55c0.475,0.076,0.173,0.384,0.173,0.384c-0.293,0.252-0.49,0.553-0.49,0.553
			c-0.283,0.541-0.071,0.835-0.071,0.835c0.453,0.084,0.818-0.617,0.818-0.617c0.352-0.828,0.591-0.531,0.591-0.531
			c0.159,0.123-0.025,0.261-0.025,0.261c-0.224,0.177-0.326,0.275-0.326,0.275c-0.584,0.556-0.498,0.862-0.498,0.862
			c-0.123,0.159,0.881-0.007,0.881-0.007c0.647-0.057,0.928-0.264,0.928-0.264c0.542-0.477,0.628-0.189,0.628-0.189
			c0.216,0.305-0.797,0.454-0.797,0.454c-0.906,0.165-1.284,0.345-1.284,0.345c-0.324,0.235,0.25,0.218,0.25,0.218
			c0.391-0.069,1.024-0.042,1.024-0.042c-0.206,0.146-0.894,0.195-0.894,0.195c-0.426,0.001-0.141,0.19-0.141,0.19
			c0.284,0.098-0.038,0.132-0.038,0.132c-0.407,0.062-0.236,0.181-0.236,0.181c0.169,0.16,0.676,0.373,0.676,0.373
			c0.358,0.167,0.013,0.129,0.013,0.129c-0.424-0.079-0.991-0.061-0.991-0.061c-0.414-0.003,0.054,0.876,0.054,0.876
			c0.177,0.437,0.625,0.762,0.625,0.762c0.306,0.342,0.186,0.591,0.186,0.591c-0.401,0.246-0.469-0.436-0.469-0.436
			c-0.078-0.374-0.405-0.564-0.405-0.564c-0.516-0.291-0.557-0.724-0.557-0.724c-0.04-0.254-0.21-0.161-0.21-0.161
			c-0.223,0.096-0.062,0.353-0.062,0.353c0.164,0.268,0.225,0.469,0.225,0.469c0.083,0.519,0.182,0.617,0.182,0.617
			c0.311,0.567-0.328,0.542-0.328,0.542c-0.426,0.001-0.257-0.467-0.257-0.467c0.083-0.372-0.099-0.756-0.099-0.756
			c-0.118-0.376-0.225-0.169-0.225-0.169c-0.047,0.36-0.192,0.015-0.192,0.015l-0.089-0.42c-0.082-0.387-0.586,0.277-0.586,0.277
			c-0.123,0.159-0.182,0.439-0.182,0.439c-0.029,0.289-0.259,0.373-0.259,0.373c-0.301,0.014-0.308-0.248-0.308-0.248
			c-0.012-0.169,0.37-0.39,0.37-0.39c0.5-0.437,0.506-0.776,0.506-0.776c0.045-0.28-0.502-0.214-0.502-0.214
			c-0.422,0.013-1.076,0.218-1.076,0.218c-0.663,0.261-0.803,0.233-0.803,0.233c-0.261,0.016-0.278-0.132-0.293-0.178
			c-0.103-0.317,0.293-0.301,0.293-0.301c0.497,0.057,1.097-0.022,1.097-0.022c0.85-0.174,0.825-0.339,0.825-0.339
			c-0.389-0.305-1.896-0.231-1.896-0.231c-0.233,0.02-0.387,0.052-0.523,0.072c-0.654,0.094-0.663-0.205-0.663-0.205
			c0.012-0.682,0.814-0.162,0.814-0.162c0.356,0.247,1.59,0.192,1.59,0.192c0.699,0.021,0.62-0.101,0.62-0.101
			c-0.225-0.249-1.022-0.331-1.022-0.331c-1.146-0.092-0.795-0.415-0.795-0.415c0.274-0.313,1.003,0.189,1.003,0.189
			c0.621,0.364,0.994,0.114,0.994,0.114C14.965,52.976,14.63,52.669,14.63,52.669z M15.218,56.938
			c-0.095,0.336-0.414,0.249-0.414,0.249c-0.333-0.042-0.09-0.371-0.09-0.371c0.159-0.21,0.613-0.631,0.613-0.631
			C15.396,56.404,15.218,56.938,15.218,56.938z M22.259,57.146c0,0-0.119,0.015-0.272,0.192c-0.102,0.119-0.244,0.043-0.401,0.109
			c0,0-0.208,0.116-0.324-0.115c0,0-0.419-0.669-0.887-1.006c0,0,1.074-0.027,1.832,0.501
			C22.207,56.827,22.531,57.023,22.259,57.146z M34.783,56.378c0,0,0.222,0.301,0.075,0.74c0,0-0.035,0.268-0.289,0.155
			c0,0-0.481-0.105-0.468-0.422c0,0,0.027-0.142,0.049-0.567c0,0,0.074-0.153,0.012-0.393c0,0-0.21-0.543,0.208-0.634
			c0,0,0.631-0.162,0.825,0.223c0,0,0.021,0.136-0.23,0.344C34.965,55.824,34.632,56.086,34.783,56.378z M37.343,58.301
			c-0.15,0.57-0.38,0.68-0.38,0.68c-0.518,0.364-0.483-0.21-0.483-0.21c-0.036-0.526-0.277-0.684-0.277-0.684
			c-0.169-0.215-0.961-0.269-0.961-0.269c-0.352-0.016-0.127-0.471-0.127-0.471c0.189-0.717-0.008-0.962-0.008-0.962
			c-0.136-0.296-0.016-0.364-0.016-0.364c0.169-0.124,0.241-0.253,0.241-0.253c0.047-0.104,0.127,0.048,0.127,0.048
			c0.267,0.693,0.846,1.127,0.846,1.127c0.293,0.214,0.748,0,0.748,0c0.348-0.194,0.21-0.589,0.21-0.589
			c-0.172-0.543-0.154-1.294-0.154-1.294c0.041-0.238,0.107-0.198,0.107-0.198c0.744,0.277,0.867,0.914,0.867,0.914
			c0.154,0.601-0.075,1.416-0.075,1.416c-0.056,0.504-0.21,0.499-0.21,0.499C37.34,57.818,37.343,58.301,37.343,58.301z
			 M36.655,54.724c0,0,0.049,0.087,0.206,0.06c0,0,0.061-0.04,0.022,0.106c0,0-0.093,0.812,0.015,1.297c0,0,0.124,0.403-0.03,0.468
			c0,0-0.249,0.051-0.412-0.162c0,0-0.637-0.765-0.881-1.212c0,0-0.287-0.388-0.029-0.533c0,0,0.122-0.02,0.223-0.029
			c0.068-0.007,0.134,0.022,0.265-0.005c0,0,0.115-0.052,0.304-0.077C36.338,54.637,36.495,54.593,36.655,54.724z M36.523,54.306
			c0,0,0.183-0.109,0.527-0.143c0,0,0.088-0.007,0.061,0.084c0,0-0.077,0.118-0.117,0.195c0,0-0.016,0.057-0.099,0.048
			c0,0-0.191-0.053-0.352-0.088C36.544,54.402,36.381,54.355,36.523,54.306z M38.292,58.526c0,0-0.433,0.39-0.592,0.347
			c0,0-0.238-0.036-0.22-0.213c0,0,0.04-0.244,0.151-0.373c0,0,0.224-0.28,0.381-0.258c0,0,0.154,0.02,0.291,0.116
			C38.303,58.145,38.554,58.305,38.292,58.526z M38.657,54.621c0,0,0.604,0.387,0.599,0.871c0,0,0.095,1.073-0.286,1.4
			c0,0-0.273,0.26-0.206,0.471c0,0,0.052,0.153,0.313,0.404c0,0,0.254,0.197-0.142,0.328c0,0-0.238,0.071-0.658-0.181
			c0,0-0.166-0.055-0.033-0.303c0,0,0.638-1.221-0.058-2.424c0,0-0.205-0.349-0.945-0.625c0,0-0.145-0.006,0.014-0.177
			C37.254,54.385,37.776,53.9,38.657,54.621z M35.398,53.727c0.128-0.089,0.261-0.085,0.261-0.085
			c0.167-0.008,0.312-0.082,0.312-0.082c0.312-0.164,0.759,0.017,0.759,0.017c0.341,0.039,0.614-0.131,0.614-0.131
			c0.207-0.275,0.526-0.396,0.526-0.396c0.369-0.026,0.459,0.119,0.459,0.119c0.115,0.214-0.321,0.206-0.321,0.206
			c-0.287,0.027-0.502,0.293-0.502,0.293c-0.122,0.185-0.495,0.166-0.495,0.166c-0.438-0.025-1.005,0.273-1.005,0.273
			c-0.339,0.219-0.593,0.17-0.593,0.17C34.983,54.029,35.398,53.727,35.398,53.727z M35.325,49.872c0,0-0.053,0.154-0.078,0.298
			c0,0-0.035,0.129-0.122,0.152c0,0-0.146,0.085-0.234,0.097c0,0-0.077,0.034-0.169-0.156c0,0-0.053-0.076-0.018-0.109
			c0,0,0.093-0.104,0.246-0.257c0,0,0.17-0.163,0.364-0.447c0,0,0.038-0.13,0.069,0.011C35.382,49.46,35.407,49.622,35.325,49.872z
			 M35.283,48.61c-0.245-0.138-0.514,0.097-0.514,0.097c-0.184,0.166-0.266,0.247-0.266,0.247c-0.067-0.004-0.167-0.022-0.167-0.022
			c-0.252,0.027-0.459,0.059-0.459,0.059c-0.133,0.045-0.157-0.037-0.157-0.037c-0.174-0.284-0.373-0.393-0.373-0.393
			c-0.162-0.067,0.022-0.118,0.022-0.118c0.11-0.042,0.342-0.094,0.342-0.094c0.267-0.081,0.688-0.092,0.688-0.092
			c0.148-0.023,0.246-0.167,0.246-0.167c0.256-0.312,0.401-0.416,0.401-0.416c0.296-0.263,0.403-0.144,0.403-0.144
			c0.209,0.18,0.247,0.703,0.247,0.703c0.049,0.162,0.197,0.14,0.197,0.14c0.134-0.023,0.217,0.001,0.217,0.001
			c0.269,0.043,0.53,0.278,0.53,0.278c0.143,0.098-0.104,0.141-0.104,0.141c-0.148,0.036-0.313,0.267-0.313,0.267
			c-0.162,0.198-0.296,0.187-0.296,0.187c-0.229,0.047-0.24-0.136-0.24-0.136C35.609,48.737,35.283,48.61,35.283,48.61z
			 M34.239,49.386c0.022,0.17-0.277,0.338-0.277,0.338c-0.137,0.088-0.13-0.278-0.13-0.278c-0.01-0.223,0.225-0.192,0.225-0.192
			C34.224,49.281,34.239,49.386,34.239,49.386z M37.724,48.421c0.028,0.234-0.231,0.467-0.231,0.467s-0.263,0.229-0.339,0.565
			c-0.125,0.546-0.399,0.62-0.399,0.62c-0.714,0.317-1.091,0.169-1.091,0.169c-0.152-0.022-0.128-0.112-0.128-0.112
			c0.029-0.08,0.057-0.167,0.057-0.167c0.053-0.13,0.065-0.352,0.065-0.352c-0.015-0.106,0.222-0.079,0.222-0.079
			c0.125-0.026,0.25-0.072,0.25-0.072c0.279-0.046,0.316-0.248,0.316-0.248c0.085-0.178,0.307-0.211,0.307-0.211
			c0.112-0.026,0.242-0.147,0.242-0.147c0.079-0.056-0.066-0.224-0.066-0.224c-0.084-0.1-0.013-0.125-0.013-0.125
			c0.097-0.08,0.141-0.227,0.141-0.227c0.087-0.151,0.362-0.245,0.362-0.245c0.17-0.078,0.193-0.003,0.193-0.003
			C37.74,48.218,37.724,48.421,37.724,48.421z M36.921,46.635c0.031-0.34,0.118-0.426,0.118-0.426
			c0.097-0.09,0.194,0.321,0.194,0.321c0.036,0.285,0.313,0.39,0.313,0.39c0.337,0.322,0.019,0.65,0.019,0.65
			c-0.143,0.227-0.252,0.245-0.252,0.245c-0.168,0.072-0.235,0.156-0.235,0.156c-0.147,0.191-0.38,0.335-0.38,0.335
			c-0.162,0.21-0.339,0.039-0.339,0.039c-0.235-0.126-0.108-0.197-0.108-0.197c0.323-0.38,0.427-0.72,0.427-0.72
			c0.048-0.191,0.109-0.343,0.109-0.343C36.951,46.761,36.921,46.635,36.921,46.635z M32.674,46.304c0,0,0.251-0.51,0.65-0.781
			c0,0,0.299-0.208,0.673-0.232c0,0,0.226,0.035,0.44-0.005c0,0,0.356-0.181,0.941-0.117c0,0,0.565,0.125,1.007,0.484
			c0,0,0.499,0.378,0.384,0.665c0,0-0.109,0.539-0.32,1.038c0,0-0.098,0.318-0.254,0.455c0,0-0.13,0.073-0.161,0.209
			c0,0-0.033,0.239-0.146,0.161c0,0-0.028-0.116-0.024-0.301c0.004-0.248-0.155-0.506-0.237-0.562c0,0-0.366-0.316-0.859,0.222
			c0,0-0.1,0.133-0.229,0.273c-0.091,0.099-0.149,0.225-0.292,0.259c0,0-0.259,0.056-0.42,0.081c0,0-0.146,0.038-0.265-0.154
			c0,0-0.077-0.157-0.202-0.277c0,0-0.214-0.262-0.318-0.478c0,0-0.122-0.225-0.206-0.399c0,0-0.036-0.138-0.151-0.295
			C32.684,46.549,32.593,46.49,32.674,46.304z M31.476,47.361c-0.046-0.178,0.053-0.2,0.053-0.2
			c0.361-0.207,0.422-0.698,0.422-0.698c0.033-0.101,0.133-0.005,0.133-0.005c0.112,0.043,0.2,0.032,0.2,0.032
			c0.26,0.02,0.328,0.443,0.328,0.443c0.063,0.164,0.211,0.374,0.211,0.374c0.157,0.193,0.18,0.291,0.18,0.291
			c0.061,0.13,0.157,0.214,0.157,0.214c0.133,0.115,0.219,0.237,0.219,0.237c0.071,0.079-0.083,0.137-0.083,0.137
			c-0.13,0.06-0.315,0.156-0.315,0.156c-0.216,0.1-0.064,0.249-0.064,0.249c0.11,0.037,0.206,0.099,0.206,0.099l0.107,0.111
			c-0.271-0.103-0.641-0.138-0.641-0.138c-0.146,0.009-0.246-0.089-0.246-0.089C31.67,47.942,31.476,47.361,31.476,47.361z
			 M32.78,49.743c0,0-0.627-0.441-0.466-0.609c0,0,0.14-0.207,0.529-0.099c0,0,0.228,0.05,0.449,0.129c0,0,0.231,0.083,0.235,0.32
			c0,0,0.033,0.242-0.102,0.382C33.426,49.866,33.198,50.079,32.78,49.743z M33.157,50.723c0.364-0.269,0.892-0.739,1.066-0.934
			c0.174-0.195,0.311-0.359,0.306-0.517c0.122-0.237,0.385-0.396,0.522-0.406c0.137-0.011,0.243,0.106,0.158,0.264
			c-0.084,0.158-0.739,1.06-1.087,1.372c-0.298,0.266-1.007,0.836-1.289,1.046c-0.1-0.07-0.204-0.139-0.312-0.207
			c-0.141-0.089-0.289-0.168-0.435-0.248C32.5,51.049,32.869,50.936,33.157,50.723z M31.489,51.168
			c1.214,0.597,2.685,1.715,3.579,3.193c0.066,0.244-0.06,0.307-0.24,0.349c-0.852-1.125-1.708-2.043-2.851-2.739
			c-1.43-0.872-3.161-1.108-4.181-1.169c-0.027-0.226-0.092-0.423-0.185-0.596C28.492,50.231,29.809,50.341,31.489,51.168z
			 M27.252,50.19c0.714,1.438-0.429,2.326-0.429,2.326c-0.724,0.538-0.41,0.907-0.41,0.907c0.351,0.375,0.089,0.609,0.089,0.609
			c-0.995,0.318-1.345,1.023-1.345,1.023c-0.691,1.061-1.484,1.355-1.484,1.355c-0.986,0.506-1.634,0.115-1.634,0.115
			c-0.757-0.44-1.776-0.447-1.776-0.447c-1.182,0.011-1.472-0.135-1.472-0.135c-0.661-0.275-1.397-0.775-1.397-0.775
			c-0.943-0.506-0.079-0.4-0.079-0.4c0.336-0.007,1.052,0.166,1.052,0.166c0.262,0.014,1.068,0.257,1.068,0.257
			c0.792,0.176,0.74-0.52,0.74-0.52c-0.281-0.588-1.422-0.172-1.422-0.172c-0.362,0.082-1.039-0.354-1.039-0.354
			c0.166-0.047,0.532,0.088,0.977,0.158c0.776,0.123,0.926-0.04,1.021-0.317c0.184-0.536-0.736-0.261-0.736-0.261
			c-0.562,0.241-0.873,0.139-0.873,0.139c-0.477-0.125-0.006-0.171,0.035-0.171c0.372-0.051,0.752-0.154,0.752-0.154
			c0.263-0.064,0.957-0.062,0.957-0.062c0.956-0.05,0.283-0.637,0.283-0.637c-0.297-0.23-0.922,0.226-0.922,0.226
			c-0.513,0.232-1.264,0.203-1.264,0.203c-1.267,0.037,1.041-0.361,1.041-0.361c0.658-0.138,0.49-0.447,0.49-0.447
			c-0.158-0.583-0.699-0.132-0.699-0.132c-0.482,0.314-0.736,0.328-0.736,0.328c-0.722,0.163,0.122-0.231,0.122-0.231
			c0.352-0.111,0.609-0.32,0.609-0.32c0.424-0.294,0.81-0.415,0.81-0.415c0.449-0.109,1.223-0.416,1.223-0.416
			c0.99-0.44,1.815-0.893,1.815-0.893c1.756-0.699,2.425-0.895,2.425-0.895C26.733,49.251,27.252,50.19,27.252,50.19z
			 M18.932,54.665c0,0,1.094-0.33,1.09,0.084c0,0-0.022,0.1-0.224,0.177c0,0-0.142,0.058-0.621-0.071
			C19.177,54.855,18.814,54.716,18.932,54.665z M18.775,53.945c0,0,0.843-0.371,0.816-0.03c0,0-0.091,0.388-0.591,0.278
			c0,0-0.177-0.051-0.279-0.125C18.721,54.069,18.562,53.986,18.775,53.945z M19.558,53.042c0,0,0.681-0.373,0.634,0.2
			c0,0-0.005,0.281-0.759,0.079C19.433,53.321,19.241,53.222,19.558,53.042z M17.202,46.994c1.09-1.663,2.91-2.724,2.91-2.724
			c1.396-0.768,2.094-0.137,2.094-0.137c0.468,0.412,0.976,0.491,0.976,0.491c1.281,0.176,1.793,0.54,1.793,0.54
			c1.394,0.6,1.096,1.847,1.096,1.847c-0.443,2.068-1.499,2.309-1.499,2.309c-1.834,0.647-2.214,0.87-2.214,0.87
			c-0.453,0.281-0.634,0.314-0.968,0.546c-0.576,0.4-1.465,0.68-1.465,0.68c-1.294,0.28-1.609,0.645-1.609,0.645
			c-0.535,0.434-0.874,0.53-0.874,0.53c-0.617,0.193,0.159-0.534,0.159-0.534c0.442-0.342,0.34-0.557,0.34-0.557
			c-0.291-0.713-0.651-0.022-0.651-0.022c-0.283,0.638-0.658,0.883-0.658,0.883c-0.302,0.235-0.271-0.043-0.271-0.043
			c-0.006-0.452,0.473-0.858,0.473-0.858c0.628-0.588,0.061-0.727,0.061-0.727c-0.825-0.243-0.849,0.545-0.849,0.545
			c0.055,0.748-0.123,0.91-0.123,0.91c-0.471,0.451-0.34-0.226-0.34-0.226c0.044-0.716-0.468-0.638-0.468-0.638
			c-0.445-0.019-0.264,0.785-0.175,0.961c0.033,0.066-0.157-0.22-0.157-0.22c-0.368-0.602,0.083-1.215,0.083-1.215
			c0.261-0.558-0.459-0.494-0.459-0.494c-0.68,0.123-0.562,0.977-0.562,0.977c0.129,0.926,0.558,1.389,0.558,1.389
			c0.278,0.28,0.012,0.458-0.144,0.496c-0.297,0.071-0.585-0.217-0.585-0.217c-0.955-0.804-0.894-2.33-0.894-2.33
			c0.098-2.254,1.706-2.984,1.706-2.984c0.955-0.493,1.599-0.222,1.599-0.222C16.867,47.659,17.202,46.994,17.202,46.994z
			 M7.392,54.137c0,0-0.688-0.038-1.032-1.068c-0.235-0.707-0.454-1.804-0.151-3.62c0,0,0.359-2.757,4.144-4.557
			c0,0,3.878-1.999,5.375-1.439c0,0,2.298,0.834,1.166,2.253c0,0-1.223,1.318-1.411,1.268c0,0-1.557,0.573-2.169,1.603
			c0,0-1.165,1.519-0.509,3.506c0,0-0.64-0.966-1.78-1.15c0,0-1.526-0.194-1.611,0.986c0,0,0.012,0.362-0.239,0.29
			c0,0-0.666-0.222-0.679,0.421c0,0,0.073,0.796-0.197,1.222C8.301,53.851,8.15,54.187,7.392,54.137z M8.682,57.02
			c0,0-0.606-0.68-0.483-1.952c0,0,0.114-0.703,0.242-0.991c0,0,0.139-0.285,0.184-0.523c0.101-0.529-0.015-0.648,0.03-0.924
			c0,0,0.073-0.646,0.55-0.143c0,0,0.873,0.931,0.967,1.322c0,0,0.078,0.295-0.183,0.711c0,0-0.336,0.367,0.366,0.844
			c0,0,0.704,0.345,0.617,0.808c0,0-0.293,0.964,0.082,1.556c0,0,0.201,0.271,0.464,0.508c0,0,0.413,0.393,0.462,0.871
			c0,0,0.058,0.504,0.235,0.653c0,0,0.245,0.328-0.139,0.448c0,0-0.605,0.274-1.535-0.886C10.54,59.321,9.55,57.983,8.682,57.02z
			 M9.813,62.464c0.148-0.736,0.477-1.842,0.719-2.433c0.188,0.228,0.363,0.396,0.523,0.518c-0.255,0.583-0.479,1.336-0.611,2.068
			c-0.148,0.824-0.209,2.145-0.169,2.628c-0.181,0.125-0.385,0.296-0.604,0.527C9.595,64.43,9.652,63.26,9.813,62.464z M7.673,60.52
			c0.043-0.056,0.087-0.206,0.154-0.281c0.067-0.075,0.308-0.048,0.467,0.075c0.158,0.123,0.328,0.653,0.348,0.803
			c0.02,0.15-0.016,0.483-0.016,0.483s0,0,0.004,0.115c0.004,0.115,0.02,0.499-0.016,0.688c-0.036,0.19-0.218,0.439-0.273,0.491
			c-0.055,0.052-0.075,0-0.063-0.095c0.012-0.095,0.107-0.776,0.123-1.064c0.01-0.178-0.127-0.515-0.194-0.578
			c-0.067-0.063-0.21-0.186-0.269-0.281c-0.06-0.095-0.206-0.19-0.269-0.226C7.606,60.615,7.647,60.554,7.673,60.52z M8.144,61.652
			c0.079,0.313-0.016,0.851-0.087,1.148c-0.071,0.297-0.221,0.855-0.411,1.183c-0.19,0.328-0.601,0.542-0.827,0.578
			c-0.226,0.036-0.293-0.083-0.329-0.138c-0.035-0.056,0.036-0.097,0.115-0.143c0.186-0.107,0.455-0.411,0.538-0.594
			c0.083-0.182,0.265-0.759,0.372-1.286c0.107-0.526-0.131-1.128-0.249-1.345c-0.119-0.218,0.076-0.26,0.344-0.166
			C7.926,60.999,8.065,61.339,8.144,61.652z M6.698,60.201c0.051-0.183,0.161-0.461,0.466-0.402
			c0.304,0.059,0.402,0.309,0.343,0.451c-0.059,0.142-0.284,0.432-0.372,0.486c-0.088,0.054-0.294,0.049-0.397-0.138
			C6.64,60.422,6.659,60.343,6.698,60.201z M5.07,64.438c-0.074-0.02-0.192-0.089-0.275-0.084c-0.084,0.005-0.167,0.044-0.24,0.015
			c-0.074-0.03-0.289-0.324-0.353-0.456c-0.064-0.132-0.088-0.368-0.054-0.48c0.034-0.113,0.142-0.525,0.172-0.745
			c0.029-0.221,0.059-0.711,0.088-0.981c0.029-0.27,0.159-0.666,0.221-0.745c0.122-0.157,0.308-0.294,0.367-0.368
			c0.059-0.074,0.211-0.382,0.329-0.574c0.117-0.191,0.417-0.353,0.505-0.392c0.089-0.039,0.289-0.074,0.368-0.034
			c0.078,0.039,0.225,0.157,0.265,0.235c0.04,0.079,0.054,0.245,0.035,0.442c-0.02,0.196-0.2,0.101-0.309,0.083
			c-0.123-0.019-0.338-0.009-0.524,0.049c-0.157,0.05-0.348,0.191-0.471,0.285c-0.123,0.093-0.235,0.265-0.275,0.378
			c-0.04,0.113-0.16,0.529-0.299,1.025c-0.172,0.613-0.015,1.138,0.019,1.324c0.035,0.186,0.402,0.623,0.476,0.677
			c0.074,0.054,0.196,0.152,0.176,0.221C5.271,64.379,5.143,64.458,5.07,64.438z M5.545,64.572c-0.063,0.048-0.123,0.02-0.166,0.004
			c-0.044-0.016-0.139-0.067-0.048-0.158c0.04-0.04,0.115-0.079,0.174-0.083c0.059-0.004,0.123-0.004,0.111,0.056
			C5.604,64.449,5.608,64.524,5.545,64.572z M5.37,63.953c-0.09-0.066-0.444-0.454-0.491-1.063
			c-0.051-0.657,0.085-1.328,0.227-1.654c0.141-0.326,0.453-0.671,0.709-0.695c0.255-0.023,0.468,0.01,0.539,0.08
			c0.071,0.071,0.18,0.208,0.279,0.25c0.099,0.043,0.175,0.071,0.274,0.081c0.056,0.005,0.113,0.042,0.156,0.108
			c0.043,0.067,0.326,0.534,0.255,1.163c-0.071,0.629-0.492,1.531-0.624,1.673c-0.132,0.142-0.279,0.227-0.354,0.222
			c-0.076-0.005-0.175-0.109-0.236-0.137c-0.062-0.028-0.255-0.071-0.387-0.01C5.637,64.008,5.46,64.019,5.37,63.953z M6.386,67.053
			c-0.466-0.75-0.635-1.32-0.586-2.09c0.019-0.29,0.044-0.505,0.063-0.574c0.02-0.069,0.103-0.064,0.157-0.069
			c0.054-0.005,0.147,0.029,0.147,0.108c0,0.078-0.023,0.406-0.005,0.642c0.034,0.451,0.111,1.1,0.476,1.577
			c0.44,0.576,0.994,1.212,1.415,1.59c-0.071,0.148-0.137,0.305-0.196,0.464C7.243,68.163,6.723,67.596,6.386,67.053z M9.606,71.435
			c0,0-0.261-0.371-0.67-0.587c0,0-0.495-0.237-0.863-0.722c0,0-0.497-0.563,0.317-2.091c0,0,0.959-1.543,1.453-2.14
			c0.594-0.718,1.338-0.862,2.29-0.48c0,0,1.496,0.724,1.867,1.417c0,0,0.482,0.567,0.546,1.189c0,0,0.108,0.778-0.039,2.121
			c0,0-0.054,0.758-0.34,1.642c0,0-0.166,0.02-0.277-0.811c0,0,0.044-0.93-0.131-1.088c0,0-0.265-0.338-0.78,0.002
			c0,0-0.312,0.291-0.043,0.663c0,0,0.647,0.827,0.752,1.408c0,0,0.177,0.573,0.225,0.934c0,0-0.066,0.402-0.205,0.108
			c-0.198-0.614-0.183-0.711-0.218-1.097c0,0-0.106-0.753-0.613-0.965c0,0-0.713-0.227-0.453,0.486c0,0,0.487,0.676,0.587,0.93
			c0,0-0.522-0.543-0.616-0.759c0,0-0.218-0.248-0.388-0.663c0,0-0.402-0.603-0.73-0.125c0,0-0.198,0.339,0.188,0.638
			c0,0,0.764,0.41,0.754,0.763c0,0-0.165-0.044-0.404-0.235c0,0-0.689-0.551-0.997-0.331c0,0-0.534,0.285-0.201,0.595
			c0,0,0.144,0.13,0.737,0.236c0,0,0.317,0.006,0.694,0.526c0,0,0.235,0.287,0.059,0.434c0,0-0.208,0.189-0.457-0.087
			c0,0-0.278-0.397-0.596-0.473c0,0-0.323-0.112-0.553-0.36C10.502,72.513,9.994,72.088,9.606,71.435z M5.461,78.341
			C5.25,78.289,4.905,78,4.741,77.897c-0.164-0.104-0.384-0.177-0.517-0.165c-0.134,0.014-0.445-0.116-0.682-0.25
			c-0.237-0.134-0.923-0.617-1.074-0.828c-0.199-0.278,0.005-0.518,0.108-0.635c0.103-0.117,0.276-0.293,0.307-0.509
			c0.03-0.216-0.112-0.522-0.224-0.72c-0.112-0.199-0.155-0.363-0.129-0.514c0.043-0.254,0.343-0.508,1.371-0.883
			c1.025-0.374,2.021-1.158,2.021-1.158c0.553-0.5,1.18-0.344,1.18-0.344c0.465,0.11,0.985,0.119,0.985,0.119
			c0.34,0.075,0.839-0.174,0.839-0.174c0.404-0.143,0.226,0.122,0.226,0.122c-0.115,0.297,0.308,0.395,0.308,0.395
			c0.161,0.015,0.4,0.066,0.4,0.066c0.277,0.035,0.64,0.339,0.64,0.339c0.158,0.192,0.583,0.26,0.583,0.26
			c0.414,0.125,0.319,0.347,0.319,0.347c-0.02,0.208-0.301-0.178-0.301-0.178c-0.335-0.256-0.555-0.208-0.555-0.208
			c-0.408,0.05-0.152,0.28-0.152,0.28c0.299,0.23,0.054,0.286,0.054,0.286c-0.192,0.098-0.33-0.047-0.33-0.047
			C9.671,73.06,9.14,73.215,9.14,73.215c-0.424,0.143-0.235,0.573-0.235,0.573c0.149,0.32,0.61,0.306,0.61,0.306
			c0.471-0.008,0.627,0.125,0.627,0.125c0.174,0.17-0.127,0.131-0.127,0.131c-0.568-0.125-0.672,0.062-0.672,0.062
			c-0.302,0.267-0.093,0.572-0.093,0.572c0.242,0.475,1.39,0.309,1.39,0.309c0.475,0.026,0.332,0.263,0.332,0.263
			c-0.207,0.343-0.688,0.244-0.688,0.244s-0.559,0.008-0.782,0.166c-0.174,0.123-0.253,0.344-0.257,0.459
			c-0.014,0.381,0.097,0.526,0.097,0.526c-0.37-0.151-1.162,0.224-1.433,0.354c-0.272,0.129-1.104,0.509-1.907,1.105
			C5.893,78.427,5.673,78.393,5.461,78.341z M12.513,78.516c-0.117,0.216-0.631,0.68-1.129,0.963
			c-0.499,0.284-1.54,0.581-2.244,0.698c-0.704,0.117-1.51,0.142-2.312,0.015c-0.802-0.128-1.207-0.361-1.286-0.679
			c-0.078-0.317,0.367-0.718,0.621-0.943c0.254-0.225,0.904-0.612,0.904-0.612s0,0,0.313-0.171c0.313-0.171,0.868-0.489,1.505-0.484
			c0.684,0.005,0.991,0.361,1.295,0.504c0.406,0.19,1.114,0.313,1.418,0.278c0.196-0.023,0.543,0,0.767,0.015
			C12.591,78.115,12.63,78.301,12.513,78.516z M12.793,77.607c-0.608,0.199-1.173,0.071-1.173,0.071
			c-0.315-0.082-0.434-0.341-0.459-0.466c-0.025-0.126-0.056-0.343-0.103-0.464c0,0,0.272-0.269,0.661-0.543
			c1.4-0.985,1.409-1.517,1.409-1.517c0.212-0.857,0.906-0.837,0.906-0.837c0.844-0.307,1.065-0.774,1.065-0.774
			c0.356-0.522,0.981-0.732,0.981-0.732c0.38-0.118,0.626-0.077,0.666,0.197c0.06,0.414-0.008,0.76-0.164,1.028
			c-0.155,0.268-0.345,0.634-0.219,1.483c0.196,1.324-0.801,2.029-0.801,2.029c-0.388,0.328-1.205,0.39-1.205,0.39
			C13.564,77.435,12.793,77.607,12.793,77.607z M43.671,80.713c-0.886,0.169-3.51,0.809-5.328,1.203
			c-1.899,0.411-4.79,0.802-6.953,0.813c-1.767,0.008-4.073-0.378-5.611-0.728c0.931-0.094,1.895-0.21,2.791-0.33
			c1.745,0.4,4.525,0.289,6.243,0.037c1.835-0.271,3.161-0.53,4.395-0.741c0.843-0.145,2.479-0.465,3.935-0.665
			c1.136-0.157,2.34-0.133,3.287-0.115c0.162,0.027,0.333,0.055,0.51,0.085C45.874,80.343,44.334,80.586,43.671,80.713z
			 M29.594,81.528c1.002-0.146,1.842-0.287,2.334-0.393c1.986-0.428,5.096-1.034,7.312-1.203c1.329-0.101,3.126-0.069,4.455-0.012
			c-0.699,0.08-1.534,0.211-2.07,0.307c-1.171,0.211-4.051,0.75-6.161,1.119C33.536,81.683,31.48,81.71,29.594,81.528z
			 M49.585,80.512c-0.206-0.048-2.168-0.475-3.782-0.727c-1.614-0.254-4.273-0.264-6.283-0.206
			c-2.119,0.061-5.472,0.794-7.788,1.223c-2.378,0.439-6.25,0.904-8.212,1.042c-2.395,0.168-5.602-0.515-7.2-1.538
			c-1.011-0.646-1.98-1.648-2.718-2.653c0.096-0.003,0.196,0,0.287,0.007c0.177,0.014,0.547,0,0.889-0.047
			c0.919,1.101,2.564,2.063,3.759,2.55c1.345,0.549,3.993,0.824,6.22,0.713c2.23-0.111,6.816-1.013,8.968-1.408
			c3.144-0.578,5.753-0.67,8.169-0.594c2.56,0.081,4.155,0.24,5.457,0.553c1.075,0.258,1.95,0.65,2.348,0.947
			C49.875,80.51,49.791,80.559,49.585,80.512z"/>
	</g>
	<g id="XMLID_24_">
		<path id="XMLID_79_" fill="#FFFFFF" d="M25.226,65.993v2.853c0,1.691-0.181,3.538-0.298,4.301c-0.12,0.761-0.28,2.521-1.526,3.969
			c0,0-0.37,0.681,0.55,0.149c0.748-0.43,1.693-1.199,2.764-0.525c0.993,0.628,1.771,0.005,2.146-0.073c0,0-0.603-0.359-1.049-1.607
			c-0.447-1.246-0.674-2.8-0.735-3.484c0,0-0.167-2.234-0.167-2.842v-4.817c0-1.177,0.07-2.118,0.138-2.849
			c0.071-0.734,0.248-3.528,2.151-3.617c1.902-0.089,2.327,3.426,2.358,4.308c0.029,0.882,0.088,2.328-0.288,4.042
			c-0.375,1.714-1.277,2.198-2.05,2.187c-0.772-0.008-1.091-0.723-1.01-1.03c0,0,0.032-0.155,0.108-0.155
			c0.079,0.003,0.107,0.067,0.113,0.081c0.01,0.015,0.196,0.227,0.663,0.227c0.469,0,0.974-0.469,0.974-1.287
			c0-0.819-0.632-1.144-1.28-1.144c-0.65,0-1.555,0.526-1.555,1.985c0,1.458,1.015,2.151,2.08,2.151
			c1.066,0,2.335-0.576,3.203-2.112c0.869-1.536,1.052-2.585,1.052-3.867c0-1.279-0.11-2.193-0.519-3.179
			c-0.41-0.988-0.878-1.838-2.114-2.661c-1.231-0.822-3.893-0.656-4.67,2.249c0,0-0.119-1.133-1.745-1.326
			c0,0-0.814-0.126-1.243,0.32c0,0,0.503,0.175,0.867,0.694c0.368,0.523,0.632,1.08,0.797,1.939
			c0.164,0.861,0.286,2.253,0.286,3.564V65.993z"/>
		<path id="XMLID_78_" fill="#FFFFFF" d="M34.053,63.277v0.142c0,0,1.13,0.013,1.13,1.342v3.387v3.009c0,0,0.017,1.432-1.13,1.432
			v0.147h7.498c0,0-0.025-1.727-0.72-2.9h-0.152c0,0,0.282,1.058-0.425,1.749c-0.706,0.691-1.474,0.691-2.208,0.691
			c0,0-0.765,0-0.944-0.241c-0.25-0.353-0.223-0.827-0.223-1.368v-2.785c0-0.158,0.047-0.254,0.36-0.254
			c0.308,0,1.955,0.009,2.317,1.4l0.189-0.049l-0.205-2.704H39.39c0,0-0.165,0.947-1.59,0.947h-0.513
			c-0.172,0-0.407,0.029-0.407-0.397v-2.771c0-0.185,0.099-0.325,0.31-0.325c0.213,0,2.921-0.263,3.236,2.149l0.153-0.026
			l0.204-2.578H34.053z"/>
		<path id="XMLID_77_" fill="#FFFFFF" d="M61.281,72.737h2.145V72.59c-1.148,0-1.127-1.432-1.127-1.432v-3.01v-3.386
			c0-1.33,1.127-1.342,1.127-1.342l0.003-0.142h-2.022h0.079h-2.021l0.001,0.142c0,0,1.129,0.013,1.129,1.342v3.386v3.01
			c0,0,0.02,1.432-1.129,1.432v0.147h2.145H61.281z"/>
		<path id="XMLID_76_" fill="#FFFFFF" d="M99.345,64.839c-1.02-1.921-2.283-2.146-2.867-2.128c-0.585,0.017-1.714,0.516-1.917,1.877
			c-0.204,1.361,0.337,1.726,0.755,1.892c0.419,0.173,1.093-0.04,1.141-0.668c0.037-0.525-0.485-0.823-0.485-0.823
			c-0.144-0.087-0.347-0.43-0.391-1.005v0.001v-0.005c-0.002-0.217,0.047-0.428,0.188-0.59c0.004-0.005,0.009-0.01,0.015-0.015
			c0.003-0.004,0.006-0.01,0.01-0.015c0.255-0.29,0.587-0.316,0.776-0.306c0.015,0,0.049,0.003,0.093,0.011l0.002,0.002
			c0.035,0.006,0.055,0.011,0.055,0.011h0.002c0.402,0.101,0.797,0.565,1.083,1.772c0.476,1.996,0.52,4.021-0.048,5.948
			c-0.574,1.928-1.909,1.805-1.909,1.805c-1.748,0.128-2.194-2.522-2.194-2.522s-0.414-2.125-0.084-4.118
			c0.331-1.992,1.113-2.669,1.194-2.736c0.082-0.066,0.316-0.191,0.247-0.288c-0.066-0.1-0.309,0.016-0.309,0.016
			c-1.017,0.296-3.24,2.256-3.089,5.371c0.155,3.114,2.096,4.236,2.704,4.49c0.607,0.256,1.1,0.337,1.978,0.248
			c0.876-0.088,1.609-0.603,1.989-0.955c0.38-0.354,0.731-0.82,1.136-1.636c0.401-0.814,0.562-1.593,0.585-2.757
			C100.008,67.716,100.044,66.162,99.345,64.839"/>
		<path id="XMLID_72_" fill="#FFFFFF" d="M101.306,68.149v-3.387c0-1.33-1.127-1.342-1.127-1.342l-0.003-0.142h2.023h-0.082h2.024
			l-0.003,0.142c0,0-1.128,0.013-1.128,1.342v3.387v2.289c0,1.266,0.906,2,1.965,2c1.06,0,2.079-0.78,2.079-2.183
			c0-1.403,0-2.105,0-2.105v-3.387c0-1.33-1.479-1.342-1.479-1.342v-0.142h1.254h-0.081h2.021v0.151c0,0-1.131-0.049-1.131,1.334
			v3.387v1.831c0,0.656-0.015,3.118-2.998,3.118c-2.979,0-3.333-1.714-3.333-3.118C101.305,68.577,101.306,68.149,101.306,68.149"/>
		<path id="XMLID_71_" fill="#FFFFFF" d="M111.249,63.277h-2.013l-0.005,0.151c0,0,1.124-0.035,1.124,1.334v3.387v3.009
			c0,0,0.021,1.432-1.128,1.432v0.147h2.143h5.354c0,0-0.027-1.727-0.719-2.9h-0.152c0,0,0.281,1.058-0.423,1.749
			c-0.709,0.691-1.476,0.691-2.21,0.691c0,0-0.766,0-0.944-0.241c-0.254-0.353-0.22-0.827-0.22-1.368v-2.785
			c0-0.158,0.048-0.254,0.356-0.254c0.308,0,1.952,0.009,2.318,1.4l0.191-0.049l-0.207-2.704h-0.149c0,0-0.164,0.947-1.59,0.947
			h-0.513c-0.174,0-0.405,0.029-0.405-0.397v-2.771c0-0.185,0.096-0.325,0.306-0.325c0.214,0,2.921-0.263,3.235,2.149l0.15-0.026
			l0.21-2.578H111.249z"/>
		<path id="XMLID_70_" fill="#FFFFFF" d="M113.125,61.931c0,0.38,0.306,0.684,0.684,0.684c0.377,0,0.681-0.305,0.681-0.684
			c0-0.377-0.304-0.683-0.681-0.683C113.431,61.248,113.125,61.554,113.125,61.931"/>
		<path id="XMLID_69_" fill="#FFFFFF" d="M111.15,61.931c0,0.38,0.307,0.684,0.683,0.684c0.378,0,0.684-0.305,0.684-0.684
			c0-0.377-0.306-0.683-0.684-0.683C111.456,61.248,111.15,61.554,111.15,61.931"/>
		<path id="XMLID_68_" fill="#FFFFFF" d="M124.821,63.033c0,0-0.1,0.244-0.705,0.244h-3.143h-0.219h-3.141
			c-0.605,0-0.703-0.244-0.703-0.244l-0.367,2.706h0.221c0,0,0.766-2.007,2.427-2.007h0.243c0,0,0.579-0.032,0.579,0.443v0.586
			v3.386v3.01c0,0,0.019,1.432-1.129,1.432v0.147h1.815h0.33h1.814V72.59c-1.144,0-1.128-1.432-1.128-1.432v-3.01v-3.386
			l0.002-0.586c0-0.475,0.581-0.443,0.581-0.443h0.243c1.663,0,2.426,2.007,2.426,2.007h0.218L124.821,63.033z"/>
		<path id="XMLID_67_" fill="#FFFFFF" d="M63.816,63.277v0.142c0,0,1.131,0.013,1.131,1.342v3.387v3.009
			c0,0,0.017,1.432-1.131,1.432v0.147h7.497c0,0-0.025-1.727-0.717-2.9h-0.153c0,0,0.284,1.058-0.424,1.749
			c-0.704,0.691-1.475,0.691-2.21,0.691c0,0-0.765,0-0.943-0.241c-0.252-0.353-0.224-0.827-0.224-1.368v-2.785
			c0-0.158,0.049-0.254,0.361-0.254c0.308,0,1.953,0.009,2.317,1.4l0.191-0.049l-0.207-2.704h-0.152c0,0-0.164,0.947-1.589,0.947
			H67.05c-0.171,0-0.407,0.029-0.407-0.397v-2.771c0-0.185,0.1-0.325,0.311-0.325c0.211,0,2.92-0.263,3.236,2.149l0.153-0.026
			l0.204-2.578H63.816z"/>
		<path id="XMLID_66_" fill="#FFFFFF" d="M84.947,60.212c0,0,0.46-0.288,0.975,0.153c0.513,0.444,0.28,1.284,0.245,1.372
			c-0.037,0.09-0.463,1.007-1.789,1.007c-1.331,0-2.398-0.905-2.398-2.144c0-1.243,0.603-2.462,2.78-2.658
			c0,0,0.533-0.043,1.879,0.096c1.351,0.136,2.758,0.282,5.189,0.064v0.138c0,0-0.615,0.159-0.997,0.943
			c-0.379,0.787-0.5,2.131-0.5,3.556v9.39c0,0,0.052,1.736-0.345,2.669c-0.389,0.933-1.536,2.668-4.468,2.668
			c-2.934,0-4.25-2.018-4.25-3.738c0-1.717,1.526-2.823,2.933-2.823c1.409,0,2.368,0.639,2.368,1.762
			c0,1.126-1.051,1.343-1.434,1.343c0,0-1.035,0.095-1.384-0.976c-0.147-0.443,0.219-0.905,0.219-0.905s0.049-0.062,0.011-0.1
			c-0.038-0.036-0.102-0.02-0.202,0.026c-0.099,0.044-0.629,0.254-0.992,1.048c-0.365,0.787-0.156,2.334,1.003,3.037
			c1.161,0.705,2.854,0.705,3.841-0.538c0.986-1.244,0.83-3.136,0.83-3.931v-4.919v-3.208c0-0.999,0.084-2.943-0.494-3.738
			c-0.577-0.795-1.359-1.254-2.594-1.254c-1.233,0-1.929,0.631-1.985,1.308c-0.055,0.677,0.378,1.233,0.897,1.244
			C84.804,61.111,85.333,60.732,84.947,60.212"/>
		<g id="XMLID_36_">
			<path id="XMLID_37_" fill="#FFFFFF" d="M85.608,67.114c0,0.12-0.287,0.981-1.8,0.94c-0.231-0.005-0.475-0.048-0.729-0.149
				c-0.303-0.122-0.525-0.181-0.67-0.181c-0.244,0-0.476,0.102-0.695,0.301c-0.013,0.02-0.028,0.029-0.053,0.029
				c-0.022-0.01-0.037-0.034-0.042-0.066c0-0.12,0.41-1.111,1.66-0.987c0.119,0.012,0.369,0.075,0.745,0.225
				c0.32,0.122,0.553,0.181,0.697,0.181c0.272,0,0.528-0.1,0.765-0.302c0.035-0.039,0.063-0.059,0.087-0.059
				C85.595,67.045,85.608,67.068,85.608,67.114z"/>
		</g>
		<path id="XMLID_33_" fill="#FFFFFF" d="M50.588,72.218c-0.138,0.115-0.298,0.125-0.454,0.125c-1.232,0-0.37-2.48-1.584-3.778
			c-0.49-0.5-1.047-0.692-1.872-0.853c0-0.001,0.002-0.001,0.002-0.001c0.687-0.037,2.995-0.33,2.995-2.37
			c0-2.253-3.448-2.058-3.448-2.058h-4.09v0.143c0,0,1.129,0.323,1.136,2.677v3.403c0,0,0.188,3.076-1.134,3.085v0.147h3.979V72.59
			c-1.222,0.007-1.138-3.022-1.138-3.022v-1.61c0-0.097,0.04-0.131,0.126-0.131h0.871c1.368,0,1.329,1.372,1.356,2.33
			c0.028,1.252,0.406,2.639,2.151,2.639c0.428,0,0.865-0.15,1.185-0.441L50.588,72.218z M44.991,64.037
			c0-0.273,0.236-0.318,0.632-0.361c1.134-0.117,2.61,0.671,2.235,2.17c-0.399,1.602-2.038,1.608-2.411,1.608
			c-0.372,0-0.456-0.131-0.456-0.285V64.037z"/>
		<path id="XMLID_28_" fill="#FFFFFF" d="M59.323,72.218c-0.138,0.115-0.298,0.125-0.454,0.125c-1.232,0-0.369-2.48-1.584-3.778
			c-0.49-0.5-1.047-0.692-1.872-0.853c0.001-0.001,0.002-0.001,0.002-0.001c0.687-0.037,2.995-0.33,2.995-2.37
			c0-2.253-3.448-2.058-3.448-2.058h-4.09v0.143c0,0,1.13,0.323,1.136,2.677v3.403c0,0,0.188,3.076-1.134,3.085v0.147h3.979V72.59
			c-1.222,0.007-1.137-3.022-1.137-3.022v-1.61c0-0.097,0.039-0.131,0.126-0.131h0.871c1.368,0,1.329,1.372,1.356,2.33
			c0.028,1.252,0.406,2.639,2.151,2.639c0.428,0,0.866-0.15,1.185-0.441L59.323,72.218z M53.727,64.037
			c0-0.273,0.236-0.318,0.632-0.361c1.134-0.117,2.61,0.671,2.235,2.17c-0.399,1.602-2.038,1.608-2.411,1.608
			c-0.372,0-0.456-0.131-0.456-0.285V64.037z"/>
		<path id="XMLID_25_" fill="#FFFFFF" d="M80.124,72.218c-0.138,0.115-0.297,0.125-0.454,0.125c-1.232,0-0.369-2.48-1.584-3.778
			c-0.49-0.5-1.047-0.692-1.872-0.853c0.001-0.001,0.002-0.001,0.002-0.001c0.687-0.037,2.995-0.33,2.995-2.37
			c0-2.253-3.448-2.058-3.448-2.058h-4.09v0.143c0,0,1.129,0.323,1.136,2.677v3.403c0,0,0.188,3.076-1.134,3.085v0.147h3.979V72.59
			c-1.222,0.007-1.137-3.022-1.137-3.022v-1.61c0-0.097,0.039-0.131,0.127-0.131h0.871c1.368,0,1.329,1.372,1.356,2.33
			c0.027,1.252,0.406,2.639,2.151,2.639c0.427,0,0.865-0.15,1.185-0.441L80.124,72.218z M74.529,64.037
			c0-0.273,0.236-0.318,0.632-0.361c1.134-0.117,2.61,0.671,2.235,2.17c-0.399,1.602-2.038,1.608-2.411,1.608
			c-0.373,0-0.456-0.131-0.456-0.285V64.037z"/>
	</g>
</g>
</svg>
