<?xml version="1.0" encoding="utf-8"?>
<!-- Generator: Adobe Illustrator 17.0.0, SVG Export Plug-In . SVG Version: 6.00 Build 0)  -->
<!DOCTYPE svg PUBLIC "-//W3C//DTD SVG 1.1//EN" "http://www.w3.org/Graphics/SVG/1.1/DTD/svg11.dtd">
<svg version="1.1" id="Fames" xmlns="http://www.w3.org/2000/svg" xmlns:xlink="http://www.w3.org/1999/xlink" x="0px" y="0px"
	 width="128px" height="128px" viewBox="0 0 128 128" enable-background="new 0 0 128 128" xml:space="preserve">
<g id="XMLID_3_">
	<path id="XMLID_22_" fill="#FFFFFF" d="M26.086,33.046c0.628,0.136,1.269,0.231,1.883,0.415c2.726,0.816,4.6,2.623,5.839,5.132
		c1.137,2.302,1.556,4.767,1.583,7.312c0.046,4.356-1.038,8.478-2.626,12.49c-2.023,5.108-4.075,10.204-6.087,15.316
		c-0.686,1.743-1.174,3.551-1.481,5.401c-0.086,0.519-0.061,1.057-0.087,1.586c0.046,0.007,0.092,0.014,0.138,0.02
		c0.152-0.363,0.302-0.726,0.455-1.088c3.664-8.699,8.328-16.822,14.041-24.338c2.494-3.281,5.157-6.418,8.252-9.159
		c1.958-1.734,4.031-3.307,6.427-4.4c1.111-0.506,2.261-0.847,3.502-0.877c1.833-0.043,2.547,1.673,2.218,2.896
		c-0.209,0.78-0.651,1.401-1.347,1.82c-0.97,0.584-2.106,0.173-2.49-0.897c-0.109-0.303-0.183-0.618-0.283-0.924
		c-0.177-0.544-0.46-0.758-1.019-0.639c-0.486,0.103-0.974,0.266-1.417,0.49c-1.812,0.915-3.356,2.209-4.864,3.547
		c-3.055,2.71-5.644,5.838-8.145,9.048c-6.219,7.982-11.125,16.715-14.95,26.069c-0.103,0.251-0.171,0.521-0.309,0.749
		c-0.069,0.114-0.253,0.181-0.398,0.216c-0.053,0.013-0.185-0.118-0.21-0.204c-0.725-2.559-1.393-5.129-1.474-7.811
		c-0.071-2.347,0.425-4.6,1.224-6.777c1.103-3.001,2.297-5.968,3.465-8.945c1.191-3.037,2.465-6.044,3.307-9.206
		c0.676-2.539,1.189-5.102,1.054-7.751c-0.078-1.521-0.358-2.998-1.064-4.365c-1.174-2.27-3.109-3.448-5.58-3.818
		c-2.923-0.438-5.612,0.302-8.131,1.736c-3.575,2.035-6.204,5.008-8.227,8.537c-2.503,4.365-3.819,9.09-4.08,14.105
		c-0.094,1.802,0.09,3.588,0.773,5.283c1.033,2.564,2.967,3.925,5.705,3.919c4.611-0.009,8.213-2.015,10.782-5.838
		c0.749-1.115,0.663-1.366-0.444-2.1c-0.118-0.078-0.24-0.153-0.351-0.24c-0.741-0.582-0.903-1.643-0.367-2.39
		c0.78-1.089,2.429-1.433,3.528-0.737c0.778,0.493,1.15,1.321,0.982,2.228c-0.219,1.185-0.792,2.21-1.525,3.138
		c-2.08,2.632-4.551,4.798-7.709,6.035c-2.409,0.944-4.93,1.23-7.493,0.794c-2.952-0.502-4.791-2.29-5.683-5.109
		c-0.579-1.828-0.644-3.713-0.511-5.596c0.393-5.534,2.157-10.588,5.444-15.082c2.521-3.446,5.582-6.279,9.423-8.209
		c1.73-0.869,3.549-1.468,5.479-1.702c0.1-0.012,0.196-0.052,0.294-0.08C24.383,33.046,25.234,33.046,26.086,33.046z"/>
	<path id="XMLID_21_" fill="#FFFFFF" d="M126.745,59.218c-0.416,1.024-1.161,1.646-2.255,1.831
		c-1.058,0.179-2.088-0.316-2.469-1.174c-0.385-0.867-0.084-1.888,0.798-2.561c0.812-0.619,1.719-0.794,2.696-0.436
		c0.606,0.222,0.987,0.674,1.23,1.256C126.745,58.495,126.745,58.856,126.745,59.218z"/>
	<path id="XMLID_15_" fill="#FFFFFF" d="M86.768,82.807c0.423-0.825,0.833-1.624,1.243-2.422c0.409-0.797,0.817-1.594,1.272-2.482
		c-0.935,0.818-1.769,1.583-2.64,2.303c-1.327,1.096-2.71,2.128-4.336,2.732c-0.837,0.31-1.732,0.538-2.618,0.626
		c-2.478,0.248-4.443-1.199-5.047-3.666c-0.164-0.671-0.199-1.374-0.273-2.065c-0.03-0.278-0.005-0.562-0.005-0.891
		c-0.5,0.49-0.947,0.962-1.429,1.393c-1.432,1.28-2.853,2.575-4.33,3.801c-0.808,0.67-1.755,1.119-2.833,1.244
		c-1.608,0.187-3.031-1.077-3.505-2.405c-0.52-1.458-0.355-2.914,0.201-4.313c0.374-0.942,0.836-1.86,1.349-2.736
		c1.493-2.549,3.032-5.071,4.553-7.604c0.08-0.133,0.151-0.27,0.23-0.404c0.19-0.323,0.263-0.669,0.023-0.98
		c-0.261-0.337-0.628-0.484-1.065-0.388c-0.889,0.196-1.692,0.599-2.364,1.189c-1.435,1.258-2.833,2.558-4.23,3.858
		c-1.743,1.621-3.419,3.317-4.647,5.37c-1.111,1.857-2.097,3.79-3.13,5.693c-0.314,0.578-0.595,1.173-0.907,1.753
		c-0.057,0.107-0.189,0.246-0.287,0.247c-1.559,0.016-3.119,0.011-4.786,0.011c0.885-1.722,1.726-3.359,2.567-4.995
		c-0.02-0.017-0.04-0.033-0.061-0.05c-0.113,0.095-0.227,0.19-0.339,0.286c-1.879,1.605-3.836,3.096-6.071,4.184
		c-1.357,0.661-2.777,1.094-4.29,1.228c-3.472,0.308-5.982-1.957-6.022-5.444c-0.025-2.172,0.619-4.157,1.75-5.973
		c2.508-4.027,5.991-6.807,10.61-8.063c1.06-0.288,2.149-0.448,3.255-0.295c1.652,0.227,2.428,1.463,1.91,3.055
		c-0.42,1.289-1.264,2.294-2.223,3.213c-1.439,1.378-3.192,2.264-4.956,3.125c-1.588,0.775-3.196,1.511-4.916,1.961
		c-0.1,0.026-0.222,0.101-0.265,0.187c-0.704,1.42-1.521,2.8-1.868,4.362c-0.119,0.533-0.073,1.128,0.018,1.674
		c0.106,0.636,0.571,1.02,1.195,1.187c0.997,0.266,1.977,0.086,2.943-0.155c2.014-0.502,3.754-1.561,5.419-2.753
		c1.85-1.324,3.58-2.793,5.18-4.413c0.143-0.144,0.275-0.311,0.368-0.491c1.713-3.311,3.423-6.623,5.118-9.943
		c0.163-0.319,0.347-0.44,0.708-0.432c1.251,0.027,2.503,0.017,3.755,0.022c0.124,0.001,0.248,0.012,0.443,0.022
		c-1.192,2.427-2.358,4.802-3.525,7.177c0.022,0.014,0.043,0.027,0.065,0.041c0.518-0.616,1.031-1.237,1.556-1.848
		c1.27-1.48,2.581-2.92,4.105-4.148c0.869-0.7,1.786-1.335,2.875-1.63c0.553-0.15,1.143-0.255,1.712-0.237
		c1.402,0.046,2.27,0.876,2.773,2.121c0.677,1.676,0.535,3.366-0.154,4.976c-0.489,1.143-1.173,2.204-1.791,3.29
		c-1.263,2.219-2.542,4.429-3.809,6.645c-0.128,0.223-0.228,0.463-0.327,0.7c-0.145,0.346-0.078,0.662,0.188,0.922
		c0.259,0.254,0.557,0.191,0.82,0.024c1.282-0.817,2.596-1.591,3.821-2.485c1.745-1.273,3.294-2.775,4.721-4.398
		c0.091-0.104,0.19-0.224,0.224-0.353c0.746-2.796,2.342-5.06,4.416-7.014c2.185-2.059,4.67-3.611,7.612-4.347
		c1.179-0.295,2.374-0.514,3.6-0.365c0.972,0.118,1.837,0.46,2.378,1.331c0.185,0.299,0.274,0.658,0.396,0.994
		c0.024,0.065,0.024,0.165-0.01,0.221c-0.343,0.555-0.695,1.104-1.105,1.749c-0.049-0.38-0.069-0.646-0.12-0.906
		c-0.222-1.122-0.957-1.688-2.1-1.606c-0.95,0.068-1.797,0.45-2.604,0.922c-2.113,1.236-3.831,2.92-5.365,4.801
		c-1.683,2.063-3.096,4.289-3.953,6.829c-0.356,1.056-0.624,2.136-0.428,3.266c0.239,1.38,1.044,1.965,2.437,1.802
		c1.205-0.141,2.284-0.622,3.312-1.232c1.9-1.127,3.548-2.573,5.122-4.106c0.629-0.612,1.199-1.287,1.854-1.867
		c0.763-0.676,1.219-1.533,1.674-2.414c2.37-4.583,4.697-9.189,7.158-13.723c2.232-4.112,4.85-7.982,7.933-11.516
		c1.319-1.512,2.786-2.87,4.48-3.963c0.916-0.591,1.877-1.095,2.965-1.277c0.403-0.067,0.825-0.083,1.232-0.049
		c0.9,0.077,1.476,0.681,1.569,1.585c0.154,1.496-0.316,2.858-0.934,4.177c-1.17,2.501-2.815,4.684-4.621,6.749
		c-3.265,3.732-6.977,6.991-10.791,10.142c-0.239,0.197-0.453,0.46-0.594,0.735c-1.023,1.998-2.024,4.008-3.03,6.014
		c-0.044,0.087-0.071,0.182-0.038,0.337c0.136-0.117,0.29-0.217,0.403-0.352c0.689-0.819,1.378-1.639,2.05-2.473
		c1.394-1.727,2.933-3.304,4.822-4.489c0.671-0.421,1.403-0.779,2.153-1.031c1.264-0.425,2.331-0.049,3.153,1.013
		c0.926,1.196,1.119,2.583,0.955,4.036c-0.162,1.444-0.814,2.706-1.541,3.933c-1.422,2.396-2.853,4.787-4.265,7.189
		c-0.247,0.421-0.441,0.876-0.626,1.329c-0.2,0.49-0.013,0.873,0.48,1.088c0.488,0.212,0.933,0.089,1.362-0.169
		c1.464-0.879,2.872-1.839,4.086-3.048c1.188-1.183,2.392-2.357,3.484-3.626c0.638-0.742,1.1-1.645,1.59-2.504
		c1.574-2.756,3.128-5.523,4.679-8.292c0.137-0.244,0.284-0.35,0.571-0.344c1.213,0.022,2.426,0.02,3.638,0.028
		c0.089,0.001,0.177,0.016,0.329,0.03c-0.114,0.244-0.209,0.461-0.316,0.672c-2.342,4.641-4.69,9.279-7.02,13.926
		c-0.311,0.62-0.55,1.28-0.775,1.938c-0.255,0.747,0.266,1.339,1.023,1.116c0.558-0.164,1.104-0.441,1.588-0.768
		c1.573-1.061,2.896-2.403,4.125-3.838c0.487-0.568,0.977-1.136,1.421-1.737c0.219-0.296,0.422-0.372,0.738-0.209
		c0.125,0.064,0.261,0.107,0.409,0.166c-0.017,0.057-0.019,0.111-0.045,0.148c-1.898,2.685-4.048,5.123-6.84,6.919
		c-0.472,0.304-1.003,0.532-1.533,0.726c-1.01,0.37-1.911,0.135-2.653-0.639c-1.149-1.199-1.48-2.68-1.416-4.283
		c0.014-0.345,0.066-0.689,0.111-1.134c-0.16,0.155-0.264,0.254-0.366,0.356c-1.441,1.442-2.879,2.891-4.554,4.068
		c-0.609,0.428-1.254,0.827-1.932,1.13c-2.345,1.047-4.522-0.142-5.005-2.672c-0.383-2.002,0.132-3.829,1.12-5.528
		c1.114-1.918,2.325-3.78,3.481-5.673c0.477-0.781,0.933-1.575,1.375-2.376c0.148-0.267,0.254-0.567,0.324-0.866
		c0.143-0.606-0.262-1.126-0.877-1.063c-0.424,0.043-0.891,0.153-1.235,0.386c-0.787,0.532-1.589,1.08-2.246,1.758
		c-3.835,3.954-7.417,8.115-10.163,12.927c-0.486,0.851-0.907,1.738-1.38,2.597c-0.07,0.127-0.261,0.266-0.397,0.266
		c-1.484,0.006-2.967-0.014-4.451-0.029C86.921,82.844,86.873,82.827,86.768,82.807z M101.714,62.951
		c0.029,0.021,0.058,0.043,0.087,0.064c0.099-0.078,0.205-0.15,0.297-0.235c0.978-0.899,1.961-1.792,2.928-2.702
		c2.861-2.688,5.65-5.437,7.738-8.81c0.869-1.404,1.819-2.764,2.387-4.325c0.253-0.696,0.43-1.435,0.521-2.17
		c0.115-0.932-0.604-1.477-1.447-1.081c-0.617,0.29-1.239,0.683-1.696,1.18c-0.93,1.012-1.836,2.068-2.601,3.208
		c-2.865,4.269-5.276,8.799-7.533,13.413C102.16,61.975,101.941,62.465,101.714,62.951z M39.031,73.511
		c0.037,0.034,0.075,0.069,0.112,0.103c0.059-0.015,0.12-0.023,0.176-0.045c1.795-0.726,3.553-1.526,5.196-2.561
		c2.003-1.26,3.553-2.925,4.585-5.064c0.223-0.462,0.22-0.895-0.079-1.312c-0.284-0.397-0.685-0.336-1.089-0.26
		c-1.079,0.204-1.939,0.817-2.758,1.494c-1.826,1.509-3.27,3.359-4.623,5.282C40.012,71.913,39.536,72.722,39.031,73.511z"/>
	<path id="XMLID_11_" fill="#FFFFFF" d="M118.053,90.507c-0.936-0.996-0.997-2.087-0.178-2.876c0.773-0.745,2.209-0.728,2.957,0.035
		c0.775,0.79,0.697,1.914-0.232,2.838c0.684,0.491,0.989,1.158,0.852,1.997c-0.078,0.476-0.301,0.876-0.683,1.176
		c-0.916,0.719-2.415,0.596-3.134-0.253C116.905,92.565,117.064,91.41,118.053,90.507z M119.348,90.959
		c-0.615-0.011-1.126,0.496-1.137,1.128c-0.01,0.611,0.474,1.121,1.08,1.137c0.628,0.017,1.143-0.473,1.157-1.101
		C120.461,91.497,119.963,90.97,119.348,90.959z M119.337,90.058c0.601-0.002,1.002-0.419,0.996-1.035
		c-0.006-0.583-0.421-1.01-0.987-1.015c-0.578-0.006-1.022,0.439-1.026,1.027C118.315,89.63,118.742,90.06,119.337,90.058z"/>
	<path id="XMLID_7_" fill="#FFFFFF" d="M110.265,90.503c1.013,0.933,1.144,2.158,0.339,3.005c-0.79,0.831-2.379,0.854-3.201,0.046
		c-0.843-0.828-0.733-2.027,0.306-3.075c-0.516-0.402-0.801-0.925-0.754-1.594c0.036-0.524,0.234-0.974,0.636-1.322
		c0.804-0.696,2.204-0.625,2.928,0.146C111.258,88.497,111.168,89.563,110.265,90.503z M110.093,92.086
		c-0.009-0.635-0.515-1.138-1.134-1.127c-0.615,0.011-1.117,0.542-1.101,1.165c0.016,0.633,0.524,1.116,1.157,1.1
		C109.624,93.209,110.102,92.704,110.093,92.086z M108.967,90.058c0.599,0.005,1.024-0.417,1.024-1.015
		c0-0.596-0.43-1.035-1.013-1.035c-0.57,0-0.985,0.419-0.998,1.005C107.967,89.625,108.371,90.053,108.967,90.058z"/>
	<path id="XMLID_5_" fill="#FFFFFF" d="M112.16,87.168c0.152-0.011,0.241-0.023,0.329-0.023c1.249-0.001,2.499-0.001,3.841-0.001
		c-0.033,0.387,0.013,0.777-0.107,1.105c-0.683,1.862-1.409,3.709-2.112,5.563c-0.075,0.199-0.177,0.289-0.394,0.275
		c-0.252-0.017-0.506-0.004-0.819-0.004c0.778-2.028,1.532-3.991,2.309-6.016c-0.667,0-1.257-0.009-1.846,0.011
		c-0.069,0.002-0.181,0.157-0.191,0.249c-0.027,0.251-0.009,0.507-0.009,0.752c-0.083,0.028-0.118,0.05-0.154,0.05
		c-1.033-0.001-0.821,0.135-0.845-0.812C112.152,87.948,112.16,87.577,112.16,87.168z"/>
	<path id="XMLID_4_" fill="#FFFFFF" d="M103.575,88.362c-0.386,0.331-0.772,0.662-1.16,0.995c-0.601-0.959,1.085-2.574,2.236-2.165
		c0,2.268,0,4.546,0,6.858c-0.311,0-0.623,0-0.975,0c0-1.882,0-3.759,0-5.636C103.642,88.397,103.609,88.379,103.575,88.362z"/>
</g>
</svg>
