<?xml version="1.0" encoding="utf-8"?>
<!-- Generator: Adobe Illustrator 17.0.0, SVG Export Plug-In . SVG Version: 6.00 Build 0)  -->
<!DOCTYPE svg PUBLIC "-//W3C//DTD SVG 1.1//EN" "http://www.w3.org/Graphics/SVG/1.1/DTD/svg11.dtd">
<svg version="1.1" id="Fames" xmlns="http://www.w3.org/2000/svg" xmlns:xlink="http://www.w3.org/1999/xlink" x="0px" y="0px"
	 width="128px" height="128px" viewBox="0 0 128 128" enable-background="new 0 0 128 128" xml:space="preserve">
<g id="XMLID_670_">
	<path id="XMLID_682_" fill="#FFFFFF" d="M63.528,82.704l0.007-0.013c-0.005,0-0.009-0.001-0.014-0.001l-24-48l-1.59-3.181
		c-3.819,5.584-6.054,12.337-6.054,19.613c0,17.657,13.156,32.239,30.201,34.484c0.982,0.129,1.977,0.218,2.983,0.262
		c0.017,0.001,0.035,0.002,0.051,0.002l-0.026-0.052L63.528,82.704z"/>
	<path id="XMLID_681_" fill="#FFFFFF" d="M91.496,26.769c-6.313-6.437-15.106-10.432-24.835-10.432
		c-9.712,0-18.493,3.982-24.803,10.4l1.456,2.912L66.685,76.39L90.04,29.682L91.496,26.769z"/>
	<path id="XMLID_680_" fill="#FFFFFF" d="M95.37,31.477l-1.589,3.178L69.799,82.618l-0.037,0.075l-1.542,3.082l-0.048,0.098
		c0.032-0.002,0.064-0.002,0.095-0.005c1.019-0.046,2.027-0.136,3.022-0.268c17.023-2.264,30.156-16.837,30.156-34.478
		C101.446,43.832,99.202,37.068,95.37,31.477"/>
	<polygon id="XMLID_679_" fill="#FFFFFF" points="117.581,96.724 117.581,96.724 115.316,96.724 115.316,97.84 115.316,98.989 
		115.316,111.663 117.581,111.663 117.581,98.989 124.226,98.989 124.226,96.724 	"/>
	<polygon id="XMLID_678_" fill="#FFFFFF" points="66.408,111.663 66.408,111.663 64.143,111.663 64.143,110.546 64.143,109.398 
		64.143,96.724 66.408,96.724 66.408,109.398 73.053,109.398 73.053,111.663 	"/>
	<path id="XMLID_675_" fill="#FFFFFF" d="M39.36,109.386c-2.87,0-5.204-2.334-5.204-5.205c0-2.87,2.334-5.204,5.204-5.204
		c2.869,0,5.205,2.334,5.205,5.204C44.564,107.052,42.228,109.386,39.36,109.386 M46.822,103.874L46.822,103.874v-0.005
		c0-0.004-0.001-0.007-0.001-0.008c-0.08-1.927-0.893-3.726-2.287-5.065c-1.397-1.343-3.235-2.084-5.174-2.084
		c-4.118,0-7.47,3.351-7.47,7.469c0,4.12,3.352,7.471,7.47,7.471c1.94,0,3.777-0.741,5.174-2.084
		c1.394-1.34,2.207-3.138,2.287-5.066c0-0.002,0.001-0.005,0.001-0.007v-0.005c0.006-0.112,0.006-0.212,0.006-0.309
		C46.828,104.086,46.828,103.985,46.822,103.874"/>
	<polygon id="XMLID_674_" fill="#FFFFFF" points="6.046,96.724 3.774,96.724 10.094,109.366 11.231,111.64 12.368,109.366 
		11.231,107.095 	"/>
	<polygon id="XMLID_673_" fill="#FFFFFF" points="16.417,96.724 11.231,107.095 12.367,109.366 18.688,96.724 	"/>
	<polygon id="XMLID_672_" fill="#FFFFFF" points="99.322,111.64 101.595,111.64 95.271,98.995 94.136,96.724 92.998,98.995 
		94.136,101.268 	"/>
	<polygon id="XMLID_671_" fill="#FFFFFF" points="88.951,111.64 94.136,101.268 92.998,98.995 86.677,111.64 	"/>
</g>
</svg>
