<?xml version="1.0" encoding="utf-8"?>
<!-- Generator: Adobe Illustrator 17.0.0, SVG Export Plug-In . SVG Version: 6.00 Build 0)  -->
<!DOCTYPE svg PUBLIC "-//W3C//DTD SVG 1.1//EN" "http://www.w3.org/Graphics/SVG/1.1/DTD/svg11.dtd">
<svg version="1.1" id="Fames" xmlns="http://www.w3.org/2000/svg" xmlns:xlink="http://www.w3.org/1999/xlink" x="0px" y="0px"
	 width="128px" height="128px" viewBox="0 0 128 128" enable-background="new 0 0 128 128" xml:space="preserve">
<g id="XMLID_433_">
	<polygon id="XMLID_460_" fill="#FFFFFF" points="24.318,5.214 34.671,5.214 47.49,35.747 62.769,3.194 78.18,35.747 91.262,5.233 
		101.589,5.214 78.049,58.58 62.818,24.949 47.33,58.474 	"/>
	<polygon id="XMLID_459_" fill="#FFFFFF" points="25.636,88.393 18.315,88.393 18.315,94.55 16.524,94.55 16.524,81.075 
		18.315,81.075 18.315,86.811 25.636,86.811 25.636,81.075 27.448,81.075 27.448,94.55 25.636,94.55 	"/>
	<g id="XMLID_434_">
		<path id="XMLID_456_" fill="#FFFFFF" d="M45.54,87.709c0.018,2.765-1.186,5.776-4.804,5.776c-3.469,0-4.861-2.82-4.861-5.645
			c0-3.031,1.449-5.641,4.843-5.641C43.821,82.199,45.521,84.45,45.54,87.709 M47.483,87.691c0-4.386-2.992-6.939-6.765-6.939
			c-3.339,0-6.786,2.076-6.786,7.072c0,4.194,2.629,7.072,6.727,7.072C45.119,94.895,47.483,91.73,47.483,87.691"/>
		<polygon id="XMLID_455_" fill="#FFFFFF" points="58.408,82.657 58.408,94.551 56.596,94.551 56.596,82.657 52.555,82.657 
			52.555,81.073 62.429,81.073 62.429,82.657 		"/>
		<polygon id="XMLID_454_" fill="#FFFFFF" points="71.388,88.412 71.388,92.989 79.166,92.989 79.166,94.551 69.655,94.551 
			69.655,81.091 78.937,81.091 78.937,82.675 71.388,82.675 71.388,86.832 77.947,86.832 77.947,88.412 		"/>
		<polygon id="XMLID_453_" fill="#FFFFFF" points="88.64,92.948 95.163,92.948 95.163,94.55 86.848,94.55 86.848,81.075 
			88.64,81.075 		"/>
		<path id="XMLID_452_" fill="#FFFFFF" d="M105.322,88.336c-1.945-0.4-4.804-1.047-4.804-3.831c0-1.335,0.724-2.171,1.239-2.612
			c1.202-1.031,2.669-1.143,3.602-1.143c0.955,0,2.402,0.094,3.625,0.992c1.333,0.973,1.6,2.343,1.733,3.165l-1.81,0.11
			c-0.02-0.418-0.075-1.484-1.088-2.227c-0.686-0.498-1.543-0.649-2.4-0.649c-1.623,0-3.051,0.667-3.051,2.116
			c0,1.486,1.488,1.829,2.649,2.096l1.488,0.382c1.029,0.247,1.584,0.363,2.116,0.59c2.023,0.839,2.324,2.459,2.324,3.357
			c0,1.257-0.512,2.439-1.714,3.259c-1.298,0.876-2.841,0.951-3.663,0.951c-1.218,0-5.392-0.19-5.696-4.629l1.923-0.249
			c0.022,0.512,0.08,1.696,1.09,2.592c0.761,0.667,1.773,0.896,2.763,0.896c1.904,0,3.353-0.935,3.353-2.688
			c0-1.563-1.239-1.984-2.551-2.251L105.322,88.336z"/>
		<polygon id="XMLID_451_" fill="#FFFFFF" points="15.262,113.505 16.429,113.505 18.35,119.936 18.374,119.936 20.444,113.505 
			21.566,113.505 23.635,119.936 23.658,119.936 25.578,113.505 26.748,113.505 24.213,121.74 23.137,121.74 21.009,115.01 
			20.986,115.01 18.87,121.74 17.795,121.74 		"/>
		<path id="XMLID_448_" fill="#FFFFFF" d="M33.799,113.298c2.567,0,4.141,1.757,4.141,4.327c0,2.565-1.573,4.327-4.141,4.327
			c-2.568,0-4.141-1.761-4.141-4.327C29.658,115.055,31.231,113.298,33.799,113.298 M33.799,121.069
			c2.037,0,2.961-1.631,2.961-3.445c0-1.816-0.925-3.449-2.961-3.449c-2.035,0-2.959,1.633-2.959,3.449
			C30.839,119.438,31.764,121.069,33.799,121.069"/>
		<path id="XMLID_445_" fill="#FFFFFF" d="M42.102,113.505h3.725c1.296,0,2.649,0.498,2.649,2.371c0,1.053-0.475,2.069-1.908,2.302
			l2.267,3.561h-1.318l-2.223-3.492H43.19v3.492h-1.088V113.505z M43.19,117.299h2.463c1.018,0,1.735-0.324,1.735-1.422
			c0-1.086-0.716-1.422-1.735-1.422H43.19V117.299z"/>
		<polygon id="XMLID_444_" fill="#FFFFFF" points="52.824,113.505 53.912,113.505 53.912,120.793 58.018,120.793 58.018,121.74 
			52.824,121.74 		"/>
		<path id="XMLID_441_" fill="#FFFFFF" d="M62.261,113.504h3.11c2.51,0,3.645,1.69,3.645,4.163c0,2.349-1.18,4.072-3.645,4.072
			h-3.11V113.504z M63.348,120.792h1.839c1.955,0,2.649-1.318,2.649-3.227c0-1.876-0.729-3.11-2.557-3.11h-1.931V120.792z"/>
		<polygon id="XMLID_440_" fill="#FFFFFF" points="72.39,113.505 73.559,113.505 75.478,119.936 75.502,119.936 77.572,113.505 
			78.694,113.505 80.766,119.936 80.786,119.936 82.709,113.505 83.874,113.505 81.341,121.74 80.268,121.74 78.139,115.01 
			78.115,115.01 76,121.74 74.923,121.74 		"/>
		<rect id="XMLID_439_" x="87.863" y="113.505" fill="#FFFFFF" width="1.088" height="8.235"/>
		<path id="XMLID_436_" fill="#FFFFFF" d="M93.726,113.504h3.11c2.508,0,3.643,1.69,3.643,4.163c0,2.349-1.18,4.072-3.643,4.072
			h-3.11V113.504z M94.812,120.792h1.839c1.955,0,2.649-1.318,2.649-3.227c0-1.876-0.727-3.11-2.555-3.11h-1.933V120.792z"/>
		<polygon id="XMLID_435_" fill="#FFFFFF" points="104.179,113.505 109.963,113.505 109.963,114.454 105.265,114.454 
			105.265,116.997 109.348,116.997 109.348,117.946 105.265,117.946 105.265,120.793 110.077,120.793 110.077,121.74 
			104.179,121.74 		"/>
	</g>
</g>
</svg>
